<svg xmlns="http://www.w3.org/2000/svg" width="392.014" height="126.573" viewBox="0 0 392.014 126.573">
  <g id="Group_3" data-name="Group 3" transform="translate(0.142 -0.744)">
    <path id="Path_9" data-name="Path 9" d="M342.046,85.5H7.118S.944,87.269.489,85.5,2.5,82.91,5.3,78.422c5-8.02,12.576-22.544,12.576-36.569,0-13.3-6.813-26.155-12.059-34.136C2.921,3.312.261,2.3.489.5S6.728.5,6.728.5H96.613c6.54,4.2,11.02,8.09,14.092,12.247,2.808,3.8,4.238,7.493,5.895,11.768a90.773,90.773,0,0,0,5.285,11.755,30.167,30.167,0,0,0,16.336,13.753,33.507,33.507,0,0,0,9.88,2.056l.421.006v-.024a32.63,32.63,0,0,0,9.633-2.05,29.1,29.1,0,0,0,15.8-13.554,91.327,91.327,0,0,0,5.286-11.814c1.658-4.3,3.089-8.011,5.9-11.832C188.215,8.631,192.7,4.718,199.239.5H342.046L304.94,37.865,324.6,69.572l8.531,9.041,8.733,3.852Z" transform="translate(-0.073 40.531)" fill="#fff"/>
    <path id="Path_9_-_Outline" data-name="Path 9 - Outline" d="M2.41,86.786c-1.4,0-2.207-.391-2.4-1.162-.319-1.243.445-2.064,1.6-3.307a25.694,25.694,0,0,0,3.267-4.159c4.669-7.483,12.5-22.151,12.5-36.3,0-12.928-6.513-25.55-11.977-33.862A26.482,26.482,0,0,0,1.89,3.756C.7,2.537-.161,1.657-.007.437.064-.128.507-.8,2.208-.8A19.75,19.75,0,0,1,6.8,0H96.613l.27.079C103.476,4.309,108,8.24,111.107,12.449c2.848,3.854,4.289,7.575,5.958,11.884a90.342,90.342,0,0,0,5.257,11.7,29.673,29.673,0,0,0,16.069,13.525,33.252,33.252,0,0,0,9.716,2.025l.369,0,.022-.023a31.936,31.936,0,0,0,9.479-2.019,28.614,28.614,0,0,0,15.54-13.326,90.869,90.869,0,0,0,5.258-11.754c1.671-4.334,3.114-8.074,5.963-11.948,3.111-4.23,7.632-8.181,14.23-12.433l.271-.08H342.046l.355.852L305.573,37.937,325,69.266l8.427,8.93,8.64,3.811.3.428.178,3.035-.5.529H7.187A21.236,21.236,0,0,1,2.41,86.786ZM2.208.2C1.639.2,1.019.294.985.563c-.09.709.463,1.31,1.62,2.494A27.724,27.724,0,0,1,6.233,7.442c5.539,8.426,12.141,21.236,12.141,34.411,0,14.4-7.927,29.26-12.652,36.834A26.571,26.571,0,0,1,2.339,83C1.237,84.182.8,84.69.973,85.375c.065.253.616.411,1.436.411a21,21,0,0,0,4.57-.767L7.118,85h334.4l-.129-2.2-8.453-3.728-.162-.114-8.531-9.041-.061-.08L304.515,38.129l.07-.616L340.845,1H199.387c-6.425,4.154-10.825,8-13.842,12.106-2.77,3.766-4.19,7.449-5.835,11.713A91.741,91.741,0,0,1,174.394,36.7a29.588,29.588,0,0,1-16.067,13.782,32.978,32.978,0,0,1-9.786,2.081v0l-.028.027-.421-.006a34.191,34.191,0,0,1-10.045-2.086,30.66,30.66,0,0,1-16.6-13.982A91.166,91.166,0,0,1,116.133,24.7c-1.644-4.243-3.062-7.906-5.83-11.652C107.285,8.961,102.887,5.132,96.466,1H6.728L6.584.979A19.518,19.518,0,0,0,2.208.2Z" transform="translate(-0.073 40.531)" fill="#707070"/>
    <path id="Path_10" data-name="Path 10" d="M341.557,85V1H199.27c-6.448,4.166-10.865,8.027-13.891,12.141-2.77,3.766-4.189,7.447-5.833,11.711a91.915,91.915,0,0,1-5.316,11.879A29.526,29.526,0,0,1,158.2,50.487a33.468,33.468,0,0,1-9.34,2.051v.052l-.84-.011a33.9,33.9,0,0,1-10-2.077,30.59,30.59,0,0,1-16.562-13.956,91.133,91.133,0,0,1-5.314-11.82c-1.642-4.24-3.061-7.9-5.829-11.647C107.3,8.986,102.881,5.145,96.435,1H.831V85H341.557m.831,1H0V0H96.643c6.635,4.248,11.178,8.192,14.3,12.414,2.849,3.855,4.291,7.578,5.961,11.889a90.305,90.305,0,0,0,5.255,11.69,29.745,29.745,0,0,0,16.111,13.551,33.036,33.036,0,0,0,9.764,2.034v-.007a31.2,31.2,0,0,0,9.925-2.039A28.683,28.683,0,0,0,173.536,36.18a90.881,90.881,0,0,0,5.256-11.751c1.671-4.334,3.115-8.076,5.964-11.951,3.122-4.244,7.667-8.209,14.3-12.478H342.388ZM147.676.086V0h51.189Z" transform="translate(0 40.531)" fill="none"/>
    <g id="Component_5_1" data-name="Component 5 – 1" transform="translate(51.825 58.736)">
      <text id="Overview" transform="translate(0 47.856)" fill="#f10" font-size="10" font-family="SegoeUI-Semibold, Segoe UI" font-weight="600"><tspan x="0" y="0">Overview</tspan></text>
      <path id="Overview_-_Outline" data-name="Overview - Outline" d="M32.427.617a2.725,2.725,0,0,1-2.1-.842,3.215,3.215,0,0,1-.76-2.255,3.159,3.159,0,0,1,.827-2.244,2.752,2.752,0,0,1,2.081-.892,2.457,2.457,0,0,1,1.968.835,2.518,2.518,0,0,1,.284.41L34.4-5.5h2.23l.625,2.478.7-2.478h1.834l.591,2.379L40.956-5.5H43.1l-1.77,6H39.382l-.629-2.349L38.071.5H36.159L35.1-3.1q.022.226.022.47v.935h-.391V-.036L34.5.111A3.856,3.856,0,0,1,32.427.617ZM30.971-3.857a2.246,2.246,0,0,0-.4,1.377,2.262,2.262,0,0,0,.5,1.578,1.5,1.5,0,0,0,.571.388,1.776,1.776,0,0,1-.33-.241,1.926,1.926,0,0,1-.588-1.423l-.009-.315h-.064l.077-.567A2.314,2.314,0,0,1,30.971-3.857Zm.858,2.165a.72.72,0,0,0,.153.2,1.106,1.106,0,0,0,.782.244,1.965,1.965,0,0,0,1.179-.385l.084-.06Zm3.9-2.808.8,2.723L35.846-4.5Zm-1.7,1.808h.091a2.591,2.591,0,0,0-.244-1.144A2.283,2.283,0,0,1,34.03-3Zm-2.111-.8h1.017a.58.58,0,0,0-.08-.129.462.462,0,0,0-.4-.16.6.6,0,0,0-.466.2A.919.919,0,0,0,31.922-3.493ZM15.327.617a2.725,2.725,0,0,1-2.1-.842,3.215,3.215,0,0,1-.76-2.255A3.159,3.159,0,0,1,13.3-4.725a2.752,2.752,0,0,1,2.081-.892,2.457,2.457,0,0,1,1.968.835,3.228,3.228,0,0,1,.681,2.155v.935h-.391V-.036L17.4.111A3.856,3.856,0,0,1,15.327.617ZM13.872-3.857a2.246,2.246,0,0,0-.4,1.377,2.262,2.262,0,0,0,.5,1.578,1.5,1.5,0,0,0,.571.388,1.776,1.776,0,0,1-.33-.241,1.926,1.926,0,0,1-.588-1.423l-.009-.315h-.064l.077-.567A2.314,2.314,0,0,1,13.872-3.857Zm.858,2.165a.72.72,0,0,0,.153.2,1.106,1.106,0,0,0,.782.244,1.965,1.965,0,0,0,1.179-.385l.084-.06Zm2.2-1h.091a2.591,2.591,0,0,0-.244-1.144A2.283,2.283,0,0,1,16.931-3Zm-2.111-.8h1.017a.58.58,0,0,0-.08-.129.462.462,0,0,0-.4-.16.6.6,0,0,0-.466.2A.918.918,0,0,0,14.822-3.493ZM3.75.617A3.643,3.643,0,0,1,.959-.524,4.1,4.1,0,0,1-.085-3.418,4.317,4.317,0,0,1,.975-6.452,3.753,3.753,0,0,1,3.862-7.619,3.573,3.573,0,0,1,6.605-6.482a3.7,3.7,0,0,1,.651.982H9.2l.906,2.858L11.05-5.5h2.282l-2.32,6H9.095L7.637-3.458A4.272,4.272,0,0,1,6.583-.539,3.694,3.694,0,0,1,3.75.617Zm.112-7.236a2.759,2.759,0,0,0-2.152.845,3.312,3.312,0,0,0-.8,2.356A3.1,3.1,0,0,0,1.692-1.2,2.648,2.648,0,0,0,3.75-.383a2.7,2.7,0,0,0,2.1-.836,3.325,3.325,0,0,0,.79-2.37A3.11,3.11,0,0,0,5.87-5.8,2.578,2.578,0,0,0,3.862-6.619ZM8.319-4.5,9.382-1.614,8.467-4.5Zm3.453,0L11.18-2.708,11.873-4.5ZM29.411.5H27.278V-4.3L25.421.5H23.5L22-3.574v.682l-.809-.636a.48.48,0,0,0-.282-.054.512.512,0,0,0-.438.252,1.565,1.565,0,0,0-.238.937V.5H18.1v-6h2.133v.12a1.608,1.608,0,0,1,.8-.208A1.61,1.61,0,0,1,21.6-5.5h2.008l.906,2.858L25.459-5.5h3.952Zm-1.133-1h.133v-4h-.133ZM19.1-.5h.133V-2.393A2.921,2.921,0,0,1,19.42-3.47h-.184V-4.5H19.1Zm3.625-4,1.063,2.886L22.876-4.5Zm3.453,0-.592,1.792L26.282-4.5ZM3.755-.4a2.377,2.377,0,0,1-1.919-.9,3.363,3.363,0,0,1-.7-2.2A3.335,3.335,0,0,1,1.856-5.7,2.436,2.436,0,0,1,3.8-6.6a2.393,2.393,0,0,1,1.941.865,3.459,3.459,0,0,1,.678,2.257,3.322,3.322,0,0,1-.7,2.225A2.467,2.467,0,0,1,3.755-.4ZM3.8-5.6a1.458,1.458,0,0,0-1.182.539,2.34,2.34,0,0,0-.486,1.568,2.367,2.367,0,0,0,.472,1.562,1.383,1.383,0,0,0,1.147.53,1.491,1.491,0,0,0,1.207-.5,2.37,2.37,0,0,0,.461-1.574,2.51,2.51,0,0,0-.45-1.62A1.419,1.419,0,0,0,3.8-5.6ZM28.35-5.55a1.185,1.185,0,0,1-.813-.312,1.093,1.093,0,0,1-.361-.828,1.109,1.109,0,0,1,.356-.829,1.174,1.174,0,0,1,.818-.321,1.2,1.2,0,0,1,.828.319,1.105,1.105,0,0,1,.36.831,1.1,1.1,0,0,1-.358.816A1.191,1.191,0,0,1,28.35-5.55Zm0-1.289a.172.172,0,0,0-.134.05.114.114,0,0,0-.04.1.1.1,0,0,0,.035.09.183.183,0,0,0,.139.05A.189.189,0,0,0,28.5-6.6a.1.1,0,0,0,.042-.087.11.11,0,0,0-.04-.1A.193.193,0,0,0,28.35-6.839Z" transform="translate(0 47.856)" fill="rgba(0,0,0,0)"/>
      <g id="House_Icon" data-name="House Icon" transform="translate(8.964)">
        <path id="Path" d="M19.38,11.05H12.333a.75.75,0,0,1-.75-.75V2.832a1.379,1.379,0,0,0-.425-.948.734.734,0,0,0-.535-.2l-.052,0H8.809l-.052,0a.734.734,0,0,0-.535.2,1.379,1.379,0,0,0-.425.948V10.3a.75.75,0,0,1-.75.75H0a.75.75,0,0,1-.75-.75V0A.75.75,0,0,1,0-.75.75.75,0,0,1,.75,0V9.55H6.3V2.81q0-.02,0-.041A2.889,2.889,0,0,1,7.229.76a2.225,2.225,0,0,1,1.6-.573h1.715a2.225,2.225,0,0,1,1.6.573,2.889,2.889,0,0,1,.931,2.009q0,.02,0,.041V9.55H18.63V0a.75.75,0,0,1,.75-.75.75.75,0,0,1,.75.75V10.3A.75.75,0,0,1,19.38,11.05Z" transform="translate(3.113 26.553)"/>
        <path id="Path-2" data-name="Path" d="M25.606,14.023a.748.748,0,0,1-.555-.245L13.461,1.06a.856.856,0,0,0-1.317,0L.554,13.778a.75.75,0,0,1-1.06.049.75.75,0,0,1-.049-1.06L11.041.044l.009-.01a2.353,2.353,0,0,1,3.505,0l.009.01,11.6,12.724a.75.75,0,0,1-.554,1.255Z" transform="translate(0 -0.001)"/>
      </g>
    </g>
    <path id="Path_11" data-name="Path 11" d="M22.523,56.5a17.934,17.934,0,0,1-8.565-2.2,22.5,22.5,0,0,1-7-6,29.259,29.259,0,0,1-4.725-8.9,35.183,35.183,0,0,1,0-21.815,29.259,29.259,0,0,1,4.725-8.9,22.5,22.5,0,0,1,7-6,17.8,17.8,0,0,1,17.129,0,22.5,22.5,0,0,1,7,6,29.258,29.258,0,0,1,4.725,8.9,35.184,35.184,0,0,1,0,21.815,29.258,29.258,0,0,1-4.725,8.9,22.5,22.5,0,0,1-7,6A17.934,17.934,0,0,1,22.523,56.5Z" transform="translate(124.571 22.531)" fill="#00d0e4"/>
    <path id="Path_11_-_Outline" data-name="Path 11 - Outline" d="M22.523,57a18.429,18.429,0,0,1-8.8-2.256,22.994,22.994,0,0,1-7.156-6.126,29.757,29.757,0,0,1-4.806-9.053,35.683,35.683,0,0,1,0-22.131A29.757,29.757,0,0,1,6.565,8.382a22.993,22.993,0,0,1,7.156-6.126,18.3,18.3,0,0,1,17.6,0A22.993,22.993,0,0,1,38.48,8.382a29.756,29.756,0,0,1,4.806,9.053,35.683,35.683,0,0,1,0,22.131,29.756,29.756,0,0,1-4.806,9.053,22.994,22.994,0,0,1-7.156,6.126A18.429,18.429,0,0,1,22.523,57Zm0-56a17.439,17.439,0,0,0-8.328,2.137A22,22,0,0,0,7.351,9a28.76,28.76,0,0,0-4.643,8.75,34.683,34.683,0,0,0,0,21.5A28.761,28.761,0,0,0,7.351,48a22,22,0,0,0,6.844,5.864,17.3,17.3,0,0,0,16.656,0A22,22,0,0,0,37.694,48a28.76,28.76,0,0,0,4.643-8.75,34.684,34.684,0,0,0,0-21.5A28.759,28.759,0,0,0,37.694,9,22,22,0,0,0,30.85,3.137,17.439,17.439,0,0,0,22.523,1Z" transform="translate(124.571 22.531)" fill="#707070"/>
    <path id="Path_12" data-name="Path 12" d="M22.438,1a17.579,17.579,0,0,0-8.4,2.153A22.072,22.072,0,0,0,7.175,9.035a28.74,28.74,0,0,0-4.641,8.743,34.588,34.588,0,0,0,0,21.443,28.74,28.74,0,0,0,4.641,8.743,22.073,22.073,0,0,0,6.868,5.882,17.445,17.445,0,0,0,16.79,0A22.073,22.073,0,0,0,37.7,47.965a28.741,28.741,0,0,0,4.641-8.743,34.589,34.589,0,0,0,0-21.443A28.741,28.741,0,0,0,37.7,9.035a22.072,22.072,0,0,0-6.868-5.882A17.579,17.579,0,0,0,22.438,1m0-1C34.83,0,44.876,12.76,44.876,28.5S34.83,57,22.438,57,0,44.24,0,28.5,10.046,0,22.438,0Z" transform="translate(124.656 22.531)" fill="#707070"/>
    <path id="Path_12_-_Outline" data-name="Path 12 - Outline" d="M22.438-.5a18.783,18.783,0,0,1,8.971,2.3A23.416,23.416,0,0,1,38.7,8.038a30.277,30.277,0,0,1,4.89,9.21,36.278,36.278,0,0,1,0,22.5,30.277,30.277,0,0,1-4.89,9.21A23.416,23.416,0,0,1,31.409,55.2a18.649,18.649,0,0,1-17.941,0,23.416,23.416,0,0,1-7.288-6.239,30.277,30.277,0,0,1-4.89-9.21,36.278,36.278,0,0,1,0-22.5,30.277,30.277,0,0,1,4.89-9.21A23.416,23.416,0,0,1,13.468,1.8,18.783,18.783,0,0,1,22.438-.5Zm0,56A17.084,17.084,0,0,0,30.6,53.407a21.577,21.577,0,0,0,6.711-5.751,28.242,28.242,0,0,0,4.559-8.592,34.089,34.089,0,0,0,0-21.127,28.242,28.242,0,0,0-4.559-8.592A21.576,21.576,0,0,0,30.6,3.593a16.945,16.945,0,0,0-16.317,0A21.576,21.576,0,0,0,7.568,9.345a28.242,28.242,0,0,0-4.559,8.592,34.088,34.088,0,0,0,0,21.127,28.242,28.242,0,0,0,4.559,8.592,21.577,21.577,0,0,0,6.712,5.751A17.084,17.084,0,0,0,22.438,55.5Z" transform="translate(124.656 22.531)" fill="#707070"/>
    <text id="Overview-2" data-name="Overview" transform="translate(259.88 106.592)" fill="#f10" font-size="10" font-family="SegoeUI-Semibold, Segoe UI" font-weight="600"><tspan x="0" y="0">timer</tspan></text>
    <path id="Overview_-_Outline-2" data-name="Overview - Outline" d="M17.856.617a2.725,2.725,0,0,1-2.1-.842A3.215,3.215,0,0,1,15-2.48a3.159,3.159,0,0,1,.827-2.244,2.752,2.752,0,0,1,2.081-.892,2.457,2.457,0,0,1,1.968.835,3.228,3.228,0,0,1,.681,2.155v.935h-.391V-.036l-.234.147A3.856,3.856,0,0,1,17.856.617ZM16.4-3.857A2.246,2.246,0,0,0,16-2.48a2.262,2.262,0,0,0,.5,1.578,1.5,1.5,0,0,0,.571.388,1.776,1.776,0,0,1-.33-.241,1.926,1.926,0,0,1-.588-1.423l-.009-.315h-.064l.077-.567A2.314,2.314,0,0,1,16.4-3.857Zm.858,2.165a.72.72,0,0,0,.153.2,1.106,1.106,0,0,0,.782.244,1.965,1.965,0,0,0,1.179-.385l.084-.06Zm2.2-1h.091a2.591,2.591,0,0,0-.244-1.144A2.283,2.283,0,0,1,19.46-3Zm-2.111-.8h1.017a.58.58,0,0,0-.08-.129.462.462,0,0,0-.4-.16.6.6,0,0,0-.465.2A.919.919,0,0,0,17.351-3.493ZM2.5.612a1.754,1.754,0,0,1-1.955-1.9V-3.611H-.29V-5.5H.545V-6.535l2.133-.607V-5.5H5.983v6H3.851V.267L3.6.394A2.422,2.422,0,0,1,2.5.612ZM1.545-4.611v3.327c0,.588.209.843.758.889a.961.961,0,0,1-.346-.258,1.433,1.433,0,0,1-.279-.958V-5.817l-.133.038ZM4.851-.5h.133v-4H4.851ZM2.718-1.306a.463.463,0,0,0,.158.02.279.279,0,0,0,.188-.058l.787-.622V-3.611H2.678v2A.8.8,0,0,0,2.718-1.306ZM22.766.5H20.633v-6h2.133v.12a1.608,1.608,0,0,1,.8-.208,1.416,1.416,0,0,1,.718.159l.251.144v2.392l-.809-.636a.48.48,0,0,0-.282-.054A.512.512,0,0,0,23-3.33a1.565,1.565,0,0,0-.238.937Zm-1.133-1h.133V-2.393A2.921,2.921,0,0,1,21.95-3.47h-.184V-4.5h-.133ZM14.938.5H12.806V-2.725a1.72,1.72,0,0,0-.145-.871c-.022-.036-.075-.119-.327-.119-.055,0-.184,0-.344.23a1.315,1.315,0,0,0-.22.778V.5H9.632V-2.817c0-.9-.316-.9-.486-.9a.389.389,0,0,0-.345.208,1.379,1.379,0,0,0-.2.8V.5H6.463v-6H8.6v.142a2.311,2.311,0,0,1,1.1-.259,1.983,1.983,0,0,1,1.2.383,2,2,0,0,1,.283.252,2.229,2.229,0,0,1,1.61-.635c.8,0,2.15.329,2.15,2.536Zm-1.133-1h.133V-3.081c0-1.252-.5-1.5-1.022-1.533a1.2,1.2,0,0,1,.59.484,2.635,2.635,0,0,1,.3,1.4Zm-3.174,0h.138V-2.705a2.606,2.606,0,0,1,.07-.611l-.189-.62a.927.927,0,0,0-.348-.493.991.991,0,0,0-.609-.188c.451.171.939.627.939,1.8ZM7.463-.5H7.6V-2.705a2.6,2.6,0,0,1,.182-1H7.6V-4.5H7.463ZM4.922-5.55a1.185,1.185,0,0,1-.813-.312,1.093,1.093,0,0,1-.361-.828A1.109,1.109,0,0,1,4.1-7.518a1.174,1.174,0,0,1,.818-.321,1.2,1.2,0,0,1,.828.319,1.105,1.105,0,0,1,.36.831,1.1,1.1,0,0,1-.358.816A1.191,1.191,0,0,1,4.922-5.55Zm0-1.289a.172.172,0,0,0-.134.05.114.114,0,0,0-.04.1.1.1,0,0,0,.035.09.183.183,0,0,0,.139.05A.189.189,0,0,0,5.068-6.6a.1.1,0,0,0,.042-.087.11.11,0,0,0-.04-.1A.193.193,0,0,0,4.922-6.839Z" transform="translate(259.88 106.592)" fill="rgba(0,0,0,0)"/>
    <g id="_6" data-name="6" transform="translate(265.343 58.397)">
      <path id="Path_18" data-name="Path 18" d="M122.759,33.644h-.507V28.8a6.159,6.159,0,0,0-1-3.386l-5.236-7.987,5.236-8.051a6.235,6.235,0,0,0,1-3.409V1.085h.507a.523.523,0,0,0,.507-.543A.523.523,0,0,0,122.759,0H104.507A.523.523,0,0,0,104,.542a.523.523,0,0,0,.507.543h.507V5.969a6.236,6.236,0,0,0,1,3.409l5.236,8.051-5.236,7.987a6.159,6.159,0,0,0-1,3.386v4.842h-.507a.432.432,0,0,0-.435.252.641.641,0,0,0,0,.581.432.432,0,0,0,.435.252h18.252a.433.433,0,0,0,.435-.252.641.641,0,0,0,0-.581A.433.433,0,0,0,122.759,33.644ZM106.028,28.8a5.024,5.024,0,0,1,.816-2.763l5.435-8.3a.574.574,0,0,0,0-.621l-5.435-8.362a5.1,5.1,0,0,1-.817-2.789V1.085h15.208V5.969a5.1,5.1,0,0,1-.817,2.789l-5.435,8.362a.574.574,0,0,0,0,.621l5.435,8.3a5.024,5.024,0,0,1,.816,2.763v4.842H106.026Z" transform="translate(-104 0.002)"/>
      <path id="Path_19" data-name="Path 19" d="M281.521,464h-1.014a.382.382,0,0,0-.45.194.585.585,0,0,0,0,.576.382.382,0,0,0,.45.194h1.014a.382.382,0,0,0,.45-.194.585.585,0,0,0,0-.576A.382.382,0,0,0,281.521,464Z" transform="translate(-268.846 -432.16)"/>
      <path id="Path_20" data-name="Path 20" d="M195.7,157.862a.512.512,0,0,0,.429-.225c.112-.161,2.186-3,3.561-4.881a.464.464,0,0,0,.033-.5.509.509,0,0,0-.45-.259h-7.147a.509.509,0,0,0-.45.259.464.464,0,0,0,.033.5c1.375,1.881,3.449,4.72,3.561,4.881A.512.512,0,0,0,195.7,157.862Zm2.6-4.9c-1.451,1.985-2.208,3.023-2.6,3.567-.4-.544-1.153-1.582-2.6-3.567Z" transform="translate(-186.063 -141.417)"/>
      <path id="Path_21" data-name="Path 21" d="M162.166,336.2a.514.514,0,0,0-.416-.2h-6.316a.514.514,0,0,0-.416.2l-2.384,3.232a3.181,3.181,0,0,0-.632,1.9v2.854a.491.491,0,0,0,.507.482h6.084a.382.382,0,0,0,.45-.194.585.585,0,0,0,0-.576.382.382,0,0,0-.45-.194h-5.579v-2.372a2.255,2.255,0,0,1,.449-1.348l2.233-3.027h5.792l2.233,3.027a2.256,2.256,0,0,1,.449,1.348v2.372h-.507a.382.382,0,0,0-.45.194.585.585,0,0,0,0,.576.382.382,0,0,0,.45.194h1.014a.491.491,0,0,0,.507-.482v-2.854a3.182,3.182,0,0,0-.632-1.9Z" transform="translate(-148.959 -311.871)"/>
      <path id="Path_22" data-name="Path 22" d="M326.862,75.769a.523.523,0,0,0,.289.086.515.515,0,0,0,.416-.207l.555-.758a3.243,3.243,0,0,0,.636-1.926v-.482a.508.508,0,0,0-1.014,0v.482a2.315,2.315,0,0,1-.454,1.376l-.555.758a.485.485,0,0,0-.08.375.41.41,0,0,0,.208.3Z" transform="translate(-312.535 -67.661)"/>
      <path id="Path_23" data-name="Path 23" d="M344.507,33.446a.491.491,0,0,0,.507-.482v-.482a.508.508,0,0,0-1.014,0v.482a.491.491,0,0,0,.507.482Z" transform="translate(-328.79 -30.07)"/>
    </g>
    <text id="Overview-3" data-name="Overview" transform="translate(125.961 106.592)" fill="#0094ff" font-size="10" font-family="SegoeUI-Semibold, Segoe UI" font-weight="600"><tspan x="0" y="0">AllTasks</tspan></text>
    <g id="testing-checklist-file-or-to-do-list-black-outline-17464" transform="translate(135.34 30.934)">
      <path id="Path_1" data-name="Path 1" d="M56.327,7.725,50.351.533A1.388,1.388,0,0,0,49.281,0H33.325a1.691,1.691,0,0,0-1.512,1.82V38.305a1.691,1.691,0,0,0,1.512,1.82H55.257a1.691,1.691,0,0,0,1.512-1.82V9.012a2.007,2.007,0,0,0-.443-1.287ZM55.505,8h-4.71a.749.749,0,0,1-.671-.807V1.522Zm.524,30.308a.862.862,0,0,1-.772.929H33.327a.862.862,0,0,1-.772-.929V1.82a.862.862,0,0,1,.772-.929H49.283a.649.649,0,0,1,.1.009V7.19A1.576,1.576,0,0,0,50.8,8.89H56.02a1.062,1.062,0,0,1,.01.123Z" transform="translate(-31.813 0)" fill="#fff"/>
      <path id="Path_2" data-name="Path 2" d="M62.179,70.309c-2.331,0-4.222,2.274-4.222,5.08s1.89,5.08,4.221,5.08,4.222-2.274,4.222-5.08-1.891-5.077-4.222-5.08Zm0,9.269c-1.923,0-3.481-1.875-3.481-4.189S60.256,71.2,62.179,71.2s3.481,1.875,3.481,4.189-1.559,4.187-3.481,4.189Z" transform="translate(-54.508 -59.154)" fill="#fff"/>
      <path id="Path_3" data-name="Path 3" d="M78.154,89.652l-2.1,2.776-.587-.963a.351.351,0,0,0-.342-.193.385.385,0,0,0-.3.269.521.521,0,0,0,.05.451l.854,1.4a.358.358,0,0,0,.279.181h.02a.346.346,0,0,0,.273-.145L78.7,90.25a.512.512,0,0,0,.091-.443.406.406,0,0,0-.281-.307.338.338,0,0,0-.358.151Z" transform="translate(-69.127 -75.305)" fill="#fff"/>
      <path id="Path_4" data-name="Path 4" d="M146.547,86.714h-6.554a.454.454,0,0,0,0,.892h6.554a.454.454,0,0,0,0-.892Z" transform="translate(-125.406 -72.956)" fill="#fff"/>
      <path id="Path_5" data-name="Path 5" d="M146.547,112.327h-6.554a.454.454,0,0,0,0,.892h6.554a.454.454,0,0,0,0-.892Z" transform="translate(-125.406 -94.505)" fill="#fff"/>
      <path id="Path_6" data-name="Path 6" d="M62.178,152.268c-2.333,0-4.224,2.275-4.223,5.082s1.891,5.081,4.223,5.08,4.222-2.275,4.222-5.082S64.509,152.271,62.178,152.268Zm0,9.269c-1.923,0-3.481-1.875-3.481-4.189s1.559-4.189,3.481-4.189,3.481,1.875,3.481,4.189-1.559,4.187-3.481,4.19Z" transform="translate(-54.508 -128.109)" fill="#fff"/>
      <path id="Path_7" data-name="Path 7" d="M146.547,168.673h-6.554a.454.454,0,0,0,0,.892h6.554a.454.454,0,0,0,0-.892Z" transform="translate(-125.406 -141.911)" fill="#fff"/>
      <path id="Path_8" data-name="Path 8" d="M146.547,194.286h-6.554a.454.454,0,0,0,0,.892h6.554a.454.454,0,0,0,0-.892Z" transform="translate(-125.406 -163.46)" fill="#fff"/>
      <path id="Path_9-2" data-name="Path 9" d="M80.717,169.724a.33.33,0,0,0-.521.067l-.975,1.451-.975-1.451a.346.346,0,0,0-.351-.178.394.394,0,0,0-.3.288.517.517,0,0,0,.071.45l1.075,1.6-1.075,1.6a.517.517,0,0,0-.071.45.394.394,0,0,0,.3.288.346.346,0,0,0,.351-.178l.975-1.451.975,1.451a.346.346,0,0,0,.351.178.394.394,0,0,0,.3-.288.517.517,0,0,0-.071-.45l-1.075-1.6,1.075-1.6a.51.51,0,0,0,.081-.327.476.476,0,0,0-.136-.3Z" transform="translate(-71.55 -142.712)" fill="#fff"/>
    </g>
    <text id="Overview-4" data-name="Overview" transform="translate(180.488 106.592)" fill="#f10" font-size="10" font-family="SegoeUI-Semibold, Segoe UI" font-weight="600"><tspan x="0" y="0">Stop Watch</tspan></text>
    <path id="Overview_-_Outline-3" data-name="Overview - Outline" d="M17.053,2.8H14.92V-5.5h2.133v.192a2.413,2.413,0,0,1,1.219-.309,2.275,2.275,0,0,1,1.876.858,3.3,3.3,0,0,1,.641,2.108,3.611,3.611,0,0,1-.71,2.314A2.473,2.473,0,0,1,18.047.6a2.206,2.206,0,0,1-.994-.223Zm-1.133-1h.133V-1.237h.184a1.872,1.872,0,0,1-.194-.853v-.62a2.239,2.239,0,0,1,.181-.911h-.171V-4.5H15.92Zm2.591-6.4a1.572,1.572,0,0,1,.671.494,2.288,2.288,0,0,1,.444,1.467,2.772,2.772,0,0,1-.455,1.665,1.681,1.681,0,0,1-.568.5A1.422,1.422,0,0,0,19.3-.961a2.649,2.649,0,0,0,.491-1.69,2.34,2.34,0,0,0-.424-1.486A1.219,1.219,0,0,0,18.511-4.6Zm-.625.89a.728.728,0,0,0-.595.255,1.1,1.1,0,0,0-.248.749v.62a.822.822,0,0,0,.218.59.648.648,0,0,0,.518.219.662.662,0,0,0,.585-.286,1.824,1.824,0,0,0,.262-1.074,1.335,1.335,0,0,0-.225-.842A.6.6,0,0,0,17.886-3.714ZM44.37.617a2.9,2.9,0,0,1-2.154-.845,2.818,2.818,0,0,1-.393-.5V.255l-.276.138a2.423,2.423,0,0,1-1.1.219,1.754,1.754,0,0,1-1.955-1.9V-3.611h-.706q.017.173.017.359V.5h-2.1V.376a2.221,2.221,0,0,1-1.038.242,2.087,2.087,0,0,1-1.5-.54,1.888,1.888,0,0,1-.571-1.42,2.091,2.091,0,0,1,.488-1.4v-2.19l.245-.145a4.022,4.022,0,0,1,2.081-.539,2.123,2.123,0,0,1,2.249,1.385V-5.5h.835V-6.535l2.133-.607V-5.5h1.2v1.364a2.937,2.937,0,0,1,.444-.582,3.12,3.12,0,0,1,2.322-.9A3.376,3.376,0,0,1,46-5.333L46.3-5.2v2.374l-.8-.6a1.329,1.329,0,0,0-.814-.291,1.045,1.045,0,0,0-.813.329,1.286,1.286,0,0,0-.322.929,1.208,1.208,0,0,0,.292.879,1.048,1.048,0,0,0,.8.3,1.317,1.317,0,0,0,.84-.325l.813-.652V.059L46.041.2A3.3,3.3,0,0,1,44.37.617ZM39.494-4.611v3.327c0,.588.209.843.758.889a.961.961,0,0,1-.346-.258,1.433,1.433,0,0,1-.279-.958V-5.817l-.133.038Zm-5.719,2.6a1.1,1.1,0,0,0-.179.671.9.9,0,0,0,.264.7.894.894,0,0,0,.416.219,1.234,1.234,0,0,1-.2-.147,1.164,1.164,0,0,1-.394-.893A1.478,1.478,0,0,1,33.775-2.014Zm9.831-2.427a1.874,1.874,0,0,0-.624.423,2.215,2.215,0,0,0-.592,1.635,1.968,1.968,0,0,0,.54,1.454,1.736,1.736,0,0,0,.77.458,1.888,1.888,0,0,1-.581-.413,2.182,2.182,0,0,1-.572-1.572,2.267,2.267,0,0,1,.6-1.615A2.049,2.049,0,0,1,43.606-4.441ZM36.706-.5h.1V-3.252c0-.692-.206-1.092-.684-1.264a1.507,1.507,0,0,1,.59,1.313v1.182a1.916,1.916,0,0,1-.14.74h.135Zm-1-1.38-.472.066a1.188,1.188,0,0,0-.516.151.361.361,0,0,0-.034.2.169.169,0,0,0,.06.147.373.373,0,0,0,.275.076.621.621,0,0,0,.491-.2A.742.742,0,0,0,35.7-1.88Zm4.965.574a.463.463,0,0,0,.158.02.279.279,0,0,0,.188-.058l.44-.348a3.6,3.6,0,0,1-.064-.69,3.727,3.727,0,0,1,.194-1.229h-.956v2A.8.8,0,0,0,40.668-1.306ZM35.2-3.772a1.9,1.9,0,0,0-1.239.456,3.435,3.435,0,0,1,.7-.171l.967-.137C35.539-3.744,35.4-3.772,35.2-3.772ZM11.665.617a2.97,2.97,0,0,1-2.2-.85A2.777,2.777,0,0,1,9.03-.8V.255L8.754.394a2.422,2.422,0,0,1-1.1.219A1.754,1.754,0,0,1,5.7-1.284V-3.611H4.866V-5l-.437-.315a2.087,2.087,0,0,0-1.241-.335,2.258,2.258,0,0,0-.422.04,1.041,1.041,0,0,0-.31.107.5.5,0,0,0-.167.144.21.21,0,0,0-.032.132.321.321,0,0,0,.032.157.559.559,0,0,0,.152.161,2.44,2.44,0,0,0,.38.227c.173.086.377.18.606.281l.03.014c.257.134.5.276.732.424a3.772,3.772,0,0,1,.658.535,2.547,2.547,0,0,1,.485.7,2.159,2.159,0,0,1,.191.916A2.246,2.246,0,0,1,5.241-.66,2.235,2.235,0,0,1,4.5.105a3.087,3.087,0,0,1-1,.4A5.244,5.244,0,0,1,2.393.617a4.7,4.7,0,0,1-.484-.03C1.724.568,1.534.54,1.342.5A5.352,5.352,0,0,1,.781.366,2.075,2.075,0,0,1,.274.144L.042,0V-2.6l.836.76a1.358,1.358,0,0,0,.28.191,2.475,2.475,0,0,0,.392.164,3.231,3.231,0,0,0,.431.108,2.171,2.171,0,0,0,.372.036,1.47,1.47,0,0,0,.81-.158A.308.308,0,0,0,3.3-1.8a.268.268,0,0,0-.038-.159.768.768,0,0,0-.2-.2A3.035,3.035,0,0,0,2.628-2.4c-.19-.091-.4-.187-.614-.287L1.986-2.7c-.247-.132-.482-.268-.7-.4a3.372,3.372,0,0,1-.628-.508A2.315,2.315,0,0,1,.208-4.3a2.243,2.243,0,0,1-.171-.9,2.11,2.11,0,0,1,.3-1.118,2.381,2.381,0,0,1,.74-.759,3.2,3.2,0,0,1,.98-.418A4.448,4.448,0,0,1,3.12-7.619a4.229,4.229,0,0,1,1.823.3l.278.138V-5.5H5.7V-6.535l2.133-.607V-5.5h1.2v1.342A2.713,2.713,0,0,1,9.5-4.766a3.141,3.141,0,0,1,2.291-.851,2.888,2.888,0,0,1,2.189.844,3.15,3.15,0,0,1,.792,2.254,3.114,3.114,0,0,1-.848,2.266A3.026,3.026,0,0,1,11.665.617ZM6.7-4.611v3.327c0,.588.209.843.758.889a.961.961,0,0,1-.346-.258,1.433,1.433,0,0,1-.279-.958V-5.817L6.7-5.78ZM2.444-3.593c.218.1.425.2.617.288a4.027,4.027,0,0,1,.577.333A1.756,1.756,0,0,1,4.1-2.5a1.267,1.267,0,0,1,.2.706A1.3,1.3,0,0,1,3.726-.675a1.626,1.626,0,0,1-.375.187A2.054,2.054,0,0,0,3.964-.74a1.228,1.228,0,0,0,.414-.426,1.27,1.27,0,0,0,.146-.645,1.17,1.17,0,0,0-.1-.495,1.549,1.549,0,0,0-.3-.426,2.772,2.772,0,0,0-.484-.392c-.2-.128-.412-.252-.636-.369s-.45-.2-.633-.294a3.428,3.428,0,0,1-.538-.325,1.545,1.545,0,0,1-.419-.464,1.3,1.3,0,0,1-.164-.653,1.2,1.2,0,0,1,.222-.718,1.494,1.494,0,0,1,.493-.433,1.913,1.913,0,0,1,.308-.136,2.194,2.194,0,0,0-.662.282,1.37,1.37,0,0,0-.432.442,1.114,1.114,0,0,0-.149.6,1.258,1.258,0,0,0,.088.5,1.3,1.3,0,0,0,.259.388,2.372,2.372,0,0,0,.442.356C2.015-3.832,2.223-3.711,2.444-3.593Zm8.079-.715a1.816,1.816,0,0,0-.326.255,2.14,2.14,0,0,0-.571,1.611,2.035,2.035,0,0,0,.547,1.507,1.731,1.731,0,0,0,.476.343A1.79,1.79,0,0,1,10.3-.906a2.318,2.318,0,0,1-.512-1.565,2.431,2.431,0,0,1,.5-1.6A1.8,1.8,0,0,1,10.523-4.308Zm2.186-.148a1.637,1.637,0,0,1,.428.379,2.483,2.483,0,0,1,.468,1.587,2.453,2.453,0,0,1-.47,1.579q-.044.055-.092.1A1.82,1.82,0,0,0,13.2-.953a2.124,2.124,0,0,0,.563-1.567,2.166,2.166,0,0,0-.517-1.565A1.572,1.572,0,0,0,12.709-4.455Zm-.99.742a.8.8,0,0,0-.665.284,1.477,1.477,0,0,0-.27.96,1.362,1.362,0,0,0,.269.911.818.818,0,0,0,.667.279.738.738,0,0,0,.639-.259,1.508,1.508,0,0,0,.248-.95,1.537,1.537,0,0,0-.25-.962A.733.733,0,0,0,11.719-3.714ZM7.875-1.306a.463.463,0,0,0,.158.02.279.279,0,0,0,.188-.058l.472-.373a3.8,3.8,0,0,1-.066-.724,3.846,3.846,0,0,1,.168-1.17h-.96v2A.8.8,0,0,0,7.875-1.306ZM51.857.5H49.725V-2.734c0-.984-.332-.984-.491-.984a.535.535,0,0,0-.449.241,1.219,1.219,0,0,0-.233.787V.5H46.414V-7.9h2.138v2.567a2.323,2.323,0,0,1,1.141-.282c.809,0,2.165.329,2.165,2.536Zm-1.133-1h.133V-3.081c0-1.27-.518-1.509-1.058-1.534a1.286,1.286,0,0,1,.593.49,2.466,2.466,0,0,1,.332,1.391Zm-3.311,0h.138V-2.69a2.41,2.41,0,0,1,.191-.979h-.191V-6.9h-.138ZM31.47.5H29.393L28.321-3.439,27.247.5h-2.1l-2.238-8H25.23L26.26-3.345,27.424-7.5h1.963l1.044,4.061L31.413-7.5h2.25Zm-1.313-1h.55l.058-.211H30.1ZM25.9-.5h.581l.055-.2h-.693Zm-1.678-6,1.482,5.3a3.234,3.234,0,0,0-.083-.553L24.448-6.5Zm4.615.884v.011a2.865,2.865,0,0,0,.086.582l.967,3.552c-.014-.086-.031-.165-.049-.236ZM32.2-6.5,31.053-1.763l1.3-4.739Zm-4.136.421h.655L28.611-6.5h-.429Z" transform="translate(180.488 106.592)" fill="rgba(0,0,0,0)"/>
    <g id="_3" data-name="3" transform="translate(194.051 58.398)">
      <path id="Path_10-2" data-name="Path 10" d="M31.677,31.178,36.593,23a.73.73,0,0,0-.055-.816.461.461,0,0,0-.678-.066l-6.8,5.918a2.5,2.5,0,0,0-.728,2.289,2.094,2.094,0,0,0,1.441,1.732,1.729,1.729,0,0,0,1.9-.879Z" transform="translate(-14.103 -9.591)"/>
      <path id="Path_11-2" data-name="Path 11" d="M40.168,11.387c0-.012,0-.025-.011-.037s-.017-.018-.023-.029a15.829,15.829,0,0,0-1.872-2.8l1.127-1.25.742.823,2.227-2.469-2.227-2.47L37.9,5.625l.743.823L37.52,7.7A14.457,14.457,0,0,0,35,5.624c-.01-.008-.016-.019-.027-.026s-.022-.006-.033-.013A13.151,13.151,0,0,0,29.544,3.6V2.91h.787a1.386,1.386,0,0,0,1.312-1.455A1.387,1.387,0,0,0,30.33,0H25.605a1.386,1.386,0,0,0-1.312,1.455A1.386,1.386,0,0,0,25.605,2.91h.787v.673a13.144,13.144,0,0,0-1.692.311.485.485,0,0,0-.322.248.681.681,0,0,0-.072.452.525.525,0,0,0,.629.437,12.149,12.149,0,0,1,1.5-.282l.521-.049c.176-.015.332-.025.485-.033h0V5.821a.527.527,0,1,0,1.05,0V4.674A12.048,12.048,0,0,1,33.978,6.33l-.518.994a.657.657,0,0,0-.053.452.543.543,0,0,0,.245.348.482.482,0,0,0,.262.078.518.518,0,0,0,.455-.291l.516-.992a14.03,14.03,0,0,1,4.08,4.524l-.894.572a.544.544,0,0,0-.244.349.656.656,0,0,0,.054.451.517.517,0,0,0,.455.291.482.482,0,0,0,.262-.078l.9-.574a15.686,15.686,0,0,1,1.5,6.181H39.956a.466.466,0,0,0-.454.276.687.687,0,0,0,0,.612.466.466,0,0,0,.454.276h1.037a15.686,15.686,0,0,1-1.5,6.181l-.9-.58a.5.5,0,0,0-.717.213.657.657,0,0,0-.053.452.543.543,0,0,0,.245.348l.894.572A14.022,14.022,0,0,1,34.89,31.5l-.516-.991a.5.5,0,0,0-.717-.213.542.542,0,0,0-.245.348.655.655,0,0,0,.053.452l.518.994A12.048,12.048,0,0,1,28.5,33.746V32.6a.527.527,0,1,0-1.05,0v1.15a12.02,12.02,0,0,1-2.507-.359.524.524,0,0,0-.629.437.681.681,0,0,0,.072.452.485.485,0,0,0,.322.248,12.857,12.857,0,0,0,3.18.4h.1a13.036,13.036,0,0,0,6.939-2.08.423.423,0,0,0,.049-.023c.011-.007.017-.018.027-.026a15.14,15.14,0,0,0,5.13-5.682.542.542,0,0,0,.032-.045.31.31,0,0,0,.011-.037,17.146,17.146,0,0,0,0-15.641Z" transform="translate(-12.193 0.001)"/>
      <path id="Path_12-2" data-name="Path 12" d="M18.968,13H16.343a1.172,1.172,0,0,0-1.05,1.264,1.172,1.172,0,0,0,1.05,1.264h2.624a1.172,1.172,0,0,0,1.05-1.264A1.172,1.172,0,0,0,18.967,13Z" transform="translate(-7.937 -5.478)"/>
      <path id="Path_13" data-name="Path 13" d="M16.592,20h-5.25a1.285,1.285,0,0,0,0,2.527h5.25a1.285,1.285,0,0,0,0-2.527Z" transform="translate(-5.564 -8.429)"/>
      <path id="Path_14" data-name="Path 14" d="M14.217,27H6.343a1.285,1.285,0,0,0,0,2.527h7.874a1.285,1.285,0,0,0,0-2.527Z" transform="translate(-3.194 -11.379)"/>
      <path id="Path_15" data-name="Path 15" d="M12.317,34H2.345a1.285,1.285,0,0,0,0,2.527h9.972a1.285,1.285,0,0,0,0-2.527Z" transform="translate(-1.294 -14.329)"/>
      <path id="Path_16" data-name="Path 16" d="M15.167,41H8.343a1.285,1.285,0,0,0,0,2.527h6.824a1.285,1.285,0,0,0,0-2.527Z" transform="translate(-4.145 -17.28)"/>
      <path id="Path_17" data-name="Path 17" d="M18.017,48H14.343a1.285,1.285,0,0,0,0,2.527h3.675a1.285,1.285,0,0,0,0-2.527Z" transform="translate(-6.987 -20.655)"/>
    </g>
    <path id="Path_23-2" data-name="Path 23" d="M109.271,5.907A101.1,101.1,0,0,1,89.577,3.941C81.844,2.448,74.324.834,66.328-.219a108.366,108.366,0,0,0-16.871-.974C35.128-.834,20.1.5,5.705,5.47c-2.35.814-3.6,1.951-5.908,2.923.088.97,2.395,2.673,2.558,3.3,1.488,1.7,2.017,3.63,3.7,5.088.231-.67-.034-2.837-.051-5.1A4.72,4.72,0,0,1,8.065,8l3.116-1.735,3.255-1.72-2.222,5.08a11.947,11.947,0,0,0-.483,7.128,17.267,17.267,0,0,0,3.734,6.115c.452-1.032,1.1-2.334,2.014-3.974A38.3,38.3,0,0,1,24.9,9.641l4.025-3.489L26.669,7.99c-.013.039,6.438-6.941,9.007-1.422.061.132-.428,4.963.3,7.288.889,2.17.691,2.121,2.013,3.265A13.312,13.312,0,0,0,40.551,19.1c.2.124-.359-4.638.717-7.525S50,6.438,50,6.438L48.1,11.03c-.01.021-.922,2.311.149,6.706a12.719,12.719,0,0,0,2.639,5.146,51.249,51.249,0,0,1,2.392-6.722,15.6,15.6,0,0,1,7.751-7.536,34.023,34.023,0,0,0-.694,8.851c.131,3.718,2.058,6.342,3.073,8.055.807-1.424,1.937-3.353,3.306-5.528a22.343,22.343,0,0,1,6.822-7.078l1.178-.689.752.867c.362.416.918,1.6.588,4.82-.177,1.7-.5,4.029-.753,5.827,1.16-.709,2.821-1.794,5.128-3.43a72.308,72.308,0,0,0,9.084-7.7,27.138,27.138,0,0,1-2.253,7.965c-.639,1.363-1.266,2.665-1.811,3.783a81.667,81.667,0,0,0,8.1-3.923,54.98,54.98,0,0,0,10.34-8.02L107.6,7.659l-1.677,5.633c-.029.1-.319,1.047-1.618,4.5a25.758,25.758,0,0,1-2.054,4.047,125.061,125.061,0,0,0,11.279-6.369c4.3-2.927,9.048-7.963,12.534-11.932C121.189,5.468,114.609,5.886,109.271,5.907Z" transform="translate(286.237 94.393) rotate(-47)" fill="#fff"/>
    <path id="Path_23_-_Outline" data-name="Path 23 - Outline" d="M51.813-1.722A110.7,110.7,0,0,1,66.393-.715C72.822.132,79.064,1.364,85.1,2.555c1.5.3,3.041.6,4.571.9a100.472,100.472,0,0,0,19.25,1.958h.348c7.284-.029,12.718-.793,16.615-2.338l.56.795c-5.024,5.721-9.155,9.652-12.628,12.016a78.961,78.961,0,0,1-8.605,4.953c-1.05.541-1.957,1.008-2.707,1.437l-1.672.956,1-1.648a24.935,24.935,0,0,0,2.014-3.964c1.324-3.518,1.6-4.426,1.607-4.463l.921-3.093-2.111,2.7a55.588,55.588,0,0,1-10.444,8.106,48.99,48.99,0,0,1-6.085,3.017c-.8.35-1.5.653-2.056.928l-1.312.648L85,24.146c.675-1.385,1.266-2.62,1.808-3.776A26.681,26.681,0,0,0,88.8,14.026a73.989,73.989,0,0,1-8.076,6.7c-2.008,1.424-3.743,2.584-5.156,3.449l-.906.554.15-1.051c.243-1.7.571-4.09.75-5.808.332-3.238-.274-4.217-.468-4.44l-.48-.553-.819.48a21.933,21.933,0,0,0-6.651,6.913c-1.43,2.272-2.581,4.249-3.294,5.508l-.425.751-.44-.742c-.123-.208-.262-.433-.41-.672a15.209,15.209,0,0,1-2.733-7.621,38.077,38.077,0,0,1,.5-7.973,14.634,14.634,0,0,0-6.6,6.841,50.17,50.17,0,0,0-2.368,6.656l-.257.909L50.5,23.2a13.313,13.313,0,0,1-2.742-5.349c-1.064-4.366-.234-6.733-.124-7.014h0l1.486-3.6c-2.466.842-6.687,2.628-7.387,4.506a19.2,19.2,0,0,0-.644,6.334c.018.992.021,1.171-.169,1.365a.511.511,0,0,1-.514.132c-.336-.088-.873-.455-2.752-2.08a4.6,4.6,0,0,1-1.778-2.526c-.1-.263-.22-.56-.37-.927l-.015-.041c-.59-1.895-.414-5.305-.339-6.761.011-.216.023-.438.025-.552A2.606,2.606,0,0,0,32.79,4.944a6.748,6.748,0,0,0-3.6,1.519l.057.068-4.025,3.489a38.1,38.1,0,0,0-7.311,9.119c-.826,1.475-1.5,2.8-1.993,3.931l-.315.72-.518-.591a17.74,17.74,0,0,1-3.841-6.315,12.339,12.339,0,0,1,.508-7.459h0L13.4,5.656,11.419,6.7,8.337,8.421l-.011.008a4.171,4.171,0,0,0-1.82,3.241c.006.837.048,1.671.084,2.407a9.707,9.707,0,0,1-.06,2.863l-.241.7-.559-.483a11.19,11.19,0,0,1-2.242-2.933,14.618,14.618,0,0,0-1.509-2.2L1.9,11.93l-.028-.108a6.557,6.557,0,0,0-.887-1C.19,10.015-.634,9.181-.7,8.439l-.033-.364L-.4,7.933A23.3,23.3,0,0,0,2.207,6.6,18.882,18.882,0,0,1,5.542,5a113.55,113.55,0,0,1,22-5.086,197.224,197.224,0,0,1,21.9-1.6C50.225-1.712,51.022-1.722,51.813-1.722Zm57.108,8.13A101.456,101.456,0,0,1,89.482,4.432c-1.532-.3-3.079-.6-4.575-.9C78.886,2.348,72.66,1.119,66.263.277a109.714,109.714,0,0,0-14.449-1c-.782,0-1.571.01-2.344.029C37.223-.386,21.2.645,5.868,5.943A17.817,17.817,0,0,0,2.7,7.467c-.7.4-1.414.806-2.276,1.2A10.364,10.364,0,0,0,1.7,10.119a5.356,5.356,0,0,1,1.1,1.313A15.8,15.8,0,0,1,4.346,13.71a14.433,14.433,0,0,0,1.3,1.941c-.006-.449-.033-.991-.059-1.523-.037-.746-.079-1.591-.085-2.449A5.158,5.158,0,0,1,7.735,7.623l.024-.018.029-.022.034-.02,3.125-1.741,4.52-2.388-2.8,6.4a11.383,11.383,0,0,0-.454,6.787,15.573,15.573,0,0,0,3.12,5.324c.463-.99,1.036-2.095,1.709-3.3a38.443,38.443,0,0,1,7.529-9.387l1.612-1.4.056-.17.1-.082.026-.027c1.084-1.1,3.88-3.643,6.424-3.643h0A3.6,3.6,0,0,1,36.13,6.358c.066.142.063.2.025.938-.072,1.4-.241,4.663.289,6.392.149.364.27.672.367.92a3.713,3.713,0,0,0,1.5,2.135c.348.3,1.19,1.029,1.783,1.485l0-.127a19.968,19.968,0,0,1,.707-6.7c.495-1.327,2.188-2.649,5.031-3.931a34.768,34.768,0,0,1,4.025-1.509l1-.294-2.3,5.558c-.027.069-.835,2.258.173,6.4A12.128,12.128,0,0,0,50.682,21.8a50.09,50.09,0,0,1,2.141-5.844,14.77,14.77,0,0,1,4.564-5.719A16.966,16.966,0,0,1,60.746,8.2l.05-.023,1.014-.576-.3,1.143a33.963,33.963,0,0,0-.678,8.708,14.078,14.078,0,0,0,2.56,7.09c.716-1.244,1.711-2.927,2.9-4.811a22.593,22.593,0,0,1,7-7.245l1.533-.9,1.024,1.18c.506.582,1.04,1.957.707,5.2-.146,1.4-.388,3.229-.6,4.782,1.21-.772,2.616-1.726,4.193-2.845a71.7,71.7,0,0,0,9.009-7.637.517.517,0,0,1,.075-.065l.891-.632-.1,1.087a27.378,27.378,0,0,1-2.3,8.13c-.375.8-.773,1.635-1.2,2.532q.389-.171.82-.358a48.186,48.186,0,0,0,5.962-2.953,54.678,54.678,0,0,0,10.221-7.921l3.7-4.743.874.45-1.677,5.633c-.028.1-.315,1.04-1.629,4.531a21.142,21.142,0,0,1-1.212,2.594q.56-.292,1.188-.614a78.12,78.12,0,0,0,8.5-4.891A67.75,67.75,0,0,0,124.418,4.638c-3.821,1.164-8.8,1.745-15.145,1.77Z" transform="translate(286.237 94.393) rotate(-47)" fill="#707070"/>
    <path id="Path_24" data-name="Path 24" d="M44.924,23.615q-.682-.063-1.43-.156a84.068,84.068,0,0,1-9.613-1.869s5.41-3.826,7.954-9.269c2.017,3.592,3.323,10.039,3.323,10.039A22.58,22.58,0,0,0,53.7,13.624c1.759,6.007,1.511,7.716,1.511,7.716s-4.39,2.026-4.407,2.06C49.869,23.866,49.434,24.03,44.924,23.615Zm-13.647-2.7a145.86,145.86,0,0,1-22.758-8.3S13.671,3.253,16.992.4c.032,6.353,4.517,14.265,4.517,14.265s6.525-2.568,7.254-7.126C32.045,13.691,31.278,20.913,31.278,20.913ZM7.087,11.977C5.612,11.268-1.144,1.963.222,1.332c-.18.654,3.1,5.579,3.1,5.579Z" transform="matrix(0.777, 0.629, -0.629, 0.777, 312.467, 72.451)" fill="#fff"/>
    <path id="Path_24_-_Outline" data-name="Path 24 - Outline" d="M48.649,24.353c-.8,0-1.967-.074-3.771-.24-.458-.042-.945-.1-1.446-.158a85.093,85.093,0,0,1-9.672-1.88L32.7,21.812l.891-.63c.053-.037,5.333-3.818,7.79-9.072l.412-.882.477.849A40.764,40.764,0,0,1,45.5,21.587a20.315,20.315,0,0,0,2.368-1.7,22.971,22.971,0,0,0,5.394-6.5l.58-1.052.338,1.153c1.769,6.042,1.537,7.855,1.526,7.929l-.062.428h-.324c-.59.271-3.48,1.609-4.139,1.929l0,0-.153.076A4.391,4.391,0,0,1,48.649,24.353ZM44.8,23.1l.169.016c1.772.163,2.906.236,3.679.236a3.432,3.432,0,0,0,1.936-.4h0c.125-.07.333-.168.7-.342s.879-.412,1.516-.708l1.512-.7.408-.188a26.663,26.663,0,0,0-1.182-6.129,24.114,24.114,0,0,1-5.059,5.786,18.455,18.455,0,0,1-3.1,2.133Zm-9.788-1.75a81,81,0,0,0,8.543,1.612c.429.053.846.1,1.243.138l-.13-.641a47.749,47.749,0,0,0-2.827-9.038,25.684,25.684,0,0,1-4.587,5.932C36.367,20.222,35.573,20.9,35.013,21.351Zm-3.3.2-.566-.154a145.693,145.693,0,0,1-22.837-8.33l-.485-.226.258-.469C8.294,11.986,13.316,2.9,16.666.025l.82-.7L17.492.4c.027,5.359,3.352,11.962,4.237,13.626,1.4-.637,5.966-2.977,6.54-6.564L28.5,6l.7,1.311a24.268,24.268,0,0,1,2.545,9.184,25.744,25.744,0,0,1,.026,4.475ZM9.22,12.385a144.9,144.9,0,0,0,21.6,7.885,27.477,27.477,0,0,0-.072-3.718,24.2,24.2,0,0,0-1.865-7.617,10.178,10.178,0,0,1-3.736,4.29,18.335,18.335,0,0,1-3.458,1.91l-.4.159-.214-.378A44.956,44.956,0,0,1,18.8,10.107a29.413,29.413,0,0,1-2.26-8.573C13.8,4.437,10.21,10.635,9.22,12.385Zm-2.349.042c-.954-.458-3.1-3.26-4.224-4.844C1.709,6.259-.47,3.032-.459,1.7A.845.845,0,0,1,.012.878L.99.426l-.272.987a12.455,12.455,0,0,0,1.5,2.847c.713,1.167,1.426,2.245,1.5,2.364l3.762,5.055Z" transform="matrix(0.777, 0.629, -0.629, 0.777, 312.467, 72.451)" fill="#707070"/>
    <path id="Path_31" data-name="Path 31" d="M295.927,249.338c-.5-.118-.613.311-.826.711a5.59,5.59,0,0,0-.011,1.811c.051.371.242,1.688.715,1.678.347-.007.639-.658.764-.969.258-.637.722-1.642.352-2.316A1.775,1.775,0,0,0,295.927,249.338Z" transform="translate(5.001 -194.469)" fill="#fff"/>
    <path id="Path_32" data-name="Path 32" d="M291.668,247.423a9.3,9.3,0,0,0-1.294.013c-2.484,2.634-.386,7.42,1.911,9.434a7.689,7.689,0,0,1-1.327-2.773C290.618,252.5,290.314,248.725,291.668,247.423Z" transform="translate(5.976 -194.469)" fill="#5e787c"/>
    <path id="Path_33" data-name="Path 33" d="M303.82,251.957c-1.968-.875-3.919-1.893-6.022-2.914a16.143,16.143,0,0,0-4.734-1.533,8.372,8.372,0,0,0-.476,6.819,6.524,6.524,0,0,0,2.725,3.379,8.031,8.031,0,0,0,1.176.508,8.736,8.736,0,0,0,6.172-2.12C304.45,254.459,305.059,253.05,303.82,251.957Zm-7.764,2.2c-.945.931-1.813-.278-2.071-1.348-.234-.966-.489-3.678,1.008-4.153a1.4,1.4,0,0,1,1.475.726A3.962,3.962,0,0,1,296.055,254.156Z" transform="translate(5.498 -194.469)" fill="#162435"/>
    <path id="Path_34" data-name="Path 34" d="M179.292,327.889a53.089,53.089,0,0,0,4.436-6.966c2.742-5.54,2.363-11.112.343-16.763a36.724,36.724,0,0,1-.383,11.991A42.4,42.4,0,0,1,179.292,327.889Z" transform="translate(71.475 -237.063)" fill="#6c858d"/>
    <path id="Path_35" data-name="Path 35" d="M170.351,322.536c2.05-2.392,4.356-4.526,5.937-7.636,2.611-5.135,1.778-9.459.464-13.878a24.963,24.963,0,0,1-.506,9.055A48.818,48.818,0,0,1,170.351,322.536Z" transform="translate(87.427 -228.571)" fill="#6c858d"/>
    <path id="Path_36" data-name="Path 36" d="M194.964,304.944c-.311,7.642-2.689,15.439-5.476,22.505a73.6,73.6,0,0,0,4.4-9.419A26.359,26.359,0,0,0,194.964,304.944Z" transform="translate(54.199 -237.407)" fill="#6c858d"/>
  </g>
</svg>
