<svg xmlns="http://www.w3.org/2000/svg" width="391.779" height="125.544" viewBox="0 0 391.779 125.544">
  <g id="Group_1" data-name="Group 1" transform="translate(0.985 0.616)">
    <g id="Group_43" data-name="Group 43" transform="translate(48.377 19.031)">
      <g id="Subtraction_5" data-name="Subtraction 5" transform="translate(0 16)">
        <path id="Path_17" data-name="Path 17" d="M339.831,85.5c-.4,1.639-4.9,0-4.9,0H.061s9.656,1.263,9.656-8.339c0-3.6,7.825-3.718,7.825-8.518,0-3.607,14.867-19.906,14.867-24.136,0-5.057-29.027-33.361-29.027-38.576C-6.4-1.168.061.5.061.5h222.1c6.506,4.2,10.962,8.09,14.018,12.247,2.793,3.8,4.217,7.493,5.864,11.769A91.106,91.106,0,0,0,247.3,36.27a30.041,30.041,0,0,0,16.25,13.753,33.057,33.057,0,0,0,9.829,2.055l.417.005V52.06a32.214,32.214,0,0,0,9.563-2.041A29.381,29.381,0,0,0,299.1,36.456a91.688,91.688,0,0,0,5.259-11.815c1.648-4.3,3.072-8.01,5.868-11.831,3.057-4.179,7.515-8.092,14.024-12.31h11.523s3.65-.454,3.793,1.032-.774,1.1-2.321,4.913c-3.229,7.963-8.747,23.815-8.747,38.648,0,13.494,4.567,26.143,8.023,33.851C338.322,82.947,340.229,83.861,339.831,85.5Z" transform="translate(2.032 0)" fill="#fff"/>
        <path id="Path_17_-_Outline" data-name="Path 17 - Outline" d="M338.383,86.728A12.672,12.672,0,0,1,334.846,86H2.324c-.39.036-.787.055-1.181.055A9.684,9.684,0,0,1,0,86l.065-1H2.276c3.172-.308,6.941-1.92,6.941-7.839,0-1.966,1.907-3.008,3.751-4.016,2-1.095,4.074-2.226,4.074-4.5,0-1.9,3.284-6.359,7.087-11.527,1.912-2.6,3.89-5.286,5.369-7.57,1.6-2.47,2.411-4.166,2.411-5.039a5.962,5.962,0,0,0-1.153-2.6,52.009,52.009,0,0,0-3.212-4.437c-2.679-3.4-6.329-7.6-9.858-11.669-3.606-4.154-7.334-8.449-10.1-11.962C4.539,9.962,3.072,7.578,2.9,6.2-2.234,2.453-2.727,1.253-2.488.518c.1-.314.412-.688,1.309-.688A6.21,6.21,0,0,1,.121,0H222.165l.271.08C229,4.311,233.492,8.241,236.586,12.45c2.836,3.859,4.269,7.578,5.928,11.885l.005.014a90.6,90.6,0,0,0,5.223,11.681,29.548,29.548,0,0,0,15.984,13.524,32.8,32.8,0,0,0,9.664,2.024l.368,0,.022-.022a31.527,31.527,0,0,0,9.409-2.009,28.888,28.888,0,0,0,15.476-13.334,91.23,91.23,0,0,0,5.228-11.746l0-.009c1.661-4.331,3.1-8.072,5.931-11.947,3.095-4.23,7.593-8.181,14.156-12.434l.272-.08h11.494a11.366,11.366,0,0,1,1.214-.065c2.444,0,3.038.843,3.107,1.549a2.4,2.4,0,0,1-.623,1.93,13.776,13.776,0,0,0-1.732,3.219C334.461,14.657,329,30.322,329,45.093c0,13.1,4.339,25.528,7.98,33.646a20.931,20.931,0,0,0,2.217,3.783c.807,1.144,1.39,1.971,1.116,3.1C340.193,86.124,339.758,86.728,338.383,86.728ZM5.986,85H334.932l.171.03a12.213,12.213,0,0,0,3.28.7c.4,0,.892-.06.962-.347.159-.656-.18-1.174-.962-2.283a22.1,22.1,0,0,1-2.312-3.95C332.391,70.941,328,58.37,328,45.093a88.164,88.164,0,0,1,3.179-22.026,140.19,140.19,0,0,1,5.6-16.809,14.676,14.676,0,0,1,1.845-3.425c.39-.545.5-.692.441-1.251-.038-.392-.867-.646-2.111-.646A10.3,10.3,0,0,0,335.84,1l-.061,0H324.4c-6.39,4.154-10.767,8-13.768,12.105-2.757,3.768-4.169,7.451-5.8,11.715l0,.009A92.055,92.055,0,0,1,299.543,36.7a29.875,29.875,0,0,1-16,13.792,32.567,32.567,0,0,1-9.718,2.072v0l-.027.026-.418-.005a33.755,33.755,0,0,1-10-2.086A30.535,30.535,0,0,1,246.866,36.51a91.441,91.441,0,0,1-5.28-11.8l-.005-.014c-1.633-4.24-3.043-7.9-5.8-11.652C232.78,8.961,228.4,5.132,222.018,1H.061L-.064.984A5.366,5.366,0,0,0-1.179.829a1.261,1.261,0,0,0-.341.036A3.66,3.66,0,0,0-.561,2.1,38.409,38.409,0,0,0,3.674,5.526l.206.4A6.192,6.192,0,0,0,5.071,8.644a52.883,52.883,0,0,0,3.3,4.574C11.121,16.712,14.842,21,18.44,25.143c3.537,4.075,7.195,8.288,9.888,11.706,3.168,4.019,4.58,6.381,4.58,7.658,0,2.2-3.157,6.654-7.974,13.2-1.811,2.461-3.521,4.785-4.816,6.76-1.378,2.1-2.077,3.507-2.077,4.175,0,2.869-2.441,4.2-4.594,5.38-1.733.947-3.23,1.766-3.23,3.138,0,3.066-.949,5.4-2.822,6.93A7.615,7.615,0,0,1,5.986,85Z" transform="translate(2.032 0)" fill="#707070"/>
        <path id="Path_18" data-name="Path 18" d="M339.769,85V1H324.71C318.3,5.167,313.9,9.028,310.892,13.142c-2.755,3.766-4.167,7.447-5.8,11.71a92.144,92.144,0,0,1-5.288,11.88A29.811,29.811,0,0,1,283.839,50.5a33.054,33.054,0,0,1-9.272,2.042v.05l-.835-.01a33.434,33.434,0,0,1-9.945-2.076,30.463,30.463,0,0,1-16.475-13.955,91.458,91.458,0,0,1-5.287-11.82c-1.634-4.24-3.045-7.9-5.8-11.648-3.008-4.092-7.4-7.934-13.812-12.079H.827V85H339.769m.827,1H0V0H222.621c6.6,4.248,11.12,8.193,14.223,12.415,2.835,3.856,4.269,7.579,5.931,11.89A90.563,90.563,0,0,0,248,35.994a29.626,29.626,0,0,0,16.027,13.551,32.713,32.713,0,0,0,9.713,2.033v-.007c.7-.005,17.126-.276,25.371-15.39a91.338,91.338,0,0,0,5.23-11.751c1.662-4.334,3.1-8.076,5.932-11.951C313.379,8.235,317.9,4.269,324.5,0H340.6ZM273.385.087h0V0h51.087Z" transform="translate(1.68 0)" fill="none"/>
      </g>
      <g id="Group_37" data-name="Group 37" transform="translate(53.234 72.061)">
        <text id="Overview" transform="translate(0 11)" fill="#f10" font-size="10" font-family="SegoeUI-Semibold, Segoe UI" font-weight="600"><tspan x="0" y="0">Overview</tspan></text>
      </g>
      <g id="Path_40" data-name="Path 40" transform="translate(252.994)">
        <path id="Path_19" data-name="Path 19" d="M22.407,56.5a17.766,17.766,0,0,1-8.52-2.2,22.411,22.411,0,0,1-6.963-6,29.31,29.31,0,0,1-4.7-8.9,35.359,35.359,0,0,1,0-21.815,29.31,29.31,0,0,1,4.7-8.9,22.411,22.411,0,0,1,6.963-6,17.623,17.623,0,0,1,17.039,0,22.411,22.411,0,0,1,6.963,6,29.309,29.309,0,0,1,4.7,8.9,35.359,35.359,0,0,1,0,21.815,29.309,29.309,0,0,1-4.7,8.9,22.411,22.411,0,0,1-6.963,6A17.766,17.766,0,0,1,22.407,56.5Z" transform="translate(-0.087 0)" fill="#00d0e4"/>
        <path id="Path_20" data-name="Path 20" d="M22.321,1a17.414,17.414,0,0,0-8.351,2.153A21.988,21.988,0,0,0,7.138,9.035a28.79,28.79,0,0,0-4.616,8.743,34.761,34.761,0,0,0,0,21.443,28.79,28.79,0,0,0,4.616,8.743,21.989,21.989,0,0,0,6.832,5.882,17.274,17.274,0,0,0,16.7,0A21.989,21.989,0,0,0,37.5,47.965a28.791,28.791,0,0,0,4.616-8.743,34.762,34.762,0,0,0,0-21.443A28.791,28.791,0,0,0,37.5,9.035a21.988,21.988,0,0,0-6.832-5.882A17.414,17.414,0,0,0,22.321,1m0-1C34.648,0,44.641,12.76,44.641,28.5S34.648,57,22.321,57,0,44.24,0,28.5,9.993,0,22.321,0Z" transform="translate(0)" fill="#707070"/>
      </g>
      <g id="Group_38" data-name="Group 38" transform="translate(260.2 11.866)">
        <text id="Overview-2" data-name="Overview" transform="translate(0 71.195)" fill="#0094ff" font-size="9" font-family="SegoeUI-Semibold, Segoe UI" font-weight="600"><tspan x="0" y="0">timer</tspan></text>
        <g id="_6" data-name="6" transform="translate(5.435)">
          <path id="Path_18-2" data-name="Path 18" d="M122.661,33.644h-.5V28.8a6.182,6.182,0,0,0-.992-3.386l-5.208-7.987,5.208-8.051a6.259,6.259,0,0,0,.992-3.409V1.085h.5a.522.522,0,0,0,.5-.543.522.522,0,0,0-.5-.543H104.5a.522.522,0,0,0-.5.543.522.522,0,0,0,.5.543h.5V5.969A6.259,6.259,0,0,0,106,9.378l5.208,8.051L106,25.416a6.182,6.182,0,0,0-.992,3.386v4.842h-.5a.43.43,0,0,0-.433.252.644.644,0,0,0,0,.581.43.43,0,0,0,.433.252h18.157a.43.43,0,0,0,.433-.252.644.644,0,0,0,0-.581A.43.43,0,0,0,122.661,33.644ZM106.017,28.8a5.043,5.043,0,0,1,.812-2.763l5.407-8.3a.577.577,0,0,0,0-.621l-5.407-8.362a5.121,5.121,0,0,1-.813-2.789V1.085h15.128V5.969a5.121,5.121,0,0,1-.813,2.789l-5.407,8.362a.577.577,0,0,0,0,.621l5.407,8.3a5.044,5.044,0,0,1,.812,2.763v4.842H106.015Z" transform="translate(-104 0.002)" fill="#fff"/>
          <path id="Path_19-2" data-name="Path 19" d="M281.513,464H280.5a.379.379,0,0,0-.448.194.588.588,0,0,0,0,.576.379.379,0,0,0,.448.194h1.009a.379.379,0,0,0,.448-.194.587.587,0,0,0,0-.576A.379.379,0,0,0,281.513,464Z" transform="translate(-268.904 -432.16)" fill="#fff"/>
          <path id="Path_20-2" data-name="Path 20" d="M195.674,157.862a.509.509,0,0,0,.427-.225c.112-.161,2.175-3,3.542-4.881a.466.466,0,0,0,.033-.5.506.506,0,0,0-.447-.259h-7.11a.506.506,0,0,0-.447.259.466.466,0,0,0,.033.5c1.367,1.881,3.431,4.72,3.542,4.881a.509.509,0,0,0,.427.225Zm2.59-4.9c-1.443,1.985-2.2,3.023-2.59,3.567-.394-.544-1.147-1.582-2.59-3.567Z" transform="translate(-186.092 -141.417)" fill="#fff"/>
          <path id="Path_21" data-name="Path 21" d="M162.112,336.2a.51.51,0,0,0-.413-.2h-6.283a.51.51,0,0,0-.413.2l-2.372,3.232a3.192,3.192,0,0,0-.629,1.9v2.854a.49.49,0,0,0,.5.482h6.052a.379.379,0,0,0,.448-.194.587.587,0,0,0,0-.576.379.379,0,0,0-.448-.194h-5.55v-2.372a2.263,2.263,0,0,1,.446-1.348l2.221-3.027h5.761l2.221,3.027a2.263,2.263,0,0,1,.446,1.348v2.372h-.5a.379.379,0,0,0-.448.194.587.587,0,0,0,0,.576.379.379,0,0,0,.448.194h1.009a.49.49,0,0,0,.5-.482v-2.854a3.193,3.193,0,0,0-.629-1.9Z" transform="translate(-148.975 -311.871)" fill="#fff"/>
          <path id="Path_22" data-name="Path 22" d="M326.861,75.769a.519.519,0,0,0,.288.086.511.511,0,0,0,.413-.207l.552-.758a3.255,3.255,0,0,0,.632-1.926v-.482a.5.5,0,0,0-1.009,0v.482a2.323,2.323,0,0,1-.451,1.376l-.552.758a.487.487,0,0,0-.08.375.41.41,0,0,0,.206.3Z" transform="translate(-312.609 -67.661)" fill="#fff"/>
          <path id="Path_23" data-name="Path 23" d="M344.5,33.446a.49.49,0,0,0,.5-.482v-.482a.5.5,0,0,0-1.009,0v.482a.49.49,0,0,0,.5.482Z" transform="translate(-328.87 -30.07)" fill="#fff"/>
        </g>
      </g>
      <g id="Group_39" data-name="Group 39" transform="translate(126.981 33.674)">
        <text id="Overview-3" data-name="Overview" transform="translate(0 49.387)" fill="#f10" font-size="10" font-family="SegoeUI-Semibold, Segoe UI" font-weight="600"><tspan x="0" y="0">AllTasks</tspan></text>
        <g id="testing-checklist-file-or-to-do-list-black-outline-17464" transform="translate(12.592)">
          <path id="Path_1" data-name="Path 1" d="M50.993,6.076,46.317.419A1.084,1.084,0,0,0,45.481,0H33a1.328,1.328,0,0,0-1.184,1.432v28.7A1.328,1.328,0,0,0,33,31.564H50.155a1.328,1.328,0,0,0,1.184-1.432V7.088A1.585,1.585,0,0,0,50.993,6.076Zm-.643.214H46.665a.588.588,0,0,1-.525-.634V1.2Zm.413,23.838a.678.678,0,0,1-.6.73H33a.678.678,0,0,1-.6-.73V1.432A.678.678,0,0,1,33,.7H45.482a.505.505,0,0,1,.083.009V5.655a1.238,1.238,0,0,0,1.1,1.336h4.087a.843.843,0,0,1,.008.1Z" transform="translate(-31.814 0)"/>
          <path id="Path_2" data-name="Path 2" d="M61.259,70.309c-1.826,0-3.307,1.791-3.307,4s1.48,4,3.307,4,3.307-1.791,3.307-4S63.085,70.309,61.259,70.309Zm0,7.291a3.354,3.354,0,0,1,0-6.588,3.354,3.354,0,0,1,0,6.588Z" transform="translate(-55.258 -61.535)"/>
          <path id="Path_3" data-name="Path 3" d="M77.425,89.621,75.78,91.8l-.459-.757a.259.259,0,0,0-.4-.076.4.4,0,0,0-.062.49l.669,1.1a.28.28,0,0,0,.218.143h.016a.27.27,0,0,0,.214-.114l1.884-2.5a.4.4,0,0,0,.076-.351.319.319,0,0,0-.222-.244.265.265,0,0,0-.282.123Z" transform="translate(-70.363 -78.337)"/>
          <path id="Path_4" data-name="Path 4" d="M145.036,86.714h-5.125a.279.279,0,0,0-.269.167.415.415,0,0,0,0,.366.279.279,0,0,0,.269.167h5.125a.279.279,0,0,0,.269-.167.415.415,0,0,0,0-.366A.279.279,0,0,0,145.036,86.714Z" transform="translate(-128.496 -75.893)"/>
          <path id="Path_5" data-name="Path 5" d="M145.036,112.327h-5.125a.279.279,0,0,0-.269.167.415.415,0,0,0,0,.366.279.279,0,0,0,.269.167h5.125a.279.279,0,0,0,.269-.167.415.415,0,0,0,0-.366A.279.279,0,0,0,145.036,112.327Z" transform="translate(-128.496 -98.31)"/>
          <path id="Path_6" data-name="Path 6" d="M61.259,152.268c-1.826,0-3.307,1.791-3.307,4s1.48,4,3.307,4,3.307-1.791,3.307-4S63.085,152.268,61.259,152.268Zm0,7.291a3.355,3.355,0,0,1,0-6.59,3.355,3.355,0,0,1,0,6.59Z" transform="translate(-55.258 -133.267)"/>
          <path id="Path_7" data-name="Path 7" d="M145.036,168.673h-5.125a.279.279,0,0,0-.269.167.415.415,0,0,0,0,.366.279.279,0,0,0,.269.167h5.125a.279.279,0,0,0,.269-.167.415.415,0,0,0,0-.366A.279.279,0,0,0,145.036,168.673Z" transform="translate(-128.496 -147.624)"/>
          <path id="Path_8" data-name="Path 8" d="M145.045,194.286H139.92a.362.362,0,0,0,0,.7h5.125a.279.279,0,0,0,.27-.167.415.415,0,0,0,0-.366.279.279,0,0,0-.27-.167Z" transform="translate(-128.506 -170.041)"/>
          <path id="Path_9" data-name="Path 9" d="M80.038,169.7a.258.258,0,0,0-.408.053l-.762,1.141-.762-1.141a.257.257,0,0,0-.407-.053.4.4,0,0,0-.043.493l.841,1.259-.841,1.259a.4.4,0,0,0,.043.493.257.257,0,0,0,.407-.053l.762-1.141.762,1.141a.257.257,0,0,0,.407.052.4.4,0,0,0,.043-.492l-.841-1.259.838-1.252a.4.4,0,0,0,.067-.26A.375.375,0,0,0,80.038,169.7Z" transform="translate(-72.867 -148.457)"/>
        </g>
      </g>
      <g id="Group_40" data-name="Group 40" transform="translate(181.224 33.867)">
        <text id="Overview-4" data-name="Overview" transform="translate(0 49.194)" fill="#f10" font-size="10" font-family="SegoeUI-Semibold, Segoe UI" font-weight="600"><tspan x="0" y="0">Stop Watch</tspan></text>
        <g id="_3" data-name="3" transform="translate(13.492)">
          <path id="Path_10" data-name="Path 10" d="M31.659,31.178,36.549,23a.734.734,0,0,0-.055-.816.457.457,0,0,0-.674-.066L29.06,28.036a2.5,2.5,0,0,0-.725,2.289,2.091,2.091,0,0,0,1.434,1.732,1.716,1.716,0,0,0,1.892-.879Z" transform="translate(-14.177 -9.591)"/>
          <path id="Path_11" data-name="Path 11" d="M40.084,11.387c0-.012,0-.025-.011-.037s-.017-.018-.023-.029a15.835,15.835,0,0,0-1.862-2.8l1.121-1.25.738.823,2.216-2.469-2.216-2.47-2.216,2.47.739.823L37.451,7.7a14.4,14.4,0,0,0-2.511-2.076c-.01-.008-.016-.019-.026-.026s-.022-.006-.033-.013A13.039,13.039,0,0,0,29.516,3.6V2.91H30.3A1.383,1.383,0,0,0,31.6,1.455,1.384,1.384,0,0,0,30.3,0H25.6a1.383,1.383,0,0,0-1.305,1.455A1.383,1.383,0,0,0,25.6,2.91h.783v.673a13.014,13.014,0,0,0-1.683.311.483.483,0,0,0-.32.248.684.684,0,0,0-.071.452.522.522,0,0,0,.626.437,12.029,12.029,0,0,1,1.494-.282l.518-.049c.175-.015.331-.025.483-.033h0V5.821a.525.525,0,1,0,1.044,0V4.674A11.94,11.94,0,0,1,33.927,6.33l-.515.994a.66.66,0,0,0-.053.452.543.543,0,0,0,.244.348.478.478,0,0,0,.26.078.515.515,0,0,0,.453-.291l.513-.992a14,14,0,0,1,4.058,4.524l-.89.572a.544.544,0,0,0-.243.349.66.66,0,0,0,.053.451.514.514,0,0,0,.453.291.478.478,0,0,0,.26-.078l.891-.574A15.753,15.753,0,0,1,40.9,18.635H39.874a.464.464,0,0,0-.451.276.69.69,0,0,0,0,.612.464.464,0,0,0,.451.276h1.032a15.754,15.754,0,0,1-1.488,6.181l-.892-.58a.492.492,0,0,0-.713.213.66.66,0,0,0-.053.452.543.543,0,0,0,.244.348l.89.572A14,14,0,0,1,34.834,31.5l-.513-.991a.492.492,0,0,0-.713-.213.542.542,0,0,0-.244.348.658.658,0,0,0,.053.452l.515.994a11.94,11.94,0,0,1-5.456,1.656V32.6a.525.525,0,1,0-1.044,0v1.15a11.9,11.9,0,0,1-2.494-.359.521.521,0,0,0-.626.437.684.684,0,0,0,.071.452.483.483,0,0,0,.32.248,12.726,12.726,0,0,0,3.164.4h.1a12.919,12.919,0,0,0,6.9-2.08.421.421,0,0,0,.049-.023c.011-.007.017-.018.026-.026a15.111,15.111,0,0,0,5.1-5.682.541.541,0,0,0,.031-.045.312.312,0,0,0,.011-.037,17.226,17.226,0,0,0,0-15.641Z" transform="translate(-12.256 0.001)"/>
          <path id="Path_12" data-name="Path 12" d="M18.949,13H16.337a1.17,1.17,0,0,0-1.045,1.264,1.17,1.17,0,0,0,1.045,1.264h2.611a1.17,1.17,0,0,0,1.045-1.264A1.17,1.17,0,0,0,18.948,13Z" transform="translate(-7.975 -5.478)"/>
          <path id="Path_13" data-name="Path 13" d="M16.559,20H11.337a1.286,1.286,0,0,0,0,2.527h5.222a1.286,1.286,0,0,0,0-2.527Z" transform="translate(-5.589 -8.429)"/>
          <path id="Path_14" data-name="Path 14" d="M14.17,27H6.337a1.286,1.286,0,0,0,0,2.527H14.17a1.286,1.286,0,0,0,0-2.527Z" transform="translate(-3.205 -11.379)"/>
          <path id="Path_15" data-name="Path 15" d="M12.259,34H2.339a1.286,1.286,0,0,0,0,2.527h9.92a1.286,1.286,0,0,0,0-2.527Z" transform="translate(-1.295 -14.329)"/>
          <path id="Path_16" data-name="Path 16" d="M15.126,41H8.337a1.286,1.286,0,0,0,0,2.527h6.789a1.286,1.286,0,0,0,0-2.527Z" transform="translate(-4.161 -17.28)"/>
          <path id="Path_17-2" data-name="Path 17" d="M17.993,48H14.337a1.286,1.286,0,0,0,0,2.527h3.656a1.286,1.286,0,0,0,0-2.527Z" transform="translate(-7.02 -20.655)"/>
        </g>
      </g>
    </g>
    <g id="Group_51" data-name="Group 51" transform="translate(110.529 54.236)">
      <g id="Component_5_3" data-name="Component 5 – 3" transform="translate(0)">
        <g id="House_Icon" data-name="House Icon">
          <path id="Path" d="M0,0V10.3H7.01V2.81A1.807,1.807,0,0,1,8.763.937h1.753A1.807,1.807,0,0,1,12.268,2.81V10.3h7.01V0" transform="translate(3.097 26.553)" fill="rgba(0,0,0,0)"/>
          <path id="Path_-_Outline" data-name="Path - Outline" d="M19.278,11.05h-7.01a.75.75,0,0,1-.75-.75V2.832a1.382,1.382,0,0,0-.425-.951.722.722,0,0,0-.525-.2l-.053,0H8.763l-.053,0a.722.722,0,0,0-.525.2,1.382,1.382,0,0,0-.425.951V10.3a.75.75,0,0,1-.75.75H0a.75.75,0,0,1-.75-.75V0A.75.75,0,0,1,0-.75.75.75,0,0,1,.75,0V9.55H6.26V2.81q0-.02,0-.041A2.892,2.892,0,0,1,7.193.757,2.212,2.212,0,0,1,8.786.187h1.706a2.212,2.212,0,0,1,1.594.57,2.892,2.892,0,0,1,.931,2.013q0,.02,0,.041V9.55h5.51V0a.75.75,0,0,1,.75-.75.75.75,0,0,1,.75.75V10.3A.75.75,0,0,1,19.278,11.05Z" transform="translate(3.097 26.553)"/>
          <path id="Path-2" data-name="Path" d="M0,13.273,11.535.549a1.59,1.59,0,0,1,2.4,0L25.472,13.273" transform="translate(0 -0.001)" fill="rgba(0,0,0,0)"/>
          <path id="Path_-_Outline-2" data-name="Path - Outline" d="M25.472,14.023a.748.748,0,0,1-.556-.246L13.387,1.058a.842.842,0,0,0-1.3,0L.556,13.777A.75.75,0,0,1-.5,13.829a.75.75,0,0,1-.052-1.059L10.979.045l.009-.01a2.339,2.339,0,0,1,3.5,0l.009.01L26.028,12.769a.75.75,0,0,1-.555,1.254Z" transform="translate(0 -0.001)"/>
        </g>
      </g>
    </g>
    <path id="Path_27" data-name="Path 27" d="M109.214,19.688A100.734,100.734,0,0,0,89.573,21.6c-7.71,1.469-15.208,3.059-23.182,4.088a108.042,108.042,0,0,1-16.828.927c-14.294-.4-29.285-1.76-43.662-6.759C3.555,19.035,2.308,17.9,0,16.923c.086-.967,2.382-2.659,2.543-3.28,1.48-1.695,2-3.615,3.68-5.064.232.668-.026,2.829-.038,5.088a4.738,4.738,0,0,0,2.064,3.669l3.113,1.739L14.613,20.8l-2.23-5.071a11.928,11.928,0,0,1-.5-7.109,17.1,17.1,0,0,1,3.709-6.088c.453,1.03,1.1,2.331,2.02,3.968a38.486,38.486,0,0,0,7.426,9.247l4.024,3.49L26.808,17.4c-.013-.039,6.44,6.938,8.989,1.441.061-.132-.44-4.951.276-7.267.882-2.162.683-2.114,2-3.25a13.181,13.181,0,0,1,2.555-1.965c.2-.124-.346,4.624.735,7.506S50.084,19,50.084,19l-1.9-4.583c-.01-.021-.926-2.307.131-6.687a12.6,12.6,0,0,1,2.619-5.125,51.349,51.349,0,0,0,2.4,6.709,15.675,15.675,0,0,0,7.752,7.535,33.967,33.967,0,0,1-.715-8.828C60.49,4.317,62.405,1.706,63.414,0c.809,1.422,1.941,3.348,3.312,5.521A22.457,22.457,0,0,0,73.55,12.6l1.176.691.748-.862c.36-.414.912-1.589.574-4.805-.181-1.694-.505-4.019-.766-5.812,1.159.711,2.819,1.8,5.124,3.434a72.683,72.683,0,0,1,9.082,7.7A27.157,27.157,0,0,0,87.22,5c-.641-1.36-1.27-2.66-1.817-3.777A81.982,81.982,0,0,1,93.5,5.153a55.259,55.259,0,0,1,10.335,8.025l3.716,4.759-1.687-5.621c-.029-.1-.321-1.044-1.626-4.489a25.845,25.845,0,0,0-2.06-4.041,125.613,125.613,0,0,1,11.268,6.381c4.3,2.93,9.047,7.964,12.534,11.932C121.1,20.156,114.539,19.723,109.214,19.688Z" transform="translate(85.916 110.307) rotate(-133)" fill="#fff"/>
    <path id="Path_27_-_Outline" data-name="Path 27 - Outline" d="M52.168,27.147c-.874,0-1.755-.012-2.618-.036A197.042,197.042,0,0,1,27.7,25.454,113.7,113.7,0,0,1,5.737,20.325,18.952,18.952,0,0,1,2.406,18.72a23.394,23.394,0,0,0-2.6-1.337l-.335-.142.032-.363c.066-.741.885-1.571,1.678-2.374a6.507,6.507,0,0,0,.881-.994l.028-.108.078-.089a14.467,14.467,0,0,0,1.5-2.193A11.081,11.081,0,0,1,5.9,8.2l.557-.482.242.7a9.683,9.683,0,0,1,.067,2.855c-.034.734-.073,1.565-.077,2.4A4.187,4.187,0,0,0,8.51,16.907l.011.008,3.079,1.72,1.975,1.047-1.651-3.755h0a12.326,12.326,0,0,1-.526-7.44A17.572,17.572,0,0,1,15.215,2.2l.517-.589.316.718c.5,1.132,1.171,2.453,2,3.925a38.3,38.3,0,0,0,7.317,9.113l4.025,3.49-.057.068a6.754,6.754,0,0,0,3.6,1.524,2.58,2.58,0,0,0,2.37-1.734c0-.114-.015-.335-.027-.55-.079-1.452-.263-4.854.32-6.742l.015-.041c.149-.365.265-.662.367-.923a4.559,4.559,0,0,1,1.769-2.516c1.871-1.615,2.406-1.981,2.741-2.068A.511.511,0,0,1,41,6c.19.193.187.371.172,1.361a19.165,19.165,0,0,0,.659,6.318c.7,1.873,4.913,3.664,7.376,4.512l-1.489-3.583h0c-.112-.283-.945-2.642.106-7a13.2,13.2,0,0,1,2.722-5.329l.606-.722.258.907a50.272,50.272,0,0,0,2.379,6.643,14.708,14.708,0,0,0,6.594,6.839,38.013,38.013,0,0,1-.514-7.945A15.091,15.091,0,0,1,62.576.414c.146-.237.284-.461.407-.668L63.422-1l.426.75c.715,1.257,1.868,3.232,3.3,5.5a22.049,22.049,0,0,0,6.651,6.91l.821.482L75.1,12.1c.193-.222.794-1.2.454-4.425-.183-1.712-.517-4.1-.764-5.793L74.633.824l.91.558c1.413.866,3.146,2.028,5.153,3.452a74.374,74.374,0,0,1,8.069,6.7,26.71,26.71,0,0,0-2-6.321c-.544-1.156-1.138-2.389-1.814-3.771L84.307.118l1.318.653c.556.276,1.25.579,2.054.931a49.18,49.18,0,0,1,6.078,3.024,55.751,55.751,0,0,1,10.44,8.111l.028.033,2.078,2.661-.922-3.072c-.011-.038-.285-.947-1.615-4.455a25.022,25.022,0,0,0-2.02-3.959l-1-1.655,1.679.962c.75.43,1.656.9,2.7,1.44a79.308,79.308,0,0,1,8.6,4.962c3.471,2.367,7.6,6.3,12.628,12.015l-.561.795c-3.891-1.551-9.315-2.327-16.581-2.375l-.576,0a100.293,100.293,0,0,0-18.968,1.9c-1.526.291-3.068.591-4.559.881-6.019,1.172-12.242,2.384-18.653,3.211A110.647,110.647,0,0,1,52.168,27.147ZM.628,16.652c.861.392,1.578.8,2.275,1.2a17.887,17.887,0,0,0,3.164,1.529c15.308,5.323,31.295,6.393,43.512,6.731.854.023,1.725.035,2.59.035a109.658,109.658,0,0,0,14.16-.959c6.379-.823,12.587-2.032,18.59-3.2,1.492-.291,3.035-.591,4.562-.882a101.281,101.281,0,0,1,19.156-1.92l.582,0c6.321.041,11.289.632,15.1,1.8A68.075,68.075,0,0,0,113.161,10.58a78.475,78.475,0,0,0-8.493-4.9q-.623-.322-1.179-.611A21.181,21.181,0,0,1,104.7,7.65c1.319,3.481,1.609,4.426,1.637,4.522l1.687,5.62-.873.451-3.7-4.74A54.91,54.91,0,0,0,93.233,5.579a48.377,48.377,0,0,0-5.955-2.96l-.812-.356c.432.892.83,1.725,1.205,2.522A27.4,27.4,0,0,1,89.985,12.9l.108,1.092-.895-.636a.511.511,0,0,1-.075-.065A72.083,72.083,0,0,0,80.116,5.65C78.541,4.531,77.138,3.578,75.93,2.8c.22,1.548.466,3.371.615,4.763.34,3.235-.189,4.606-.693,5.186l-1.02,1.176-1.535-.9A22.705,22.705,0,0,1,66.3,5.788C65.115,3.906,64.118,2.225,63.4.983a13.957,13.957,0,0,0-2.532,7.058,33.905,33.905,0,0,0,.7,8.686l.3,1.147-1.017-.579-.05-.023a17.042,17.042,0,0,1-3.356-2.036,14.839,14.839,0,0,1-4.568-5.715,50.2,50.2,0,0,1-2.15-5.833A12.015,12.015,0,0,0,48.8,7.851c-.995,4.121-.183,6.305-.156,6.376v0l2.307,5.553-1.007-.3a34.867,34.867,0,0,1-4.019-1.515c-2.839-1.285-4.531-2.608-5.028-3.932a19.937,19.937,0,0,1-.723-6.685c0-.043,0-.086,0-.128C39.583,7.675,38.746,8.4,38.4,8.7a3.673,3.673,0,0,0-1.491,2.123c-.1.247-.216.553-.364.916-.523,1.723-.347,4.979-.271,6.372.04.734.043.794-.023.936a3.572,3.572,0,0,1-3.319,2.4c-2.54,0-5.341-2.552-6.427-3.649l-.026-.027-.1-.081-.056-.17-1.613-1.4a38.639,38.639,0,0,1-7.534-9.38c-.674-1.2-1.249-2.3-1.713-3.292a15.414,15.414,0,0,0-3.1,5.3,11.364,11.364,0,0,0,.471,6.769l2.813,6.4-4.532-2.4L7.972,17.754l-.03-.023-.023-.017a5.175,5.175,0,0,1-2.233-4.049c0-.855.044-1.7.079-2.442.025-.532.05-1.072.055-1.52a14.3,14.3,0,0,0-1.293,1.929A15.645,15.645,0,0,1,2.982,13.9a5.31,5.31,0,0,1-1.091,1.308A10.274,10.274,0,0,0,.628,16.652Z" transform="translate(85.916 110.307) rotate(-133)" fill="#707070"/>
    <path id="Path_28" data-name="Path 28" d="M44.8.247q-.68.064-1.426.159A83.966,83.966,0,0,0,33.784,2.3s5.383,3.8,7.905,9.229C43.71,7.935,45.028,1.5,45.028,1.5a22.351,22.351,0,0,1,8.5,8.7c1.769-6,1.526-7.7,1.526-7.7S50.678.479,50.662.445C49.728-.016,49.294-.179,44.8.247ZM31.187,2.978A146.015,146.015,0,0,0,8.481,11.32s5.111,9.326,8.414,12.161c.048-6.34,4.539-14.247,4.539-14.247s6.5,2.546,7.213,7.093C31.934,10.183,31.187,2.978,31.187,2.978ZM7.051,11.958C5.578,12.669-1.18,21.972.18,22.6c-.178-.652,3.1-5.575,3.1-5.575Z" transform="translate(93.192 89.574) rotate(141)" fill="#fff"/>
    <path id="Path_28_-_Outline" data-name="Path 28 - Outline" d="M48.544-.5a4.328,4.328,0,0,1,2.339.5l.154.076,0,0C51.7.4,54.571,1.721,55.158,1.99H55.2l.123.078c.242.154.25.378.242.791a11.552,11.552,0,0,1-.114,1.3A44.09,44.09,0,0,1,54,10.336l-.34,1.152-.578-1.053a22.48,22.48,0,0,0-7.714-8.164,40.9,40.9,0,0,1-3.246,9.5l-.478.85-.411-.884C38.8,6.493,33.548,2.741,33.5,2.7l-.889-.628,1.056-.265a84.99,84.99,0,0,1,9.646-1.9c.5-.064.985-.118,1.442-.161C46.571-.423,47.741-.5,48.544-.5ZM50.44.894A3.371,3.371,0,0,0,48.544.5c-.77,0-1.911.075-3.7.245l-.169.016.577.291a18.27,18.27,0,0,1,3.086,2.121,23.878,23.878,0,0,1,5.027,5.759,26.726,26.726,0,0,0,1.194-6.117l-.4-.186-1.505-.7c-.634-.294-1.142-.53-1.509-.7s-.576-.27-.7-.34ZM41.7,10.424A47.889,47.889,0,0,0,44.538,1.4l.13-.636C44.274.8,43.86.848,43.435.9a80.9,80.9,0,0,0-8.521,1.63c.558.45,1.347,1.123,2.227,1.987A25.448,25.448,0,0,1,41.7,10.424ZM31.624,2.34l.061.587a25.717,25.717,0,0,1-.037,4.465,24.33,24.33,0,0,1-2.56,9.171l-.7,1.314L28.153,16.4c-.563-3.581-5.106-5.9-6.5-6.531-.886,1.662-4.219,8.266-4.26,13.611l-.008,1.077-.817-.7C13.235,21,8.253,11.944,8.042,11.56l-.256-.468.483-.226A145.843,145.843,0,0,1,31.055,2.5ZM28.772,14.934A26.242,26.242,0,0,0,30.73,3.623,145.038,145.038,0,0,0,9.179,11.546c.982,1.744,4.539,7.916,7.265,10.806a29.486,29.486,0,0,1,2.274-8.561A45.153,45.153,0,0,1,21,8.987l.214-.377.4.158a18.16,18.16,0,0,1,3.444,1.9A10.087,10.087,0,0,1,28.772,14.934ZM6.834,11.507l.619.749L3.689,17.311c-.079.119-.794,1.2-1.507,2.365A12.5,12.5,0,0,0,.676,22.518l.268.982-.974-.448a.841.841,0,0,1-.47-.812c-.012-1.331,2.169-4.559,3.108-5.885C3.729,14.771,5.881,11.968,6.834,11.507Z" transform="translate(93.192 89.574) rotate(141)" fill="#707070"/>
    <path id="Path_43" data-name="Path 43" d="M296.147,249.338c.5-.118.61.311.822.711a5.62,5.62,0,0,1,.011,1.811c-.05.371-.241,1.688-.711,1.678-.346-.007-.636-.658-.76-.969-.257-.637-.718-1.642-.351-2.316A1.769,1.769,0,0,1,296.147,249.338Z" transform="translate(-207.127 -200.969)" fill="#fff"/>
    <path id="Path_42" data-name="Path 42" d="M289.867,247.423a9.207,9.207,0,0,1,1.287.013c2.471,2.634.384,7.42-1.9,9.434a7.707,7.707,0,0,0,1.32-2.773C290.911,252.5,291.214,248.725,289.867,247.423Z" transform="translate(-197.579 -200.969)" fill="#5e787c"/>
    <path id="Path_41" data-name="Path 41" d="M292.731,251.957c1.958-.875,3.9-1.893,5.99-2.914a16,16,0,0,1,4.709-1.533,8.411,8.411,0,0,1,.474,6.819,6.518,6.518,0,0,1-2.711,3.379,7.967,7.967,0,0,1-1.17.508,8.663,8.663,0,0,1-6.14-2.12C292.1,254.459,291.5,253.05,292.731,251.957Zm7.724,2.2c.94.931,1.8-.278,2.06-1.348.232-.966.486-3.678-1-4.153a1.388,1.388,0,0,0-1.467.726A3.978,3.978,0,0,0,300.455,254.156Z" transform="translate(-212.056 -200.969)" fill="#162435"/>
    <path id="Path_34" data-name="Path 34" d="M185.652,304.16a53.127,53.127,0,0,0-4.413,6.966c-2.727,5.54-2.35,11.112-.341,16.763a36.914,36.914,0,0,1,.381-11.991A42.538,42.538,0,0,1,185.652,304.16Z" transform="translate(-26.581 -243.762)" fill="#6c858d"/>
    <path id="Path_35" data-name="Path 35" d="M177.955,301.022c-2.039,2.392-4.334,4.526-5.906,7.636-2.6,5.135-1.769,9.459-.461,13.878a25.09,25.09,0,0,1,.5-9.055A48.931,48.931,0,0,1,177.955,301.022Z" transform="translate(-25.858 -243.762)" fill="#6c858d"/>
    <path id="Path_36" data-name="Path 36" d="M189.84,327.449c.309-7.642,2.675-15.439,5.447-22.505a73.783,73.783,0,0,0-4.372,9.419A26.491,26.491,0,0,0,189.84,327.449Z" transform="translate(-29.175 -243.762)" fill="#6c858d"/>
  </g>
</svg>
