<svg xmlns="http://www.w3.org/2000/svg" width="377.901" height="147.445" viewBox="0 0 377.901 147.445">
  <g id="Group_62" data-name="Group 62" transform="translate(4177.325 -6859.081)">
    <g id="Group_58" data-name="Group 58" transform="translate(1379.624 -756.318)">
      <g id="noun-quotation-mark-4303798" transform="translate(-5574.854 7652.573)">
        <path id="Path_65" data-name="Path 65" d="M11.846,22.479c1.122.471,2.166,1.2,2.284,2.08a8.323,8.323,0,0,0-1.506-.707,8.479,8.479,0,0,0-3.38-.236A4.641,4.641,0,0,0,5.82,25.34c-1.2,1.7-.539,3.575,1.421,4.526a8.591,8.591,0,0,0,7.36-.258c2.471-1.237,3.623-3.522,2.893-5.593A6.563,6.563,0,0,0,14.921,21.4a6.279,6.279,0,0,0-4.278-1.058c-.472.151-.951.519-.785.985C10.173,22.263,11.195,22.205,11.846,22.479Z" transform="translate(409.301 -21.636) rotate(73)" fill="#00d0e4" stroke="#000" stroke-width="1"/>
        <path id="Path_66" data-name="Path 66" d="M20.831,22.479c1.122.471,2.165,1.2,2.282,2.08a8.323,8.323,0,0,0-1.506-.707,8.488,8.488,0,0,0-3.382-.236,4.632,4.632,0,0,0-3.419,1.723c-1.2,1.7-.539,3.575,1.419,4.526a8.588,8.588,0,0,0,7.358-.258c2.472-1.232,3.624-3.522,2.9-5.593A6.565,6.565,0,0,0,23.9,21.4a6.282,6.282,0,0,0-4.275-1.058c-.47.151-.948.519-.783.985C19.16,22.263,20.179,22.206,20.831,22.479Z" transform="translate(404.404 -43.684) rotate(73)" fill="#00d0e4" stroke="#000" stroke-width="1"/>
        <path id="Path_67" data-name="Path 67" d="M82.333,67.6c-1.12-.472-2.173-1.2-2.291-2.081a8,8,0,0,0,1.514.7,8.356,8.356,0,0,0,3.383.241,4.652,4.652,0,0,0,3.421-1.724c1.193-1.7.543-3.581-1.428-4.524a8.607,8.607,0,0,0-7.358.252c-2.47,1.236-3.617,3.528-2.894,5.6a6.685,6.685,0,0,0,2.573,2.617,6.257,6.257,0,0,0,4.283,1.053c.472-.148.941-.514.783-.982C84,67.81,82.982,67.868,82.333,67.6Z" transform="translate(-43.465 19.429)" fill="#00d0e4" stroke="#000" stroke-width="1"/>
        <path id="Path_68" data-name="Path 68" d="M73.352,67.6c-1.12-.472-2.173-1.2-2.29-2.081a7.965,7.965,0,0,0,1.515.7,8.33,8.33,0,0,0,3.379.241,4.64,4.64,0,0,0,3.421-1.724c1.193-1.7.543-3.581-1.428-4.524a8.591,8.591,0,0,0-7.351.252c-2.473,1.231-3.621,3.528-2.9,5.6a6.694,6.694,0,0,0,2.573,2.617,6.255,6.255,0,0,0,4.283,1.053c.47-.148.941-.514.785-.982C75.017,67.81,74.006,67.868,73.352,67.6Z" transform="translate(-20.954 19.429)" fill="#00d0e4" stroke="#000" stroke-width="1"/>
        <path id="Path_63" data-name="Path 63" d="M27.823,123.168a6.905,6.905,0,0,1-4.387-5.48c-.7-5.25.225-11.959.159-17.306-.073-3.675.315-7.368.336-11.058.026-3.153-.292-6.307-.225-9.457.108-5.044.448-10.06.6-15.1.117-3.243-.108-6.514.117-9.74.194-3.559.048-8.12.194-12.222a14.708,14.708,0,0,1,7.716-12.145c2.469-1.221,17.553-3.629,18.9-3.615,1.167-.015,2.264-.015,3.348-.015,11.974,0,15.451.5,29.7.568,4.629.015,8.627-.5,13.139-.553,6.113-.075,12.289.361,18.393.239,6.47-.132,14.153-.568,20.65-.542,6.134.032,10.672.182,16.78.167,4.335,0,8.7,0,13.01-.132,6.578-.194,13.07.06,19.657-.1,4.607-.122,8.556-.349,13.118-.213,4.314.132,8.917.361,13.32.361,4.278.017,134.057-.9,138.28-1.052,3.994-.164,11.03,1.081,14.2.332,4.991-1.174,9.775-1.291,12.066.72.9.8,1.795,2.13.194,2.851-3.213,1.473-15.751.349-20.348.574-8.07.4-139.471,1.174-147.555,1.488-7.929.332-18.8-.6-26.892-.421-8.221.182-14.019.213-22.242.4-4.78.123-9.723-.358-14.511-.254-12.893.314-23.475-.029-36.342.271-21.682.525-29.182.374-50.724.346-2.765-.072-6.952,1.01-10.027,1.01-1.264.018-8.054,1.3-9.267,1.373-.039.539-4.28.325-5.976,1.926-1.864,2.162-2.243,5.056-2.264,7.681.108,2.333.194,4.667.156,7.163-.117,5.105.069,10.7-.048,15.805-.069,3.41-.6,6.815-.63,10.221q-.071,13.174.108,26.344c.069,4.07-.85,9.535.854,13.464a6.994,6.994,0,0,1,.742,2.283c.031.872-.518,1.531-1.511,2.248C29.877,122.144,28.542,122.652,27.823,123.168Z" transform="translate(-4.802 -61.889)" fill="#00d0e4" stroke="#000" stroke-width="1"/>
        <path id="Path_63-2" data-name="Path 63" d="M373.324,25.255a6.905,6.905,0,0,1,4.387,5.48c.7,5.25-.225,11.959-.159,17.306.073,3.675-.315,7.368-.336,11.058-.026,3.153.292,6.307.225,9.457-.108,5.044-.448,10.06-.6,15.1-.117,3.243.108,6.514-.117,9.74-.194,3.559-.048,8.12-.194,12.222a14.708,14.708,0,0,1-7.716,12.145c-2.469,1.221-17.553,3.629-18.9,3.615-1.167.015-2.264.015-3.348.015-11.974,0-15.451-.5-29.7-.568-4.629-.015-8.627.5-13.139.553-6.113.075-12.289-.361-18.393-.239-6.47.132-14.153.568-20.65.542-6.134-.032-10.672-.182-16.78-.167-4.335,0-8.7,0-13.01.132-6.578.194-13.07-.06-19.657.1-4.607.122-8.556.349-13.118.213-4.314-.132-8.917-.361-13.32-.361-2.421-.01-45.048.28-82.629.564-28.337.213-53.819.423-55.652.488a142.239,142.239,0,0,1-16.776-1.079c-5.458-1.592-6.693-1.4-8.983-3.412-1.483-1.538-1.979-5.117-1.137-6.254.5-.718,2.925-1.106,3.752-1.478,1.453.727,3.362,1.592,7.121,3.193,1.682.717,3.812.722,6.979,2.038,3.07.341,13.188,1.219,28.07,1.264,4.63.014,9.666.025,15.235.033,5.108.008,10.472.012,16.272.015,39.585.017,86.239-.1,90.914-.284,7.929-.332,18.8.6,26.892.421,8.221-.182,14.019-.213,22.242-.4,4.78-.123,9.723.358,14.511.254,12.893-.314,23.475.029,36.342-.271,21.682-.525,29.182-.374,50.724-.346,2.765.072,6.952-1.01,10.027-1.01,1.264-.018,8.054-1.3,9.267-1.373.039-.539,4.28-.325,5.976-1.926,1.864-2.162,2.243-5.056,2.264-7.681-.108-2.333-.194-4.667-.156-7.163.117-5.105-.069-10.7.048-15.805.069-3.41.6-6.815.63-10.221q.071-13.174-.108-26.344c-.069-4.07.85-9.535-.854-13.464a6.994,6.994,0,0,1-.742-2.283C368.95,27.027,372.073,26.154,373.324,25.255Z" transform="translate(17.122 -12.932)" fill="#00d0e4" stroke="#000" stroke-width="1"/>
      </g>
    </g>
    <path id="Union_9" data-name="Union 9" d="M21.254,102a39.375,39.375,0,0,1-4.5-3.188S14.435,102,12.254,102H1.753V96s12-.187,12-3.187V49.6a11.918,11.918,0,0,0-3.008,2.183c-2.084,1.983-5.694.606-5.694.606A6.47,6.47,0,0,1,3.733,49.08c0-2.651,1.681-4.8,3.754-4.8h6.266V9.188c0-3-12-3.188-12-3.188V0h10.5c2.18,0,4.5,3.187,4.5,3.187S18.873,0,21.254,0h10.5V6s-12,.187-12,3.188V44.28h5.255c2.072,0,3.754,2.149,3.754,4.8a16.134,16.134,0,0,1-.791,3.834A16.159,16.159,0,0,1,22.8,51.781c-1.055-.578-2.047-1.234-3.046-1.766v42.8c0,3,12,3.187,12,3.187v6Z" transform="translate(-3850.748 6881.811)" fill="#fff" stroke="#00d0e4" stroke-width="0.957"/>
  </g>
</svg>
