<svg enable-background="new 0 0 128 128" viewBox="0 0 128 128" xmlns="http://www.w3.org/2000/svg" xmlns:xlink="http://www.w3.org/1999/xlink"><linearGradient id="a" gradientUnits="userSpaceOnUse" x1="64.254" x2="64.254" y1="41.925" y2="119.54"><stop offset=".3212" stop-color="#eceff1"/><stop offset="1" stop-color="#b0bec5"/></linearGradient><path d="m16.61 28.33h21.12v8.9h-21.12z" fill="#616161" transform="matrix(.7071 .7071 -.7071 .7071 31.136 -9.6101)"/><path d="m22.85 25 12.1 12.1-3.46 3.46-12.11-12.1zm0-2.83-6.29 6.29 14.93 14.93 6.29-6.29z" fill="#424242" opacity=".2"/><path d="m29.32 26.62-8.13 8.13c-1.46 1.46-3.83 1.46-5.29 0l-.78-.78c-1.46-1.46-1.46-3.83 0-5.29l8.13-8.13c1.46-1.46 3.83-1.46 5.29 0l.78.78c1.46 1.47 1.46 3.84 0 5.29z" fill="#757575"/><path d="m25.9 21.46c.46 0 .9.18 1.23.51l.78.78c.68.68.68 1.78 0 2.46l-8.13 8.13c-.33.33-.76.51-1.23.51s-.9-.18-1.23-.51l-.78-.78c-.68-.68-.68-1.78 0-2.46l8.13-8.13c.33-.33.76-.51 1.23-.51m0-2c-.96 0-1.91.36-2.64 1.09l-8.13 8.13c-1.46 1.46-1.46 3.83 0 5.29l.78.78c.73.73 1.69 1.09 2.64 1.09.96 0 1.91-.36 2.64-1.09l8.13-8.13c1.46-1.46 1.46-3.83 0-5.29l-.78-.78c-.73-.72-1.69-1.09-2.64-1.09z" fill="#424242" opacity=".2"/><path d="m90.31 28.33h21.12v8.9h-21.12z" fill="#616161" transform="matrix(-.7071 .7071 -.7071 -.7071 195.38 -15.368)"/><path d="m105.19 25 3.46 3.46-12.1 12.1-3.46-3.46zm0-2.83-14.93 14.93 6.29 6.29 14.93-14.93z" fill="#424242" opacity=".2"/><path d="m98.72 26.62 8.13 8.13c1.46 1.46 3.83 1.46 5.29 0l.78-.78c1.46-1.46 1.46-3.83 0-5.29l-8.13-8.13c-1.46-1.46-3.83-1.46-5.29 0l-.78.78c-1.46 1.47-1.46 3.84 0 5.29z" fill="#757575"/><path d="m102.14 21.46c.46 0 .9.18 1.23.51l8.13 8.13c.68.68.68 1.78 0 2.46l-.78.78c-.33.33-.76.51-1.23.51s-.9-.18-1.23-.51l-8.13-8.13c-.68-.68-.68-1.78 0-2.46l.78-.78c.33-.33.77-.51 1.23-.51m0-2c-.96 0-1.91.36-2.64 1.09l-.78.78c-1.46 1.46-1.46 3.83 0 5.29l8.13 8.13c.73.73 1.69 1.09 2.64 1.09.96 0 1.91-.36 2.64-1.09l.78-.78c1.46-1.46 1.46-3.83 0-5.29l-8.13-8.13c-.72-.72-1.68-1.09-2.64-1.09z" fill="#424242" opacity=".2"/><path d="m53.41 11.03h21.12v8.9h-21.12z" fill="#616161" transform="matrix(0 1 -1 0 79.452 -48.495)"/><path d="m66.42 6.92v17.12h-4.9v-17.12zm2-2h-8.9v21.12h8.9z" fill="#424242" opacity=".2"/><path d="m74.43 15.57h-20.36c-2.9 0-5.25-2.35-5.25-5.25v-1c0-2.9 2.35-5.25 5.25-5.25h20.36c2.9 0 5.25 2.35 5.25 5.25v1c0 2.9-2.35 5.25-5.25 5.25z" fill="#757575"/><path d="m74.43 6.07c1.79 0 3.25 1.46 3.25 3.25v1c0 1.79-1.46 3.25-3.25 3.25h-20.36c-1.79 0-3.25-1.46-3.25-3.25v-1c0-1.79 1.46-3.25 3.25-3.25zm0-2h-20.36c-2.9 0-5.25 2.35-5.25 5.25v1c0 2.9 2.35 5.25 5.25 5.25h20.36c2.9 0 5.25-2.35 5.25-5.25v-1c0-2.9-2.35-5.25-5.25-5.25z" fill="#424242" opacity=".2"/><circle cx="64" cy="71.9" fill="#616161" r="52.03"/><circle cx="64.25" cy="71.9" fill="url(#a)" r="40.32"/><path d="m63.08 46.97-3.23 27.6 4.02 2.33 4.74-2.33-3.51-27.61c-.18-1.03-1.86-1.02-2.02.01z" fill="#f44336"/><g fill="#757575"><circle cx="31.96" cy="72.01" r="3.47"/><circle cx="63.91" cy="38.98" r="3.47"/><circle cx="63.91" cy="103.96" r="3.47"/><circle cx="95.86" cy="72.01" r="3.47"/></g><path d="m64.25 33.58c21.13 0 38.32 17.19 38.32 38.32s-17.19 38.32-38.32 38.32-38.32-17.19-38.32-38.32 17.19-38.32 38.32-38.32m0-2c-22.27 0-40.32 18.05-40.32 40.32s18.05 40.32 40.32 40.32 40.32-18.05 40.32-40.32-18.05-40.32-40.32-40.32z" fill="#424242" opacity=".2"/><path d="m64 22.87c27.04 0 49.03 22 49.03 49.03s-22 49.03-49.03 49.03-49.03-22-49.03-49.03 21.99-49.03 49.03-49.03m0-3c-28.74 0-52.03 23.3-52.03 52.03s23.3 52.03 52.03 52.03 52.03-23.3 52.03-52.03-23.29-52.03-52.03-52.03z" fill="#424242" opacity=".2"/><circle cx="64" cy="71.9" fill="#424242" r="6.07"/><circle cx="64" cy="71.9" fill="#cfd8dc" r="2.6"/></svg>