<svg width="345" height="84" viewBox="0 0 345 84" fill="none" xmlns="http://www.w3.org/2000/svg">
<path d="M309.67 52.4743C310.236 52.4747 310.79 52.3642 311.261 52.1568C311.731 51.9494 312.099 51.6543 312.316 51.309C312.533 50.9637 312.59 50.5836 312.48 50.2169C312.37 49.8501 312.097 49.5131 311.697 49.2486C311.297 48.9841 310.788 48.8039 310.233 48.7308C309.678 48.6577 309.102 48.6951 308.579 48.8381C308.056 48.9811 307.609 49.2233 307.295 49.5341C306.98 49.845 306.813 50.2104 306.812 50.5843C306.813 51.0851 307.114 51.5654 307.65 51.9197C308.186 52.2741 308.912 52.4735 309.67 52.4743Z" fill="#231F20"/>
<path d="M214.967 69.3646C214.911 69.1106 214.665 68.9526 214.435 69.0136C214.298 69.075 214.194 69.1625 214.135 69.2645C214.076 69.3664 214.066 69.4778 214.106 69.5836L214.149 69.7716L214.58 69.6616L214.153 69.7756C214.168 69.8525 214.206 69.9266 214.265 69.9936C214.306 70.0456 214.359 70.1036 214.417 70.1716C214.64 70.4057 214.839 70.65 215.011 70.9026C215.142 71.1246 215.414 71.1916 215.617 71.0526C215.725 70.9615 215.794 70.8531 215.818 70.7386C215.842 70.6243 215.821 70.5079 215.758 70.4006C215.556 70.0923 215.319 69.7947 215.048 69.5106C215.007 69.4656 215.001 69.4876 214.992 69.4806L214.967 69.3646Z" fill="#FFFFFE"/>
<path d="M213.542 70.7584C213.486 71.0124 213.239 71.1704 213.009 71.1094C212.455 70.9684 212.684 70.2844 212.986 69.9534C213.21 69.7193 213.409 69.475 213.581 69.2224C213.711 69.0004 213.984 68.9334 214.187 69.0724C214.294 69.1636 214.364 69.2719 214.388 69.3864C214.412 69.5007 214.391 69.6171 214.327 69.7244C214.146 70.0344 213.571 70.5744 213.536 70.7584H213.542Z" fill="#FFFFFE"/>
<path d="M174.901 63.8077H151.846C150.11 63.8077 148.703 64.7609 148.703 65.9367V78.7107C148.703 79.8865 150.11 80.8397 151.846 80.8397H174.901C176.637 80.8397 178.045 79.8865 178.045 78.7107V65.9367C178.045 64.7609 176.637 63.8077 174.901 63.8077Z" fill="#29B71C"/>
<path d="M172.805 78.001H153.942C153.664 78.001 153.398 77.9262 153.201 77.7931C153.004 77.6601 152.894 77.4795 152.894 77.2913C152.894 77.1031 153.004 76.9226 153.201 76.7895C153.398 76.6565 153.664 76.5817 153.942 76.5817H172.805C173.083 76.5817 173.349 76.6565 173.546 76.7895C173.742 76.9226 173.853 77.1031 173.853 77.2913C173.853 77.4795 173.742 77.6601 173.546 77.7931C173.349 77.9262 173.083 78.001 172.805 78.001Z" fill="#EEEEEE"/>
<path d="M166.518 78.7106C166.24 78.7106 165.974 78.6358 165.777 78.5027C165.581 78.3697 165.47 78.1891 165.47 78.0009V76.5816C165.47 76.3934 165.581 76.2129 165.777 76.0798C165.974 75.9467 166.24 75.8719 166.518 75.8719C166.796 75.8719 167.063 75.9467 167.259 76.0798C167.456 76.2129 167.566 76.3934 167.566 76.5816V78.0009C167.566 78.1891 167.456 78.3697 167.259 78.5027C167.063 78.6358 166.796 78.7106 166.518 78.7106Z" fill="#00AEEF"/>
<path d="M168.038 69.9605L160.702 67.4767C160.543 67.4222 160.365 67.3963 160.187 67.4014C160.008 67.4064 159.835 67.4423 159.682 67.5056C159.53 67.5689 159.404 67.6575 159.317 67.763C159.229 67.8684 159.183 67.9873 159.183 68.1083V73.7005C159.184 73.8269 159.235 73.9508 159.331 74.0593C159.427 74.1679 159.564 74.2571 159.728 74.3179C159.879 74.3796 160.053 74.4115 160.231 74.4101C160.427 74.4105 160.619 74.3736 160.786 74.3037L168.122 71.1953C168.28 71.1283 168.41 71.0338 168.496 70.9214C168.583 70.8091 168.624 70.6832 168.614 70.5566C168.604 70.4317 168.546 70.3107 168.444 70.206C168.343 70.1013 168.203 70.0167 168.038 69.9605Z" fill="#EEEEEE"/>
<path d="M151.846 63.8077C151.013 63.8077 150.213 64.032 149.623 64.4313C149.034 64.8306 148.703 65.3721 148.703 65.9367V78.7107C148.703 79.2753 149.034 79.8168 149.623 80.2161C150.213 80.6153 151.013 80.8397 151.846 80.8397H163.374V63.8077H151.846Z" fill="#E53935"/>
<path d="M153.942 76.5817C153.664 76.5817 153.398 76.6565 153.201 76.7895C153.004 76.9226 152.894 77.1031 152.894 77.2913C152.894 77.4795 153.004 77.6601 153.201 77.7931C153.398 77.9262 153.664 78.001 153.942 78.001H163.373V76.5817H153.942Z" fill="#FAFAFA"/>
<path d="M160.702 67.4767C160.543 67.4222 160.365 67.3963 160.187 67.4014C160.008 67.4064 159.835 67.4423 159.682 67.5056C159.53 67.5689 159.404 67.6575 159.317 67.763C159.229 67.8684 159.183 67.9873 159.183 68.1083V73.7005C159.184 73.8269 159.235 73.9508 159.331 74.0593C159.427 74.1679 159.564 74.2571 159.728 74.3179C159.879 74.3796 160.053 74.4115 160.231 74.4101C160.427 74.4105 160.619 74.3736 160.786 74.3037L163.374 73.2037V68.378L160.702 67.4767Z" fill="#00AEEF"/>
<path d="M208.855 66.2308H212.278L207.388 63V65.2615C207.388 65.7968 208.045 66.2308 208.855 66.2308Z" fill="#00AEEF"/>
<path d="M206.854 64.6154H186.603V70.2692H206.854C207.149 70.2692 207.387 70.1286 207.387 69.9551V64.9294C207.387 64.756 207.148 64.6154 206.854 64.6154Z" fill="#C6CACF"/>
<path d="M205.644 70.2693H183.458C182.993 70.2693 182.761 69.8826 183.089 69.6565L186.889 67.0385L183.089 64.4205C182.761 64.1944 182.993 63.8077 183.458 63.8077H205.644C205.932 63.8077 206.165 63.9685 206.165 64.1667V69.9103C206.165 70.1085 205.932 70.2693 205.644 70.2693Z" fill="#00AEEF"/>
<path d="M194.617 65.9297H192.599C192.32 65.9297 192.094 66.079 192.094 66.263V68.2632C192.094 68.4473 192.32 68.5965 192.599 68.5965C192.878 68.5965 193.103 68.4473 193.103 68.2632V67.5965H194.617C194.896 67.5965 195.122 67.4472 195.122 67.2631V66.263C195.122 66.079 194.896 65.9297 194.617 65.9297ZM194.113 66.9298H193.103V66.5964H194.113V66.9298Z" fill="white"/>
<path d="M197.14 65.9297H196.131C195.852 65.9297 195.626 66.079 195.626 66.263V68.2632C195.626 68.4473 195.852 68.5965 196.131 68.5965H198.149C198.428 68.5965 198.654 68.4473 198.654 68.2632V66.9298C198.654 66.3783 197.975 65.9297 197.14 65.9297ZM197.645 67.9298H196.636V66.5964H197.14C197.418 66.5964 197.645 66.746 197.645 66.9298L197.645 67.9298Z" fill="white"/>
<path d="M201.682 65.9297H199.663C199.385 65.9297 199.159 66.079 199.159 66.263V68.2632C199.159 68.4473 199.385 68.5965 199.663 68.5965C199.942 68.5965 200.168 68.4473 200.168 68.2632V67.5965H201.177C201.456 67.5965 201.682 67.4472 201.682 67.2631C201.682 67.079 201.456 66.9298 201.177 66.9298H200.168V66.5964H201.682C201.96 66.5964 202.186 66.4471 202.186 66.2631C202.186 66.079 201.96 65.9297 201.682 65.9297Z" fill="white"/>
<path d="M206.891 81.5769H191.99C191.716 81.5769 191.494 81.4202 191.494 81.2269V71.4269C191.494 71.2336 191.716 71.0769 191.99 71.0769H206.891C207.165 71.0769 207.387 71.2336 207.387 71.4269V81.2269C207.387 81.4202 207.165 81.5769 206.891 81.5769Z" fill="#C6CACF"/>
<path d="M192.487 80.8769V71.0769H191.99C191.716 71.0769 191.494 71.2336 191.494 71.4269V81.2269C191.494 81.4202 191.716 81.5769 191.99 81.5769H206.891C207.165 81.5769 207.387 81.4202 207.387 81.2269V80.8769H192.487Z" fill="#00AEEF"/>
<path d="M205.695 79.9615H200.522C200.262 79.9615 200.052 79.8065 200.052 79.6154V75.4615C200.052 75.2703 200.262 75.1154 200.522 75.1154H205.695C205.954 75.1154 206.165 75.2704 206.165 75.4615V79.6154C206.165 79.8065 205.954 79.9615 205.695 79.9615Z" fill="black"/>
<path d="M204.942 75.9231H201.274V79.1539H204.942V75.9231Z" fill="#00AEEF"/>
<path d="M205.718 73.2636H200.168C199.889 73.2636 199.663 73.1143 199.663 72.9303C199.663 72.7462 199.889 72.5969 200.168 72.5969H205.718C205.997 72.5969 206.223 72.7462 206.223 72.9303C206.223 73.1144 205.997 73.2636 205.718 73.2636Z" fill="#EF0000"/>
<path d="M205.718 74.5971H200.168C199.889 74.5971 199.663 74.4478 199.663 74.2638C199.663 74.0796 199.889 73.9304 200.168 73.9304H205.718C205.997 73.9304 206.223 74.0797 206.223 74.2638C206.223 74.4478 205.997 74.5971 205.718 74.5971Z" fill="#EF0000"/>
<path d="M198.654 73.2636H193.608C193.329 73.2636 193.103 73.1143 193.103 72.9303C193.103 72.7462 193.329 72.5969 193.608 72.5969H198.654C198.932 72.5969 199.158 72.7462 199.158 72.9303C199.158 73.1144 198.932 73.2636 198.654 73.2636Z" fill="#EF0000"/>
<path d="M198.654 74.5971H193.608C193.329 74.5971 193.103 74.4478 193.103 74.2638C193.103 74.0796 193.329 73.9304 193.608 73.9304H198.654C198.932 73.9304 199.158 74.0797 199.158 74.2638C199.158 74.4478 198.932 74.5971 198.654 74.5971Z" fill="#EF0000"/>
<path d="M198.654 75.9306H193.608C193.329 75.9306 193.103 75.7813 193.103 75.5973C193.103 75.4131 193.329 75.2639 193.608 75.2639H198.654C198.932 75.2639 199.158 75.4132 199.158 75.5973C199.158 75.7813 198.932 75.9306 198.654 75.9306Z" fill="#EF0000"/>
<path d="M198.654 77.264H193.608C193.329 77.264 193.103 77.1147 193.103 76.9306C193.103 76.7466 193.329 76.5973 193.608 76.5973H198.654C198.932 76.5973 199.158 76.7466 199.158 76.9306C199.158 77.1147 198.932 77.264 198.654 77.264Z" fill="#EF0000"/>
<path d="M198.654 78.5974H193.608C193.329 78.5974 193.103 78.4481 193.103 78.264C193.103 78.0799 193.329 77.9307 193.608 77.9307H198.654C198.932 77.9307 199.158 78.0799 199.158 78.264C199.158 78.4481 198.932 78.5974 198.654 78.5974Z" fill="#EF0000"/>
<path d="M198.654 79.9309H193.608C193.329 79.9309 193.103 79.7816 193.103 79.5975C193.103 79.4134 193.329 79.2642 193.608 79.2642H198.654C198.932 79.2642 199.158 79.4134 199.158 79.5975C199.158 79.7816 198.932 79.9309 198.654 79.9309Z" fill="#EF0000"/>
<path d="M116.915 81.1731V83.1923H145.035V81.1731L131.039 79.9615L116.915 81.1731Z" fill="#EEEEEE"/>
<path d="M116.915 79.5577V81.577H145.035V79.5577L131.039 78.3462L116.915 79.5577Z" fill="#DCDCDC"/>
<path d="M145.035 64.6154V79.1538H143.201L138.922 71.8846L143.201 64.6154H145.035Z" fill="#EEEEEE"/>
<path d="M143.812 64.6154V65.844L139.382 71.8846L143.812 77.9252V79.1538H116.915V64.6154H143.812Z" fill="white"/>
<path d="M118.139 65.4231V74.6374L130.976 75.9231L143.813 74.6374V65.4231H118.139Z" fill="#29B71C"/>
<path d="M131.586 67.0385V70.2692C132.262 70.2692 132.809 69.546 132.809 68.6539C132.809 67.7618 132.262 67.0385 131.586 67.0385Z" fill="#FE5F1A"/>
<path d="M131.098 67.0385C131.368 67.0385 131.587 67.7617 131.587 68.6538C131.587 69.5459 131.368 70.2692 131.098 70.2692C130.017 70.2692 129.142 69.5459 129.142 68.6538C129.142 67.7617 130.017 67.0385 131.098 67.0385Z" fill="#00AEEF"/>
<path d="M143.812 76.7307L136.477 72.6923L141.93 73.3366L143.813 74.6392L143.812 76.7307Z" fill="#027372"/>
<path d="M140.846 73.5678L137.358 71.8846L132.865 73.5679L130.364 75.2299L136.132 78.3462H143.812V76.1077L140.846 73.5678Z" fill="#E53935"/>
<path d="M142.59 73.4424L141.565 73.5001L137.7 72.3047V70.2693L142.59 73.4424Z" fill="#EEEEEE"/>
<path d="M132.809 73.5001L136.939 70.2693L140.145 73.5L132.809 73.5001Z" fill="white"/>
<path d="M135.254 78.3461H133.019L124.251 72.6923L129.107 73.3643L135.254 78.3461Z" fill="#027372"/>
<path d="M127.536 73.5678L132.81 78.3462H118.139V74.8711L119.992 73.5679L124.239 71.8846L127.536 73.5678Z" fill="#00AEEF"/>
<path d="M129.141 73.4424L128.116 73.5001L124.251 72.3047V70.2693L129.141 73.4424Z" fill="#EEEEEE"/>
<path d="M119.361 73.5001L124.179 70.2693L127.919 73.5L119.361 73.5001Z" fill="white"/>
<path d="M145.77 82.3846C145.501 82.3846 145.282 82.5396 145.282 82.7308V83.3077H116.668V82.7308C116.668 82.5396 116.45 82.3846 116.181 82.3846C115.911 82.3846 115.693 82.5396 115.693 82.7308V83.6539C115.693 83.8451 115.911 84 116.181 84H145.77C146.039 84 146.258 83.8451 146.258 83.6539V82.7308C146.258 82.5396 146.039 82.3846 145.77 82.3846Z" fill="#00AEEF"/>
<path d="M145.77 79.9615C145.501 79.9615 145.282 80.1165 145.282 80.3077V80.8846H116.668V80.3077C116.668 80.1165 116.45 79.9615 116.181 79.9615C115.911 79.9615 115.693 80.1165 115.693 80.3077V81.2308C115.693 81.422 115.911 81.5769 116.181 81.5769H145.77C146.039 81.5769 146.258 81.422 146.258 81.2308V80.3077C146.258 80.1165 146.039 79.9615 145.77 79.9615Z" fill="#00AEEF"/>
<path d="M145.77 63.8077H116.181C115.911 63.8077 115.693 63.9543 115.693 64.1352V79.6342C115.693 79.815 115.911 79.9616 116.181 79.9616H145.77C146.039 79.9616 146.258 79.815 146.258 79.6342V64.1352C146.258 63.9543 146.039 63.8077 145.77 63.8077ZM145.282 79.3067H116.668V64.4626H145.282V79.3067Z" fill="#00AEEF"/>
<path d="M134.032 68.6538C134.032 67.7632 132.661 67.0385 130.975 67.0385C129.29 67.0385 127.919 67.7632 127.919 68.6538C127.919 69.5445 129.29 70.2692 130.975 70.2692C132.661 70.2692 134.032 69.5445 134.032 68.6538ZM128.884 68.6538C128.884 68.0444 129.822 67.5486 130.975 67.5486C132.129 67.5486 133.067 68.0444 133.067 68.6538C133.067 69.2633 132.129 69.7591 130.975 69.7591C129.822 69.7591 128.884 69.2633 128.884 68.6538Z" fill="black"/>
<path d="M116.915 78.0139C116.915 78.1974 117.145 78.3461 117.429 78.3461H144.52C144.804 78.3461 145.035 78.1974 145.035 78.0139V64.9475C145.035 64.764 144.804 64.6154 144.52 64.6154H117.429C117.145 64.6154 116.915 64.764 116.915 64.9475V67.6051C116.915 67.7886 117.145 67.9373 117.429 67.9373C117.714 67.9373 117.944 67.7886 117.944 67.6051V65.2797H144.006V73.6685L138.111 69.8617C137.91 69.732 137.585 69.732 137.384 69.8617L130.975 74.0006L124.566 69.8616C124.365 69.7319 124.039 69.732 123.838 69.8616L117.944 73.6685V68.9339C117.944 68.7504 117.714 68.6017 117.429 68.6017C117.145 68.6017 116.915 68.7504 116.915 68.9339V78.0139ZM137.748 70.5664L141.221 72.8095H134.274L137.748 70.5664ZM124.202 70.5664L127.676 72.8095H120.729L124.202 70.5664ZM119.7 73.4739H128.704L130.611 74.705C130.612 74.7058 134.04 76.9201 134.04 76.9201C134.141 76.9849 134.273 77.0173 134.404 77.0173C134.536 77.0173 134.667 76.9849 134.768 76.9201C134.969 76.7903 134.969 76.58 134.768 76.4503L131.702 74.4705L133.246 73.4739H142.25L144.006 74.6081V77.6817H117.944V74.6081L119.7 73.4739Z" fill="black"/>
<path fill-rule="evenodd" clip-rule="evenodd" d="M102.326 67.0648C102.489 67.0648 102.622 67.207 102.622 67.3806V73.3172H102.032V67.3806C102.032 67.2046 102.164 67.0648 102.326 67.0648Z" fill="#FFFFFE"/>
<g filter="url(#filter0_d_55_1128)">
<mask id="path-50-inside-1_55_1128" fill="white">
<path d="M308 1H52V1H308V1Z"/>
</mask>
<path d="M308 1H52V1H308V1Z" fill="#231F20"/>
<path d="M308 0.7H52V1.3H308V0.7ZM52 1.3H308V0.7H52V1.3Z" fill="black" mask="url(#path-50-inside-1_55_1128)"/>
</g>
<g filter="url(#filter1_d_55_1128)">
<mask id="path-52-inside-2_55_1128" fill="white">
<path d="M308 63H52V63H308V63Z"/>
</mask>
<path d="M308 63H52V63H308V63Z" fill="#231F20"/>
<path d="M308 62.7H52V63.3H308V62.7ZM52 63.3H308V62.7H52V63.3Z" fill="black" mask="url(#path-52-inside-2_55_1128)"/>
</g>
<path d="M104.806 5H294.136C295.922 4.99935 297.69 5.23045 299.34 5.68006C300.987 6.13711 302.484 6.79909 303.751 7.63001C305.012 8.46716 306.014 9.45914 306.698 10.5501C307.382 11.6372 307.734 12.8027 307.734 13.98V30.15H104.806C99.7578 30.15 94.9163 28.8252 91.3466 26.4669C87.7769 24.1087 85.7715 20.91 85.7715 17.575C85.7715 14.2399 87.7769 11.0414 91.3466 8.68311C94.9163 6.32484 99.7578 5 104.806 5Z" fill="#00AEEF"/>
<path d="M189.844 22.1101C189.229 22.1145 188.618 22.0503 188.036 21.9202C187.513 21.8132 187.033 21.6285 186.635 21.3801L186.885 20.0801C187.276 20.3683 187.754 20.5992 188.288 20.7577C188.823 20.9162 189.402 20.9987 189.988 21.0001C190.473 21.007 190.95 20.9125 191.35 20.7301C191.536 20.6486 191.688 20.5369 191.791 20.4056C191.893 20.2743 191.943 20.1278 191.936 19.9801C191.93 19.8296 191.866 19.6826 191.75 19.5531C191.634 19.4236 191.47 19.3158 191.273 19.2401C190.703 19.0144 190.044 18.9065 189.381 18.9302H188.736V17.7902H189.381C189.957 17.8053 190.525 17.6926 190.994 17.4701C191.174 17.3913 191.324 17.2863 191.432 17.1632C191.54 17.0401 191.604 16.9022 191.619 16.7601C191.621 16.6546 191.579 16.5506 191.499 16.4592C191.42 16.3678 191.304 16.2922 191.165 16.2401C190.868 16.1176 190.525 16.0518 190.175 16.0502C189.652 16.0481 189.132 16.1055 188.639 16.2201C188.135 16.3353 187.683 16.5312 187.322 16.7902L187.072 15.7001C187.423 15.4496 187.862 15.2607 188.35 15.1501C188.909 15.0107 189.502 14.9395 190.1 14.9401C190.994 14.9133 191.88 15.0631 192.646 15.3701C192.954 15.4961 193.208 15.673 193.381 15.8834C193.555 16.0938 193.643 16.3305 193.636 16.5701C193.636 16.8579 193.509 17.1397 193.269 17.3801C193.029 17.6177 192.721 17.8215 192.361 17.9801C192.048 18.1266 191.696 18.2319 191.323 18.2902C191.715 18.3323 192.096 18.4096 192.456 18.5201C192.879 18.6415 193.249 18.8305 193.533 19.0701C193.858 19.3612 194.019 19.7187 193.987 20.0801C193.986 20.4513 193.794 20.8113 193.44 21.1001C193.054 21.4259 192.547 21.6807 191.969 21.8401C191.297 22.0269 190.573 22.1189 189.844 22.1101ZM199.164 22.0402H198.242C197.875 22.0302 197.511 22.0301 197.146 22.0201C196.781 22.0101 196.474 22.0101 196.224 22.0101C195.974 22.0101 195.858 22.0001 195.858 22.0001C195.92 21.712 195.949 21.4211 195.944 21.1301C195.958 20.7401 195.965 20.3101 195.964 19.8401V17.2401C195.964 16.7701 195.964 16.3401 195.944 15.9401C195.949 15.6424 195.92 15.345 195.858 15.0502C196.076 15.0402 196.39 15.0301 196.799 15.0301C197.208 15.0301 197.654 15.0201 198.116 15.0101C198.578 15.0001 198.977 15.0001 199.316 15.0001C199.755 15.0042 200.192 15.0309 200.624 15.0801C201.115 15.1306 201.593 15.2248 202.046 15.3601C202.564 15.5102 203.031 15.7287 203.418 16.0021C203.805 16.2754 204.103 16.598 204.295 16.9501C204.551 17.4419 204.671 17.9602 204.649 18.4801C204.681 19.0865 204.497 19.6894 204.112 20.2401C203.794 20.6715 203.322 21.0455 202.737 21.3301C202.198 21.5861 201.593 21.7759 200.951 21.8901C200.366 21.9861 199.766 22.0364 199.164 22.0402ZM199.336 20.9501C199.874 20.9485 200.405 20.87 200.892 20.7201C201.411 20.5546 201.843 20.2898 202.132 19.9601C202.487 19.5358 202.657 19.0545 202.622 18.5701C202.658 18.0585 202.514 17.5484 202.2 17.0801C201.957 16.7434 201.547 16.4718 201.038 16.3102C200.516 16.1451 199.943 16.0628 199.365 16.0701C199.167 16.0701 198.929 16.0701 198.653 16.0801C198.378 16.0901 198.174 16.0901 198.021 16.1001V20.9001C198.161 20.9101 198.343 20.9202 198.567 20.9302C198.823 20.9474 199.079 20.954 199.336 20.9501Z" fill="#FEFEFE"/>
<path d="M304.228 48.04H198.04V53.29H304.228V48.04Z" fill="#949598"/>
<path d="M197.956 48H113.189V53H197.956V48Z" fill="#00AEEF"/>
<path d="M196.419 46.5698C197.161 46.5693 197.896 46.6654 198.581 46.8527C199.267 47.0399 199.889 47.3147 200.414 47.6611C200.938 48.0076 201.354 48.419 201.638 48.8718C201.922 49.3246 202.067 49.8099 202.067 50.2999V51.0299C202.067 51.5205 201.922 52.0064 201.638 52.4598C201.064 53.374 199.965 54.1004 198.581 54.4799C197.897 54.6705 197.162 54.7692 196.419 54.7699C195.825 54.7689 195.237 54.6908 194.689 54.5399C194.14 54.3899 193.641 54.1689 193.222 53.8899C192.798 53.6147 192.464 53.2845 192.243 52.9199C192.017 52.5584 191.901 52.171 191.901 51.7799V49.5499C191.9 49.1581 192.017 48.7699 192.244 48.4078C192.471 48.0458 192.804 47.7169 193.223 47.4401C193.643 47.1632 194.142 46.9438 194.69 46.7944C195.238 46.6451 195.826 46.5688 196.419 46.5698Z" fill="black"/>
<path d="M55.5612 50.71C55.5725 51.0085 55.4861 51.3051 55.308 51.5795C55.1298 51.8539 54.864 52.0997 54.5289 52.3C53.5386 52.8216 52.288 53.0785 51.0247 53.02L49.6336 53.01C48.9025 53 48.2713 53 47.7476 53V45.59C48.8041 45.55 50.0479 45.53 51.4788 45.53C52.4601 45.4909 53.4354 45.6551 54.2685 46C54.5896 46.1575 54.8466 46.365 55.0167 46.604C55.1868 46.8431 55.2646 47.1062 55.2433 47.37C55.2736 47.7313 55.124 48.0891 54.8173 48.3889C54.5106 48.6887 54.0637 48.9139 53.545 49.03V49.05C54.1181 49.1242 54.6333 49.3295 54.9996 49.63C55.3716 49.9358 55.5703 50.3177 55.5612 50.71ZM52.9425 47.6C52.9425 46.98 52.337 46.67 51.1261 46.67C50.7795 46.67 50.3693 46.6799 49.9076 46.6899V48.64C50.0862 48.65 50.3814 48.65 50.7931 48.65C52.2281 48.65 52.9435 48.3 52.9425 47.6ZM53.2453 50.75C53.2453 50.07 52.4506 49.72 50.8627 49.72C50.3859 49.72 50.0695 49.73 49.9121 49.73V51.83C50.448 51.86 50.8491 51.87 51.1231 51.87C51.6921 51.8909 52.2546 51.7815 52.7155 51.5601C52.8917 51.4608 53.0311 51.3361 53.1229 51.1957C53.2148 51.0553 53.2566 50.9028 53.2453 50.75ZM57.3322 53V44.97H59.462V53H57.3322ZM68.5335 49.75C68.5397 50.011 68.5129 50.272 68.4533 50.53H63.3264C63.2852 50.7334 63.3162 50.9403 63.4171 51.1343C63.518 51.3283 63.686 51.5041 63.9077 51.6477C64.1294 51.7914 64.3987 51.8989 64.6943 51.9618C64.9899 52.0247 65.3036 52.0412 65.6106 52.01C66.4339 52.0056 67.2483 51.8969 68.0098 51.6899L68.2368 52.76C67.2785 52.9916 66.2661 53.11 65.2458 53.11C62.5211 53.11 61.1588 52.1801 61.1588 50.3101C61.1108 49.5652 61.4817 48.8349 62.2002 48.26C62.5532 47.9844 62.9966 47.7654 63.4968 47.6199C63.9969 47.4743 64.5407 47.406 65.0868 47.42C65.5731 47.3992 66.0603 47.4493 66.5139 47.5668C66.9675 47.6843 67.3764 47.8663 67.7116 48.1C68.2834 48.564 68.5723 49.1525 68.5214 49.75H68.5335ZM66.4143 49.6C66.4456 48.84 65.9683 48.46 64.9824 48.46C64.0177 48.46 63.4733 48.84 63.3491 49.6H66.4143ZM75.389 53V49.5C75.389 48.9 75.0449 48.6 74.3566 48.6C74.0815 48.6033 73.8121 48.6528 73.5738 48.7438C73.3355 48.8347 73.1361 48.9642 72.9943 49.12C72.6136 49.4837 72.4175 49.9179 72.4343 50.36V53H70.303V47.53H72.3207C72.3284 47.8586 72.2873 48.1868 72.1981 48.51H72.2224C72.4755 48.165 72.8778 47.8772 73.3784 47.6832C73.879 47.4892 74.4554 47.3977 75.0348 47.42C76.6766 47.42 77.498 48 77.4991 49.16V53H75.389ZM84.7738 53C84.7734 52.6955 84.8058 52.3914 84.8707 52.09H84.8389C84.6175 52.4183 84.248 52.6934 83.7809 52.8778C83.3138 53.0622 82.7719 53.1468 82.2293 53.12C81.7944 53.1359 81.3602 53.0813 80.9645 52.9611C80.5688 52.8408 80.2235 52.6586 79.9588 52.4301C79.4149 51.8751 79.153 51.2201 79.211 50.5601C79.1476 49.7393 79.5637 48.9339 80.3735 48.3101C80.7816 48.0187 81.2813 47.7897 81.8375 47.6394C82.3937 47.4891 82.9929 47.421 83.5932 47.4399C83.9438 47.4374 84.2943 47.4508 84.6421 47.48V44.97H86.7613V53H84.7738ZM84.6437 48.63C84.2741 48.5813 83.8988 48.5545 83.522 48.55C82.1335 48.55 81.4397 49.17 81.4407 50.41C81.4407 51.44 81.9145 51.95 82.8636 51.95C83.1354 51.9468 83.4008 51.8949 83.6314 51.7998C83.862 51.7047 84.0492 51.57 84.1729 51.41C84.5015 51.0301 84.6644 50.5974 84.6437 50.16V48.63ZM95.8449 49.75C95.8515 50.0111 95.8242 50.2721 95.7632 50.53H90.65C90.6087 50.7334 90.6398 50.9403 90.7407 51.1343C90.8416 51.3283 91.0095 51.5041 91.2312 51.6477C91.453 51.7914 91.7223 51.8989 92.0179 51.9618C92.3135 52.0247 92.6272 52.0412 92.9341 52.01C93.7574 52.0056 94.5718 51.8969 95.3333 51.6899L95.5604 52.76C94.6021 52.9915 93.5896 53.1099 92.5693 53.11C89.8447 53.11 88.4824 52.1801 88.4824 50.3101C88.4336 49.5651 88.8046 48.8347 89.5238 48.26C89.8765 47.9844 90.3197 47.7655 90.8196 47.62C91.3195 47.4744 91.863 47.4061 92.4089 47.42C92.8953 47.399 93.3829 47.449 93.8368 47.5665C94.2907 47.6841 94.6998 47.8662 95.0351 48.1C95.6048 48.5646 95.8914 49.1531 95.8389 49.75H95.8449ZM93.7258 49.6C93.7571 48.84 93.2797 48.46 92.2938 48.46C91.3291 48.46 90.7847 48.84 90.6606 49.6H93.7258ZM102.051 48.8C100.516 48.6 99.7502 49.25 99.7502 50.77V53H97.619V47.53H99.6352C99.6338 47.8989 99.5831 48.267 99.4838 48.63H99.5171C99.6601 48.2519 100.006 47.9209 100.49 47.6984C100.975 47.4758 101.565 47.377 102.151 47.42L102.051 48.8Z" fill="#FF0040"/>
<path d="M344 8L344 69" stroke="white"/>
<path d="M1 8L0.999979 69" stroke="white"/>
<defs>
<filter id="filter0_d_55_1128" x="48" y="0.699951" width="264" height="8.6001" filterUnits="userSpaceOnUse" color-interpolation-filters="sRGB">
<feFlood flood-opacity="0" result="BackgroundImageFix"/>
<feColorMatrix in="SourceAlpha" type="matrix" values="0 0 0 0 0 0 0 0 0 0 0 0 0 0 0 0 0 0 127 0" result="hardAlpha"/>
<feOffset dy="4"/>
<feGaussianBlur stdDeviation="2"/>
<feComposite in2="hardAlpha" operator="out"/>
<feColorMatrix type="matrix" values="0 0 0 0 0 0 0 0 0 0 0 0 0 0 0 0 0 0 0.25 0"/>
<feBlend mode="normal" in2="BackgroundImageFix" result="effect1_dropShadow_55_1128"/>
<feBlend mode="normal" in="SourceGraphic" in2="effect1_dropShadow_55_1128" result="shape"/>
</filter>
<filter id="filter1_d_55_1128" x="48" y="62.7" width="264" height="8.6001" filterUnits="userSpaceOnUse" color-interpolation-filters="sRGB">
<feFlood flood-opacity="0" result="BackgroundImageFix"/>
<feColorMatrix in="SourceAlpha" type="matrix" values="0 0 0 0 0 0 0 0 0 0 0 0 0 0 0 0 0 0 127 0" result="hardAlpha"/>
<feOffset dy="4"/>
<feGaussianBlur stdDeviation="2"/>
<feComposite in2="hardAlpha" operator="out"/>
<feColorMatrix type="matrix" values="0 0 0 0 0 0 0 0 0 0 0 0 0 0 0 0 0 0 0.25 0"/>
<feBlend mode="normal" in2="BackgroundImageFix" result="effect1_dropShadow_55_1128"/>
<feBlend mode="normal" in="SourceGraphic" in2="effect1_dropShadow_55_1128" result="shape"/>
</filter>
</defs>
</svg>
