<svg xmlns="http://www.w3.org/2000/svg" width="393.95" height="596.607" viewBox="0 0 393.95 596.607">
  <g id="Group_8" data-name="Group 8" transform="translate(-2187.573 -920.761)">
    <g id="Group_4" data-name="Group 4" transform="translate(2188 1061.339)">
      <path id="Path_1" data-name="Path 1" d="M344.091,85.5H8.661s-3.769-.984-3.742-3.6-.338-.368,3.849-6.857c4.966-7.7,10.767-19.308,10.767-31.186,0-13.642-7.651-27.639-13.289-36.152C3.35,3.334,3.373,5.275,3.349,3.473S6.148.5,6.148.5h19.59A70.957,70.957,0,0,1,34.42,6.9a37.669,37.669,0,0,1,5.474,5.851,33.449,33.449,0,0,1,3.394,5.706c.924,1.94,1.7,3.942,2.528,6.062A90.5,90.5,0,0,0,51.125,36.27a29.656,29.656,0,0,0,3.617,5.164,29.142,29.142,0,0,0,4.153,3.894,32.15,32.15,0,0,0,8.641,4.7A36.4,36.4,0,0,0,74.548,51.8a24.421,24.421,0,0,0,2.917.279H77.9v-.019a27.3,27.3,0,0,0,2.762-.277,34.163,34.163,0,0,0,6.9-1.772,30.877,30.877,0,0,0,8.349-4.641,28.751,28.751,0,0,0,4.011-3.836,29.941,29.941,0,0,0,3.515-5.077,91,91,0,0,0,5.3-11.8h0l.007-.019c.826-2.131,1.605-4.144,2.53-6.094a33.626,33.626,0,0,1,3.4-5.736,37.773,37.773,0,0,1,5.477-5.881A71,71,0,0,1,128.834.5H344.091s-33.268,22.281-33.268,43.531c0,3.867,7.733,10.764,8.794,14.647C323.987,74.7,344.091,85.5,344.091,85.5Z" transform="translate(-0.553 38.401)" fill="#fff" stroke="#707070" stroke-linecap="round" stroke-linejoin="bevel" stroke-width="1"/>
      <path id="Path_21" data-name="Path 21" d="M109.5,6.059A101.42,101.42,0,0,1,89.76,4.044C82.008,2.529,74.468.894,66.452-.18A108.654,108.654,0,0,0,49.543-1.195C35.185-.867,20.132.431,5.713,5.385,3.36,6.2,2.113,7.332-.2,8.3c.091.972,2.406,2.685,2.571,3.31,1.495,1.711,2.03,3.644,3.721,5.109.23-.671-.04-2.844-.063-5.115A4.705,4.705,0,0,1,8.084,7.927L11.2,6.194,14.46,4.478,12.245,9.565a11.963,11.963,0,0,0-.468,7.144,17.414,17.414,0,0,0,3.756,6.139c.45-1.033,1.093-2.338,2.01-3.979A38.132,38.132,0,0,1,24.957,9.61l4.026-3.488L26.728,7.959c-.013.039,6.436-6.943,9.023-1.4.062.133-.418,4.975.313,7.306.9,2.177.7,2.128,2.025,3.277a13.43,13.43,0,0,0,2.576,1.988c.2.125-.371-4.65.7-7.542S50.1,6.457,50.1,6.457l-1.891,4.6c-.01.021-.919,2.315.164,6.722a12.822,12.822,0,0,0,2.656,5.164,51.168,51.168,0,0,1,2.381-6.733,15.532,15.532,0,0,1,7.75-7.536,34.072,34.072,0,0,0-.675,8.871c.14,3.728,2.077,6.362,3.1,8.082.806-1.426,1.933-3.357,3.3-5.534a22.244,22.244,0,0,1,6.82-7.08l1.178-.688.756.87c.363.418.924,1.6.6,4.833-.174,1.7-.488,4.038-.741,5.839,1.161-.709,2.823-1.792,5.131-3.427a71.977,71.977,0,0,0,9.086-7.7,27.12,27.12,0,0,1-2.239,7.98c-.637,1.364-1.263,2.668-1.807,3.788a81.4,81.4,0,0,0,8.11-3.914,54.73,54.73,0,0,0,10.343-8.016l3.71-4.766-1.667,5.642c-.029.1-.317,1.048-1.611,4.5a25.684,25.684,0,0,1-2.049,4.052A124.6,124.6,0,0,0,113.8,15.652c4.3-2.924,9.049-7.961,12.533-11.933C121.443,5.647,114.85,6.051,109.5,6.059Z" transform="translate(287.64 94.591) rotate(-47)" fill="#fff" stroke="#707070" stroke-width="1"/>
      <path id="Path_22" data-name="Path 22" d="M45,23.6q-.684-.061-1.434-.153a84.171,84.171,0,0,1-9.635-1.851s5.433-3.845,8-9.3c2.015,3.594,3.31,10.049,3.31,10.049a22.781,22.781,0,0,0,8.588-8.771c1.751,6.014,1.5,7.727,1.5,7.727s-4.407,2.04-4.424,2.074C49.958,23.836,49.521,24,45,23.6ZM31.322,20.919a145.726,145.726,0,0,1-22.8-8.265S13.707,3.267,17.043.406c.018,6.364,4.5,14.28,4.5,14.28s6.549-2.587,7.29-7.155C32.107,13.683,31.322,20.919,31.322,20.919Zm-24.237-8.9C5.607,11.314-1.147,2.007.224,1.372c-.182.655,3.092,5.582,3.092,5.582Z" transform="translate(313.918 72.551) rotate(39)" fill="#fff" stroke="#707070" stroke-width="1"/>
      <path id="Path_2" data-name="Path 2" d="M343.121,85V1H128.386a70.392,70.392,0,0,0-8.543,6.331,37.355,37.355,0,0,0-5.411,5.81,33.18,33.18,0,0,0-3.346,5.652c-.915,1.933-1.691,3.936-2.513,6.058l-.014.036a91.472,91.472,0,0,1-5.327,11.845,30.491,30.491,0,0,1-3.573,5.16,29.225,29.225,0,0,1-4.072,3.895,31.267,31.267,0,0,1-8.455,4.7,34.532,34.532,0,0,1-6.969,1.791c-1,.148-1.811.222-2.378.258v.042h-.872a24.174,24.174,0,0,1-2.968-.283A36.753,36.753,0,0,1,66.861,50.5a32.54,32.54,0,0,1-8.745-4.753A29.59,29.59,0,0,1,53.9,41.8a30.14,30.14,0,0,1-3.677-5.25,90.933,90.933,0,0,1-5.339-11.82c-.821-2.11-1.6-4.1-2.512-6.026a32.951,32.951,0,0,0-3.344-5.621A37.219,37.219,0,0,0,33.621,7.3,70.307,70.307,0,0,0,25.081,1H.835V85H343.121m.835,1H0V0H25.29a71.617,71.617,0,0,1,8.824,6.492,38.115,38.115,0,0,1,5.539,5.922A33.945,33.945,0,0,1,43.1,18.2c.932,1.957,1.715,3.969,2.544,6.1a90.049,90.049,0,0,0,5.278,11.69,29.16,29.16,0,0,0,3.557,5.079,28.709,28.709,0,0,0,4.09,3.835A31.761,31.761,0,0,0,67.1,49.545,36.022,36.022,0,0,0,74.046,51.3a24.062,24.062,0,0,0,2.866.276v-.007a23.916,23.916,0,0,0,3.147-.285,33.8,33.8,0,0,0,6.824-1.753,30.475,30.475,0,0,0,8.244-4.582,28.276,28.276,0,0,0,3.949-3.777,29.391,29.391,0,0,0,3.458-4.993,90.727,90.727,0,0,0,5.28-11.749h0c.829-2.141,1.612-4.163,2.545-6.13a34.155,34.155,0,0,1,3.446-5.821,38.278,38.278,0,0,1,5.542-5.953A71.666,71.666,0,0,1,128.177,0H343.956ZM76.555.087V0h51.6Z" transform="translate(0 38.401)" fill="none"/>
      <path id="Path_3" data-name="Path 3" d="M22.623,56.5a18.081,18.081,0,0,1-8.6-2.2,22.573,22.573,0,0,1-7.032-6,29.215,29.215,0,0,1-4.746-8.9,35.031,35.031,0,0,1,0-21.815,29.215,29.215,0,0,1,4.746-8.9,22.572,22.572,0,0,1,7.032-6,17.951,17.951,0,0,1,17.207,0,22.572,22.572,0,0,1,7.032,6,29.214,29.214,0,0,1,4.746,8.9,35.031,35.031,0,0,1,0,21.815,29.214,29.214,0,0,1-4.746,8.9,22.573,22.573,0,0,1-7.032,6A18.081,18.081,0,0,1,22.623,56.5Z" transform="translate(53.347 22.401)" fill="#0094ff"/>
      <path id="Path_4" data-name="Path 4" d="M22.541,1a17.723,17.723,0,0,0-8.434,2.153,22.147,22.147,0,0,0-6.9,5.882,28.7,28.7,0,0,0-4.662,8.743,34.438,34.438,0,0,0,0,21.443,28.7,28.7,0,0,0,4.662,8.743,22.148,22.148,0,0,0,6.9,5.882,17.6,17.6,0,0,0,16.867,0,22.147,22.147,0,0,0,6.9-5.882,28.7,28.7,0,0,0,4.662-8.743,34.439,34.439,0,0,0,0-21.443,28.7,28.7,0,0,0-4.662-8.743,22.146,22.146,0,0,0-6.9-5.882A17.723,17.723,0,0,0,22.541,1m0-1C34.99,0,45.082,12.76,45.082,28.5S34.99,57,22.541,57,0,44.24,0,28.5,10.092,0,22.541,0Z" transform="translate(53.43 22.401)"/>
      <text id="Overview" transform="translate(52.062 104.462)" fill="#0094ff" font-size="9" font-family="SegoeUI-Semibold, Segoe UI" font-weight="600"><tspan x="0" y="0">Overview</tspan></text>
      <g id="House_Icon" data-name="House Icon" transform="translate(61.903 32.7)">
        <path id="Path" d="M0,0V10.3H8.6V2.81A2.025,2.025,0,0,1,10.748.937H12.9A2.025,2.025,0,0,1,15.046,2.81V10.3h8.6V0" transform="translate(3.127 21.554)" fill="none" stroke="#fff" stroke-linecap="round" stroke-linejoin="round" stroke-miterlimit="10" stroke-width="1.5"/>
        <path id="Path-2" data-name="Path" d="M0,13.273,13.539.549a2.085,2.085,0,0,1,2.819,0L29.9,13.273" transform="translate(0 0)" fill="none" stroke="#fff" stroke-linecap="round" stroke-linejoin="round" stroke-miterlimit="10" stroke-width="1.5"/>
      </g>
      <text id="Overview-2" data-name="Overview" transform="translate(261.07 104.462)" fill="#0094ff" font-size="9" font-family="SegoeUI-Semibold, Segoe UI" font-weight="600"><tspan x="0" y="0">timer</tspan></text>
      <g id="_6" data-name="6" transform="translate(266.558 56.267)">
        <path id="Path_18" data-name="Path 18" d="M122.845,33.644h-.509V28.8a6.138,6.138,0,0,0-1-3.386l-5.26-7.987,5.26-8.051a6.215,6.215,0,0,0,1-3.409V1.085h.509a.524.524,0,0,0,.509-.543A.524.524,0,0,0,122.845,0H104.509A.524.524,0,0,0,104,.542a.524.524,0,0,0,.509.543h.509V5.969a6.215,6.215,0,0,0,1,3.409l5.26,8.051-5.26,7.987a6.138,6.138,0,0,0-1,3.386v4.842h-.509a.435.435,0,0,0-.437.252.639.639,0,0,0,0,.581.435.435,0,0,0,.437.252h18.336a.435.435,0,0,0,.437-.252.639.639,0,0,0,0-.581A.435.435,0,0,0,122.845,33.644ZM106.037,28.8a5.008,5.008,0,0,1,.82-2.763l5.46-8.3a.572.572,0,0,0,0-.621l-5.46-8.362a5.084,5.084,0,0,1-.821-2.789V1.085h15.278V5.969a5.084,5.084,0,0,1-.821,2.789l-5.46,8.362a.572.572,0,0,0,0,.621l5.46,8.3a5.008,5.008,0,0,1,.82,2.763v4.842H106.035Z" transform="translate(-104 0.002)" fill="#929da5"/>
        <path id="Path_19" data-name="Path 19" d="M281.528,464h-1.019a.385.385,0,0,0-.452.194.582.582,0,0,0,0,.576.385.385,0,0,0,.452.194h1.019a.385.385,0,0,0,.452-.194.582.582,0,0,0,0-.576A.385.385,0,0,0,281.528,464Z" transform="translate(-268.795 -432.16)" fill="#929da5"/>
        <path id="Path_20" data-name="Path 20" d="M195.714,157.862a.515.515,0,0,0,.431-.225c.113-.161,2.2-3,3.577-4.881a.462.462,0,0,0,.033-.5A.512.512,0,0,0,199.3,152h-7.18a.512.512,0,0,0-.452.259.462.462,0,0,0,.033.5c1.381,1.881,3.465,4.72,3.577,4.881a.515.515,0,0,0,.431.225Zm2.616-4.9c-1.458,1.985-2.218,3.023-2.616,3.567-.4-.544-1.158-1.582-2.616-3.567Z" transform="translate(-186.037 -141.417)" fill="#929da5"/>
        <path id="Path_21-2" data-name="Path 21" d="M162.212,336.2a.517.517,0,0,0-.417-.2H155.45a.517.517,0,0,0-.417.2l-2.4,3.232a3.171,3.171,0,0,0-.635,1.9v2.854a.492.492,0,0,0,.509.482h6.112a.385.385,0,0,0,.452-.194.582.582,0,0,0,0-.576.385.385,0,0,0-.452-.194h-5.6v-2.372a2.249,2.249,0,0,1,.451-1.348l2.243-3.027h5.818l2.243,3.027a2.249,2.249,0,0,1,.451,1.348v2.372h-.509a.385.385,0,0,0-.452.194.582.582,0,0,0,0,.576.385.385,0,0,0,.452.194h1.019a.492.492,0,0,0,.509-.482v-2.854a3.172,3.172,0,0,0-.635-1.9Z" transform="translate(-148.945 -311.871)" fill="#929da5"/>
        <path id="Path_22-2" data-name="Path 22" d="M326.863,75.769a.527.527,0,0,0,.291.086.518.518,0,0,0,.417-.207l.558-.758a3.234,3.234,0,0,0,.639-1.926v-.482a.51.51,0,0,0-1.019,0v.482a2.308,2.308,0,0,1-.456,1.376l-.558.758a.484.484,0,0,0-.081.375.411.411,0,0,0,.208.3Z" transform="translate(-312.47 -67.661)" fill="#929da5"/>
        <path id="Path_23" data-name="Path 23" d="M344.509,33.446a.492.492,0,0,0,.509-.482v-.482a.51.51,0,0,0-1.018,0v.482a.492.492,0,0,0,.509.482Z" transform="translate(-328.721 -30.07)" fill="#929da5"/>
      </g>
      <text id="Overview-3" data-name="Overview" transform="translate(126.537 104.462)" fill="#0094ff" font-size="9" font-family="SegoeUI-Semibold, Segoe UI" font-weight="600"><tspan x="0" y="0">AllTasks</tspan></text>
      <g id="testing-checklist-file-or-to-do-list-black-outline-17464" transform="translate(139.254 56.075)">
        <path id="Path_1-2" data-name="Path 1" d="M51.182,6.076,46.46.419A1.1,1.1,0,0,0,45.616,0H33.009a1.332,1.332,0,0,0-1.2,1.432v28.7a1.332,1.332,0,0,0,1.2,1.432H50.336a1.332,1.332,0,0,0,1.2-1.432V7.088A1.575,1.575,0,0,0,51.182,6.076Zm-.65.214H46.811a.59.59,0,0,1-.53-.634V1.2Zm.417,23.838a.68.68,0,0,1-.609.73H33.01a.68.68,0,0,1-.609-.73V1.432A.68.68,0,0,1,33.01.7H45.616A.515.515,0,0,1,45.7.711V5.655a1.242,1.242,0,0,0,1.115,1.336h4.127a.835.835,0,0,1,.008.1Z" transform="translate(-31.814 0)" fill="#929da5"/>
        <path id="Path_2-2" data-name="Path 2" d="M61.291,70.309c-1.844,0-3.339,1.791-3.339,4s1.5,4,3.339,4,3.339-1.791,3.339-4S63.136,70.309,61.291,70.309Zm0,7.291a3.348,3.348,0,1,1,2.75-3.294,3.059,3.059,0,0,1-2.75,3.294Z" transform="translate(-55.231 -61.535)" fill="#929da5"/>
        <path id="Path_3-2" data-name="Path 3" d="M77.451,89.621,75.79,91.8l-.463-.757a.262.262,0,0,0-.409-.076.4.4,0,0,0-.063.49l.675,1.1a.283.283,0,0,0,.22.143h.016a.274.274,0,0,0,.216-.114l1.9-2.5a.4.4,0,0,0,.076-.351.32.32,0,0,0-.224-.244.269.269,0,0,0-.285.123Z" transform="translate(-70.319 -78.337)" fill="#929da5"/>
        <path id="Path_4-2" data-name="Path 4" d="M145.09,86.714h-5.176a.282.282,0,0,0-.272.167.411.411,0,0,0,0,.366.282.282,0,0,0,.272.167h5.176a.282.282,0,0,0,.272-.167.411.411,0,0,0,0-.366A.282.282,0,0,0,145.09,86.714Z" transform="translate(-128.387 -75.893)" fill="#929da5"/>
        <path id="Path_5" data-name="Path 5" d="M145.09,112.327h-5.176a.282.282,0,0,0-.272.167.411.411,0,0,0,0,.366.282.282,0,0,0,.272.167h5.176a.282.282,0,0,0,.272-.167.411.411,0,0,0,0-.366A.282.282,0,0,0,145.09,112.327Z" transform="translate(-128.387 -98.31)" fill="#929da5"/>
        <path id="Path_6" data-name="Path 6" d="M61.291,152.268c-1.844,0-3.339,1.791-3.339,4s1.5,4,3.339,4,3.339-1.791,3.339-4S63.136,152.268,61.291,152.268Zm0,7.291a3.349,3.349,0,1,1,2.75-3.295,3.06,3.06,0,0,1-2.75,3.295Z" transform="translate(-55.231 -133.267)" fill="#929da5"/>
        <path id="Path_7" data-name="Path 7" d="M145.09,168.673h-5.176a.282.282,0,0,0-.272.167.411.411,0,0,0,0,.366.282.282,0,0,0,.272.167h5.176a.282.282,0,0,0,.272-.167.411.411,0,0,0,0-.366A.282.282,0,0,0,145.09,168.673Z" transform="translate(-128.387 -147.624)" fill="#929da5"/>
        <path id="Path_8" data-name="Path 8" d="M145.1,194.286h-5.176a.362.362,0,0,0,0,.7H145.1a.282.282,0,0,0,.272-.167.411.411,0,0,0,0-.366.282.282,0,0,0-.272-.167Z" transform="translate(-128.396 -170.041)" fill="#929da5"/>
        <path id="Path_9" data-name="Path 9" d="M80.062,169.7a.262.262,0,0,0-.412.053l-.77,1.141-.77-1.141a.261.261,0,0,0-.411-.053.4.4,0,0,0-.044.493l.849,1.259-.849,1.259a.4.4,0,0,0,.044.493.261.261,0,0,0,.411-.053l.77-1.141.77,1.141a.261.261,0,0,0,.411.052.4.4,0,0,0,.044-.492l-.849-1.259L80.1,170.2a.4.4,0,0,0,.068-.26A.373.373,0,0,0,80.062,169.7Z" transform="translate(-72.821 -148.457)" fill="#929da5"/>
      </g>
      <g id="_3" data-name="3" transform="translate(194.94 56.268)">
        <path id="Path_10" data-name="Path 10" d="M31.693,31.178,36.631,23a.728.728,0,0,0-.055-.816.465.465,0,0,0-.681-.066l-6.827,5.918a2.489,2.489,0,0,0-.732,2.289,2.1,2.1,0,0,0,1.448,1.732,1.739,1.739,0,0,0,1.91-.879Z" transform="translate(-14.038 -9.591)" fill="#a7aeb4"/>
        <path id="Path_11" data-name="Path 11" d="M40.24,11.387c-.005-.012-.005-.025-.011-.037s-.017-.018-.023-.029a15.824,15.824,0,0,0-1.88-2.8l1.132-1.25.746.823,2.237-2.469L40.2,3.155l-2.237,2.47.746.823L37.58,7.7a14.509,14.509,0,0,0-2.536-2.076c-.01-.008-.016-.019-.027-.026s-.023-.006-.033-.013A13.249,13.249,0,0,0,29.568,3.6V2.91h.791a1.389,1.389,0,0,0,1.318-1.455A1.389,1.389,0,0,0,30.357,0H25.611a1.389,1.389,0,0,0-1.318,1.455A1.389,1.389,0,0,0,25.611,2.91H26.4v.673a13.259,13.259,0,0,0-1.7.311.487.487,0,0,0-.324.248.678.678,0,0,0-.072.452.527.527,0,0,0,.632.437,12.255,12.255,0,0,1,1.509-.282L26.97,4.7c.177-.015.334-.025.488-.033h0V5.821a.529.529,0,1,0,1.054,0V4.674a12.144,12.144,0,0,1,5.51,1.656l-.52.994a.654.654,0,0,0-.053.452.543.543,0,0,0,.246.348.486.486,0,0,0,.263.078.52.52,0,0,0,.457-.291l.518-.992a14.053,14.053,0,0,1,4.1,4.524l-.9.572a.544.544,0,0,0-.245.349.654.654,0,0,0,.054.451.519.519,0,0,0,.457.291.486.486,0,0,0,.263-.078l.9-.574a15.628,15.628,0,0,1,1.5,6.181H40.027a.469.469,0,0,0-.456.276.684.684,0,0,0,0,.612.469.469,0,0,0,.456.276h1.042a15.628,15.628,0,0,1-1.5,6.181l-.9-.58a.5.5,0,0,0-.72.213.654.654,0,0,0-.053.452.543.543,0,0,0,.246.348l.9.572a14.045,14.045,0,0,1-4.1,4.515l-.518-.991a.5.5,0,0,0-.72-.213.542.542,0,0,0-.246.348.653.653,0,0,0,.054.452l.52.994a12.144,12.144,0,0,1-5.51,1.656V32.6a.529.529,0,1,0-1.054,0v1.15a12.127,12.127,0,0,1-2.519-.359.526.526,0,0,0-.632.437.678.678,0,0,0,.072.452.487.487,0,0,0,.324.248,12.972,12.972,0,0,0,3.195.4H28a13.139,13.139,0,0,0,6.971-2.08.427.427,0,0,0,.049-.023c.011-.007.017-.018.027-.026A15.164,15.164,0,0,0,40.2,27.117a.543.543,0,0,0,.032-.045.309.309,0,0,0,.011-.037,17.076,17.076,0,0,0,0-15.641Z" transform="translate(-12.137 0.001)" fill="#a7aeb4"/>
        <path id="Path_12" data-name="Path 12" d="M18.985,13H16.347a1.173,1.173,0,0,0-1.055,1.264,1.173,1.173,0,0,0,1.055,1.264h2.636a1.173,1.173,0,0,0,1.055-1.264A1.173,1.173,0,0,0,18.984,13Z" transform="translate(-7.903 -5.478)" fill="#a7aeb4"/>
        <path id="Path_13" data-name="Path 13" d="M16.621,20H11.347a1.284,1.284,0,0,0,0,2.527h5.274a1.284,1.284,0,0,0,0-2.527Z" transform="translate(-5.542 -8.429)" fill="#a7aeb4"/>
        <path id="Path_14" data-name="Path 14" d="M14.257,27H6.347a1.284,1.284,0,0,0,0,2.527h7.91a1.284,1.284,0,0,0,0-2.527Z" transform="translate(-3.185 -11.379)" fill="#a7aeb4"/>
        <path id="Path_15" data-name="Path 15" d="M12.367,34H2.349a1.284,1.284,0,0,0,0,2.527H12.367a1.284,1.284,0,0,0,0-2.527Z" transform="translate(-1.294 -14.329)" fill="#a7aeb4"/>
        <path id="Path_16" data-name="Path 16" d="M15.2,41H8.347a1.284,1.284,0,0,0,0,2.527H15.2A1.284,1.284,0,0,0,15.2,41Z" transform="translate(-4.13 -17.28)" fill="#a7aeb4"/>
        <path id="Path_17" data-name="Path 17" d="M18.039,48H14.347a1.284,1.284,0,0,0,0,2.527h3.692a1.284,1.284,0,0,0,0-2.527Z" transform="translate(-6.959 -20.655)" fill="#a7aeb4"/>
      </g>
      <path id="Path_6-2" data-name="Path 6" d="M343.121,85V1H128.386a70.392,70.392,0,0,0-8.543,6.331,37.355,37.355,0,0,0-5.411,5.81,33.18,33.18,0,0,0-3.346,5.652c-.915,1.933-1.691,3.936-2.513,6.058l-.014.036a91.472,91.472,0,0,1-5.327,11.845,30.491,30.491,0,0,1-3.573,5.16,29.225,29.225,0,0,1-4.072,3.895,31.267,31.267,0,0,1-8.455,4.7,34.532,34.532,0,0,1-6.969,1.791c-1,.148-1.811.222-2.378.258v.042h-.872a24.174,24.174,0,0,1-2.968-.283A36.753,36.753,0,0,1,66.861,50.5a32.54,32.54,0,0,1-8.745-4.753A29.59,29.59,0,0,1,53.9,41.8a30.14,30.14,0,0,1-3.677-5.25,90.933,90.933,0,0,1-5.339-11.82c-.821-2.11-1.6-4.1-2.512-6.026a32.951,32.951,0,0,0-3.344-5.621A37.219,37.219,0,0,0,33.621,7.3,70.307,70.307,0,0,0,25.081,1H.835V85H343.121m.835,1H0V0H25.29a71.617,71.617,0,0,1,8.824,6.492,38.115,38.115,0,0,1,5.539,5.922A33.945,33.945,0,0,1,43.1,18.2c.932,1.957,1.715,3.969,2.544,6.1a90.049,90.049,0,0,0,5.278,11.69,29.16,29.16,0,0,0,3.557,5.079,28.709,28.709,0,0,0,4.09,3.835A31.761,31.761,0,0,0,67.1,49.545,36.022,36.022,0,0,0,74.046,51.3a24.062,24.062,0,0,0,2.866.276v-.007a23.916,23.916,0,0,0,3.147-.285,33.8,33.8,0,0,0,6.824-1.753,30.475,30.475,0,0,0,8.244-4.582,28.276,28.276,0,0,0,3.949-3.777,29.391,29.391,0,0,0,3.458-4.993,90.727,90.727,0,0,0,5.28-11.749h0c.829-2.141,1.612-4.163,2.545-6.13a34.155,34.155,0,0,1,3.446-5.821,38.278,38.278,0,0,1,5.542-5.953A71.666,71.666,0,0,1,128.177,0H343.956ZM76.555.087V0h51.6Z" transform="translate(0 38.401)" fill="none"/>
      <path id="Path_7-2" data-name="Path 7" d="M22.623,56.5a18.081,18.081,0,0,1-8.6-2.2,22.573,22.573,0,0,1-7.032-6,29.215,29.215,0,0,1-4.746-8.9,35.031,35.031,0,0,1,0-21.815,29.215,29.215,0,0,1,4.746-8.9,22.572,22.572,0,0,1,7.032-6,17.951,17.951,0,0,1,17.207,0,22.572,22.572,0,0,1,7.032,6,29.214,29.214,0,0,1,4.746,8.9,35.031,35.031,0,0,1,0,21.815,29.214,29.214,0,0,1-4.746,8.9,22.573,22.573,0,0,1-7.032,6A18.081,18.081,0,0,1,22.623,56.5Z" transform="translate(53.347 22.401)" fill="#00d0e4"/>
      <path id="Path_8-2" data-name="Path 8" d="M22.541,1a17.723,17.723,0,0,0-8.434,2.153,22.147,22.147,0,0,0-6.9,5.882,28.7,28.7,0,0,0-4.662,8.743,34.438,34.438,0,0,0,0,21.443,28.7,28.7,0,0,0,4.662,8.743,22.148,22.148,0,0,0,6.9,5.882,17.6,17.6,0,0,0,16.867,0,22.147,22.147,0,0,0,6.9-5.882,28.7,28.7,0,0,0,4.662-8.743,34.439,34.439,0,0,0,0-21.443,28.7,28.7,0,0,0-4.662-8.743,22.146,22.146,0,0,0-6.9-5.882A17.723,17.723,0,0,0,22.541,1m0-1C34.99,0,45.082,12.76,45.082,28.5S34.99,57,22.541,57,0,44.24,0,28.5,10.092,0,22.541,0Z" transform="translate(53.43 22.401)" fill="#707070"/>
      <text id="Overview-4" data-name="Overview" transform="translate(52.062 104.462)" fill="#0094ff" font-size="9" font-family="SegoeUI-Semibold, Segoe UI" font-weight="600"><tspan x="0" y="0">Overview</tspan></text>
      <g id="House_Icon-2" data-name="House Icon" transform="translate(61.903 32.7)">
        <path id="Path-3" data-name="Path" d="M0,0V10.3H8.6V2.81A2.025,2.025,0,0,1,10.748.937H12.9A2.025,2.025,0,0,1,15.046,2.81V10.3h8.6V0" transform="translate(3.127 21.554)" fill="none" stroke="#fff" stroke-linecap="round" stroke-linejoin="round" stroke-miterlimit="10" stroke-width="1.5"/>
        <path id="Path-4" data-name="Path" d="M0,13.273,13.539.549a2.085,2.085,0,0,1,2.819,0L29.9,13.273" transform="translate(0 0)" fill="none" stroke="#fff" stroke-linecap="round" stroke-linejoin="round" stroke-miterlimit="10" stroke-width="1.5"/>
      </g>
      <text id="Overview-5" data-name="Overview" transform="translate(261.07 104.462)" fill="#f10" stroke="rgba(0,0,0,0)" stroke-width="1" font-size="9" font-family="SegoeUI-Semibold, Segoe UI" font-weight="600"><tspan x="0" y="0">timer</tspan></text>
      <g id="_6-2" data-name="6" transform="translate(266.558 56.267)">
        <path id="Path_18-2" data-name="Path 18" d="M122.845,33.644h-.509V28.8a6.138,6.138,0,0,0-1-3.386l-5.26-7.987,5.26-8.051a6.215,6.215,0,0,0,1-3.409V1.085h.509a.524.524,0,0,0,.509-.543A.524.524,0,0,0,122.845,0H104.509A.524.524,0,0,0,104,.542a.524.524,0,0,0,.509.543h.509V5.969a6.215,6.215,0,0,0,1,3.409l5.26,8.051-5.26,7.987a6.138,6.138,0,0,0-1,3.386v4.842h-.509a.435.435,0,0,0-.437.252.639.639,0,0,0,0,.581.435.435,0,0,0,.437.252h18.336a.435.435,0,0,0,.437-.252.639.639,0,0,0,0-.581A.435.435,0,0,0,122.845,33.644ZM106.037,28.8a5.008,5.008,0,0,1,.82-2.763l5.46-8.3a.572.572,0,0,0,0-.621l-5.46-8.362a5.084,5.084,0,0,1-.821-2.789V1.085h15.278V5.969a5.084,5.084,0,0,1-.821,2.789l-5.46,8.362a.572.572,0,0,0,0,.621l5.46,8.3a5.008,5.008,0,0,1,.82,2.763v4.842H106.035Z" transform="translate(-104 0.002)"/>
        <path id="Path_19-2" data-name="Path 19" d="M281.528,464h-1.019a.385.385,0,0,0-.452.194.582.582,0,0,0,0,.576.385.385,0,0,0,.452.194h1.019a.385.385,0,0,0,.452-.194.582.582,0,0,0,0-.576A.385.385,0,0,0,281.528,464Z" transform="translate(-268.795 -432.16)"/>
        <path id="Path_20-2" data-name="Path 20" d="M195.714,157.862a.515.515,0,0,0,.431-.225c.113-.161,2.2-3,3.577-4.881a.462.462,0,0,0,.033-.5A.512.512,0,0,0,199.3,152h-7.18a.512.512,0,0,0-.452.259.462.462,0,0,0,.033.5c1.381,1.881,3.465,4.72,3.577,4.881a.515.515,0,0,0,.431.225Zm2.616-4.9c-1.458,1.985-2.218,3.023-2.616,3.567-.4-.544-1.158-1.582-2.616-3.567Z" transform="translate(-186.037 -141.417)"/>
        <path id="Path_21-3" data-name="Path 21" d="M162.212,336.2a.517.517,0,0,0-.417-.2H155.45a.517.517,0,0,0-.417.2l-2.4,3.232a3.171,3.171,0,0,0-.635,1.9v2.854a.492.492,0,0,0,.509.482h6.112a.385.385,0,0,0,.452-.194.582.582,0,0,0,0-.576.385.385,0,0,0-.452-.194h-5.6v-2.372a2.249,2.249,0,0,1,.451-1.348l2.243-3.027h5.818l2.243,3.027a2.249,2.249,0,0,1,.451,1.348v2.372h-.509a.385.385,0,0,0-.452.194.582.582,0,0,0,0,.576.385.385,0,0,0,.452.194h1.019a.492.492,0,0,0,.509-.482v-2.854a3.172,3.172,0,0,0-.635-1.9Z" transform="translate(-148.945 -311.871)"/>
        <path id="Path_22-3" data-name="Path 22" d="M326.863,75.769a.527.527,0,0,0,.291.086.518.518,0,0,0,.417-.207l.558-.758a3.234,3.234,0,0,0,.639-1.926v-.482a.51.51,0,0,0-1.019,0v.482a2.308,2.308,0,0,1-.456,1.376l-.558.758a.484.484,0,0,0-.081.375.411.411,0,0,0,.208.3Z" transform="translate(-312.47 -67.661)"/>
        <path id="Path_23-2" data-name="Path 23" d="M344.509,33.446a.492.492,0,0,0,.509-.482v-.482a.51.51,0,0,0-1.018,0v.482a.492.492,0,0,0,.509.482Z" transform="translate(-328.721 -30.07)"/>
      </g>
      <text id="Overview-6" data-name="Overview" transform="translate(126.537 104.462)" fill="#f10" stroke="rgba(0,0,0,0)" stroke-width="1" font-size="9" font-family="SegoeUI-Semibold, Segoe UI" font-weight="600"><tspan x="0" y="0">AllTasks</tspan></text>
      <g id="testing-checklist-file-or-to-do-list-black-outline-17464-2" data-name="testing-checklist-file-or-to-do-list-black-outline-17464" transform="translate(139.254 56.075)">
        <path id="Path_1-3" data-name="Path 1" d="M51.182,6.076,46.46.419A1.1,1.1,0,0,0,45.616,0H33.009a1.332,1.332,0,0,0-1.2,1.432v28.7a1.332,1.332,0,0,0,1.2,1.432H50.336a1.332,1.332,0,0,0,1.2-1.432V7.088A1.575,1.575,0,0,0,51.182,6.076Zm-.65.214H46.811a.59.59,0,0,1-.53-.634V1.2Zm.417,23.838a.68.68,0,0,1-.609.73H33.01a.68.68,0,0,1-.609-.73V1.432A.68.68,0,0,1,33.01.7H45.616A.515.515,0,0,1,45.7.711V5.655a1.242,1.242,0,0,0,1.115,1.336h4.127a.835.835,0,0,1,.008.1Z" transform="translate(-31.814 0)"/>
        <path id="Path_2-3" data-name="Path 2" d="M61.291,70.309c-1.844,0-3.339,1.791-3.339,4s1.5,4,3.339,4,3.339-1.791,3.339-4S63.136,70.309,61.291,70.309Zm0,7.291a3.348,3.348,0,1,1,2.75-3.294,3.059,3.059,0,0,1-2.75,3.294Z" transform="translate(-55.231 -61.535)"/>
        <path id="Path_3-3" data-name="Path 3" d="M77.451,89.621,75.79,91.8l-.463-.757a.262.262,0,0,0-.409-.076.4.4,0,0,0-.063.49l.675,1.1a.283.283,0,0,0,.22.143h.016a.274.274,0,0,0,.216-.114l1.9-2.5a.4.4,0,0,0,.076-.351.32.32,0,0,0-.224-.244.269.269,0,0,0-.285.123Z" transform="translate(-70.319 -78.337)"/>
        <path id="Path_4-3" data-name="Path 4" d="M145.09,86.714h-5.176a.282.282,0,0,0-.272.167.411.411,0,0,0,0,.366.282.282,0,0,0,.272.167h5.176a.282.282,0,0,0,.272-.167.411.411,0,0,0,0-.366A.282.282,0,0,0,145.09,86.714Z" transform="translate(-128.387 -75.893)"/>
        <path id="Path_5-2" data-name="Path 5" d="M145.09,112.327h-5.176a.282.282,0,0,0-.272.167.411.411,0,0,0,0,.366.282.282,0,0,0,.272.167h5.176a.282.282,0,0,0,.272-.167.411.411,0,0,0,0-.366A.282.282,0,0,0,145.09,112.327Z" transform="translate(-128.387 -98.31)"/>
        <path id="Path_6-3" data-name="Path 6" d="M61.291,152.268c-1.844,0-3.339,1.791-3.339,4s1.5,4,3.339,4,3.339-1.791,3.339-4S63.136,152.268,61.291,152.268Zm0,7.291a3.349,3.349,0,1,1,2.75-3.295,3.06,3.06,0,0,1-2.75,3.295Z" transform="translate(-55.231 -133.267)"/>
        <path id="Path_7-3" data-name="Path 7" d="M145.09,168.673h-5.176a.282.282,0,0,0-.272.167.411.411,0,0,0,0,.366.282.282,0,0,0,.272.167h5.176a.282.282,0,0,0,.272-.167.411.411,0,0,0,0-.366A.282.282,0,0,0,145.09,168.673Z" transform="translate(-128.387 -147.624)"/>
        <path id="Path_8-3" data-name="Path 8" d="M145.1,194.286h-5.176a.362.362,0,0,0,0,.7H145.1a.282.282,0,0,0,.272-.167.411.411,0,0,0,0-.366.282.282,0,0,0-.272-.167Z" transform="translate(-128.396 -170.041)"/>
        <path id="Path_9-2" data-name="Path 9" d="M80.062,169.7a.262.262,0,0,0-.412.053l-.77,1.141-.77-1.141a.261.261,0,0,0-.411-.053.4.4,0,0,0-.044.493l.849,1.259-.849,1.259a.4.4,0,0,0,.044.493.261.261,0,0,0,.411-.053l.77-1.141.77,1.141a.261.261,0,0,0,.411.052.4.4,0,0,0,.044-.492l-.849-1.259L80.1,170.2a.4.4,0,0,0,.068-.26A.373.373,0,0,0,80.062,169.7Z" transform="translate(-72.821 -148.457)"/>
      </g>
      <text id="Overview-7" data-name="Overview" transform="translate(184.5 104.401)" fill="#f10" stroke="rgba(0,0,0,0)" stroke-width="1" font-size="8" font-family="SegoeUI-Semibold, Segoe UI" font-weight="600"><tspan x="0" y="0">Stop Watch</tspan></text>
      <g id="_3-2" data-name="3" transform="translate(194.94 56.268)">
        <path id="Path_10-2" data-name="Path 10" d="M31.693,31.178,36.631,23a.728.728,0,0,0-.055-.816.465.465,0,0,0-.681-.066l-6.827,5.918a2.489,2.489,0,0,0-.732,2.289,2.1,2.1,0,0,0,1.448,1.732,1.739,1.739,0,0,0,1.91-.879Z" transform="translate(-14.038 -9.591)"/>
        <path id="Path_11-2" data-name="Path 11" d="M40.24,11.387c-.005-.012-.005-.025-.011-.037s-.017-.018-.023-.029a15.824,15.824,0,0,0-1.88-2.8l1.132-1.25.746.823,2.237-2.469L40.2,3.155l-2.237,2.47.746.823L37.58,7.7a14.509,14.509,0,0,0-2.536-2.076c-.01-.008-.016-.019-.027-.026s-.023-.006-.033-.013A13.249,13.249,0,0,0,29.568,3.6V2.91h.791a1.389,1.389,0,0,0,1.318-1.455A1.389,1.389,0,0,0,30.357,0H25.611a1.389,1.389,0,0,0-1.318,1.455A1.389,1.389,0,0,0,25.611,2.91H26.4v.673a13.259,13.259,0,0,0-1.7.311.487.487,0,0,0-.324.248.678.678,0,0,0-.072.452.527.527,0,0,0,.632.437,12.255,12.255,0,0,1,1.509-.282L26.97,4.7c.177-.015.334-.025.488-.033h0V5.821a.529.529,0,1,0,1.054,0V4.674a12.144,12.144,0,0,1,5.51,1.656l-.52.994a.654.654,0,0,0-.053.452.543.543,0,0,0,.246.348.486.486,0,0,0,.263.078.52.52,0,0,0,.457-.291l.518-.992a14.053,14.053,0,0,1,4.1,4.524l-.9.572a.544.544,0,0,0-.245.349.654.654,0,0,0,.054.451.519.519,0,0,0,.457.291.486.486,0,0,0,.263-.078l.9-.574a15.628,15.628,0,0,1,1.5,6.181H40.027a.469.469,0,0,0-.456.276.684.684,0,0,0,0,.612.469.469,0,0,0,.456.276h1.042a15.628,15.628,0,0,1-1.5,6.181l-.9-.58a.5.5,0,0,0-.72.213.654.654,0,0,0-.053.452.543.543,0,0,0,.246.348l.9.572a14.045,14.045,0,0,1-4.1,4.515l-.518-.991a.5.5,0,0,0-.72-.213.542.542,0,0,0-.246.348.653.653,0,0,0,.054.452l.52.994a12.144,12.144,0,0,1-5.51,1.656V32.6a.529.529,0,1,0-1.054,0v1.15a12.127,12.127,0,0,1-2.519-.359.526.526,0,0,0-.632.437.678.678,0,0,0,.072.452.487.487,0,0,0,.324.248,12.972,12.972,0,0,0,3.195.4H28a13.139,13.139,0,0,0,6.971-2.08.427.427,0,0,0,.049-.023c.011-.007.017-.018.027-.026A15.164,15.164,0,0,0,40.2,27.117a.543.543,0,0,0,.032-.045.309.309,0,0,0,.011-.037,17.076,17.076,0,0,0,0-15.641Z" transform="translate(-12.137 0.001)"/>
        <path id="Path_12-2" data-name="Path 12" d="M18.985,13H16.347a1.173,1.173,0,0,0-1.055,1.264,1.173,1.173,0,0,0,1.055,1.264h2.636a1.173,1.173,0,0,0,1.055-1.264A1.173,1.173,0,0,0,18.984,13Z" transform="translate(-7.903 -5.478)"/>
        <path id="Path_13-2" data-name="Path 13" d="M16.621,20H11.347a1.284,1.284,0,0,0,0,2.527h5.274a1.284,1.284,0,0,0,0-2.527Z" transform="translate(-5.542 -8.429)"/>
        <path id="Path_14-2" data-name="Path 14" d="M14.257,27H6.347a1.284,1.284,0,0,0,0,2.527h7.91a1.284,1.284,0,0,0,0-2.527Z" transform="translate(-3.185 -11.379)"/>
        <path id="Path_15-2" data-name="Path 15" d="M12.367,34H2.349a1.284,1.284,0,0,0,0,2.527H12.367a1.284,1.284,0,0,0,0-2.527Z" transform="translate(-1.294 -14.329)"/>
        <path id="Path_16-2" data-name="Path 16" d="M15.2,41H8.347a1.284,1.284,0,0,0,0,2.527H15.2A1.284,1.284,0,0,0,15.2,41Z" transform="translate(-4.13 -17.28)"/>
        <path id="Path_17-2" data-name="Path 17" d="M18.039,48H14.347a1.284,1.284,0,0,0,0,2.527h3.692a1.284,1.284,0,0,0,0-2.527Z" transform="translate(-6.959 -20.655)"/>
      </g>
      <path id="Path_31" data-name="Path 31" d="M295.931,249.338c-.5-.118-.616.311-.83.711a5.565,5.565,0,0,0-.011,1.811c.051.371.243,1.688.718,1.678.349-.007.642-.658.767-.969.26-.637.725-1.642.354-2.316A1.78,1.78,0,0,0,295.931,249.338Z" transform="translate(6.375 -193.599)" fill="#fff"/>
      <path id="Path_32" data-name="Path 32" d="M291.679,247.423a9.389,9.389,0,0,0-1.3.013c-2.5,2.634-.387,7.42,1.919,9.434a7.674,7.674,0,0,1-1.333-2.773C290.625,252.5,290.319,248.725,291.679,247.423Z" transform="translate(7.327 -193.599)" fill="#5e787c"/>
      <path id="Path_33" data-name="Path 33" d="M303.874,251.957c-1.977-.875-3.937-1.893-6.049-2.914a16.27,16.27,0,0,0-4.755-1.533,8.337,8.337,0,0,0-.478,6.819,6.531,6.531,0,0,0,2.737,3.379,8.089,8.089,0,0,0,1.181.508,8.8,8.8,0,0,0,6.2-2.12C304.506,254.459,305.118,253.05,303.874,251.957Zm-7.8,2.2c-.949.931-1.822-.278-2.08-1.348-.235-.966-.491-3.678,1.013-4.153a1.406,1.406,0,0,1,1.482.726A3.948,3.948,0,0,1,296.074,254.156Z" transform="translate(6.86 -193.599)" fill="#162435"/>
      <path id="Path_34" data-name="Path 34" d="M179.292,327.889a53.059,53.059,0,0,0,4.456-6.966c2.754-5.54,2.373-11.112.345-16.763a36.558,36.558,0,0,1-.385,11.991A42.28,42.28,0,0,1,179.292,327.889Z" transform="translate(72.623 -236.193)" fill="#6c858d"/>
      <path id="Path_35" data-name="Path 35" d="M170.351,322.536c2.06-2.392,4.376-4.526,5.964-7.636,2.623-5.135,1.787-9.459.466-13.878a24.852,24.852,0,0,1-.508,9.055A48.72,48.72,0,0,1,170.351,322.536Z" transform="translate(88.607 -227.702)" fill="#6c858d"/>
      <path id="Path_36" data-name="Path 36" d="M194.989,304.944c-.312,7.642-2.7,15.439-5.5,22.505a73.45,73.45,0,0,0,4.415-9.419A26.245,26.245,0,0,0,194.989,304.944Z" transform="translate(55.315 -236.537)" fill="#6c858d"/>
    </g>
    <g id="Group_3" data-name="Group 3" transform="translate(2188.325 1233)">
      <path id="Path_9-3" data-name="Path 9" d="M342.046,85.5H7.118S.944,87.269.489,85.5,2.5,82.91,5.3,78.422c5-8.02,12.576-22.544,12.576-36.569,0-13.3-6.813-26.155-12.059-34.136C2.921,3.312.261,2.3.489.5S6.728.5,6.728.5H96.613c6.54,4.2,11.02,8.09,14.092,12.247,2.808,3.8,4.238,7.493,5.895,11.768a90.773,90.773,0,0,0,5.285,11.755,30.167,30.167,0,0,0,16.336,13.753,33.507,33.507,0,0,0,9.88,2.056l.421.006v-.024a32.63,32.63,0,0,0,9.633-2.05,29.1,29.1,0,0,0,15.8-13.554,91.327,91.327,0,0,0,5.286-11.814c1.658-4.3,3.089-8.011,5.9-11.832C188.215,8.631,192.7,4.718,199.239.5H342.046L304.94,37.865,324.6,69.572l8.531,9.041,8.733,3.852Z" transform="translate(-0.073 40.531)" fill="#fff" stroke="#707070" stroke-linecap="round" stroke-linejoin="bevel" stroke-width="1"/>
      <path id="Path_10-3" data-name="Path 10" d="M341.557,85V1H199.27c-6.448,4.166-10.865,8.027-13.891,12.141-2.77,3.766-4.189,7.447-5.833,11.711a91.915,91.915,0,0,1-5.316,11.879A29.526,29.526,0,0,1,158.2,50.487a33.468,33.468,0,0,1-9.34,2.051v.052l-.84-.011a33.9,33.9,0,0,1-10-2.077,30.59,30.59,0,0,1-16.562-13.956,91.133,91.133,0,0,1-5.314-11.82c-1.642-4.24-3.061-7.9-5.829-11.647C107.3,8.986,102.881,5.145,96.435,1H.831V85H341.557m.831,1H0V0H96.643c6.635,4.248,11.178,8.192,14.3,12.414,2.849,3.855,4.291,7.578,5.961,11.889a90.305,90.305,0,0,0,5.255,11.69,29.745,29.745,0,0,0,16.111,13.551,33.036,33.036,0,0,0,9.764,2.034v-.007a31.2,31.2,0,0,0,9.925-2.039A28.683,28.683,0,0,0,173.536,36.18a90.881,90.881,0,0,0,5.256-11.751c1.671-4.334,3.115-8.076,5.964-11.951,3.122-4.244,7.667-8.209,14.3-12.478H342.388ZM147.676.086V0h51.189Z" transform="translate(0 40.531)" fill="none"/>
      <g id="Component_5_1" data-name="Component 5 – 1" transform="translate(51.825 58.736)">
        <text id="Overview-8" data-name="Overview" transform="translate(0 47.856)" fill="#f10" stroke="rgba(0,0,0,0)" stroke-width="1" font-size="10" font-family="SegoeUI-Semibold, Segoe UI" font-weight="600"><tspan x="0" y="0">Overview</tspan></text>
        <g id="House_Icon-3" data-name="House Icon" transform="translate(8.964)">
          <path id="Path-5" data-name="Path" d="M0,0V10.3H7.047V2.81A1.811,1.811,0,0,1,8.809.937h1.762A1.811,1.811,0,0,1,12.333,2.81V10.3H19.38V0" transform="translate(3.113 26.553)" fill="none" stroke="#000" stroke-linecap="round" stroke-linejoin="round" stroke-miterlimit="10" stroke-width="1.5"/>
          <path id="Path-6" data-name="Path" d="M0,13.273,11.6.549a1.6,1.6,0,0,1,2.415,0l11.6,12.724" transform="translate(0 -0.001)" fill="none" stroke="#000" stroke-linecap="round" stroke-linejoin="round" stroke-miterlimit="10" stroke-width="1.5"/>
        </g>
      </g>
      <path id="Path_11-3" data-name="Path 11" d="M22.523,56.5a17.934,17.934,0,0,1-8.565-2.2,22.5,22.5,0,0,1-7-6,29.259,29.259,0,0,1-4.725-8.9,35.183,35.183,0,0,1,0-21.815,29.259,29.259,0,0,1,4.725-8.9,22.5,22.5,0,0,1,7-6,17.8,17.8,0,0,1,17.129,0,22.5,22.5,0,0,1,7,6,29.258,29.258,0,0,1,4.725,8.9,35.184,35.184,0,0,1,0,21.815,29.258,29.258,0,0,1-4.725,8.9,22.5,22.5,0,0,1-7,6A17.934,17.934,0,0,1,22.523,56.5Z" transform="translate(124.571 22.531)" fill="#00d0e4" stroke="#707070" stroke-width="1"/>
      <path id="Path_12-3" data-name="Path 12" d="M22.438,1a17.579,17.579,0,0,0-8.4,2.153A22.072,22.072,0,0,0,7.175,9.035a28.74,28.74,0,0,0-4.641,8.743,34.588,34.588,0,0,0,0,21.443,28.74,28.74,0,0,0,4.641,8.743,22.073,22.073,0,0,0,6.868,5.882,17.445,17.445,0,0,0,16.79,0A22.073,22.073,0,0,0,37.7,47.965a28.741,28.741,0,0,0,4.641-8.743,34.589,34.589,0,0,0,0-21.443A28.741,28.741,0,0,0,37.7,9.035a22.072,22.072,0,0,0-6.868-5.882A17.579,17.579,0,0,0,22.438,1m0-1C34.83,0,44.876,12.76,44.876,28.5S34.83,57,22.438,57,0,44.24,0,28.5,10.046,0,22.438,0Z" transform="translate(124.656 22.531)" fill="#707070" stroke="#707070" stroke-width="1"/>
      <text id="Overview-9" data-name="Overview" transform="translate(259.88 106.592)" fill="#f10" stroke="rgba(0,0,0,0)" stroke-width="1" font-size="10" font-family="SegoeUI-Semibold, Segoe UI" font-weight="600"><tspan x="0" y="0">timer</tspan></text>
      <g id="_6-3" data-name="6" transform="translate(265.343 58.397)">
        <path id="Path_18-3" data-name="Path 18" d="M122.759,33.644h-.507V28.8a6.159,6.159,0,0,0-1-3.386l-5.236-7.987,5.236-8.051a6.235,6.235,0,0,0,1-3.409V1.085h.507a.523.523,0,0,0,.507-.543A.523.523,0,0,0,122.759,0H104.507A.523.523,0,0,0,104,.542a.523.523,0,0,0,.507.543h.507V5.969a6.236,6.236,0,0,0,1,3.409l5.236,8.051-5.236,7.987a6.159,6.159,0,0,0-1,3.386v4.842h-.507a.432.432,0,0,0-.435.252.641.641,0,0,0,0,.581.432.432,0,0,0,.435.252h18.252a.433.433,0,0,0,.435-.252.641.641,0,0,0,0-.581A.433.433,0,0,0,122.759,33.644ZM106.028,28.8a5.024,5.024,0,0,1,.816-2.763l5.435-8.3a.574.574,0,0,0,0-.621l-5.435-8.362a5.1,5.1,0,0,1-.817-2.789V1.085h15.208V5.969a5.1,5.1,0,0,1-.817,2.789l-5.435,8.362a.574.574,0,0,0,0,.621l5.435,8.3a5.024,5.024,0,0,1,.816,2.763v4.842H106.026Z" transform="translate(-104 0.002)"/>
        <path id="Path_19-3" data-name="Path 19" d="M281.521,464h-1.014a.382.382,0,0,0-.45.194.585.585,0,0,0,0,.576.382.382,0,0,0,.45.194h1.014a.382.382,0,0,0,.45-.194.585.585,0,0,0,0-.576A.382.382,0,0,0,281.521,464Z" transform="translate(-268.846 -432.16)"/>
        <path id="Path_20-3" data-name="Path 20" d="M195.7,157.862a.512.512,0,0,0,.429-.225c.112-.161,2.186-3,3.561-4.881a.464.464,0,0,0,.033-.5.509.509,0,0,0-.45-.259h-7.147a.509.509,0,0,0-.45.259.464.464,0,0,0,.033.5c1.375,1.881,3.449,4.72,3.561,4.881A.512.512,0,0,0,195.7,157.862Zm2.6-4.9c-1.451,1.985-2.208,3.023-2.6,3.567-.4-.544-1.153-1.582-2.6-3.567Z" transform="translate(-186.063 -141.417)"/>
        <path id="Path_21-4" data-name="Path 21" d="M162.166,336.2a.514.514,0,0,0-.416-.2h-6.316a.514.514,0,0,0-.416.2l-2.384,3.232a3.181,3.181,0,0,0-.632,1.9v2.854a.491.491,0,0,0,.507.482h6.084a.382.382,0,0,0,.45-.194.585.585,0,0,0,0-.576.382.382,0,0,0-.45-.194h-5.579v-2.372a2.255,2.255,0,0,1,.449-1.348l2.233-3.027h5.792l2.233,3.027a2.256,2.256,0,0,1,.449,1.348v2.372h-.507a.382.382,0,0,0-.45.194.585.585,0,0,0,0,.576.382.382,0,0,0,.45.194h1.014a.491.491,0,0,0,.507-.482v-2.854a3.182,3.182,0,0,0-.632-1.9Z" transform="translate(-148.959 -311.871)"/>
        <path id="Path_22-4" data-name="Path 22" d="M326.862,75.769a.523.523,0,0,0,.289.086.515.515,0,0,0,.416-.207l.555-.758a3.243,3.243,0,0,0,.636-1.926v-.482a.508.508,0,0,0-1.014,0v.482a2.315,2.315,0,0,1-.454,1.376l-.555.758a.485.485,0,0,0-.08.375.41.41,0,0,0,.208.3Z" transform="translate(-312.535 -67.661)"/>
        <path id="Path_23-3" data-name="Path 23" d="M344.507,33.446a.491.491,0,0,0,.507-.482v-.482a.508.508,0,0,0-1.014,0v.482a.491.491,0,0,0,.507.482Z" transform="translate(-328.79 -30.07)"/>
      </g>
      <text id="Overview-10" data-name="Overview" transform="translate(125.961 106.592)" fill="#0094ff" font-size="10" font-family="SegoeUI-Semibold, Segoe UI" font-weight="600"><tspan x="0" y="0">AllTasks</tspan></text>
      <g id="testing-checklist-file-or-to-do-list-black-outline-17464-3" data-name="testing-checklist-file-or-to-do-list-black-outline-17464" transform="translate(135.34 30.934)">
        <path id="Path_1-4" data-name="Path 1" d="M56.327,7.725,50.351.533A1.388,1.388,0,0,0,49.281,0H33.325a1.691,1.691,0,0,0-1.512,1.82V38.305a1.691,1.691,0,0,0,1.512,1.82H55.257a1.691,1.691,0,0,0,1.512-1.82V9.012a2.007,2.007,0,0,0-.443-1.287ZM55.505,8h-4.71a.749.749,0,0,1-.671-.807V1.522Zm.524,30.308a.862.862,0,0,1-.772.929H33.327a.862.862,0,0,1-.772-.929V1.82a.862.862,0,0,1,.772-.929H49.283a.649.649,0,0,1,.1.009V7.19A1.576,1.576,0,0,0,50.8,8.89H56.02a1.062,1.062,0,0,1,.01.123Z" transform="translate(-31.813 0)" fill="#fff"/>
        <path id="Path_2-4" data-name="Path 2" d="M62.179,70.309c-2.331,0-4.222,2.274-4.222,5.08s1.89,5.08,4.221,5.08,4.222-2.274,4.222-5.08-1.891-5.077-4.222-5.08Zm0,9.269c-1.923,0-3.481-1.875-3.481-4.189S60.256,71.2,62.179,71.2s3.481,1.875,3.481,4.189-1.559,4.187-3.481,4.189Z" transform="translate(-54.508 -59.154)" fill="#fff"/>
        <path id="Path_3-4" data-name="Path 3" d="M78.154,89.652l-2.1,2.776-.587-.963a.351.351,0,0,0-.342-.193.385.385,0,0,0-.3.269.521.521,0,0,0,.05.451l.854,1.4a.358.358,0,0,0,.279.181h.02a.346.346,0,0,0,.273-.145L78.7,90.25a.512.512,0,0,0,.091-.443.406.406,0,0,0-.281-.307.338.338,0,0,0-.358.151Z" transform="translate(-69.127 -75.305)" fill="#fff"/>
        <path id="Path_4-4" data-name="Path 4" d="M146.547,86.714h-6.554a.454.454,0,0,0,0,.892h6.554a.454.454,0,0,0,0-.892Z" transform="translate(-125.406 -72.956)" fill="#fff"/>
        <path id="Path_5-3" data-name="Path 5" d="M146.547,112.327h-6.554a.454.454,0,0,0,0,.892h6.554a.454.454,0,0,0,0-.892Z" transform="translate(-125.406 -94.505)" fill="#fff"/>
        <path id="Path_6-4" data-name="Path 6" d="M62.178,152.268c-2.333,0-4.224,2.275-4.223,5.082s1.891,5.081,4.223,5.08,4.222-2.275,4.222-5.082S64.509,152.271,62.178,152.268Zm0,9.269c-1.923,0-3.481-1.875-3.481-4.189s1.559-4.189,3.481-4.189,3.481,1.875,3.481,4.189-1.559,4.187-3.481,4.19Z" transform="translate(-54.508 -128.109)" fill="#fff"/>
        <path id="Path_7-4" data-name="Path 7" d="M146.547,168.673h-6.554a.454.454,0,0,0,0,.892h6.554a.454.454,0,0,0,0-.892Z" transform="translate(-125.406 -141.911)" fill="#fff"/>
        <path id="Path_8-4" data-name="Path 8" d="M146.547,194.286h-6.554a.454.454,0,0,0,0,.892h6.554a.454.454,0,0,0,0-.892Z" transform="translate(-125.406 -163.46)" fill="#fff"/>
        <path id="Path_9-4" data-name="Path 9" d="M80.717,169.724a.33.33,0,0,0-.521.067l-.975,1.451-.975-1.451a.346.346,0,0,0-.351-.178.394.394,0,0,0-.3.288.517.517,0,0,0,.071.45l1.075,1.6-1.075,1.6a.517.517,0,0,0-.071.45.394.394,0,0,0,.3.288.346.346,0,0,0,.351-.178l.975-1.451.975,1.451a.346.346,0,0,0,.351.178.394.394,0,0,0,.3-.288.517.517,0,0,0-.071-.45l-1.075-1.6,1.075-1.6a.51.51,0,0,0,.081-.327.476.476,0,0,0-.136-.3Z" transform="translate(-71.55 -142.712)" fill="#fff"/>
      </g>
      <text id="Overview-11" data-name="Overview" transform="translate(180.488 106.592)" fill="#f10" stroke="rgba(0,0,0,0)" stroke-width="1" font-size="10" font-family="SegoeUI-Semibold, Segoe UI" font-weight="600"><tspan x="0" y="0">Stop Watch</tspan></text>
      <g id="_3-3" data-name="3" transform="translate(194.051 58.398)">
        <path id="Path_10-4" data-name="Path 10" d="M31.677,31.178,36.593,23a.73.73,0,0,0-.055-.816.461.461,0,0,0-.678-.066l-6.8,5.918a2.5,2.5,0,0,0-.728,2.289,2.094,2.094,0,0,0,1.441,1.732,1.729,1.729,0,0,0,1.9-.879Z" transform="translate(-14.103 -9.591)"/>
        <path id="Path_11-4" data-name="Path 11" d="M40.168,11.387c0-.012,0-.025-.011-.037s-.017-.018-.023-.029a15.829,15.829,0,0,0-1.872-2.8l1.127-1.25.742.823,2.227-2.469-2.227-2.47L37.9,5.625l.743.823L37.52,7.7A14.457,14.457,0,0,0,35,5.624c-.01-.008-.016-.019-.027-.026s-.022-.006-.033-.013A13.151,13.151,0,0,0,29.544,3.6V2.91h.787a1.386,1.386,0,0,0,1.312-1.455A1.387,1.387,0,0,0,30.33,0H25.605a1.386,1.386,0,0,0-1.312,1.455A1.386,1.386,0,0,0,25.605,2.91h.787v.673a13.144,13.144,0,0,0-1.692.311.485.485,0,0,0-.322.248.681.681,0,0,0-.072.452.525.525,0,0,0,.629.437,12.149,12.149,0,0,1,1.5-.282l.521-.049c.176-.015.332-.025.485-.033h0V5.821a.527.527,0,1,0,1.05,0V4.674A12.048,12.048,0,0,1,33.978,6.33l-.518.994a.657.657,0,0,0-.053.452.543.543,0,0,0,.245.348.482.482,0,0,0,.262.078.518.518,0,0,0,.455-.291l.516-.992a14.03,14.03,0,0,1,4.08,4.524l-.894.572a.544.544,0,0,0-.244.349.656.656,0,0,0,.054.451.517.517,0,0,0,.455.291.482.482,0,0,0,.262-.078l.9-.574a15.686,15.686,0,0,1,1.5,6.181H39.956a.466.466,0,0,0-.454.276.687.687,0,0,0,0,.612.466.466,0,0,0,.454.276h1.037a15.686,15.686,0,0,1-1.5,6.181l-.9-.58a.5.5,0,0,0-.717.213.657.657,0,0,0-.053.452.543.543,0,0,0,.245.348l.894.572A14.022,14.022,0,0,1,34.89,31.5l-.516-.991a.5.5,0,0,0-.717-.213.542.542,0,0,0-.245.348.655.655,0,0,0,.053.452l.518.994A12.048,12.048,0,0,1,28.5,33.746V32.6a.527.527,0,1,0-1.05,0v1.15a12.02,12.02,0,0,1-2.507-.359.524.524,0,0,0-.629.437.681.681,0,0,0,.072.452.485.485,0,0,0,.322.248,12.857,12.857,0,0,0,3.18.4h.1a13.036,13.036,0,0,0,6.939-2.08.423.423,0,0,0,.049-.023c.011-.007.017-.018.027-.026a15.14,15.14,0,0,0,5.13-5.682.542.542,0,0,0,.032-.045.31.31,0,0,0,.011-.037,17.146,17.146,0,0,0,0-15.641Z" transform="translate(-12.193 0.001)"/>
        <path id="Path_12-4" data-name="Path 12" d="M18.968,13H16.343a1.172,1.172,0,0,0-1.05,1.264,1.172,1.172,0,0,0,1.05,1.264h2.624a1.172,1.172,0,0,0,1.05-1.264A1.172,1.172,0,0,0,18.967,13Z" transform="translate(-7.937 -5.478)"/>
        <path id="Path_13-3" data-name="Path 13" d="M16.592,20h-5.25a1.285,1.285,0,0,0,0,2.527h5.25a1.285,1.285,0,0,0,0-2.527Z" transform="translate(-5.564 -8.429)"/>
        <path id="Path_14-3" data-name="Path 14" d="M14.217,27H6.343a1.285,1.285,0,0,0,0,2.527h7.874a1.285,1.285,0,0,0,0-2.527Z" transform="translate(-3.194 -11.379)"/>
        <path id="Path_15-3" data-name="Path 15" d="M12.317,34H2.345a1.285,1.285,0,0,0,0,2.527h9.972a1.285,1.285,0,0,0,0-2.527Z" transform="translate(-1.294 -14.329)"/>
        <path id="Path_16-3" data-name="Path 16" d="M15.167,41H8.343a1.285,1.285,0,0,0,0,2.527h6.824a1.285,1.285,0,0,0,0-2.527Z" transform="translate(-4.145 -17.28)"/>
        <path id="Path_17-3" data-name="Path 17" d="M18.017,48H14.343a1.285,1.285,0,0,0,0,2.527h3.675a1.285,1.285,0,0,0,0-2.527Z" transform="translate(-6.987 -20.655)"/>
      </g>
      <path id="Path_23-4" data-name="Path 23" d="M109.271,5.907A101.1,101.1,0,0,1,89.577,3.941C81.844,2.448,74.324.834,66.328-.219a108.366,108.366,0,0,0-16.871-.974C35.128-.834,20.1.5,5.705,5.47c-2.35.814-3.6,1.951-5.908,2.923.088.97,2.395,2.673,2.558,3.3,1.488,1.7,2.017,3.63,3.7,5.088.231-.67-.034-2.837-.051-5.1A4.72,4.72,0,0,1,8.065,8l3.116-1.735,3.255-1.72-2.222,5.08a11.947,11.947,0,0,0-.483,7.128,17.267,17.267,0,0,0,3.734,6.115c.452-1.032,1.1-2.334,2.014-3.974A38.3,38.3,0,0,1,24.9,9.641l4.025-3.489L26.669,7.99c-.013.039,6.438-6.941,9.007-1.422.061.132-.428,4.963.3,7.288.889,2.17.691,2.121,2.013,3.265A13.312,13.312,0,0,0,40.551,19.1c.2.124-.359-4.638.717-7.525S50,6.438,50,6.438L48.1,11.03c-.01.021-.922,2.311.149,6.706a12.719,12.719,0,0,0,2.639,5.146,51.249,51.249,0,0,1,2.392-6.722,15.6,15.6,0,0,1,7.751-7.536,34.023,34.023,0,0,0-.694,8.851c.131,3.718,2.058,6.342,3.073,8.055.807-1.424,1.937-3.353,3.306-5.528a22.343,22.343,0,0,1,6.822-7.078l1.178-.689.752.867c.362.416.918,1.6.588,4.82-.177,1.7-.5,4.029-.753,5.827,1.16-.709,2.821-1.794,5.128-3.43a72.308,72.308,0,0,0,9.084-7.7,27.138,27.138,0,0,1-2.253,7.965c-.639,1.363-1.266,2.665-1.811,3.783a81.667,81.667,0,0,0,8.1-3.923,54.98,54.98,0,0,0,10.34-8.02L107.6,7.659l-1.677,5.633c-.029.1-.319,1.047-1.618,4.5a25.758,25.758,0,0,1-2.054,4.047,125.061,125.061,0,0,0,11.279-6.369c4.3-2.927,9.048-7.963,12.534-11.932C121.189,5.468,114.609,5.886,109.271,5.907Z" transform="translate(286.237 94.393) rotate(-47)" fill="#fff" stroke="#707070" stroke-width="1"/>
      <path id="Path_24" data-name="Path 24" d="M44.924,23.615q-.682-.063-1.43-.156a84.068,84.068,0,0,1-9.613-1.869s5.41-3.826,7.954-9.269c2.017,3.592,3.323,10.039,3.323,10.039A22.58,22.58,0,0,0,53.7,13.624c1.759,6.007,1.511,7.716,1.511,7.716s-4.39,2.026-4.407,2.06C49.869,23.866,49.434,24.03,44.924,23.615Zm-13.647-2.7a145.86,145.86,0,0,1-22.758-8.3S13.671,3.253,16.992.4c.032,6.353,4.517,14.265,4.517,14.265s6.525-2.568,7.254-7.126C32.045,13.691,31.278,20.913,31.278,20.913ZM7.087,11.977C5.612,11.268-1.144,1.963.222,1.332c-.18.654,3.1,5.579,3.1,5.579Z" transform="matrix(0.777, 0.629, -0.629, 0.777, 312.467, 72.451)" fill="#fff" stroke="#707070" stroke-width="1"/>
      <path id="Path_31-2" data-name="Path 31" d="M295.927,249.338c-.5-.118-.613.311-.826.711a5.59,5.59,0,0,0-.011,1.811c.051.371.242,1.688.715,1.678.347-.007.639-.658.764-.969.258-.637.722-1.642.352-2.316A1.775,1.775,0,0,0,295.927,249.338Z" transform="translate(5.001 -194.469)" fill="#fff"/>
      <path id="Path_32-2" data-name="Path 32" d="M291.668,247.423a9.3,9.3,0,0,0-1.294.013c-2.484,2.634-.386,7.42,1.911,9.434a7.689,7.689,0,0,1-1.327-2.773C290.618,252.5,290.314,248.725,291.668,247.423Z" transform="translate(5.976 -194.469)" fill="#5e787c"/>
      <path id="Path_33-2" data-name="Path 33" d="M303.82,251.957c-1.968-.875-3.919-1.893-6.022-2.914a16.143,16.143,0,0,0-4.734-1.533,8.372,8.372,0,0,0-.476,6.819,6.524,6.524,0,0,0,2.725,3.379,8.031,8.031,0,0,0,1.176.508,8.736,8.736,0,0,0,6.172-2.12C304.45,254.459,305.059,253.05,303.82,251.957Zm-7.764,2.2c-.945.931-1.813-.278-2.071-1.348-.234-.966-.489-3.678,1.008-4.153a1.4,1.4,0,0,1,1.475.726A3.962,3.962,0,0,1,296.055,254.156Z" transform="translate(5.498 -194.469)" fill="#162435"/>
      <path id="Path_34-2" data-name="Path 34" d="M179.292,327.889a53.089,53.089,0,0,0,4.436-6.966c2.742-5.54,2.363-11.112.343-16.763a36.724,36.724,0,0,1-.383,11.991A42.4,42.4,0,0,1,179.292,327.889Z" transform="translate(71.475 -237.063)" fill="#6c858d"/>
      <path id="Path_35-2" data-name="Path 35" d="M170.351,322.536c2.05-2.392,4.356-4.526,5.937-7.636,2.611-5.135,1.778-9.459.464-13.878a24.963,24.963,0,0,1-.506,9.055A48.818,48.818,0,0,1,170.351,322.536Z" transform="translate(87.427 -228.571)" fill="#6c858d"/>
      <path id="Path_36-2" data-name="Path 36" d="M194.964,304.944c-.311,7.642-2.689,15.439-5.476,22.505a73.6,73.6,0,0,0,4.4-9.419A26.359,26.359,0,0,0,194.964,304.944Z" transform="translate(54.199 -237.407)" fill="#6c858d"/>
    </g>
    <g id="Group_7" data-name="Group 7">
      <g id="Group_5" data-name="Group 5">
        <g id="Group_2" data-name="Group 2" transform="translate(2188.325 1390.968)">
          <g id="Group_42" data-name="Group 42" transform="translate(0 22.531)">
            <g id="Subtraction_4" data-name="Subtraction 4" transform="translate(0 15.999)">
              <g id="Group_6" data-name="Group 6">
                <path id="Path_13-4" data-name="Path 13" d="M342.02,85.5H5.167s-4.477,1.119-4.7,0,1-1.548,2.581-4.477C6.7,74.24,13.529,59.438,13.529,44.075c0-10.731-3.332-21.737-6.734-30.261C3.664,5.97-.018,5.527.3,2.2S8.07.5,8.07.5H156.422c6.54,4.2,11.02,8.09,14.092,12.247,2.808,3.8,4.239,7.493,5.895,11.769a90.8,90.8,0,0,0,5.285,11.755,30.165,30.165,0,0,0,16.336,13.753,33.386,33.386,0,0,0,9.881,2.055l.42.005V52.06a32.532,32.532,0,0,0,9.613-2.041,29.491,29.491,0,0,0,15.822-13.563,91.445,91.445,0,0,0,5.287-11.815c1.657-4.3,3.088-8.01,5.9-11.831,3.073-4.179,7.555-8.092,14.1-12.31H342.02l-5.428,5.458-7.743,7.784-10.141,10.2L304.822,37.9l10.746,19.232,9.226,14.416,6.8,6.867Z" transform="translate(-0.048 0)" fill="#fff" stroke="#707070" stroke-linecap="round" stroke-linejoin="bevel" stroke-width="1"/>
              </g>
            </g>
            <g id="Path_37" data-name="Path 37" transform="translate(186.153)">
              <path id="Path_15-4" data-name="Path 15" d="M22.523,56.5a17.934,17.934,0,0,1-8.565-2.2,22.5,22.5,0,0,1-7-6,29.259,29.259,0,0,1-4.725-8.9,35.183,35.183,0,0,1,0-21.815,29.259,29.259,0,0,1,4.725-8.9,22.5,22.5,0,0,1,7-6,17.8,17.8,0,0,1,17.129,0,22.5,22.5,0,0,1,7,6,29.258,29.258,0,0,1,4.725,8.9,35.184,35.184,0,0,1,0,21.815,29.258,29.258,0,0,1-4.725,8.9,22.5,22.5,0,0,1-7,6A17.934,17.934,0,0,1,22.523,56.5Z" transform="translate(-0.084 0)" fill="#00d0e4"/>
              <path id="Path_16-4" data-name="Path 16" d="M22.438,1a17.579,17.579,0,0,0-8.4,2.153A22.072,22.072,0,0,0,7.175,9.035a28.74,28.74,0,0,0-4.641,8.743,34.588,34.588,0,0,0,0,21.443,28.74,28.74,0,0,0,4.641,8.743,22.073,22.073,0,0,0,6.868,5.882,17.445,17.445,0,0,0,16.79,0A22.073,22.073,0,0,0,37.7,47.965a28.741,28.741,0,0,0,4.641-8.743,34.589,34.589,0,0,0,0-21.443A28.741,28.741,0,0,0,37.7,9.035a22.072,22.072,0,0,0-6.868-5.882A17.579,17.579,0,0,0,22.438,1m0-1C34.83,0,44.876,12.76,44.876,28.5S34.83,57,22.438,57,0,44.24,0,28.5,10.046,0,22.438,0Z" fill="#707070"/>
            </g>
            <g id="Group_34" data-name="Group 34" transform="translate(259.88 33.866)">
              <text id="Overview-12" data-name="Overview" transform="translate(0 48.195)" fill="#f10" font-size="10" font-family="SegoeUI-Semibold, Segoe UI" font-weight="600"><tspan x="0" y="0">timer</tspan></text>
              <g id="_6-4" data-name="6" transform="translate(5.463)">
                <path id="Path_18-4" data-name="Path 18" d="M122.759,33.644h-.507V28.8a6.159,6.159,0,0,0-1-3.386l-5.236-7.987,5.236-8.051a6.235,6.235,0,0,0,1-3.409V1.085h.507a.523.523,0,0,0,.507-.543A.523.523,0,0,0,122.759,0H104.507A.523.523,0,0,0,104,.542a.523.523,0,0,0,.507.543h.507V5.969a6.236,6.236,0,0,0,1,3.409l5.236,8.051-5.236,7.987a6.159,6.159,0,0,0-1,3.386v4.842h-.507a.432.432,0,0,0-.435.252.641.641,0,0,0,0,.581.432.432,0,0,0,.435.252h18.252a.433.433,0,0,0,.435-.252.641.641,0,0,0,0-.581A.433.433,0,0,0,122.759,33.644ZM106.028,28.8a5.024,5.024,0,0,1,.816-2.763l5.435-8.3a.574.574,0,0,0,0-.621l-5.435-8.362a5.1,5.1,0,0,1-.817-2.789V1.085h15.208V5.969a5.1,5.1,0,0,1-.817,2.789l-5.435,8.362a.574.574,0,0,0,0,.621l5.435,8.3a5.024,5.024,0,0,1,.816,2.763v4.842H106.026Z" transform="translate(-104 0.002)"/>
                <path id="Path_19-4" data-name="Path 19" d="M281.521,464h-1.014a.382.382,0,0,0-.45.194.585.585,0,0,0,0,.576.382.382,0,0,0,.45.194h1.014a.382.382,0,0,0,.45-.194.585.585,0,0,0,0-.576A.382.382,0,0,0,281.521,464Z" transform="translate(-268.846 -432.16)"/>
                <path id="Path_20-4" data-name="Path 20" d="M195.7,157.862a.512.512,0,0,0,.429-.225c.112-.161,2.186-3,3.561-4.881a.464.464,0,0,0,.033-.5.509.509,0,0,0-.45-.259h-7.147a.509.509,0,0,0-.45.259.464.464,0,0,0,.033.5c1.375,1.881,3.449,4.72,3.561,4.881A.512.512,0,0,0,195.7,157.862Zm2.6-4.9c-1.451,1.985-2.208,3.023-2.6,3.567-.4-.544-1.153-1.582-2.6-3.567Z" transform="translate(-186.063 -141.417)"/>
                <path id="Path_21-5" data-name="Path 21" d="M162.166,336.2a.514.514,0,0,0-.416-.2h-6.316a.514.514,0,0,0-.416.2l-2.384,3.232a3.181,3.181,0,0,0-.632,1.9v2.854a.491.491,0,0,0,.507.482h6.084a.382.382,0,0,0,.45-.194.585.585,0,0,0,0-.576.382.382,0,0,0-.45-.194h-5.579v-2.372a2.255,2.255,0,0,1,.449-1.348l2.233-3.027h5.792l2.233,3.027a2.256,2.256,0,0,1,.449,1.348v2.372h-.507a.382.382,0,0,0-.45.194.585.585,0,0,0,0,.576.382.382,0,0,0,.45.194h1.014a.491.491,0,0,0,.507-.482v-2.854a3.182,3.182,0,0,0-.632-1.9Z" transform="translate(-148.959 -311.871)"/>
                <path id="Path_22-5" data-name="Path 22" d="M326.862,75.769a.523.523,0,0,0,.289.086.515.515,0,0,0,.416-.207l.555-.758a3.243,3.243,0,0,0,.636-1.926v-.482a.508.508,0,0,0-1.014,0v.482a2.315,2.315,0,0,1-.454,1.376l-.555.758a.485.485,0,0,0-.08.375.41.41,0,0,0,.208.3Z" transform="translate(-312.535 -67.661)"/>
                <path id="Path_23-5" data-name="Path 23" d="M344.507,33.446a.491.491,0,0,0,.507-.482v-.482a.508.508,0,0,0-1.014,0v.482a.491.491,0,0,0,.507.482Z" transform="translate(-328.79 -30.07)"/>
              </g>
            </g>
            <g id="Group_35" data-name="Group 35" transform="translate(125.961 33.674)">
              <text id="Overview-13" data-name="Overview" transform="translate(0 48.387)" fill="#f10" font-size="10" font-family="SegoeUI-Semibold, Segoe UI" font-weight="600"><tspan x="0" y="0">AllTasks</tspan></text>
              <g id="testing-checklist-file-or-to-do-list-black-outline-17464-4" data-name="testing-checklist-file-or-to-do-list-black-outline-17464" transform="translate(12.658)">
                <path id="Path_1-5" data-name="Path 1" d="M51.094,6.076,46.394.419A1.092,1.092,0,0,0,45.553,0H33a1.33,1.33,0,0,0-1.19,1.432v28.7A1.33,1.33,0,0,0,33,31.564H50.251a1.33,1.33,0,0,0,1.19-1.432V7.088A1.58,1.58,0,0,0,51.094,6.076Zm-.647.214h-3.7a.589.589,0,0,1-.528-.634V1.2Zm.416,23.838a.679.679,0,0,1-.607.73H33a.679.679,0,0,1-.607-.73V1.432A.679.679,0,0,1,33,.7H45.554a.511.511,0,0,1,.083.009V5.655a1.24,1.24,0,0,0,1.11,1.336h4.109a.837.837,0,0,1,.008.1Z" transform="translate(-31.814 0)"/>
                <path id="Path_2-5" data-name="Path 2" d="M61.276,70.309c-1.836,0-3.324,1.791-3.324,4s1.488,4,3.324,4,3.324-1.791,3.324-4S63.112,70.309,61.276,70.309Zm0,7.291a3.351,3.351,0,0,1,0-6.588,3.351,3.351,0,0,1,0,6.588Z" transform="translate(-55.244 -61.535)"/>
                <path id="Path_3-5" data-name="Path 3" d="M77.439,89.621,75.785,91.8l-.461-.757a.261.261,0,0,0-.407-.076.4.4,0,0,0-.063.49l.672,1.1a.282.282,0,0,0,.219.143h.016a.272.272,0,0,0,.215-.114l1.894-2.5a.4.4,0,0,0,.076-.351.319.319,0,0,0-.223-.244.267.267,0,0,0-.284.123Z" transform="translate(-70.34 -78.337)"/>
                <path id="Path_4-5" data-name="Path 4" d="M145.065,86.714h-5.152a.281.281,0,0,0-.271.167.413.413,0,0,0,0,.366.281.281,0,0,0,.271.167h5.152a.281.281,0,0,0,.271-.167.413.413,0,0,0,0-.366A.281.281,0,0,0,145.065,86.714Z" transform="translate(-128.438 -75.893)"/>
                <path id="Path_5-4" data-name="Path 5" d="M145.065,112.327h-5.152a.281.281,0,0,0-.271.167.413.413,0,0,0,0,.366.281.281,0,0,0,.271.167h5.152a.281.281,0,0,0,.271-.167.413.413,0,0,0,0-.366A.281.281,0,0,0,145.065,112.327Z" transform="translate(-128.438 -98.31)"/>
                <path id="Path_6-5" data-name="Path 6" d="M61.276,152.268c-1.836,0-3.324,1.791-3.324,4s1.488,4,3.324,4,3.324-1.791,3.324-4S63.112,152.268,61.276,152.268Zm0,7.291a3.351,3.351,0,0,1,0-6.59,3.352,3.352,0,0,1,0,6.59Z" transform="translate(-55.244 -133.267)"/>
                <path id="Path_7-5" data-name="Path 7" d="M145.065,168.673h-5.152a.281.281,0,0,0-.271.167.413.413,0,0,0,0,.366.281.281,0,0,0,.271.167h5.152a.281.281,0,0,0,.271-.167.413.413,0,0,0,0-.366A.281.281,0,0,0,145.065,168.673Z" transform="translate(-128.438 -147.624)"/>
                <path id="Path_8-5" data-name="Path 8" d="M145.074,194.286h-5.152a.362.362,0,0,0,0,.7h5.152a.281.281,0,0,0,.271-.167.413.413,0,0,0,0-.366.281.281,0,0,0-.271-.167Z" transform="translate(-128.447 -170.041)"/>
                <path id="Path_9-5" data-name="Path 9" d="M80.051,169.7a.26.26,0,0,0-.41.053l-.766,1.141-.766-1.141a.259.259,0,0,0-.409-.053.4.4,0,0,0-.044.493l.845,1.259-.845,1.259a.4.4,0,0,0,.044.493.259.259,0,0,0,.409-.053l.766-1.141.766,1.141a.259.259,0,0,0,.409.052.4.4,0,0,0,.044-.492l-.845-1.259.843-1.252a.4.4,0,0,0,.068-.26A.374.374,0,0,0,80.051,169.7Z" transform="translate(-72.842 -148.457)"/>
              </g>
            </g>
            <g id="Group_36" data-name="Group 36" transform="translate(180.488 7.339)">
              <text id="Overview-14" data-name="Overview" transform="translate(0 74.722)" fill="#0094ff" font-size="10" font-family="SegoeUI-Semibold, Segoe UI" font-weight="600"><tspan x="0" y="0">Stop Watch</tspan></text>
              <g id="_3-4" data-name="3" transform="translate(8.285 0)">
                <path id="Path_10-5" data-name="Path 10" d="M32.425,33.205l6-9.982a.892.892,0,0,0-.068-.995.563.563,0,0,0-.827-.082l-8.3,7.223a3.046,3.046,0,0,0-.892,2.8A2.556,2.556,0,0,0,30.1,34.281,2.111,2.111,0,0,0,32.425,33.205Z" transform="translate(-10.967 -6.851)" fill="#fff"/>
                <path id="Path_11-5" data-name="Path 11" d="M43.673,13.9c-.007-.015-.007-.031-.013-.045s-.02-.022-.028-.036A19.325,19.325,0,0,0,41.347,10.4l1.376-1.522.906,1,2.718-3.014-2.718-3.01L40.91,6.869l.907,1L40.441,9.4a17.65,17.65,0,0,0-3.081-2.534c-.012-.009-.019-.023-.032-.031s-.027-.008-.041-.016A16.052,16.052,0,0,0,30.7,4.4V3.553h.962a1.692,1.692,0,0,0,1.6-1.776A1.693,1.693,0,0,0,31.663,0H25.9a1.692,1.692,0,0,0-1.6,1.776,1.692,1.692,0,0,0,1.6,1.776h.962v.821a16.046,16.046,0,0,0-2.066.38.592.592,0,0,0-.392.3.831.831,0,0,0-.089.549.641.641,0,0,0,.768.534,14.834,14.834,0,0,1,1.833-.345l.635-.053c.214-.018.407-.031.593-.041h0V7.1a.644.644,0,1,0,1.281,0V5.7a14.709,14.709,0,0,1,6.7,2.022l-.632,1.214a.8.8,0,0,0-.062.548.663.663,0,0,0,.3.423.591.591,0,0,0,.32.1.632.632,0,0,0,.556-.355l.63-1.211a17.128,17.128,0,0,1,4.98,5.523l-1.091.7a.664.664,0,0,0-.3.423.8.8,0,0,0,.063.548.631.631,0,0,0,.556.355.591.591,0,0,0,.32-.1l1.094-.7a19.148,19.148,0,0,1,1.828,7.546H43.413a.569.569,0,0,0-.554.337.838.838,0,0,0,0,.747.569.569,0,0,0,.554.337h1.266A19.148,19.148,0,0,1,42.85,31.7L41.76,31a.606.606,0,0,0-.875.26.8.8,0,0,0-.062.548.663.663,0,0,0,.3.423l1.091.7a17.127,17.127,0,0,1-4.98,5.523l-.63-1.21a.606.606,0,0,0-.875-.26.662.662,0,0,0-.3.423.8.8,0,0,0,.063.548l.632,1.213a14.709,14.709,0,0,1-6.7,2.022v-1.4a.644.644,0,1,0-1.281,0v1.4a14.675,14.675,0,0,1-3.061-.438.64.64,0,0,0-.768.534.831.831,0,0,0,.089.549.592.592,0,0,0,.392.3,15.7,15.7,0,0,0,3.883.492h.12a15.914,15.914,0,0,0,8.468-2.536.518.518,0,0,0,.06-.028c.012-.009.02-.022.032-.031A18.479,18.479,0,0,0,43.62,33.1a.663.663,0,0,0,.038-.055c.007-.015.007-.031.013-.045a20.926,20.926,0,0,0,0-19.1Z" transform="translate(-9.518 0.001)" fill="#fff"/>
                <path id="Path_12-5" data-name="Path 12" d="M19.779,13h-3.2a1.43,1.43,0,0,0-1.282,1.542,1.43,1.43,0,0,0,1.282,1.542h3.2a1.43,1.43,0,0,0,1.282-1.542A1.43,1.43,0,0,0,19.779,13Z" transform="translate(-6.311 -3.817)" fill="#fff"/>
                <path id="Path_13-5" data-name="Path 13" d="M17.983,20H11.574a1.43,1.43,0,0,0-1.282,1.542,1.43,1.43,0,0,0,1.282,1.542h6.409a1.43,1.43,0,0,0,1.282-1.543A1.43,1.43,0,0,0,17.983,20Z" transform="translate(-4.518 -5.874)" fill="#fff"/>
                <path id="Path_14-4" data-name="Path 14" d="M16.185,27H6.574a1.569,1.569,0,0,0,0,3.085h9.611a1.569,1.569,0,0,0,0-3.085Z" transform="translate(-2.729 -7.93)" fill="#fff"/>
                <path id="Path_15-5" data-name="Path 15" d="M14.751,34H2.574a1.569,1.569,0,0,0,0,3.085H14.751a1.569,1.569,0,0,0,0-3.085Z" transform="translate(-1.293 -9.986)" fill="#fff"/>
                <path id="Path_16-5" data-name="Path 16" d="M16.906,41H8.574a1.569,1.569,0,0,0,0,3.085h8.331a1.569,1.569,0,0,0,0-3.085Z" transform="translate(-3.447 -12.042)" fill="#fff"/>
                <path id="Path_17-4" data-name="Path 17" d="M19.06,48H14.572a1.569,1.569,0,0,0,0,3.085H19.06a1.569,1.569,0,0,0,0-3.085Z" transform="translate(-5.593 -14.617)" fill="#fff"/>
              </g>
            </g>
          </g>
          <g id="Group_50" data-name="Group 50" transform="translate(51.825 55.736)">
            <g id="Component_5_2" data-name="Component 5 – 2" transform="translate(0 0)">
              <text id="Overview-15" data-name="Overview" transform="translate(0 47.856)" fill="#f10" stroke="rgba(0,0,0,0)" stroke-width="1" font-size="10" font-family="SegoeUI-Semibold, Segoe UI" font-weight="600"><tspan x="0" y="0">Overview</tspan></text>
              <g id="House_Icon-4" data-name="House Icon" transform="translate(8.964)">
                <path id="Path-7" data-name="Path" d="M0,0V10.3H7.047V2.81A1.811,1.811,0,0,1,8.809.937h1.762A1.811,1.811,0,0,1,12.333,2.81V10.3H19.38V0" transform="translate(3.113 26.553)" fill="none" stroke="#000" stroke-linecap="round" stroke-linejoin="round" stroke-miterlimit="10" stroke-width="1.5"/>
                <path id="Path-8" data-name="Path" d="M0,13.273,11.6.549a1.6,1.6,0,0,1,2.415,0l11.6,12.724" transform="translate(0 -0.001)" fill="none" stroke="#000" stroke-linecap="round" stroke-linejoin="round" stroke-miterlimit="10" stroke-width="1.5"/>
              </g>
            </g>
          </g>
          <path id="Path_30" data-name="Path 30" d="M109.271,5.907A101.1,101.1,0,0,1,89.577,3.941C81.844,2.448,74.324.834,66.328-.219a108.366,108.366,0,0,0-16.871-.974C35.128-.834,20.1.5,5.705,5.47c-2.35.814-3.6,1.951-5.908,2.923.088.97,2.395,2.673,2.558,3.3,1.488,1.7,2.017,3.63,3.7,5.088.231-.67-.034-2.837-.051-5.1A4.72,4.72,0,0,1,8.065,8l3.116-1.735,3.255-1.72-2.222,5.08a11.947,11.947,0,0,0-.483,7.128,17.267,17.267,0,0,0,3.734,6.115c.452-1.032,1.1-2.334,2.014-3.974A38.3,38.3,0,0,1,24.9,9.641l4.025-3.489L26.669,7.99c-.013.039,6.438-6.941,9.007-1.422.061.132-.428,4.963.3,7.288.889,2.17.691,2.121,2.013,3.265A13.312,13.312,0,0,0,40.551,19.1c.2.124-.359-4.638.717-7.525S50,6.438,50,6.438L48.1,11.03c-.01.021-.922,2.311.149,6.706a12.719,12.719,0,0,0,2.639,5.146,51.249,51.249,0,0,1,2.392-6.722,15.6,15.6,0,0,1,7.751-7.536,34.023,34.023,0,0,0-.694,8.851c.131,3.718,2.058,6.342,3.073,8.055.807-1.424,1.937-3.353,3.306-5.528a22.343,22.343,0,0,1,6.822-7.078l1.178-.689.752.867c.362.416.918,1.6.588,4.82-.177,1.7-.5,4.029-.753,5.827,1.16-.709,2.821-1.794,5.128-3.43a72.308,72.308,0,0,0,9.084-7.7,27.138,27.138,0,0,1-2.253,7.965c-.639,1.363-1.266,2.665-1.811,3.783a81.667,81.667,0,0,0,8.1-3.923,54.98,54.98,0,0,0,10.34-8.02L107.6,7.659l-1.677,5.633c-.029.1-.319,1.047-1.618,4.5a25.758,25.758,0,0,1-2.054,4.047,125.061,125.061,0,0,0,11.279-6.369c4.3-2.927,9.048-7.963,12.534-11.932C121.189,5.468,114.609,5.886,109.271,5.907Z" transform="translate(286.237 94.393) rotate(-47)" fill="#fff" stroke="#707070" stroke-width="1"/>
          <path id="Path_29" data-name="Path 29" d="M44.924,23.615q-.682-.063-1.43-.156a84.068,84.068,0,0,1-9.613-1.869s5.41-3.826,7.954-9.269c2.017,3.592,3.323,10.039,3.323,10.039A22.58,22.58,0,0,0,53.7,13.624c1.759,6.007,1.511,7.716,1.511,7.716s-4.39,2.026-4.407,2.06C49.869,23.866,49.434,24.03,44.924,23.615Zm-13.647-2.7a145.86,145.86,0,0,1-22.758-8.3S13.671,3.253,16.992.4c.032,6.353,4.517,14.265,4.517,14.265s6.525-2.568,7.254-7.126C32.045,13.691,31.278,20.913,31.278,20.913ZM7.087,11.977C5.612,11.268-1.144,1.963.222,1.332c-.18.654,3.1,5.579,3.1,5.579Z" transform="matrix(0.777, 0.629, -0.629, 0.777, 312.467, 72.451)" fill="#fff" stroke="#707070" stroke-width="1"/>
          <path id="Path_40" data-name="Path 40" d="M295.927,249.338c-.5-.118-.613.311-.826.711a5.59,5.59,0,0,0-.011,1.811c.051.371.242,1.688.715,1.678.347-.007.639-.658.764-.969.258-.637.722-1.642.352-2.316A1.775,1.775,0,0,0,295.927,249.338Z" transform="translate(5.001 -195.469)" fill="#fff"/>
          <path id="Path_39" data-name="Path 39" d="M291.668,247.423a9.3,9.3,0,0,0-1.294.013c-2.484,2.634-.386,7.42,1.911,9.434a7.689,7.689,0,0,1-1.327-2.773C290.618,252.5,290.314,248.725,291.668,247.423Z" transform="translate(5.976 -195.469)" fill="#5e787c"/>
          <path id="Path_38" data-name="Path 38" d="M303.82,251.957c-1.968-.875-3.919-1.893-6.022-2.914a16.143,16.143,0,0,0-4.734-1.533,8.372,8.372,0,0,0-.476,6.819,6.524,6.524,0,0,0,2.725,3.379,8.031,8.031,0,0,0,1.176.508,8.736,8.736,0,0,0,6.172-2.12C304.45,254.459,305.059,253.05,303.82,251.957Zm-7.764,2.2c-.945.931-1.813-.278-2.071-1.348-.234-.966-.489-3.678,1.008-4.153a1.4,1.4,0,0,1,1.475.726A3.962,3.962,0,0,1,296.055,254.156Z" transform="translate(5.498 -195.469)" fill="#162435"/>
          <path id="Path_34-3" data-name="Path 34" d="M179.292,327.889a53.089,53.089,0,0,0,4.436-6.966c2.742-5.54,2.363-11.112.343-16.763a36.724,36.724,0,0,1-.383,11.991A42.4,42.4,0,0,1,179.292,327.889Z" transform="translate(71.475 -237.063)" fill="#6c858d"/>
          <path id="Path_35-3" data-name="Path 35" d="M170.351,322.536c2.05-2.392,4.356-4.526,5.937-7.636,2.611-5.135,1.778-9.459.464-13.878a24.963,24.963,0,0,1-.506,9.055A48.818,48.818,0,0,1,170.351,322.536Z" transform="translate(87.427 -228.571)" fill="#6c858d"/>
          <path id="Path_36-3" data-name="Path 36" d="M194.964,304.944c-.311,7.642-2.689,15.439-5.476,22.505a73.6,73.6,0,0,0,4.4-9.419A26.359,26.359,0,0,0,194.964,304.944Z" transform="translate(54.199 -237.407)" fill="#6c858d"/>
        </g>
      </g>
    </g>
    <g id="Group_1" data-name="Group 1" transform="translate(2188.558 921.377)">
      <g id="Group_43" data-name="Group 43" transform="translate(48.377 19.031)">
        <g id="Subtraction_5" data-name="Subtraction 5" transform="translate(0 16)">
          <path id="Path_17-5" data-name="Path 17" d="M339.831,85.5c-.4,1.639-4.9,0-4.9,0H.061s9.656,1.263,9.656-8.339c0-3.6,7.825-3.718,7.825-8.518,0-3.607,14.867-19.906,14.867-24.136,0-5.057-29.027-33.361-29.027-38.576C-6.4-1.168.061.5.061.5h222.1c6.506,4.2,10.962,8.09,14.018,12.247,2.793,3.8,4.217,7.493,5.864,11.769A91.106,91.106,0,0,0,247.3,36.27a30.041,30.041,0,0,0,16.25,13.753,33.057,33.057,0,0,0,9.829,2.055l.417.005V52.06a32.214,32.214,0,0,0,9.563-2.041A29.381,29.381,0,0,0,299.1,36.456a91.688,91.688,0,0,0,5.259-11.815c1.648-4.3,3.072-8.01,5.868-11.831,3.057-4.179,7.515-8.092,14.024-12.31h11.523s3.65-.454,3.793,1.032-.774,1.1-2.321,4.913c-3.229,7.963-8.747,23.815-8.747,38.648,0,13.494,4.567,26.143,8.023,33.851C338.322,82.947,340.229,83.861,339.831,85.5Z" transform="translate(2.032 0)" fill="#fff" stroke="#707070" stroke-linecap="round" stroke-linejoin="bevel" stroke-width="1"/>
          <path id="Path_18-5" data-name="Path 18" d="M339.769,85V1H324.71C318.3,5.167,313.9,9.028,310.892,13.142c-2.755,3.766-4.167,7.447-5.8,11.71a92.144,92.144,0,0,1-5.288,11.88A29.811,29.811,0,0,1,283.839,50.5a33.054,33.054,0,0,1-9.272,2.042v.05l-.835-.01a33.434,33.434,0,0,1-9.945-2.076,30.463,30.463,0,0,1-16.475-13.955,91.458,91.458,0,0,1-5.287-11.82c-1.634-4.24-3.045-7.9-5.8-11.648-3.008-4.092-7.4-7.934-13.812-12.079H.827V85H339.769m.827,1H0V0H222.621c6.6,4.248,11.12,8.193,14.223,12.415,2.835,3.856,4.269,7.579,5.931,11.89A90.563,90.563,0,0,0,248,35.994a29.626,29.626,0,0,0,16.027,13.551,32.713,32.713,0,0,0,9.713,2.033v-.007c.7-.005,17.126-.276,25.371-15.39a91.338,91.338,0,0,0,5.23-11.751c1.662-4.334,3.1-8.076,5.932-11.951C313.379,8.235,317.9,4.269,324.5,0H340.6ZM273.385.087h0V0h51.087Z" transform="translate(1.68 0)" fill="none"/>
        </g>
        <g id="Group_37" data-name="Group 37" transform="translate(53.234 72.061)">
          <text id="Overview-16" data-name="Overview" transform="translate(0 11)" fill="#f10" font-size="10" font-family="SegoeUI-Semibold, Segoe UI" font-weight="600"><tspan x="0" y="0">Overview</tspan></text>
        </g>
        <g id="Path_40-2" data-name="Path 40" transform="translate(252.994)">
          <path id="Path_19-5" data-name="Path 19" d="M22.407,56.5a17.766,17.766,0,0,1-8.52-2.2,22.411,22.411,0,0,1-6.963-6,29.31,29.31,0,0,1-4.7-8.9,35.359,35.359,0,0,1,0-21.815,29.31,29.31,0,0,1,4.7-8.9,22.411,22.411,0,0,1,6.963-6,17.623,17.623,0,0,1,17.039,0,22.411,22.411,0,0,1,6.963,6,29.309,29.309,0,0,1,4.7,8.9,35.359,35.359,0,0,1,0,21.815,29.309,29.309,0,0,1-4.7,8.9,22.411,22.411,0,0,1-6.963,6A17.766,17.766,0,0,1,22.407,56.5Z" transform="translate(-0.087 0)" fill="#00d0e4"/>
          <path id="Path_20-5" data-name="Path 20" d="M22.321,1a17.414,17.414,0,0,0-8.351,2.153A21.988,21.988,0,0,0,7.138,9.035a28.79,28.79,0,0,0-4.616,8.743,34.761,34.761,0,0,0,0,21.443,28.79,28.79,0,0,0,4.616,8.743,21.989,21.989,0,0,0,6.832,5.882,17.274,17.274,0,0,0,16.7,0A21.989,21.989,0,0,0,37.5,47.965a28.791,28.791,0,0,0,4.616-8.743,34.762,34.762,0,0,0,0-21.443A28.791,28.791,0,0,0,37.5,9.035a21.988,21.988,0,0,0-6.832-5.882A17.414,17.414,0,0,0,22.321,1m0-1C34.648,0,44.641,12.76,44.641,28.5S34.648,57,22.321,57,0,44.24,0,28.5,9.993,0,22.321,0Z" transform="translate(0)" fill="#707070"/>
        </g>
        <g id="Group_38" data-name="Group 38" transform="translate(260.2 11.866)">
          <text id="Overview-17" data-name="Overview" transform="translate(0 71.195)" fill="#0094ff" font-size="9" font-family="SegoeUI-Semibold, Segoe UI" font-weight="600"><tspan x="0" y="0">timer</tspan></text>
          <g id="_6-5" data-name="6" transform="translate(5.435)">
            <path id="Path_18-6" data-name="Path 18" d="M122.661,33.644h-.5V28.8a6.182,6.182,0,0,0-.992-3.386l-5.208-7.987,5.208-8.051a6.259,6.259,0,0,0,.992-3.409V1.085h.5a.522.522,0,0,0,.5-.543.522.522,0,0,0-.5-.543H104.5a.522.522,0,0,0-.5.543.522.522,0,0,0,.5.543h.5V5.969A6.259,6.259,0,0,0,106,9.378l5.208,8.051L106,25.416a6.182,6.182,0,0,0-.992,3.386v4.842h-.5a.43.43,0,0,0-.433.252.644.644,0,0,0,0,.581.43.43,0,0,0,.433.252h18.157a.43.43,0,0,0,.433-.252.644.644,0,0,0,0-.581A.43.43,0,0,0,122.661,33.644ZM106.017,28.8a5.043,5.043,0,0,1,.812-2.763l5.407-8.3a.577.577,0,0,0,0-.621l-5.407-8.362a5.121,5.121,0,0,1-.813-2.789V1.085h15.128V5.969a5.121,5.121,0,0,1-.813,2.789l-5.407,8.362a.577.577,0,0,0,0,.621l5.407,8.3a5.044,5.044,0,0,1,.812,2.763v4.842H106.015Z" transform="translate(-104 0.002)" fill="#fff"/>
            <path id="Path_19-6" data-name="Path 19" d="M281.513,464H280.5a.379.379,0,0,0-.448.194.588.588,0,0,0,0,.576.379.379,0,0,0,.448.194h1.009a.379.379,0,0,0,.448-.194.587.587,0,0,0,0-.576A.379.379,0,0,0,281.513,464Z" transform="translate(-268.904 -432.16)" fill="#fff"/>
            <path id="Path_20-6" data-name="Path 20" d="M195.674,157.862a.509.509,0,0,0,.427-.225c.112-.161,2.175-3,3.542-4.881a.466.466,0,0,0,.033-.5.506.506,0,0,0-.447-.259h-7.11a.506.506,0,0,0-.447.259.466.466,0,0,0,.033.5c1.367,1.881,3.431,4.72,3.542,4.881a.509.509,0,0,0,.427.225Zm2.59-4.9c-1.443,1.985-2.2,3.023-2.59,3.567-.394-.544-1.147-1.582-2.59-3.567Z" transform="translate(-186.092 -141.417)" fill="#fff"/>
            <path id="Path_21-6" data-name="Path 21" d="M162.112,336.2a.51.51,0,0,0-.413-.2h-6.283a.51.51,0,0,0-.413.2l-2.372,3.232a3.192,3.192,0,0,0-.629,1.9v2.854a.49.49,0,0,0,.5.482h6.052a.379.379,0,0,0,.448-.194.587.587,0,0,0,0-.576.379.379,0,0,0-.448-.194h-5.55v-2.372a2.263,2.263,0,0,1,.446-1.348l2.221-3.027h5.761l2.221,3.027a2.263,2.263,0,0,1,.446,1.348v2.372h-.5a.379.379,0,0,0-.448.194.587.587,0,0,0,0,.576.379.379,0,0,0,.448.194h1.009a.49.49,0,0,0,.5-.482v-2.854a3.193,3.193,0,0,0-.629-1.9Z" transform="translate(-148.975 -311.871)" fill="#fff"/>
            <path id="Path_22-6" data-name="Path 22" d="M326.861,75.769a.519.519,0,0,0,.288.086.511.511,0,0,0,.413-.207l.552-.758a3.255,3.255,0,0,0,.632-1.926v-.482a.5.5,0,0,0-1.009,0v.482a2.323,2.323,0,0,1-.451,1.376l-.552.758a.487.487,0,0,0-.08.375.41.41,0,0,0,.206.3Z" transform="translate(-312.609 -67.661)" fill="#fff"/>
            <path id="Path_23-6" data-name="Path 23" d="M344.5,33.446a.49.49,0,0,0,.5-.482v-.482a.5.5,0,0,0-1.009,0v.482a.49.49,0,0,0,.5.482Z" transform="translate(-328.87 -30.07)" fill="#fff"/>
          </g>
        </g>
        <g id="Group_39" data-name="Group 39" transform="translate(126.981 33.674)">
          <text id="Overview-18" data-name="Overview" transform="translate(0 49.387)" fill="#f10" font-size="10" font-family="SegoeUI-Semibold, Segoe UI" font-weight="600"><tspan x="0" y="0">AllTasks</tspan></text>
          <g id="testing-checklist-file-or-to-do-list-black-outline-17464-5" data-name="testing-checklist-file-or-to-do-list-black-outline-17464" transform="translate(12.592)">
            <path id="Path_1-6" data-name="Path 1" d="M50.993,6.076,46.317.419A1.084,1.084,0,0,0,45.481,0H33a1.328,1.328,0,0,0-1.184,1.432v28.7A1.328,1.328,0,0,0,33,31.564H50.155a1.328,1.328,0,0,0,1.184-1.432V7.088A1.585,1.585,0,0,0,50.993,6.076Zm-.643.214H46.665a.588.588,0,0,1-.525-.634V1.2Zm.413,23.838a.678.678,0,0,1-.6.73H33a.678.678,0,0,1-.6-.73V1.432A.678.678,0,0,1,33,.7H45.482a.505.505,0,0,1,.083.009V5.655a1.238,1.238,0,0,0,1.1,1.336h4.087a.843.843,0,0,1,.008.1Z" transform="translate(-31.814 0)"/>
            <path id="Path_2-6" data-name="Path 2" d="M61.259,70.309c-1.826,0-3.307,1.791-3.307,4s1.48,4,3.307,4,3.307-1.791,3.307-4S63.085,70.309,61.259,70.309Zm0,7.291a3.354,3.354,0,0,1,0-6.588,3.354,3.354,0,0,1,0,6.588Z" transform="translate(-55.258 -61.535)"/>
            <path id="Path_3-6" data-name="Path 3" d="M77.425,89.621,75.78,91.8l-.459-.757a.259.259,0,0,0-.4-.076.4.4,0,0,0-.062.49l.669,1.1a.28.28,0,0,0,.218.143h.016a.27.27,0,0,0,.214-.114l1.884-2.5a.4.4,0,0,0,.076-.351.319.319,0,0,0-.222-.244.265.265,0,0,0-.282.123Z" transform="translate(-70.363 -78.337)"/>
            <path id="Path_4-6" data-name="Path 4" d="M145.036,86.714h-5.125a.279.279,0,0,0-.269.167.415.415,0,0,0,0,.366.279.279,0,0,0,.269.167h5.125a.279.279,0,0,0,.269-.167.415.415,0,0,0,0-.366A.279.279,0,0,0,145.036,86.714Z" transform="translate(-128.496 -75.893)"/>
            <path id="Path_5-5" data-name="Path 5" d="M145.036,112.327h-5.125a.279.279,0,0,0-.269.167.415.415,0,0,0,0,.366.279.279,0,0,0,.269.167h5.125a.279.279,0,0,0,.269-.167.415.415,0,0,0,0-.366A.279.279,0,0,0,145.036,112.327Z" transform="translate(-128.496 -98.31)"/>
            <path id="Path_6-6" data-name="Path 6" d="M61.259,152.268c-1.826,0-3.307,1.791-3.307,4s1.48,4,3.307,4,3.307-1.791,3.307-4S63.085,152.268,61.259,152.268Zm0,7.291a3.355,3.355,0,0,1,0-6.59,3.355,3.355,0,0,1,0,6.59Z" transform="translate(-55.258 -133.267)"/>
            <path id="Path_7-6" data-name="Path 7" d="M145.036,168.673h-5.125a.279.279,0,0,0-.269.167.415.415,0,0,0,0,.366.279.279,0,0,0,.269.167h5.125a.279.279,0,0,0,.269-.167.415.415,0,0,0,0-.366A.279.279,0,0,0,145.036,168.673Z" transform="translate(-128.496 -147.624)"/>
            <path id="Path_8-6" data-name="Path 8" d="M145.045,194.286H139.92a.362.362,0,0,0,0,.7h5.125a.279.279,0,0,0,.27-.167.415.415,0,0,0,0-.366.279.279,0,0,0-.27-.167Z" transform="translate(-128.506 -170.041)"/>
            <path id="Path_9-6" data-name="Path 9" d="M80.038,169.7a.258.258,0,0,0-.408.053l-.762,1.141-.762-1.141a.257.257,0,0,0-.407-.053.4.4,0,0,0-.043.493l.841,1.259-.841,1.259a.4.4,0,0,0,.043.493.257.257,0,0,0,.407-.053l.762-1.141.762,1.141a.257.257,0,0,0,.407.052.4.4,0,0,0,.043-.492l-.841-1.259.838-1.252a.4.4,0,0,0,.067-.26A.375.375,0,0,0,80.038,169.7Z" transform="translate(-72.867 -148.457)"/>
          </g>
        </g>
        <g id="Group_40" data-name="Group 40" transform="translate(181.224 33.867)">
          <text id="Overview-19" data-name="Overview" transform="translate(0 49.194)" fill="#f10" font-size="10" font-family="SegoeUI-Semibold, Segoe UI" font-weight="600"><tspan x="0" y="0">Stop Watch</tspan></text>
          <g id="_3-5" data-name="3" transform="translate(13.492)">
            <path id="Path_10-6" data-name="Path 10" d="M31.659,31.178,36.549,23a.734.734,0,0,0-.055-.816.457.457,0,0,0-.674-.066L29.06,28.036a2.5,2.5,0,0,0-.725,2.289,2.091,2.091,0,0,0,1.434,1.732,1.716,1.716,0,0,0,1.892-.879Z" transform="translate(-14.177 -9.591)"/>
            <path id="Path_11-6" data-name="Path 11" d="M40.084,11.387c0-.012,0-.025-.011-.037s-.017-.018-.023-.029a15.835,15.835,0,0,0-1.862-2.8l1.121-1.25.738.823,2.216-2.469-2.216-2.47-2.216,2.47.739.823L37.451,7.7a14.4,14.4,0,0,0-2.511-2.076c-.01-.008-.016-.019-.026-.026s-.022-.006-.033-.013A13.039,13.039,0,0,0,29.516,3.6V2.91H30.3A1.383,1.383,0,0,0,31.6,1.455,1.384,1.384,0,0,0,30.3,0H25.6a1.383,1.383,0,0,0-1.305,1.455A1.383,1.383,0,0,0,25.6,2.91h.783v.673a13.014,13.014,0,0,0-1.683.311.483.483,0,0,0-.32.248.684.684,0,0,0-.071.452.522.522,0,0,0,.626.437,12.029,12.029,0,0,1,1.494-.282l.518-.049c.175-.015.331-.025.483-.033h0V5.821a.525.525,0,1,0,1.044,0V4.674A11.94,11.94,0,0,1,33.927,6.33l-.515.994a.66.66,0,0,0-.053.452.543.543,0,0,0,.244.348.478.478,0,0,0,.26.078.515.515,0,0,0,.453-.291l.513-.992a14,14,0,0,1,4.058,4.524l-.89.572a.544.544,0,0,0-.243.349.66.66,0,0,0,.053.451.514.514,0,0,0,.453.291.478.478,0,0,0,.26-.078l.891-.574A15.753,15.753,0,0,1,40.9,18.635H39.874a.464.464,0,0,0-.451.276.69.69,0,0,0,0,.612.464.464,0,0,0,.451.276h1.032a15.754,15.754,0,0,1-1.488,6.181l-.892-.58a.492.492,0,0,0-.713.213.66.66,0,0,0-.053.452.543.543,0,0,0,.244.348l.89.572A14,14,0,0,1,34.834,31.5l-.513-.991a.492.492,0,0,0-.713-.213.542.542,0,0,0-.244.348.658.658,0,0,0,.053.452l.515.994a11.94,11.94,0,0,1-5.456,1.656V32.6a.525.525,0,1,0-1.044,0v1.15a11.9,11.9,0,0,1-2.494-.359.521.521,0,0,0-.626.437.684.684,0,0,0,.071.452.483.483,0,0,0,.32.248,12.726,12.726,0,0,0,3.164.4h.1a12.919,12.919,0,0,0,6.9-2.08.421.421,0,0,0,.049-.023c.011-.007.017-.018.026-.026a15.111,15.111,0,0,0,5.1-5.682.541.541,0,0,0,.031-.045.312.312,0,0,0,.011-.037,17.226,17.226,0,0,0,0-15.641Z" transform="translate(-12.256 0.001)"/>
            <path id="Path_12-6" data-name="Path 12" d="M18.949,13H16.337a1.17,1.17,0,0,0-1.045,1.264,1.17,1.17,0,0,0,1.045,1.264h2.611a1.17,1.17,0,0,0,1.045-1.264A1.17,1.17,0,0,0,18.948,13Z" transform="translate(-7.975 -5.478)"/>
            <path id="Path_13-6" data-name="Path 13" d="M16.559,20H11.337a1.286,1.286,0,0,0,0,2.527h5.222a1.286,1.286,0,0,0,0-2.527Z" transform="translate(-5.589 -8.429)"/>
            <path id="Path_14-5" data-name="Path 14" d="M14.17,27H6.337a1.286,1.286,0,0,0,0,2.527H14.17a1.286,1.286,0,0,0,0-2.527Z" transform="translate(-3.205 -11.379)"/>
            <path id="Path_15-6" data-name="Path 15" d="M12.259,34H2.339a1.286,1.286,0,0,0,0,2.527h9.92a1.286,1.286,0,0,0,0-2.527Z" transform="translate(-1.295 -14.329)"/>
            <path id="Path_16-6" data-name="Path 16" d="M15.126,41H8.337a1.286,1.286,0,0,0,0,2.527h6.789a1.286,1.286,0,0,0,0-2.527Z" transform="translate(-4.161 -17.28)"/>
            <path id="Path_17-6" data-name="Path 17" d="M17.993,48H14.337a1.286,1.286,0,0,0,0,2.527h3.656a1.286,1.286,0,0,0,0-2.527Z" transform="translate(-7.02 -20.655)"/>
          </g>
        </g>
      </g>
      <g id="Group_51" data-name="Group 51" transform="translate(110.529 54.236)">
        <g id="Component_5_3" data-name="Component 5 – 3" transform="translate(0)">
          <g id="House_Icon-5" data-name="House Icon">
            <path id="Path-9" data-name="Path" d="M0,0V10.3H7.01V2.81A1.807,1.807,0,0,1,8.763.937h1.753A1.807,1.807,0,0,1,12.268,2.81V10.3h7.01V0" transform="translate(3.097 26.553)" fill="rgba(0,0,0,0)" stroke="#000" stroke-linecap="round" stroke-linejoin="round" stroke-miterlimit="10" stroke-width="1.5"/>
            <path id="Path-10" data-name="Path" d="M0,13.273,11.535.549a1.59,1.59,0,0,1,2.4,0L25.472,13.273" transform="translate(0 -0.001)" fill="rgba(0,0,0,0)" stroke="#000" stroke-linecap="round" stroke-linejoin="round" stroke-miterlimit="10" stroke-width="1.5"/>
          </g>
        </g>
      </g>
      <path id="Path_27" data-name="Path 27" d="M109.214,19.688A100.734,100.734,0,0,0,89.573,21.6c-7.71,1.469-15.208,3.059-23.182,4.088a108.042,108.042,0,0,1-16.828.927c-14.294-.4-29.285-1.76-43.662-6.759C3.555,19.035,2.308,17.9,0,16.923c.086-.967,2.382-2.659,2.543-3.28,1.48-1.695,2-3.615,3.68-5.064.232.668-.026,2.829-.038,5.088a4.738,4.738,0,0,0,2.064,3.669l3.113,1.739L14.613,20.8l-2.23-5.071a11.928,11.928,0,0,1-.5-7.109,17.1,17.1,0,0,1,3.709-6.088c.453,1.03,1.1,2.331,2.02,3.968a38.486,38.486,0,0,0,7.426,9.247l4.024,3.49L26.808,17.4c-.013-.039,6.44,6.938,8.989,1.441.061-.132-.44-4.951.276-7.267.882-2.162.683-2.114,2-3.25a13.181,13.181,0,0,1,2.555-1.965c.2-.124-.346,4.624.735,7.506S50.084,19,50.084,19l-1.9-4.583c-.01-.021-.926-2.307.131-6.687a12.6,12.6,0,0,1,2.619-5.125,51.349,51.349,0,0,0,2.4,6.709,15.675,15.675,0,0,0,7.752,7.535,33.967,33.967,0,0,1-.715-8.828C60.49,4.317,62.405,1.706,63.414,0c.809,1.422,1.941,3.348,3.312,5.521A22.457,22.457,0,0,0,73.55,12.6l1.176.691.748-.862c.36-.414.912-1.589.574-4.805-.181-1.694-.505-4.019-.766-5.812,1.159.711,2.819,1.8,5.124,3.434a72.683,72.683,0,0,1,9.082,7.7A27.157,27.157,0,0,0,87.22,5c-.641-1.36-1.27-2.66-1.817-3.777A81.982,81.982,0,0,1,93.5,5.153a55.259,55.259,0,0,1,10.335,8.025l3.716,4.759-1.687-5.621c-.029-.1-.321-1.044-1.626-4.489a25.845,25.845,0,0,0-2.06-4.041,125.613,125.613,0,0,1,11.268,6.381c4.3,2.93,9.047,7.964,12.534,11.932C121.1,20.156,114.539,19.723,109.214,19.688Z" transform="translate(85.916 110.307) rotate(-133)" fill="#fff" stroke="#707070" stroke-width="1"/>
      <path id="Path_28" data-name="Path 28" d="M44.8.247q-.68.064-1.426.159A83.966,83.966,0,0,0,33.784,2.3s5.383,3.8,7.905,9.229C43.71,7.935,45.028,1.5,45.028,1.5a22.351,22.351,0,0,1,8.5,8.7c1.769-6,1.526-7.7,1.526-7.7S50.678.479,50.662.445C49.728-.016,49.294-.179,44.8.247ZM31.187,2.978A146.015,146.015,0,0,0,8.481,11.32s5.111,9.326,8.414,12.161c.048-6.34,4.539-14.247,4.539-14.247s6.5,2.546,7.213,7.093C31.934,10.183,31.187,2.978,31.187,2.978ZM7.051,11.958C5.578,12.669-1.18,21.972.18,22.6c-.178-.652,3.1-5.575,3.1-5.575Z" transform="translate(93.192 89.574) rotate(141)" fill="#fff" stroke="#707070" stroke-width="1"/>
      <path id="Path_43" data-name="Path 43" d="M296.147,249.338c.5-.118.61.311.822.711a5.62,5.62,0,0,1,.011,1.811c-.05.371-.241,1.688-.711,1.678-.346-.007-.636-.658-.76-.969-.257-.637-.718-1.642-.351-2.316A1.769,1.769,0,0,1,296.147,249.338Z" transform="translate(-207.127 -200.969)" fill="#fff"/>
      <path id="Path_42" data-name="Path 42" d="M289.867,247.423a9.207,9.207,0,0,1,1.287.013c2.471,2.634.384,7.42-1.9,9.434a7.707,7.707,0,0,0,1.32-2.773C290.911,252.5,291.214,248.725,289.867,247.423Z" transform="translate(-197.579 -200.969)" fill="#5e787c"/>
      <path id="Path_41" data-name="Path 41" d="M292.731,251.957c1.958-.875,3.9-1.893,5.99-2.914a16,16,0,0,1,4.709-1.533,8.411,8.411,0,0,1,.474,6.819,6.518,6.518,0,0,1-2.711,3.379,7.967,7.967,0,0,1-1.17.508,8.663,8.663,0,0,1-6.14-2.12C292.1,254.459,291.5,253.05,292.731,251.957Zm7.724,2.2c.94.931,1.8-.278,2.06-1.348.232-.966.486-3.678-1-4.153a1.388,1.388,0,0,0-1.467.726A3.978,3.978,0,0,0,300.455,254.156Z" transform="translate(-212.056 -200.969)" fill="#162435"/>
      <path id="Path_34-4" data-name="Path 34" d="M185.652,304.16a53.127,53.127,0,0,0-4.413,6.966c-2.727,5.54-2.35,11.112-.341,16.763a36.914,36.914,0,0,1,.381-11.991A42.538,42.538,0,0,1,185.652,304.16Z" transform="translate(-26.581 -243.762)" fill="#6c858d"/>
      <path id="Path_35-4" data-name="Path 35" d="M177.955,301.022c-2.039,2.392-4.334,4.526-5.906,7.636-2.6,5.135-1.769,9.459-.461,13.878a25.09,25.09,0,0,1,.5-9.055A48.931,48.931,0,0,1,177.955,301.022Z" transform="translate(-25.858 -243.762)" fill="#6c858d"/>
      <path id="Path_36-4" data-name="Path 36" d="M189.84,327.449c.309-7.642,2.675-15.439,5.447-22.505a73.783,73.783,0,0,0-4.372,9.419A26.491,26.491,0,0,0,189.84,327.449Z" transform="translate(-29.175 -243.762)" fill="#6c858d"/>
    </g>
  </g>
</svg>
