<svg xmlns="http://www.w3.org/2000/svg" width="412" height="580" viewBox="0 0 412 580">
  <g id="Group_9" data-name="Group 9" transform="translate(-1658 -937)">
    <g id="Group_87" data-name="Group 87" transform="translate(5846 -5705)">
      <g id="Subtraction_12" data-name="Subtraction 12" transform="translate(-4188 6658)">
        <path id="Path_44" data-name="Path 44" d="M411.5,85.5H.5V.5H30.168a85.89,85.89,0,0,1,10.4,6.4,41.455,41.455,0,0,1,6.556,5.851,32.844,32.844,0,0,1,4.066,5.706c1.106,1.94,2.04,3.942,3.028,6.062A84,84,0,0,0,60.576,36.27a30.268,30.268,0,0,0,4.333,5.164,33.236,33.236,0,0,0,4.974,3.894,41.368,41.368,0,0,0,10.35,4.7,50.812,50.812,0,0,0,8.4,1.776,34.911,34.911,0,0,0,3.494.279h.522v-.019c.637-.023,1.788-.089,3.309-.277a47.607,47.607,0,0,0,8.261-1.772,39.574,39.574,0,0,0,10-4.641,32.622,32.622,0,0,0,4.805-3.836,30.469,30.469,0,0,0,4.21-5.077,84.4,84.4,0,0,0,6.353-11.8h0l.009-.019c.989-2.131,1.923-4.144,3.03-6.094A32.982,32.982,0,0,1,136.7,12.81a41.519,41.519,0,0,1,6.56-5.881A85.849,85.849,0,0,1,153.659.5H411.5Z" fill="#fff"/>
        <path id="Path_45" data-name="Path 45" d="M411,85V1H153.784a85.083,85.083,0,0,0-10.233,6.331,41.061,41.061,0,0,0-6.482,5.81,32.545,32.545,0,0,0-4.008,5.652c-1.1,1.933-2.026,3.936-3.01,6.058l-.017.036a84.847,84.847,0,0,1-6.381,11.845,31.03,31.03,0,0,1-4.28,5.16,33.156,33.156,0,0,1-4.878,3.895,40.072,40.072,0,0,1-10.128,4.7,48.122,48.122,0,0,1-8.348,1.791c-1.2.148-2.169.222-2.849.258l0,.042H92.128a34.558,34.558,0,0,1-3.555-.283A51.311,51.311,0,0,1,80.088,50.5a41.868,41.868,0,0,1-10.475-4.753A33.746,33.746,0,0,1,64.564,41.8a30.762,30.762,0,0,1-4.4-5.25,84.406,84.406,0,0,1-6.4-11.82c-.984-2.11-1.913-4.1-3.009-6.026a32.354,32.354,0,0,0-4.005-5.621A40.962,40.962,0,0,0,40.272,7.3,85.07,85.07,0,0,0,30.043,1H1V85H411m1,1H0V0H30.293a86.708,86.708,0,0,1,10.57,6.492A41.948,41.948,0,0,1,47.5,12.414,33.332,33.332,0,0,1,51.624,18.2c1.116,1.957,2.054,3.969,3.047,6.1a83.579,83.579,0,0,0,6.322,11.69,29.761,29.761,0,0,0,4.261,5.079,32.742,32.742,0,0,0,4.9,3.835,40.87,40.87,0,0,0,10.226,4.638A50.29,50.29,0,0,0,88.695,51.3a34.4,34.4,0,0,0,3.433.276v-.007a34.2,34.2,0,0,0,3.769-.285,47.106,47.106,0,0,0,8.174-1.753,39.06,39.06,0,0,0,9.875-4.582,32.082,32.082,0,0,0,4.73-3.777,29.912,29.912,0,0,0,4.142-4.993,84.147,84.147,0,0,0,6.325-11.749h0c.993-2.141,1.931-4.163,3.048-6.131a33.5,33.5,0,0,1,4.128-5.821,42.072,42.072,0,0,1,6.638-5.953A86.677,86.677,0,0,1,153.534,0H412ZM91.7.087V0h61.813Z" fill="#707070"/>
      </g>
      <g id="Path_67" data-name="Path 67" transform="translate(-4124 6642)">
        <path id="Path_46" data-name="Path 46" d="M27,56.5a25.12,25.12,0,0,1-10.306-2.2,26.383,26.383,0,0,1-8.423-6,28.044,28.044,0,0,1-5.685-8.9,29.561,29.561,0,0,1,0-21.815,28.044,28.044,0,0,1,5.685-8.9,26.382,26.382,0,0,1,8.423-6,25.278,25.278,0,0,1,20.612,0,26.382,26.382,0,0,1,8.423,6,28.043,28.043,0,0,1,5.685,8.9,29.561,29.561,0,0,1,0,21.815,28.043,28.043,0,0,1-5.685,8.9,26.383,26.383,0,0,1-8.423,6A25.12,25.12,0,0,1,27,56.5Z" fill="#0094ff"/>
        <path id="Path_47" data-name="Path 47" d="M27,1A24.622,24.622,0,0,0,16.9,3.153,25.884,25.884,0,0,0,8.634,9.035,27.546,27.546,0,0,0,3.05,17.778a29.061,29.061,0,0,0,0,21.443,27.546,27.546,0,0,0,5.584,8.743A25.885,25.885,0,0,0,16.9,53.847a24.778,24.778,0,0,0,20.2,0,25.885,25.885,0,0,0,8.264-5.882,27.547,27.547,0,0,0,5.584-8.743,29.062,29.062,0,0,0,0-21.443,27.547,27.547,0,0,0-5.584-8.743A25.884,25.884,0,0,0,37.1,3.153,24.622,24.622,0,0,0,27,1m0-1C41.912,0,54,12.76,54,28.5S41.912,57,27,57,0,44.24,0,28.5,12.088,0,27,0Z"/>
      </g>
      <g id="Group_85" data-name="Group 85" transform="translate(-4125.914 6654.299)">
        <text id="Overview" transform="translate(0.276 72.762)" fill="#0094ff" font-size="13" font-family="SegoeUI-Semibold, Segoe UI" font-weight="600"><tspan x="0" y="0">Overview</tspan></text>
        <g id="House_Icon" data-name="House Icon" transform="translate(12.063 -2)">
          <path id="Path" d="M0,0V10.3H10.3V2.81c0-1.035,1.153-1.873,2.574-1.873h2.574c1.422,0,2.574.839,2.574,1.873V10.3h10.3V0" transform="translate(3.746 21.554)" fill="none" stroke="#fff" stroke-linecap="round" stroke-linejoin="round" stroke-miterlimit="10" stroke-width="1.5"/>
          <path id="Path-2" data-name="Path" d="M0,13.273,16.217.549a2.872,2.872,0,0,1,3.377,0L35.812,13.273" fill="none" stroke="#fff" stroke-linecap="round" stroke-linejoin="round" stroke-miterlimit="10" stroke-width="1.5"/>
        </g>
      </g>
      <g id="Group_79" data-name="Group 79" transform="translate(-3874.995 6675.868)">
        <text id="Overview-2" data-name="Overview" transform="translate(-0.288 51.193)" fill="#0094ff" font-size="13" font-family="SegoeUI-Semibold, Segoe UI" font-weight="600"><tspan x="0" y="0">timer</tspan></text>
        <g id="_6" data-name="6" transform="translate(6.286)">
          <path id="Path_18" data-name="Path 18" d="M126.573,33.644h-.61V28.8a5.436,5.436,0,0,0-1.2-3.386l-6.3-7.987,6.3-8.051a5.5,5.5,0,0,0,1.2-3.409V1.085h.61a.579.579,0,0,0,.61-.543.579.579,0,0,0-.61-.543H104.61a.579.579,0,0,0-.61.543.579.579,0,0,0,.61.543h.61V5.969a5.5,5.5,0,0,0,1.2,3.409l6.3,8.051-6.3,7.987a5.436,5.436,0,0,0-1.2,3.386v4.842h-.61a.546.546,0,1,0,0,1.085h21.963a.546.546,0,1,0,0-1.085ZM106.44,28.8a4.436,4.436,0,0,1,.982-2.763l6.54-8.3a.494.494,0,0,0,0-.621l-6.54-8.362a4.5,4.5,0,0,1-.983-2.789V1.085h18.3V5.969a4.5,4.5,0,0,1-.983,2.789l-6.54,8.362a.494.494,0,0,0,0,.621l6.54,8.3a4.436,4.436,0,0,1,.982,2.763v4.842h-18.3Z" transform="translate(-104)" fill="#929da5"/>
          <path id="Path_19" data-name="Path 19" d="M281.834,464h-1.22a.5.5,0,1,0,0,.964h1.22a.5.5,0,1,0,0-.964Z" transform="translate(-266.582 -432.162)" fill="#929da5"/>
          <path id="Path_20" data-name="Path 20" d="M196.525,157.862a.661.661,0,0,0,.516-.225c.135-.161,2.631-3,4.285-4.881a.4.4,0,0,0,.04-.5.646.646,0,0,0-.541-.259h-8.6a.646.646,0,0,0-.541.259.4.4,0,0,0,.04.5c1.654,1.881,4.15,4.72,4.285,4.881a.661.661,0,0,0,.516.225Zm3.133-4.9c-1.746,1.985-2.657,3.023-3.133,3.567-.476-.544-1.387-1.582-3.133-3.567Z" transform="translate(-184.934 -141.419)" fill="#929da5"/>
          <path id="Path_21" data-name="Path 21" d="M164.232,336.2a.67.67,0,0,0-.5-.2h-7.6a.67.67,0,0,0-.5.2l-2.869,3.232a2.847,2.847,0,0,0-.761,1.9v2.854a.558.558,0,0,0,.61.482h7.321a.5.5,0,1,0,0-.964H153.22v-2.372a2.019,2.019,0,0,1,.54-1.348l2.687-3.027h6.969l2.687,3.027a2.019,2.019,0,0,1,.54,1.348v2.372h-.61a.5.5,0,1,0,0,.964h1.22a.558.558,0,0,0,.61-.482v-2.854a2.848,2.848,0,0,0-.761-1.9Z" transform="translate(-148.34 -311.873)" fill="#929da5"/>
          <path id="Path_22" data-name="Path 22" d="M326.906,75.769a.725.725,0,0,0,.348.086.67.67,0,0,0,.5-.207l.668-.758a2.9,2.9,0,0,0,.765-1.926v-.482a.627.627,0,0,0-1.22,0v.482a2.07,2.07,0,0,1-.546,1.376l-.668.758a.422.422,0,0,0,.153.671Z" transform="translate(-309.666 -67.663)" fill="#929da5"/>
          <path id="Path_23" data-name="Path 23" d="M344.61,33.446a.558.558,0,0,0,.61-.482v-.482a.627.627,0,0,0-1.22,0v.482a.558.558,0,0,0,.61.482Z" transform="translate(-325.698 -30.072)" fill="#929da5"/>
        </g>
      </g>
      <g id="Group_83" data-name="Group 83" transform="translate(-4036.075 6675.674)">
        <text id="Overview-3" data-name="Overview" transform="translate(-0.355 51.387)" fill="#0094ff" font-size="13" font-family="SegoeUI-Semibold, Segoe UI" font-weight="600"><tspan x="0" y="0">AllTasks</tspan></text>
        <g id="testing-checklist-file-or-to-do-list-black-outline-17464" transform="translate(14.878)">
          <path id="Path_1" data-name="Path 1" d="M55.014,6.076,49.358.419A1.423,1.423,0,0,0,48.346,0h-15.1a1.434,1.434,0,0,0-1.432,1.432v28.7a1.434,1.434,0,0,0,1.432,1.432H54a1.434,1.434,0,0,0,1.432-1.432V7.088A1.421,1.421,0,0,0,55.014,6.076Zm-.778.214H49.778a.635.635,0,0,1-.635-.634V1.2Zm.5,23.838a.732.732,0,0,1-.73.73H33.247a.732.732,0,0,1-.73-.73V1.432a.732.732,0,0,1,.73-.73h15.1a.735.735,0,0,1,.1.009V5.655a1.337,1.337,0,0,0,1.336,1.336h4.944a.7.7,0,0,1,.01.1Z" transform="translate(-31.815)" fill="#929da5"/>
          <path id="Path_2" data-name="Path 2" d="M61.952,70.309a4,4,0,1,0,4,4A4,4,0,0,0,61.952,70.309Zm0,7.291a3.294,3.294,0,1,1,3.294-3.294A3.294,3.294,0,0,1,61.952,77.6Z" transform="translate(-54.694 -61.535)" fill="#929da5"/>
          <path id="Path_3" data-name="Path 3" d="M77.976,89.621,75.986,91.8l-.555-.757a.35.35,0,0,0-.565.414l.809,1.1a.35.35,0,0,0,.264.143h.019a.351.351,0,0,0,.259-.114l2.279-2.5a.351.351,0,1,0-.518-.472Z" transform="translate(-69.434 -78.337)" fill="#929da5"/>
          <path id="Path_4" data-name="Path 4" d="M146.176,86.714h-6.2a.351.351,0,1,0,0,.7h6.2a.351.351,0,1,0,0-.7Z" transform="translate(-126.17 -75.893)" fill="#929da5"/>
          <path id="Path_5" data-name="Path 5" d="M146.176,112.327h-6.2a.351.351,0,1,0,0,.7h6.2a.351.351,0,1,0,0-.7Z" transform="translate(-126.17 -98.31)" fill="#929da5"/>
          <path id="Path_6" data-name="Path 6" d="M61.952,152.268a4,4,0,1,0,4,4A4,4,0,0,0,61.952,152.268Zm0,7.291a3.295,3.295,0,1,1,3.294-3.295,3.3,3.3,0,0,1-3.294,3.295Z" transform="translate(-54.694 -133.267)" fill="#929da5"/>
          <path id="Path_7" data-name="Path 7" d="M146.176,168.673h-6.2a.351.351,0,1,0,0,.7h6.2a.351.351,0,1,0,0-.7Z" transform="translate(-126.17 -147.624)" fill="#929da5"/>
          <path id="Path_8" data-name="Path 8" d="M146.176,194.286h-6.2a.351.351,0,0,0,0,.7h6.2a.351.351,0,1,0,0-.7Z" transform="translate(-126.17 -170.041)" fill="#929da5"/>
          <path id="Path_9" data-name="Path 9" d="M80.551,169.7a.351.351,0,0,0-.493.053l-.922,1.141-.922-1.141a.35.35,0,1,0-.545.44l1.017,1.259-1.017,1.259a.35.35,0,1,0,.545.44l.922-1.141.922,1.141a.35.35,0,0,0,.545-.44l-1.017-1.259L80.6,170.2a.35.35,0,0,0-.049-.5Z" transform="translate(-71.878 -148.457)" fill="#929da5"/>
        </g>
      </g>
      <g id="Group_80" data-name="Group 80" transform="translate(-3954.497 6675.868)">
        <text id="Overview-4" data-name="Overview" transform="translate(2.251 51.193)" fill="#0094ff" font-size="13" font-family="SegoeUI-Semibold, Segoe UI" font-weight="600"><tspan x="0" y="0">timer</tspan></text>
        <g id="_3" data-name="3">
          <path id="Path_10" data-name="Path 10" d="M32.365,31.178,38.28,23a.632.632,0,0,0-.882-.882L29.22,28.036a2.251,2.251,0,1,0,3.146,3.143Z" transform="translate(-11.216 -9.592)" fill="#a7aeb4"/>
          <path id="Path_11" data-name="Path 11" d="M43.4,11.387c-.006-.012-.006-.025-.013-.037s-.02-.018-.028-.029a15.983,15.983,0,0,0-2.252-2.8l1.356-1.25.893.823,2.68-2.469-2.68-2.47-2.68,2.47.894.823L40.209,7.7a17.136,17.136,0,0,0-3.038-2.076.4.4,0,0,0-.032-.026c-.013-.007-.027-.006-.04-.013A17.944,17.944,0,0,0,30.611,3.6V2.91h.947a1.522,1.522,0,0,0,1.579-1.455A1.523,1.523,0,0,0,31.557,0H25.872a1.522,1.522,0,0,0-1.579,1.455A1.522,1.522,0,0,0,25.872,2.91h.947v.673a18.738,18.738,0,0,0-2.036.311.582.582,0,0,0-.474.7.635.635,0,0,0,.757.437,17.31,17.31,0,0,1,1.807-.282L27.5,4.7c.212-.015.4-.025.584-.033h0V5.821a.634.634,0,0,0,1.263,0V4.674a16.71,16.71,0,0,1,6.6,1.656l-.623.994a.558.558,0,0,0,.231.8.668.668,0,0,0,.315.078.644.644,0,0,0,.548-.291l.621-.992a15.351,15.351,0,0,1,4.909,4.524l-1.076.572a.558.558,0,0,0-.229.8.643.643,0,0,0,.548.291.668.668,0,0,0,.315-.078l1.078-.574a13.578,13.578,0,0,1,1.8,6.181H43.14a.584.584,0,1,0,0,1.164h1.248a13.578,13.578,0,0,1-1.8,6.181l-1.079-.58a.66.66,0,0,0-.863.213.558.558,0,0,0,.231.8l1.076.572A15.351,15.351,0,0,1,37.044,31.5l-.621-.991a.66.66,0,0,0-.863-.213.557.557,0,0,0-.231.8l.623.994a16.71,16.71,0,0,1-6.6,1.656V32.6a.634.634,0,0,0-1.263,0v1.15a17.229,17.229,0,0,1-3.017-.359.634.634,0,0,0-.757.437.582.582,0,0,0,.474.7,18.46,18.46,0,0,0,3.827.4h.118a18.063,18.063,0,0,0,8.35-2.08.563.563,0,0,0,.059-.023.4.4,0,0,0,.032-.026,16.573,16.573,0,0,0,6.173-5.682.554.554,0,0,0,.038-.045c.008-.012.007-.025.013-.037a14.6,14.6,0,0,0,0-15.641Z" transform="translate(-9.731)" fill="#a7aeb4"/>
          <path id="Path_12" data-name="Path 12" d="M19.715,13H16.556a1.264,1.264,0,0,0,0,2.527h3.158a1.264,1.264,0,0,0,0-2.527Z" transform="translate(-6.44 -5.479)" fill="#a7aeb4"/>
          <path id="Path_13" data-name="Path 13" d="M17.873,20H11.556a1.263,1.263,0,1,0,0,2.527h6.317a1.264,1.264,0,0,0,0-2.527Z" transform="translate(-4.601 -8.43)" fill="#a7aeb4"/>
          <path id="Path_14" data-name="Path 14" d="M16.031,27H6.556a1.264,1.264,0,1,0,0,2.527h9.475a1.264,1.264,0,0,0,0-2.527Z" transform="translate(-2.766 -11.38)" fill="#a7aeb4"/>
          <path id="Path_15" data-name="Path 15" d="M14.558,34h-12a1.264,1.264,0,1,0,0,2.527h12a1.264,1.264,0,1,0,0-2.527Z" transform="translate(-1.293 -14.33)" fill="#a7aeb4"/>
          <path id="Path_16" data-name="Path 16" d="M16.768,41H8.556a1.264,1.264,0,1,0,0,2.527h8.212a1.264,1.264,0,0,0,0-2.527Z" transform="translate(-3.503 -17.281)" fill="#a7aeb4"/>
          <path id="Path_17" data-name="Path 17" d="M18.978,48H14.556a1.264,1.264,0,1,0,0,2.527h4.422a1.264,1.264,0,1,0,0-2.527Z" transform="translate(-5.704 -20.656)" fill="#a7aeb4"/>
        </g>
      </g>
      <g id="Subtraction_13" data-name="Subtraction 13" transform="translate(-4188 6658)">
        <path id="Path_48" data-name="Path 48" d="M411.5,85.5H.5V.5H30.168a85.89,85.89,0,0,1,10.4,6.4,41.455,41.455,0,0,1,6.556,5.851,32.844,32.844,0,0,1,4.066,5.706c1.106,1.94,2.04,3.942,3.028,6.062A84,84,0,0,0,60.576,36.27a30.268,30.268,0,0,0,4.333,5.164,33.236,33.236,0,0,0,4.974,3.894,41.368,41.368,0,0,0,10.35,4.7,50.812,50.812,0,0,0,8.4,1.776,34.911,34.911,0,0,0,3.494.279h.522v-.019c.637-.023,1.788-.089,3.309-.277a47.607,47.607,0,0,0,8.261-1.772,39.574,39.574,0,0,0,10-4.641,32.622,32.622,0,0,0,4.805-3.836,30.469,30.469,0,0,0,4.21-5.077,84.4,84.4,0,0,0,6.353-11.8h0l.009-.019c.989-2.131,1.923-4.144,3.03-6.094A32.982,32.982,0,0,1,136.7,12.81a41.519,41.519,0,0,1,6.56-5.881A85.849,85.849,0,0,1,153.659.5H411.5Z" fill="#fff"/>
        <path id="Path_49" data-name="Path 49" d="M411,85V1H153.784a85.083,85.083,0,0,0-10.233,6.331,41.061,41.061,0,0,0-6.482,5.81,32.545,32.545,0,0,0-4.008,5.652c-1.1,1.933-2.026,3.936-3.01,6.058l-.017.036a84.847,84.847,0,0,1-6.381,11.845,31.03,31.03,0,0,1-4.28,5.16,33.156,33.156,0,0,1-4.878,3.895,40.072,40.072,0,0,1-10.128,4.7,48.122,48.122,0,0,1-8.348,1.791c-1.2.148-2.169.222-2.849.258l0,.042H92.128a34.558,34.558,0,0,1-3.555-.283A51.311,51.311,0,0,1,80.088,50.5a41.868,41.868,0,0,1-10.475-4.753A33.746,33.746,0,0,1,64.564,41.8a30.762,30.762,0,0,1-4.4-5.25,84.406,84.406,0,0,1-6.4-11.82c-.984-2.11-1.913-4.1-3.009-6.026a32.354,32.354,0,0,0-4.005-5.621A40.962,40.962,0,0,0,40.272,7.3,85.07,85.07,0,0,0,30.043,1H1V85H411m1,1H0V0H30.293a86.708,86.708,0,0,1,10.57,6.492A41.948,41.948,0,0,1,47.5,12.414,33.332,33.332,0,0,1,51.624,18.2c1.116,1.957,2.054,3.969,3.047,6.1a83.579,83.579,0,0,0,6.322,11.69,29.761,29.761,0,0,0,4.261,5.079,32.742,32.742,0,0,0,4.9,3.835,40.87,40.87,0,0,0,10.226,4.638A50.29,50.29,0,0,0,88.695,51.3a34.4,34.4,0,0,0,3.433.276v-.007a34.2,34.2,0,0,0,3.769-.285,47.106,47.106,0,0,0,8.174-1.753,39.06,39.06,0,0,0,9.875-4.582,32.082,32.082,0,0,0,4.73-3.777,29.912,29.912,0,0,0,4.142-4.993,84.147,84.147,0,0,0,6.325-11.749h0c.993-2.141,1.931-4.163,3.048-6.131a33.5,33.5,0,0,1,4.128-5.821,42.072,42.072,0,0,1,6.638-5.953A86.677,86.677,0,0,1,153.534,0H412ZM91.7.087V0h61.813Z" fill="#707070"/>
      </g>
      <g id="Path_68" data-name="Path 68" transform="translate(-4124 6642)">
        <path id="Path_50" data-name="Path 50" d="M27,56.5a25.12,25.12,0,0,1-10.306-2.2,26.383,26.383,0,0,1-8.423-6,28.044,28.044,0,0,1-5.685-8.9,29.561,29.561,0,0,1,0-21.815,28.044,28.044,0,0,1,5.685-8.9,26.382,26.382,0,0,1,8.423-6,25.278,25.278,0,0,1,20.612,0,26.382,26.382,0,0,1,8.423,6,28.043,28.043,0,0,1,5.685,8.9,29.561,29.561,0,0,1,0,21.815,28.043,28.043,0,0,1-5.685,8.9,26.383,26.383,0,0,1-8.423,6A25.12,25.12,0,0,1,27,56.5Z" fill="#00d0e4"/>
        <path id="Path_51" data-name="Path 51" d="M27,1A24.622,24.622,0,0,0,16.9,3.153,25.884,25.884,0,0,0,8.634,9.035,27.546,27.546,0,0,0,3.05,17.778a29.061,29.061,0,0,0,0,21.443,27.546,27.546,0,0,0,5.584,8.743A25.885,25.885,0,0,0,16.9,53.847a24.778,24.778,0,0,0,20.2,0,25.885,25.885,0,0,0,8.264-5.882,27.547,27.547,0,0,0,5.584-8.743,29.062,29.062,0,0,0,0-21.443,27.547,27.547,0,0,0-5.584-8.743A25.884,25.884,0,0,0,37.1,3.153,24.622,24.622,0,0,0,27,1m0-1C41.912,0,54,12.76,54,28.5S41.912,57,27,57,0,44.24,0,28.5,12.088,0,27,0Z"/>
      </g>
      <g id="Group_86" data-name="Group 86" transform="translate(-4125.914 6654.299)">
        <text id="Overview-5" data-name="Overview" transform="translate(0.276 72.762)" fill="#0094ff" font-size="13" font-family="SegoeUI-Semibold, Segoe UI" font-weight="600"><tspan x="0" y="0">Overview</tspan></text>
        <g id="House_Icon-2" data-name="House Icon" transform="translate(12.063 -2)">
          <path id="Path-3" data-name="Path" d="M0,0V10.3H10.3V2.81c0-1.035,1.153-1.873,2.574-1.873h2.574c1.422,0,2.574.839,2.574,1.873V10.3h10.3V0" transform="translate(3.746 21.554)" fill="none" stroke="#fff" stroke-linecap="round" stroke-linejoin="round" stroke-miterlimit="10" stroke-width="1.5"/>
          <path id="Path-4" data-name="Path" d="M0,13.273,16.217.549a2.872,2.872,0,0,1,3.377,0L35.812,13.273" fill="none" stroke="#fff" stroke-linecap="round" stroke-linejoin="round" stroke-miterlimit="10" stroke-width="1.5"/>
        </g>
      </g>
      <g id="Group_81" data-name="Group 81" transform="translate(-3874.995 6675.868)">
        <text id="Overview-6" data-name="Overview" transform="translate(-0.288 51.193)" fill="#929da5" font-size="13" font-family="SegoeUI-Semibold, Segoe UI" font-weight="600"><tspan x="0" y="0">timer</tspan></text>
        <g id="_6-2" data-name="6" transform="translate(6.286)">
          <path id="Path_18-2" data-name="Path 18" d="M126.573,33.644h-.61V28.8a5.436,5.436,0,0,0-1.2-3.386l-6.3-7.987,6.3-8.051a5.5,5.5,0,0,0,1.2-3.409V1.085h.61a.579.579,0,0,0,.61-.543.579.579,0,0,0-.61-.543H104.61a.579.579,0,0,0-.61.543.579.579,0,0,0,.61.543h.61V5.969a5.5,5.5,0,0,0,1.2,3.409l6.3,8.051-6.3,7.987a5.436,5.436,0,0,0-1.2,3.386v4.842h-.61a.546.546,0,1,0,0,1.085h21.963a.546.546,0,1,0,0-1.085ZM106.44,28.8a4.436,4.436,0,0,1,.982-2.763l6.54-8.3a.494.494,0,0,0,0-.621l-6.54-8.362a4.5,4.5,0,0,1-.983-2.789V1.085h18.3V5.969a4.5,4.5,0,0,1-.983,2.789l-6.54,8.362a.494.494,0,0,0,0,.621l6.54,8.3a4.436,4.436,0,0,1,.982,2.763v4.842h-18.3Z" transform="translate(-104)" fill="#929da5"/>
          <path id="Path_19-2" data-name="Path 19" d="M281.834,464h-1.22a.5.5,0,1,0,0,.964h1.22a.5.5,0,1,0,0-.964Z" transform="translate(-266.582 -432.162)" fill="#929da5"/>
          <path id="Path_20-2" data-name="Path 20" d="M196.525,157.862a.661.661,0,0,0,.516-.225c.135-.161,2.631-3,4.285-4.881a.4.4,0,0,0,.04-.5.646.646,0,0,0-.541-.259h-8.6a.646.646,0,0,0-.541.259.4.4,0,0,0,.04.5c1.654,1.881,4.15,4.72,4.285,4.881a.661.661,0,0,0,.516.225Zm3.133-4.9c-1.746,1.985-2.657,3.023-3.133,3.567-.476-.544-1.387-1.582-3.133-3.567Z" transform="translate(-184.934 -141.419)" fill="#929da5"/>
          <path id="Path_21-2" data-name="Path 21" d="M164.232,336.2a.67.67,0,0,0-.5-.2h-7.6a.67.67,0,0,0-.5.2l-2.869,3.232a2.847,2.847,0,0,0-.761,1.9v2.854a.558.558,0,0,0,.61.482h7.321a.5.5,0,1,0,0-.964H153.22v-2.372a2.019,2.019,0,0,1,.54-1.348l2.687-3.027h6.969l2.687,3.027a2.019,2.019,0,0,1,.54,1.348v2.372h-.61a.5.5,0,1,0,0,.964h1.22a.558.558,0,0,0,.61-.482v-2.854a2.848,2.848,0,0,0-.761-1.9Z" transform="translate(-148.34 -311.873)" fill="#929da5"/>
          <path id="Path_22-2" data-name="Path 22" d="M326.906,75.769a.725.725,0,0,0,.348.086.67.67,0,0,0,.5-.207l.668-.758a2.9,2.9,0,0,0,.765-1.926v-.482a.627.627,0,0,0-1.22,0v.482a2.07,2.07,0,0,1-.546,1.376l-.668.758a.422.422,0,0,0,.153.671Z" transform="translate(-309.666 -67.663)" fill="#929da5"/>
          <path id="Path_23-2" data-name="Path 23" d="M344.61,33.446a.558.558,0,0,0,.61-.482v-.482a.627.627,0,0,0-1.22,0v.482a.558.558,0,0,0,.61.482Z" transform="translate(-325.698 -30.072)" fill="#929da5"/>
        </g>
      </g>
      <g id="Group_84" data-name="Group 84" transform="translate(-4036.075 6675.674)">
        <text id="Overview-7" data-name="Overview" transform="translate(-0.355 51.387)" fill="#929da5" font-size="13" font-family="SegoeUI-Semibold, Segoe UI" font-weight="600"><tspan x="0" y="0">AllTasks</tspan></text>
        <g id="testing-checklist-file-or-to-do-list-black-outline-17464-2" data-name="testing-checklist-file-or-to-do-list-black-outline-17464" transform="translate(14.878)">
          <path id="Path_1-2" data-name="Path 1" d="M55.014,6.076,49.358.419A1.423,1.423,0,0,0,48.346,0h-15.1a1.434,1.434,0,0,0-1.432,1.432v28.7a1.434,1.434,0,0,0,1.432,1.432H54a1.434,1.434,0,0,0,1.432-1.432V7.088A1.421,1.421,0,0,0,55.014,6.076Zm-.778.214H49.778a.635.635,0,0,1-.635-.634V1.2Zm.5,23.838a.732.732,0,0,1-.73.73H33.247a.732.732,0,0,1-.73-.73V1.432a.732.732,0,0,1,.73-.73h15.1a.735.735,0,0,1,.1.009V5.655a1.337,1.337,0,0,0,1.336,1.336h4.944a.7.7,0,0,1,.01.1Z" transform="translate(-31.815)" fill="#929da5"/>
          <path id="Path_2-2" data-name="Path 2" d="M61.952,70.309a4,4,0,1,0,4,4A4,4,0,0,0,61.952,70.309Zm0,7.291a3.294,3.294,0,1,1,3.294-3.294A3.294,3.294,0,0,1,61.952,77.6Z" transform="translate(-54.694 -61.535)" fill="#929da5"/>
          <path id="Path_3-2" data-name="Path 3" d="M77.976,89.621,75.986,91.8l-.555-.757a.35.35,0,0,0-.565.414l.809,1.1a.35.35,0,0,0,.264.143h.019a.351.351,0,0,0,.259-.114l2.279-2.5a.351.351,0,1,0-.518-.472Z" transform="translate(-69.434 -78.337)" fill="#929da5"/>
          <path id="Path_4-2" data-name="Path 4" d="M146.176,86.714h-6.2a.351.351,0,1,0,0,.7h6.2a.351.351,0,1,0,0-.7Z" transform="translate(-126.17 -75.893)" fill="#929da5"/>
          <path id="Path_5-2" data-name="Path 5" d="M146.176,112.327h-6.2a.351.351,0,1,0,0,.7h6.2a.351.351,0,1,0,0-.7Z" transform="translate(-126.17 -98.31)" fill="#929da5"/>
          <path id="Path_6-2" data-name="Path 6" d="M61.952,152.268a4,4,0,1,0,4,4A4,4,0,0,0,61.952,152.268Zm0,7.291a3.295,3.295,0,1,1,3.294-3.295,3.3,3.3,0,0,1-3.294,3.295Z" transform="translate(-54.694 -133.267)" fill="#929da5"/>
          <path id="Path_7-2" data-name="Path 7" d="M146.176,168.673h-6.2a.351.351,0,1,0,0,.7h6.2a.351.351,0,1,0,0-.7Z" transform="translate(-126.17 -147.624)" fill="#929da5"/>
          <path id="Path_8-2" data-name="Path 8" d="M146.176,194.286h-6.2a.351.351,0,0,0,0,.7h6.2a.351.351,0,1,0,0-.7Z" transform="translate(-126.17 -170.041)" fill="#929da5"/>
          <path id="Path_9-2" data-name="Path 9" d="M80.551,169.7a.351.351,0,0,0-.493.053l-.922,1.141-.922-1.141a.35.35,0,1,0-.545.44l1.017,1.259-1.017,1.259a.35.35,0,1,0,.545.44l.922-1.141.922,1.141a.35.35,0,0,0,.545-.44l-1.017-1.259L80.6,170.2a.35.35,0,0,0-.049-.5Z" transform="translate(-71.878 -148.457)" fill="#929da5"/>
        </g>
      </g>
      <g id="Group_82" data-name="Group 82" transform="translate(-3954.497 6675.868)">
        <text id="Overview-8" data-name="Overview" transform="translate(-16.319 51.193)" fill="#929da5" font-size="13" font-family="SegoeUI-Semibold, Segoe UI" font-weight="600"><tspan x="0" y="0">Stop Watch</tspan></text>
        <g id="_3-2" data-name="3">
          <path id="Path_10-2" data-name="Path 10" d="M32.365,31.178,38.28,23a.632.632,0,0,0-.882-.882L29.22,28.036a2.251,2.251,0,1,0,3.146,3.143Z" transform="translate(-11.216 -9.592)" fill="#a7aeb4"/>
          <path id="Path_11-2" data-name="Path 11" d="M43.4,11.387c-.006-.012-.006-.025-.013-.037s-.02-.018-.028-.029a15.983,15.983,0,0,0-2.252-2.8l1.356-1.25.893.823,2.68-2.469-2.68-2.47-2.68,2.47.894.823L40.209,7.7a17.136,17.136,0,0,0-3.038-2.076.4.4,0,0,0-.032-.026c-.013-.007-.027-.006-.04-.013A17.944,17.944,0,0,0,30.611,3.6V2.91h.947a1.522,1.522,0,0,0,1.579-1.455A1.523,1.523,0,0,0,31.557,0H25.872a1.522,1.522,0,0,0-1.579,1.455A1.522,1.522,0,0,0,25.872,2.91h.947v.673a18.738,18.738,0,0,0-2.036.311.582.582,0,0,0-.474.7.635.635,0,0,0,.757.437,17.31,17.31,0,0,1,1.807-.282L27.5,4.7c.212-.015.4-.025.584-.033h0V5.821a.634.634,0,0,0,1.263,0V4.674a16.71,16.71,0,0,1,6.6,1.656l-.623.994a.558.558,0,0,0,.231.8.668.668,0,0,0,.315.078.644.644,0,0,0,.548-.291l.621-.992a15.351,15.351,0,0,1,4.909,4.524l-1.076.572a.558.558,0,0,0-.229.8.643.643,0,0,0,.548.291.668.668,0,0,0,.315-.078l1.078-.574a13.578,13.578,0,0,1,1.8,6.181H43.14a.584.584,0,1,0,0,1.164h1.248a13.578,13.578,0,0,1-1.8,6.181l-1.079-.58a.66.66,0,0,0-.863.213.558.558,0,0,0,.231.8l1.076.572A15.351,15.351,0,0,1,37.044,31.5l-.621-.991a.66.66,0,0,0-.863-.213.557.557,0,0,0-.231.8l.623.994a16.71,16.71,0,0,1-6.6,1.656V32.6a.634.634,0,0,0-1.263,0v1.15a17.229,17.229,0,0,1-3.017-.359.634.634,0,0,0-.757.437.582.582,0,0,0,.474.7,18.46,18.46,0,0,0,3.827.4h.118a18.063,18.063,0,0,0,8.35-2.08.563.563,0,0,0,.059-.023.4.4,0,0,0,.032-.026,16.573,16.573,0,0,0,6.173-5.682.554.554,0,0,0,.038-.045c.008-.012.007-.025.013-.037a14.6,14.6,0,0,0,0-15.641Z" transform="translate(-9.731)" fill="#a7aeb4"/>
          <path id="Path_12-2" data-name="Path 12" d="M19.715,13H16.556a1.264,1.264,0,0,0,0,2.527h3.158a1.264,1.264,0,0,0,0-2.527Z" transform="translate(-6.44 -5.479)" fill="#a7aeb4"/>
          <path id="Path_13-2" data-name="Path 13" d="M17.873,20H11.556a1.263,1.263,0,1,0,0,2.527h6.317a1.264,1.264,0,0,0,0-2.527Z" transform="translate(-4.601 -8.43)" fill="#a7aeb4"/>
          <path id="Path_14-2" data-name="Path 14" d="M16.031,27H6.556a1.264,1.264,0,1,0,0,2.527h9.475a1.264,1.264,0,0,0,0-2.527Z" transform="translate(-2.766 -11.38)" fill="#a7aeb4"/>
          <path id="Path_15-2" data-name="Path 15" d="M14.558,34h-12a1.264,1.264,0,1,0,0,2.527h12a1.264,1.264,0,1,0,0-2.527Z" transform="translate(-1.293 -14.33)" fill="#a7aeb4"/>
          <path id="Path_16-2" data-name="Path 16" d="M16.768,41H8.556a1.264,1.264,0,1,0,0,2.527h8.212a1.264,1.264,0,0,0,0-2.527Z" transform="translate(-3.503 -17.281)" fill="#a7aeb4"/>
          <path id="Path_17-2" data-name="Path 17" d="M18.978,48H14.556a1.264,1.264,0,1,0,0,2.527h4.422a1.264,1.264,0,1,0,0-2.527Z" transform="translate(-5.704 -20.656)" fill="#a7aeb4"/>
        </g>
      </g>
    </g>
    <g id="Group_53" data-name="Group 53" transform="translate(5372 -5530)">
      <g id="Group_41" data-name="Group 41">
        <g id="Subtraction_3" data-name="Subtraction 3" transform="translate(-3714 6655)">
          <path id="Path_52" data-name="Path 52" d="M411.5,85.5H.5V.5H116.167c7.87,4.2,13.26,8.09,16.957,12.247,3.379,3.8,5.1,7.493,7.093,11.768a84.065,84.065,0,0,0,6.359,11.755c5.342,8.057,13.638,11.926,19.657,13.753a47.678,47.678,0,0,0,11.889,2.056l.506.006v-.024a46.335,46.335,0,0,0,11.591-2.05c8.4-2.609,14.8-7.169,19.016-13.554A84.509,84.509,0,0,0,215.6,24.641c2-4.3,3.717-8.011,7.1-11.832,3.7-4.179,9.091-8.092,16.964-12.309H411.5Z" fill="#fff"/>
          <path id="Path_53" data-name="Path 53" d="M411,85V1H239.784c-7.759,4.166-13.074,8.027-16.715,12.141-3.333,3.766-5.041,7.447-7.019,11.711a85.054,85.054,0,0,1-6.4,11.879c-4.279,6.484-10.768,11.112-19.286,13.756a47.453,47.453,0,0,1-11.239,2.051v.052l-1.011-.011A48.245,48.245,0,0,1,166.088,50.5c-6.1-1.851-14.505-5.775-19.929-13.956a84.4,84.4,0,0,1-6.395-11.82c-1.976-4.24-3.683-7.9-7.014-11.647C129.111,8.986,123.8,5.145,116.042,1H1V85H411m1,1H0V0H116.292c7.984,4.248,13.451,8.192,17.2,12.414,3.428,3.855,5.164,7.578,7.173,11.889a83.631,83.631,0,0,0,6.323,11.69c5.26,7.933,13.445,11.748,19.386,13.551a47.007,47.007,0,0,0,11.749,2.034v-.007a44.391,44.391,0,0,0,11.943-2.039c8.291-2.574,14.6-7.066,18.747-13.352a84.092,84.092,0,0,0,6.325-11.751c2.011-4.334,3.748-8.076,7.177-11.951C226.077,8.234,231.546,4.269,239.533,0H412ZM177.7.086V0h61.6Z" fill="#707070"/>
        </g>
        <g id="Group_49" data-name="Group 49">
          <g id="Component_5_1" data-name="Component 5 – 1" transform="translate(-3651.914 6673.204)">
            <text id="Overview-9" data-name="Overview" transform="translate(0.276 50.857)" fill="#929da5" font-size="13" font-family="SegoeUI-Semibold, Segoe UI" font-weight="600"><tspan x="0" y="0">Overview</tspan></text>
            <g id="House_Icon-3" data-name="House Icon" transform="translate(11.063)">
              <path id="Path-5" data-name="Path" d="M0,0V10.3H8.48V2.81A2.008,2.008,0,0,1,10.6.937h2.12A2.008,2.008,0,0,1,14.84,2.81V10.3h8.48V0" transform="translate(3.746 26.554)" fill="none" stroke="#000" stroke-linecap="round" stroke-linejoin="round" stroke-miterlimit="10" stroke-width="1.5"/>
              <path id="Path-6" data-name="Path" d="M0,13.273,13.953.549a2.2,2.2,0,0,1,2.906,0L30.812,13.273" fill="none" stroke="#000" stroke-linecap="round" stroke-linejoin="round" stroke-miterlimit="10" stroke-width="1.5"/>
            </g>
          </g>
        </g>
        <g id="Path_34" data-name="Path 34" transform="translate(-3564 6637)">
          <path id="Path_54" data-name="Path 54" d="M27,56.5a25.12,25.12,0,0,1-10.306-2.2,26.383,26.383,0,0,1-8.423-6,28.044,28.044,0,0,1-5.685-8.9,29.561,29.561,0,0,1,0-21.815,28.044,28.044,0,0,1,5.685-8.9,26.382,26.382,0,0,1,8.423-6,25.278,25.278,0,0,1,20.612,0,26.382,26.382,0,0,1,8.423,6,28.043,28.043,0,0,1,5.685,8.9,29.561,29.561,0,0,1,0,21.815,28.043,28.043,0,0,1-5.685,8.9,26.383,26.383,0,0,1-8.423,6A25.12,25.12,0,0,1,27,56.5Z" fill="#00d0e4"/>
          <path id="Path_55" data-name="Path 55" d="M27,1A24.622,24.622,0,0,0,16.9,3.153,25.884,25.884,0,0,0,8.634,9.035,27.546,27.546,0,0,0,3.05,17.778a29.061,29.061,0,0,0,0,21.443,27.546,27.546,0,0,0,5.584,8.743A25.885,25.885,0,0,0,16.9,53.847a24.778,24.778,0,0,0,20.2,0,25.885,25.885,0,0,0,8.264-5.882,27.547,27.547,0,0,0,5.584-8.743,29.062,29.062,0,0,0,0-21.443,27.547,27.547,0,0,0-5.584-8.743A25.884,25.884,0,0,0,37.1,3.153,24.622,24.622,0,0,0,27,1m0-1C41.912,0,54,12.76,54,28.5S41.912,57,27,57,0,44.24,0,28.5,12.088,0,27,0Z" fill="#707070"/>
        </g>
        <g id="Group_30" data-name="Group 30" transform="translate(-3400.995 6672.868)">
          <text id="Overview-10" data-name="Overview" transform="translate(-0.288 51.193)" fill="#929da5" font-size="13" font-family="SegoeUI-Semibold, Segoe UI" font-weight="600"><tspan x="0" y="0">timer</tspan></text>
          <g id="_6-3" data-name="6" transform="translate(6.286)">
            <path id="Path_18-3" data-name="Path 18" d="M126.573,33.644h-.61V28.8a5.436,5.436,0,0,0-1.2-3.386l-6.3-7.987,6.3-8.051a5.5,5.5,0,0,0,1.2-3.409V1.085h.61a.579.579,0,0,0,.61-.543.579.579,0,0,0-.61-.543H104.61a.579.579,0,0,0-.61.543.579.579,0,0,0,.61.543h.61V5.969a5.5,5.5,0,0,0,1.2,3.409l6.3,8.051-6.3,7.987a5.436,5.436,0,0,0-1.2,3.386v4.842h-.61a.546.546,0,1,0,0,1.085h21.963a.546.546,0,1,0,0-1.085ZM106.44,28.8a4.436,4.436,0,0,1,.982-2.763l6.54-8.3a.494.494,0,0,0,0-.621l-6.54-8.362a4.5,4.5,0,0,1-.983-2.789V1.085h18.3V5.969a4.5,4.5,0,0,1-.983,2.789l-6.54,8.362a.494.494,0,0,0,0,.621l6.54,8.3a4.436,4.436,0,0,1,.982,2.763v4.842h-18.3Z" transform="translate(-104)"/>
            <path id="Path_19-3" data-name="Path 19" d="M281.834,464h-1.22a.5.5,0,1,0,0,.964h1.22a.5.5,0,1,0,0-.964Z" transform="translate(-266.582 -432.162)"/>
            <path id="Path_20-3" data-name="Path 20" d="M196.525,157.862a.661.661,0,0,0,.516-.225c.135-.161,2.631-3,4.285-4.881a.4.4,0,0,0,.04-.5.646.646,0,0,0-.541-.259h-8.6a.646.646,0,0,0-.541.259.4.4,0,0,0,.04.5c1.654,1.881,4.15,4.72,4.285,4.881a.661.661,0,0,0,.516.225Zm3.133-4.9c-1.746,1.985-2.657,3.023-3.133,3.567-.476-.544-1.387-1.582-3.133-3.567Z" transform="translate(-184.934 -141.419)"/>
            <path id="Path_21-3" data-name="Path 21" d="M164.232,336.2a.67.67,0,0,0-.5-.2h-7.6a.67.67,0,0,0-.5.2l-2.869,3.232a2.847,2.847,0,0,0-.761,1.9v2.854a.558.558,0,0,0,.61.482h7.321a.5.5,0,1,0,0-.964H153.22v-2.372a2.019,2.019,0,0,1,.54-1.348l2.687-3.027h6.969l2.687,3.027a2.019,2.019,0,0,1,.54,1.348v2.372h-.61a.5.5,0,1,0,0,.964h1.22a.558.558,0,0,0,.61-.482v-2.854a2.848,2.848,0,0,0-.761-1.9Z" transform="translate(-148.34 -311.873)"/>
            <path id="Path_22-3" data-name="Path 22" d="M326.906,75.769a.725.725,0,0,0,.348.086.67.67,0,0,0,.5-.207l.668-.758a2.9,2.9,0,0,0,.765-1.926v-.482a.627.627,0,0,0-1.22,0v.482a2.07,2.07,0,0,1-.546,1.376l-.668.758a.422.422,0,0,0,.153.671Z" transform="translate(-309.666 -67.663)"/>
            <path id="Path_23-3" data-name="Path 23" d="M344.61,33.446a.558.558,0,0,0,.61-.482v-.482a.627.627,0,0,0-1.22,0v.482a.558.558,0,0,0,.61.482Z" transform="translate(-325.698 -30.072)"/>
          </g>
        </g>
        <g id="Group_31" data-name="Group 31" transform="translate(-3562.075 6672.674)">
          <text id="Overview-11" data-name="Overview" transform="translate(-0.355 51.387)" fill="#0094ff" font-size="13" font-family="SegoeUI-Semibold, Segoe UI" font-weight="600"><tspan x="0" y="0">AllTasks</tspan></text>
          <g id="testing-checklist-file-or-to-do-list-black-outline-17464-3" data-name="testing-checklist-file-or-to-do-list-black-outline-17464" transform="translate(10.933 -27.271)">
            <path id="Path_1-3" data-name="Path 1" d="M61.311,7.725,54.12.533A1.809,1.809,0,0,0,52.833,0h-19.2a1.823,1.823,0,0,0-1.82,1.82V38.305a1.823,1.823,0,0,0,1.82,1.82H60.024a1.823,1.823,0,0,0,1.82-1.82V9.012a1.806,1.806,0,0,0-.533-1.287ZM60.322,8H54.654a.808.808,0,0,1-.807-.807V1.522Zm.631,30.308a.93.93,0,0,1-.929.929H33.635a.93.93,0,0,1-.929-.929V1.82a.93.93,0,0,1,.929-.929h19.2A.935.935,0,0,1,52.956.9V7.19a1.7,1.7,0,0,0,1.7,1.7h6.286a.886.886,0,0,1,.012.123Z" transform="translate(-31.815)" fill="#fff"/>
            <path id="Path_2-3" data-name="Path 2" d="M63.037,70.309a5.08,5.08,0,1,0,5.08,5.08,5.08,5.08,0,0,0-5.08-5.08Zm0,9.269a4.189,4.189,0,1,1,4.189-4.189,4.189,4.189,0,0,1-4.189,4.189Z" transform="translate(-53.809 -59.154)" fill="#fff"/>
            <path id="Path_3-3" data-name="Path 3" d="M78.839,89.652l-2.531,2.776-.706-.963a.446.446,0,1,0-.719.527l1.028,1.4a.445.445,0,0,0,.336.181h.024a.447.447,0,0,0,.329-.145l2.9-3.178a.446.446,0,1,0-.659-.6Z" transform="translate(-67.978 -75.305)" fill="#fff"/>
            <path id="Path_4-3" data-name="Path 4" d="M147.955,86.714h-7.886a.446.446,0,1,0,0,.892h7.886a.446.446,0,0,0,0-.892Z" transform="translate(-122.518 -72.956)" fill="#fff"/>
            <path id="Path_5-3" data-name="Path 5" d="M147.955,112.327h-7.886a.446.446,0,1,0,0,.892h7.886a.446.446,0,0,0,0-.892Z" transform="translate(-122.518 -94.505)" fill="#fff"/>
            <path id="Path_6-3" data-name="Path 6" d="M63.037,152.268a5.081,5.081,0,1,0,5.08,5.08A5.081,5.081,0,0,0,63.037,152.268Zm0,9.269a4.189,4.189,0,1,1,4.189-4.189,4.189,4.189,0,0,1-4.189,4.189Z" transform="translate(-53.809 -128.109)" fill="#fff"/>
            <path id="Path_7-3" data-name="Path 7" d="M147.955,168.673h-7.886a.446.446,0,0,0,0,.892h7.886a.446.446,0,1,0,0-.892Z" transform="translate(-122.518 -141.911)" fill="#fff"/>
            <path id="Path_8-3" data-name="Path 8" d="M147.955,194.286h-7.886a.446.446,0,0,0,0,.892h7.886a.446.446,0,1,0,0-.892Z" transform="translate(-122.518 -163.46)" fill="#fff"/>
            <path id="Path_9-3" data-name="Path 9" d="M81.355,169.724a.446.446,0,0,0-.627.067l-1.173,1.451-1.173-1.451a.446.446,0,1,0-.693.56l1.293,1.6-1.293,1.6a.446.446,0,1,0,.693.56l1.173-1.451,1.173,1.451a.446.446,0,1,0,.693-.56l-1.293-1.6,1.293-1.6a.445.445,0,0,0-.066-.627Z" transform="translate(-70.327 -142.712)" fill="#fff"/>
          </g>
        </g>
        <g id="Group_32" data-name="Group 32" transform="translate(-3480.497 6672.868)">
          <text id="Overview-12" data-name="Overview" transform="translate(-16.319 51.193)" fill="#929da5" font-size="13" font-family="SegoeUI-Semibold, Segoe UI" font-weight="600"><tspan x="0" y="0">Stop Watch</tspan></text>
          <g id="_3-3" data-name="3">
            <path id="Path_10-3" data-name="Path 10" d="M32.365,31.178,38.28,23a.632.632,0,0,0-.882-.882L29.22,28.036a2.251,2.251,0,1,0,3.146,3.143Z" transform="translate(-11.216 -9.592)"/>
            <path id="Path_11-3" data-name="Path 11" d="M43.4,11.387c-.006-.012-.006-.025-.013-.037s-.02-.018-.028-.029a15.983,15.983,0,0,0-2.252-2.8l1.356-1.25.893.823,2.68-2.469-2.68-2.47-2.68,2.47.894.823L40.209,7.7a17.136,17.136,0,0,0-3.038-2.076.4.4,0,0,0-.032-.026c-.013-.007-.027-.006-.04-.013A17.944,17.944,0,0,0,30.611,3.6V2.91h.947a1.522,1.522,0,0,0,1.579-1.455A1.523,1.523,0,0,0,31.557,0H25.872a1.522,1.522,0,0,0-1.579,1.455A1.522,1.522,0,0,0,25.872,2.91h.947v.673a18.738,18.738,0,0,0-2.036.311.582.582,0,0,0-.474.7.635.635,0,0,0,.757.437,17.31,17.31,0,0,1,1.807-.282L27.5,4.7c.212-.015.4-.025.584-.033h0V5.821a.634.634,0,0,0,1.263,0V4.674a16.71,16.71,0,0,1,6.6,1.656l-.623.994a.558.558,0,0,0,.231.8.668.668,0,0,0,.315.078.644.644,0,0,0,.548-.291l.621-.992a15.351,15.351,0,0,1,4.909,4.524l-1.076.572a.558.558,0,0,0-.229.8.643.643,0,0,0,.548.291.668.668,0,0,0,.315-.078l1.078-.574a13.578,13.578,0,0,1,1.8,6.181H43.14a.584.584,0,1,0,0,1.164h1.248a13.578,13.578,0,0,1-1.8,6.181l-1.079-.58a.66.66,0,0,0-.863.213.558.558,0,0,0,.231.8l1.076.572A15.351,15.351,0,0,1,37.044,31.5l-.621-.991a.66.66,0,0,0-.863-.213.557.557,0,0,0-.231.8l.623.994a16.71,16.71,0,0,1-6.6,1.656V32.6a.634.634,0,0,0-1.263,0v1.15a17.229,17.229,0,0,1-3.017-.359.634.634,0,0,0-.757.437.582.582,0,0,0,.474.7,18.46,18.46,0,0,0,3.827.4h.118a18.063,18.063,0,0,0,8.35-2.08.563.563,0,0,0,.059-.023.4.4,0,0,0,.032-.026,16.573,16.573,0,0,0,6.173-5.682.554.554,0,0,0,.038-.045c.008-.012.007-.025.013-.037a14.6,14.6,0,0,0,0-15.641Z" transform="translate(-9.731)"/>
            <path id="Path_12-3" data-name="Path 12" d="M19.715,13H16.556a1.264,1.264,0,0,0,0,2.527h3.158a1.264,1.264,0,0,0,0-2.527Z" transform="translate(-6.44 -5.479)"/>
            <path id="Path_13-3" data-name="Path 13" d="M17.873,20H11.556a1.263,1.263,0,1,0,0,2.527h6.317a1.264,1.264,0,0,0,0-2.527Z" transform="translate(-4.601 -8.43)"/>
            <path id="Path_14-3" data-name="Path 14" d="M16.031,27H6.556a1.264,1.264,0,1,0,0,2.527h9.475a1.264,1.264,0,0,0,0-2.527Z" transform="translate(-2.766 -11.38)"/>
            <path id="Path_15-3" data-name="Path 15" d="M14.558,34h-12a1.264,1.264,0,1,0,0,2.527h12a1.264,1.264,0,1,0,0-2.527Z" transform="translate(-1.293 -14.33)"/>
            <path id="Path_16-3" data-name="Path 16" d="M16.768,41H8.556a1.264,1.264,0,1,0,0,2.527h8.212a1.264,1.264,0,0,0,0-2.527Z" transform="translate(-3.503 -17.281)"/>
            <path id="Path_17-3" data-name="Path 17" d="M18.978,48H14.556a1.264,1.264,0,1,0,0,2.527h4.422a1.264,1.264,0,1,0,0-2.527Z" transform="translate(-5.704 -20.656)"/>
          </g>
        </g>
      </g>
    </g>
    <g id="Group_54" data-name="Group 54" transform="translate(4890 -5368)">
      <g id="Group_42" data-name="Group 42">
        <g id="Subtraction_4" data-name="Subtraction 4" transform="translate(-3232 6656)">
          <path id="Path_56" data-name="Path 56" d="M411.5,85.5H.5V.5H188.167c7.87,4.2,13.26,8.09,16.957,12.247,3.379,3.8,5.1,7.493,7.093,11.769a84.093,84.093,0,0,0,6.359,11.755c5.342,8.057,13.638,11.926,19.657,13.753a47.507,47.507,0,0,0,11.89,2.055l.505.005V52.06A46.2,46.2,0,0,0,262.2,50.019c8.3-2.569,14.879-7.259,19.039-13.563A84.617,84.617,0,0,0,287.6,24.641c1.994-4.3,3.716-8.01,7.1-11.831,3.7-4.179,9.091-8.092,16.964-12.31H411.5Z" fill="#fff"/>
          <path id="Path_57" data-name="Path 57" d="M411,85V1H311.784c-7.759,4.167-13.074,8.028-16.715,12.142-3.333,3.766-5.041,7.447-7.019,11.71a84.929,84.929,0,0,1-6.4,11.88c-4.225,6.4-10.9,11.161-19.309,13.765a47.332,47.332,0,0,1-11.216,2.042v.05l-1.01-.01a48.054,48.054,0,0,1-12.03-2.076c-6.1-1.851-14.505-5.775-19.929-13.955a84.522,84.522,0,0,1-6.395-11.82c-1.976-4.24-3.683-7.9-7.014-11.648C201.112,8.987,195.8,5.145,188.042,1H1V85H411m1,1H0V0H188.292c7.984,4.248,13.451,8.193,17.2,12.415,3.429,3.856,5.164,7.579,7.174,11.89a83.546,83.546,0,0,0,6.322,11.69c5.26,7.933,13.445,11.748,19.386,13.551a47,47,0,0,0,11.749,2.033v-.007c.842-.005,20.716-.276,30.69-15.39a84.3,84.3,0,0,0,6.326-11.751c2.01-4.334,3.747-8.076,7.176-11.951C298.077,8.235,303.546,4.269,311.533,0H412ZM249.7.087V0h61.57Z" fill="#707070"/>
        </g>
        <g id="Path_37" data-name="Path 37" transform="translate(-3008 6640)">
          <path id="Path_58" data-name="Path 58" d="M27,56.5a25.12,25.12,0,0,1-10.306-2.2,26.383,26.383,0,0,1-8.423-6,28.044,28.044,0,0,1-5.685-8.9,29.561,29.561,0,0,1,0-21.815,28.044,28.044,0,0,1,5.685-8.9,26.382,26.382,0,0,1,8.423-6,25.278,25.278,0,0,1,20.612,0,26.382,26.382,0,0,1,8.423,6,28.043,28.043,0,0,1,5.685,8.9,29.561,29.561,0,0,1,0,21.815,28.043,28.043,0,0,1-5.685,8.9,26.383,26.383,0,0,1-8.423,6A25.12,25.12,0,0,1,27,56.5Z" fill="#00d0e4"/>
          <path id="Path_59" data-name="Path 59" d="M27,1A24.622,24.622,0,0,0,16.9,3.153,25.884,25.884,0,0,0,8.634,9.035,27.546,27.546,0,0,0,3.05,17.778a29.061,29.061,0,0,0,0,21.443,27.546,27.546,0,0,0,5.584,8.743A25.885,25.885,0,0,0,16.9,53.847a24.778,24.778,0,0,0,20.2,0,25.885,25.885,0,0,0,8.264-5.882,27.547,27.547,0,0,0,5.584-8.743,29.062,29.062,0,0,0,0-21.443,27.547,27.547,0,0,0-5.584-8.743A25.884,25.884,0,0,0,37.1,3.153,24.622,24.622,0,0,0,27,1m0-1C41.912,0,54,12.76,54,28.5S41.912,57,27,57,0,44.24,0,28.5,12.088,0,27,0Z" fill="#707070"/>
        </g>
        <g id="Group_34" data-name="Group 34" transform="translate(-2918.995 6673.868)">
          <text id="Overview-13" data-name="Overview" transform="translate(-0.288 51.193)" fill="#929da5" font-size="13" font-family="SegoeUI-Semibold, Segoe UI" font-weight="600"><tspan x="0" y="0">timer</tspan></text>
          <g id="_6-4" data-name="6" transform="translate(6.286)">
            <path id="Path_18-4" data-name="Path 18" d="M126.573,33.644h-.61V28.8a5.436,5.436,0,0,0-1.2-3.386l-6.3-7.987,6.3-8.051a5.5,5.5,0,0,0,1.2-3.409V1.085h.61a.579.579,0,0,0,.61-.543.579.579,0,0,0-.61-.543H104.61a.579.579,0,0,0-.61.543.579.579,0,0,0,.61.543h.61V5.969a5.5,5.5,0,0,0,1.2,3.409l6.3,8.051-6.3,7.987a5.436,5.436,0,0,0-1.2,3.386v4.842h-.61a.546.546,0,1,0,0,1.085h21.963a.546.546,0,1,0,0-1.085ZM106.44,28.8a4.436,4.436,0,0,1,.982-2.763l6.54-8.3a.494.494,0,0,0,0-.621l-6.54-8.362a4.5,4.5,0,0,1-.983-2.789V1.085h18.3V5.969a4.5,4.5,0,0,1-.983,2.789l-6.54,8.362a.494.494,0,0,0,0,.621l6.54,8.3a4.436,4.436,0,0,1,.982,2.763v4.842h-18.3Z" transform="translate(-104)"/>
            <path id="Path_19-4" data-name="Path 19" d="M281.834,464h-1.22a.5.5,0,1,0,0,.964h1.22a.5.5,0,1,0,0-.964Z" transform="translate(-266.582 -432.162)"/>
            <path id="Path_20-4" data-name="Path 20" d="M196.525,157.862a.661.661,0,0,0,.516-.225c.135-.161,2.631-3,4.285-4.881a.4.4,0,0,0,.04-.5.646.646,0,0,0-.541-.259h-8.6a.646.646,0,0,0-.541.259.4.4,0,0,0,.04.5c1.654,1.881,4.15,4.72,4.285,4.881a.661.661,0,0,0,.516.225Zm3.133-4.9c-1.746,1.985-2.657,3.023-3.133,3.567-.476-.544-1.387-1.582-3.133-3.567Z" transform="translate(-184.934 -141.419)"/>
            <path id="Path_21-4" data-name="Path 21" d="M164.232,336.2a.67.67,0,0,0-.5-.2h-7.6a.67.67,0,0,0-.5.2l-2.869,3.232a2.847,2.847,0,0,0-.761,1.9v2.854a.558.558,0,0,0,.61.482h7.321a.5.5,0,1,0,0-.964H153.22v-2.372a2.019,2.019,0,0,1,.54-1.348l2.687-3.027h6.969l2.687,3.027a2.019,2.019,0,0,1,.54,1.348v2.372h-.61a.5.5,0,1,0,0,.964h1.22a.558.558,0,0,0,.61-.482v-2.854a2.848,2.848,0,0,0-.761-1.9Z" transform="translate(-148.34 -311.873)"/>
            <path id="Path_22-4" data-name="Path 22" d="M326.906,75.769a.725.725,0,0,0,.348.086.67.67,0,0,0,.5-.207l.668-.758a2.9,2.9,0,0,0,.765-1.926v-.482a.627.627,0,0,0-1.22,0v.482a2.07,2.07,0,0,1-.546,1.376l-.668.758a.422.422,0,0,0,.153.671Z" transform="translate(-309.666 -67.663)"/>
            <path id="Path_23-4" data-name="Path 23" d="M344.61,33.446a.558.558,0,0,0,.61-.482v-.482a.627.627,0,0,0-1.22,0v.482a.558.558,0,0,0,.61.482Z" transform="translate(-325.698 -30.072)"/>
          </g>
        </g>
        <g id="Group_35" data-name="Group 35" transform="translate(-3080.075 6673.674)">
          <text id="Overview-14" data-name="Overview" transform="translate(-0.355 51.387)" fill="#929da5" font-size="13" font-family="SegoeUI-Semibold, Segoe UI" font-weight="600"><tspan x="0" y="0">AllTasks</tspan></text>
          <g id="testing-checklist-file-or-to-do-list-black-outline-17464-4" data-name="testing-checklist-file-or-to-do-list-black-outline-17464" transform="translate(14.878)">
            <path id="Path_1-4" data-name="Path 1" d="M55.014,6.076,49.358.419A1.423,1.423,0,0,0,48.346,0h-15.1a1.434,1.434,0,0,0-1.432,1.432v28.7a1.434,1.434,0,0,0,1.432,1.432H54a1.434,1.434,0,0,0,1.432-1.432V7.088A1.421,1.421,0,0,0,55.014,6.076Zm-.778.214H49.778a.635.635,0,0,1-.635-.634V1.2Zm.5,23.838a.732.732,0,0,1-.73.73H33.247a.732.732,0,0,1-.73-.73V1.432a.732.732,0,0,1,.73-.73h15.1a.735.735,0,0,1,.1.009V5.655a1.337,1.337,0,0,0,1.336,1.336h4.944a.7.7,0,0,1,.01.1Z" transform="translate(-31.815)"/>
            <path id="Path_2-4" data-name="Path 2" d="M61.952,70.309a4,4,0,1,0,4,4A4,4,0,0,0,61.952,70.309Zm0,7.291a3.294,3.294,0,1,1,3.294-3.294A3.294,3.294,0,0,1,61.952,77.6Z" transform="translate(-54.694 -61.535)"/>
            <path id="Path_3-4" data-name="Path 3" d="M77.976,89.621,75.986,91.8l-.555-.757a.35.35,0,0,0-.565.414l.809,1.1a.35.35,0,0,0,.264.143h.019a.351.351,0,0,0,.259-.114l2.279-2.5a.351.351,0,1,0-.518-.472Z" transform="translate(-69.434 -78.337)"/>
            <path id="Path_4-4" data-name="Path 4" d="M146.176,86.714h-6.2a.351.351,0,1,0,0,.7h6.2a.351.351,0,1,0,0-.7Z" transform="translate(-126.17 -75.893)"/>
            <path id="Path_5-4" data-name="Path 5" d="M146.176,112.327h-6.2a.351.351,0,1,0,0,.7h6.2a.351.351,0,1,0,0-.7Z" transform="translate(-126.17 -98.31)"/>
            <path id="Path_6-4" data-name="Path 6" d="M61.952,152.268a4,4,0,1,0,4,4A4,4,0,0,0,61.952,152.268Zm0,7.291a3.295,3.295,0,1,1,3.294-3.295,3.3,3.3,0,0,1-3.294,3.295Z" transform="translate(-54.694 -133.267)"/>
            <path id="Path_7-4" data-name="Path 7" d="M146.176,168.673h-6.2a.351.351,0,1,0,0,.7h6.2a.351.351,0,1,0,0-.7Z" transform="translate(-126.17 -147.624)"/>
            <path id="Path_8-4" data-name="Path 8" d="M146.176,194.286h-6.2a.351.351,0,0,0,0,.7h6.2a.351.351,0,1,0,0-.7Z" transform="translate(-126.17 -170.041)"/>
            <path id="Path_9-4" data-name="Path 9" d="M80.551,169.7a.351.351,0,0,0-.493.053l-.922,1.141-.922-1.141a.35.35,0,1,0-.545.44l1.017,1.259-1.017,1.259a.35.35,0,1,0,.545.44l.922-1.141.922,1.141a.35.35,0,0,0,.545-.44l-1.017-1.259L80.6,170.2a.35.35,0,0,0-.049-.5Z" transform="translate(-71.878 -148.457)"/>
          </g>
        </g>
        <g id="Group_36" data-name="Group 36" transform="translate(-2998.497 6673.868)">
          <text id="Overview-15" data-name="Overview" transform="translate(-16.319 51.193)" fill="#0094ff" font-size="13" font-family="SegoeUI-Semibold, Segoe UI" font-weight="600"><tspan x="0" y="0">Stop Watch</tspan></text>
          <g id="_3-4" data-name="3" transform="translate(-6.349 -26.528)">
            <path id="Path_10-4" data-name="Path 10" d="M33.265,33.205l7.22-9.982a.772.772,0,0,0-1.077-1.077l-9.983,7.223a2.748,2.748,0,1,0,3.84,3.836Z" transform="translate(-7.445 -6.852)" fill="#fff"/>
            <path id="Path_11-4" data-name="Path 11" d="M47.613,13.9c-.008-.015-.008-.031-.016-.045s-.024-.022-.034-.036A19.512,19.512,0,0,0,44.814,10.4L46.47,8.878l1.09,1,3.271-3.014L47.56,3.854,44.288,6.869l1.091,1L43.724,9.4a20.92,20.92,0,0,0-3.708-2.534c-.015-.009-.023-.023-.039-.031s-.033-.008-.049-.016A21.906,21.906,0,0,0,32.006,4.4V3.553h1.157a1.858,1.858,0,0,0,1.928-1.776A1.86,1.86,0,0,0,33.161,0h-6.94a1.858,1.858,0,0,0-1.928,1.776,1.858,1.858,0,0,0,1.928,1.776h1.157v.821a22.875,22.875,0,0,0-2.486.38.711.711,0,0,0-.579.851.775.775,0,0,0,.924.534,21.132,21.132,0,0,1,2.206-.345l.764-.053c.258-.018.49-.031.713-.041h0V7.1a.774.774,0,0,0,1.542,0V5.7a20.4,20.4,0,0,1,8.063,2.022l-.76,1.214a.681.681,0,0,0,.282.971.816.816,0,0,0,.385.1.786.786,0,0,0,.669-.355l.758-1.211a18.741,18.741,0,0,1,5.993,5.523l-1.313.7a.681.681,0,0,0-.28.971.785.785,0,0,0,.669.355.816.816,0,0,0,.385-.1l1.316-.7a16.576,16.576,0,0,1,2.2,7.546H47.3a.713.713,0,1,0,0,1.421h1.523a16.576,16.576,0,0,1-2.2,7.546L45.311,31a.806.806,0,0,0-1.053.26.681.681,0,0,0,.282.971l1.313.7a18.74,18.74,0,0,1-5.993,5.523l-.758-1.21a.806.806,0,0,0-1.053-.26.68.68,0,0,0-.282.971l.76,1.213a20.4,20.4,0,0,1-8.063,2.022v-1.4a.774.774,0,0,0-1.542,0v1.4a21.033,21.033,0,0,1-3.683-.438.774.774,0,0,0-.924.534.711.711,0,0,0,.579.851,22.537,22.537,0,0,0,4.672.492h.144A22.052,22.052,0,0,0,39.9,40.093a.688.688,0,0,0,.072-.028c.015-.009.024-.022.039-.031A20.233,20.233,0,0,0,47.55,33.1a.677.677,0,0,0,.046-.055c.009-.015.008-.031.016-.045a17.82,17.82,0,0,0,0-19.1Z" transform="translate(-6.515)" fill="#fff"/>
            <path id="Path_12-4" data-name="Path 12" d="M20.691,13H16.835a1.542,1.542,0,0,0,0,3.085h3.856a1.542,1.542,0,0,0,0-3.085Z" transform="translate(-4.485 -3.818)" fill="#fff"/>
            <path id="Path_13-4" data-name="Path 13" d="M19.547,20H11.835a1.542,1.542,0,1,0,0,3.085h7.712a1.543,1.543,0,0,0,0-3.085Z" transform="translate(-3.344 -5.875)" fill="#fff"/>
            <path id="Path_14-4" data-name="Path 14" d="M18.4,27H6.835a1.542,1.542,0,1,0,0,3.085H18.4A1.542,1.542,0,1,0,18.4,27Z" transform="translate(-2.208 -7.931)" fill="#fff"/>
            <path id="Path_15-4" data-name="Path 15" d="M17.487,34H2.835a1.542,1.542,0,1,0,0,3.085H17.487a1.542,1.542,0,1,0,0-3.085Z" transform="translate(-1.293 -9.987)" fill="#fff"/>
            <path id="Path_16-4" data-name="Path 16" d="M18.86,41H8.835a1.542,1.542,0,0,0,0,3.085H18.86a1.542,1.542,0,0,0,0-3.085Z" transform="translate(-2.666 -12.043)" fill="#fff"/>
            <path id="Path_17-4" data-name="Path 17" d="M20.233,48h-5.4a1.542,1.542,0,1,0,0,3.085h5.4a1.543,1.543,0,0,0,0-3.085Z" transform="translate(-4.029 -14.618)" fill="#fff"/>
          </g>
        </g>
      </g>
      <g id="Group_50" data-name="Group 50" transform="translate(482)">
        <g id="Component_5_2" data-name="Component 5 – 2" transform="translate(-3651.914 6673.204)">
          <text id="Overview-16" data-name="Overview" transform="translate(0.276 50.857)" fill="#929da5" font-size="13" font-family="SegoeUI-Semibold, Segoe UI" font-weight="600"><tspan x="0" y="0">Overview</tspan></text>
          <g id="House_Icon-4" data-name="House Icon" transform="translate(11.063)">
            <path id="Path-7" data-name="Path" d="M0,0V10.3H8.48V2.81A2.008,2.008,0,0,1,10.6.937h2.12A2.008,2.008,0,0,1,14.84,2.81V10.3h8.48V0" transform="translate(3.746 26.554)" fill="none" stroke="#000" stroke-linecap="round" stroke-linejoin="round" stroke-miterlimit="10" stroke-width="1.5"/>
            <path id="Path-8" data-name="Path" d="M0,13.273,13.953.549a2.2,2.2,0,0,1,2.906,0L30.812,13.273" fill="none" stroke="#000" stroke-linecap="round" stroke-linejoin="round" stroke-miterlimit="10" stroke-width="1.5"/>
          </g>
        </g>
      </g>
    </g>
    <g id="Group_55" data-name="Group 55" transform="translate(4408 -5216)">
      <g id="Group_43" data-name="Group 43">
        <g id="Subtraction_5" data-name="Subtraction 5" transform="translate(-2750 6647)">
          <path id="Path_60" data-name="Path 60" d="M411.5,85.5H.5V.5H269.167c7.87,4.2,13.26,8.09,16.957,12.247,3.379,3.8,5.1,7.493,7.093,11.769a84.148,84.148,0,0,0,6.359,11.755c5.342,8.057,13.638,11.926,19.657,13.753a47.507,47.507,0,0,0,11.89,2.055l.505.005V52.06A46.2,46.2,0,0,0,343.2,50.019c8.3-2.569,14.879-7.259,19.039-13.563A84.615,84.615,0,0,0,368.6,24.641c1.994-4.3,3.716-8.01,7.1-11.831,3.7-4.179,9.091-8.092,16.964-12.31H411.5Z" fill="#fff"/>
          <path id="Path_61" data-name="Path 61" d="M411,85V1H392.784c-7.759,4.167-13.074,8.028-16.715,12.141-3.333,3.766-5.041,7.447-7.019,11.71a85.039,85.039,0,0,1-6.4,11.88c-4.225,6.4-10.9,11.161-19.309,13.765a47.332,47.332,0,0,1-11.216,2.042v.05l-1.01-.01a48.052,48.052,0,0,1-12.03-2.076c-6.1-1.851-14.505-5.775-19.929-13.955a84.477,84.477,0,0,1-6.395-11.82c-1.976-4.24-3.683-7.9-7.014-11.648C282.111,8.987,276.8,5.145,269.042,1H1V85H411m1,1H0V0H269.292c7.984,4.248,13.451,8.193,17.205,12.415,3.429,3.856,5.164,7.579,7.174,11.89a83.643,83.643,0,0,0,6.321,11.69c5.261,7.933,13.446,11.748,19.387,13.551a47.012,47.012,0,0,0,11.749,2.033v-.007c.842-.005,20.716-.276,30.69-15.39a84.3,84.3,0,0,0,6.326-11.751c2.01-4.334,3.747-8.076,7.176-11.951C379.077,8.235,384.546,4.269,392.533,0H412ZM330.7.087h0V0h61.8Z" fill="#707070"/>
        </g>
        <g id="Group_37" data-name="Group 37" transform="translate(-2687.914 6643.299)">
          <text id="Overview-17" data-name="Overview" transform="translate(0.276 72.762)" fill="#929da5" font-size="13" font-family="SegoeUI-Semibold, Segoe UI" font-weight="600"><tspan x="0" y="0">Overview</tspan></text>
        </g>
        <g id="Path_40" data-name="Path 40" transform="translate(-2446 6631)">
          <path id="Path_62" data-name="Path 62" d="M27,56.5a25.12,25.12,0,0,1-10.306-2.2,26.383,26.383,0,0,1-8.423-6,28.044,28.044,0,0,1-5.685-8.9,29.561,29.561,0,0,1,0-21.815,28.044,28.044,0,0,1,5.685-8.9,26.382,26.382,0,0,1,8.423-6,25.278,25.278,0,0,1,20.612,0,26.382,26.382,0,0,1,8.423,6,28.043,28.043,0,0,1,5.685,8.9,29.561,29.561,0,0,1,0,21.815,28.043,28.043,0,0,1-5.685,8.9,26.383,26.383,0,0,1-8.423,6A25.12,25.12,0,0,1,27,56.5Z" fill="#00d0e4"/>
          <path id="Path_63" data-name="Path 63" d="M27,1A24.622,24.622,0,0,0,16.9,3.153,25.884,25.884,0,0,0,8.634,9.035,27.546,27.546,0,0,0,3.05,17.778a29.061,29.061,0,0,0,0,21.443,27.546,27.546,0,0,0,5.584,8.743A25.885,25.885,0,0,0,16.9,53.847a24.778,24.778,0,0,0,20.2,0,25.885,25.885,0,0,0,8.264-5.882,27.547,27.547,0,0,0,5.584-8.743,29.062,29.062,0,0,0,0-21.443,27.547,27.547,0,0,0-5.584-8.743A25.884,25.884,0,0,0,37.1,3.153,24.622,24.622,0,0,0,27,1m0-1C41.912,0,54,12.76,54,28.5S41.912,57,27,57,0,44.24,0,28.5,12.088,0,27,0Z"/>
        </g>
        <g id="Group_38" data-name="Group 38" transform="translate(-2436.995 6664.868)">
          <text id="Overview-18" data-name="Overview" transform="translate(-0.288 51.193)" fill="#0094ff" font-size="13" font-family="SegoeUI-Semibold, Segoe UI" font-weight="600"><tspan x="0" y="0">timer</tspan></text>
          <g id="_6-5" data-name="6" transform="translate(6.286 -22)">
            <path id="Path_18-5" data-name="Path 18" d="M126.573,33.644h-.61V28.8a5.436,5.436,0,0,0-1.2-3.386l-6.3-7.987,6.3-8.051a5.5,5.5,0,0,0,1.2-3.409V1.085h.61a.579.579,0,0,0,.61-.543.579.579,0,0,0-.61-.543H104.61a.579.579,0,0,0-.61.543.579.579,0,0,0,.61.543h.61V5.969a5.5,5.5,0,0,0,1.2,3.409l6.3,8.051-6.3,7.987a5.436,5.436,0,0,0-1.2,3.386v4.842h-.61a.546.546,0,1,0,0,1.085h21.963a.546.546,0,1,0,0-1.085ZM106.44,28.8a4.436,4.436,0,0,1,.982-2.763l6.54-8.3a.494.494,0,0,0,0-.621l-6.54-8.362a4.5,4.5,0,0,1-.983-2.789V1.085h18.3V5.969a4.5,4.5,0,0,1-.983,2.789l-6.54,8.362a.494.494,0,0,0,0,.621l6.54,8.3a4.436,4.436,0,0,1,.982,2.763v4.842h-18.3Z" transform="translate(-104)" fill="#fff"/>
            <path id="Path_19-5" data-name="Path 19" d="M281.834,464h-1.22a.5.5,0,1,0,0,.964h1.22a.5.5,0,1,0,0-.964Z" transform="translate(-266.582 -432.162)" fill="#fff"/>
            <path id="Path_20-5" data-name="Path 20" d="M196.525,157.862a.661.661,0,0,0,.516-.225c.135-.161,2.631-3,4.285-4.881a.4.4,0,0,0,.04-.5.646.646,0,0,0-.541-.259h-8.6a.646.646,0,0,0-.541.259.4.4,0,0,0,.04.5c1.654,1.881,4.15,4.72,4.285,4.881a.661.661,0,0,0,.516.225Zm3.133-4.9c-1.746,1.985-2.657,3.023-3.133,3.567-.476-.544-1.387-1.582-3.133-3.567Z" transform="translate(-184.934 -141.419)" fill="#fff"/>
            <path id="Path_21-5" data-name="Path 21" d="M164.232,336.2a.67.67,0,0,0-.5-.2h-7.6a.67.67,0,0,0-.5.2l-2.869,3.232a2.847,2.847,0,0,0-.761,1.9v2.854a.558.558,0,0,0,.61.482h7.321a.5.5,0,1,0,0-.964H153.22v-2.372a2.019,2.019,0,0,1,.54-1.348l2.687-3.027h6.969l2.687,3.027a2.019,2.019,0,0,1,.54,1.348v2.372h-.61a.5.5,0,1,0,0,.964h1.22a.558.558,0,0,0,.61-.482v-2.854a2.848,2.848,0,0,0-.761-1.9Z" transform="translate(-148.34 -311.873)" fill="#fff"/>
            <path id="Path_22-5" data-name="Path 22" d="M326.906,75.769a.725.725,0,0,0,.348.086.67.67,0,0,0,.5-.207l.668-.758a2.9,2.9,0,0,0,.765-1.926v-.482a.627.627,0,0,0-1.22,0v.482a2.07,2.07,0,0,1-.546,1.376l-.668.758a.422.422,0,0,0,.153.671Z" transform="translate(-309.666 -67.663)" fill="#fff"/>
            <path id="Path_23-5" data-name="Path 23" d="M344.61,33.446a.558.558,0,0,0,.61-.482v-.482a.627.627,0,0,0-1.22,0v.482a.558.558,0,0,0,.61.482Z" transform="translate(-325.698 -30.072)" fill="#fff"/>
          </g>
        </g>
        <g id="Group_39" data-name="Group 39" transform="translate(-2598.075 6664.674)">
          <text id="Overview-19" data-name="Overview" transform="translate(-0.355 51.387)" fill="#929da5" font-size="13" font-family="SegoeUI-Semibold, Segoe UI" font-weight="600"><tspan x="0" y="0">AllTasks</tspan></text>
          <g id="testing-checklist-file-or-to-do-list-black-outline-17464-5" data-name="testing-checklist-file-or-to-do-list-black-outline-17464" transform="translate(14.878)">
            <path id="Path_1-5" data-name="Path 1" d="M55.014,6.076,49.358.419A1.423,1.423,0,0,0,48.346,0h-15.1a1.434,1.434,0,0,0-1.432,1.432v28.7a1.434,1.434,0,0,0,1.432,1.432H54a1.434,1.434,0,0,0,1.432-1.432V7.088A1.421,1.421,0,0,0,55.014,6.076Zm-.778.214H49.778a.635.635,0,0,1-.635-.634V1.2Zm.5,23.838a.732.732,0,0,1-.73.73H33.247a.732.732,0,0,1-.73-.73V1.432a.732.732,0,0,1,.73-.73h15.1a.735.735,0,0,1,.1.009V5.655a1.337,1.337,0,0,0,1.336,1.336h4.944a.7.7,0,0,1,.01.1Z" transform="translate(-31.815)"/>
            <path id="Path_2-5" data-name="Path 2" d="M61.952,70.309a4,4,0,1,0,4,4A4,4,0,0,0,61.952,70.309Zm0,7.291a3.294,3.294,0,1,1,3.294-3.294A3.294,3.294,0,0,1,61.952,77.6Z" transform="translate(-54.694 -61.535)"/>
            <path id="Path_3-5" data-name="Path 3" d="M77.976,89.621,75.986,91.8l-.555-.757a.35.35,0,0,0-.565.414l.809,1.1a.35.35,0,0,0,.264.143h.019a.351.351,0,0,0,.259-.114l2.279-2.5a.351.351,0,1,0-.518-.472Z" transform="translate(-69.434 -78.337)"/>
            <path id="Path_4-5" data-name="Path 4" d="M146.176,86.714h-6.2a.351.351,0,1,0,0,.7h6.2a.351.351,0,1,0,0-.7Z" transform="translate(-126.17 -75.893)"/>
            <path id="Path_5-5" data-name="Path 5" d="M146.176,112.327h-6.2a.351.351,0,1,0,0,.7h6.2a.351.351,0,1,0,0-.7Z" transform="translate(-126.17 -98.31)"/>
            <path id="Path_6-5" data-name="Path 6" d="M61.952,152.268a4,4,0,1,0,4,4A4,4,0,0,0,61.952,152.268Zm0,7.291a3.295,3.295,0,1,1,3.294-3.295,3.3,3.3,0,0,1-3.294,3.295Z" transform="translate(-54.694 -133.267)"/>
            <path id="Path_7-5" data-name="Path 7" d="M146.176,168.673h-6.2a.351.351,0,1,0,0,.7h6.2a.351.351,0,1,0,0-.7Z" transform="translate(-126.17 -147.624)"/>
            <path id="Path_8-5" data-name="Path 8" d="M146.176,194.286h-6.2a.351.351,0,0,0,0,.7h6.2a.351.351,0,1,0,0-.7Z" transform="translate(-126.17 -170.041)"/>
            <path id="Path_9-5" data-name="Path 9" d="M80.551,169.7a.351.351,0,0,0-.493.053l-.922,1.141-.922-1.141a.35.35,0,1,0-.545.44l1.017,1.259-1.017,1.259a.35.35,0,1,0,.545.44l.922-1.141.922,1.141a.35.35,0,0,0,.545-.44l-1.017-1.259L80.6,170.2a.35.35,0,0,0-.049-.5Z" transform="translate(-71.878 -148.457)"/>
          </g>
        </g>
        <g id="Group_40" data-name="Group 40" transform="translate(-2516.497 6664.868)">
          <text id="Overview-20" data-name="Overview" transform="translate(-16.319 51.193)" fill="#929da5" font-size="13" font-family="SegoeUI-Semibold, Segoe UI" font-weight="600"><tspan x="0" y="0">Stop Watch</tspan></text>
          <g id="_3-5" data-name="3">
            <path id="Path_10-5" data-name="Path 10" d="M32.365,31.178,38.28,23a.632.632,0,0,0-.882-.882L29.22,28.036a2.251,2.251,0,1,0,3.146,3.143Z" transform="translate(-11.216 -9.592)"/>
            <path id="Path_11-5" data-name="Path 11" d="M43.4,11.387c-.006-.012-.006-.025-.013-.037s-.02-.018-.028-.029a15.983,15.983,0,0,0-2.252-2.8l1.356-1.25.893.823,2.68-2.469-2.68-2.47-2.68,2.47.894.823L40.209,7.7a17.136,17.136,0,0,0-3.038-2.076.4.4,0,0,0-.032-.026c-.013-.007-.027-.006-.04-.013A17.944,17.944,0,0,0,30.611,3.6V2.91h.947a1.522,1.522,0,0,0,1.579-1.455A1.523,1.523,0,0,0,31.557,0H25.872a1.522,1.522,0,0,0-1.579,1.455A1.522,1.522,0,0,0,25.872,2.91h.947v.673a18.738,18.738,0,0,0-2.036.311.582.582,0,0,0-.474.7.635.635,0,0,0,.757.437,17.31,17.31,0,0,1,1.807-.282L27.5,4.7c.212-.015.4-.025.584-.033h0V5.821a.634.634,0,0,0,1.263,0V4.674a16.71,16.71,0,0,1,6.6,1.656l-.623.994a.558.558,0,0,0,.231.8.668.668,0,0,0,.315.078.644.644,0,0,0,.548-.291l.621-.992a15.351,15.351,0,0,1,4.909,4.524l-1.076.572a.558.558,0,0,0-.229.8.643.643,0,0,0,.548.291.668.668,0,0,0,.315-.078l1.078-.574a13.578,13.578,0,0,1,1.8,6.181H43.14a.584.584,0,1,0,0,1.164h1.248a13.578,13.578,0,0,1-1.8,6.181l-1.079-.58a.66.66,0,0,0-.863.213.558.558,0,0,0,.231.8l1.076.572A15.351,15.351,0,0,1,37.044,31.5l-.621-.991a.66.66,0,0,0-.863-.213.557.557,0,0,0-.231.8l.623.994a16.71,16.71,0,0,1-6.6,1.656V32.6a.634.634,0,0,0-1.263,0v1.15a17.229,17.229,0,0,1-3.017-.359.634.634,0,0,0-.757.437.582.582,0,0,0,.474.7,18.46,18.46,0,0,0,3.827.4h.118a18.063,18.063,0,0,0,8.35-2.08.563.563,0,0,0,.059-.023.4.4,0,0,0,.032-.026,16.573,16.573,0,0,0,6.173-5.682.554.554,0,0,0,.038-.045c.008-.012.007-.025.013-.037a14.6,14.6,0,0,0,0-15.641Z" transform="translate(-9.731)"/>
            <path id="Path_12-5" data-name="Path 12" d="M19.715,13H16.556a1.264,1.264,0,0,0,0,2.527h3.158a1.264,1.264,0,0,0,0-2.527Z" transform="translate(-6.44 -5.479)"/>
            <path id="Path_13-5" data-name="Path 13" d="M17.873,20H11.556a1.263,1.263,0,1,0,0,2.527h6.317a1.264,1.264,0,0,0,0-2.527Z" transform="translate(-4.601 -8.43)"/>
            <path id="Path_14-5" data-name="Path 14" d="M16.031,27H6.556a1.264,1.264,0,1,0,0,2.527h9.475a1.264,1.264,0,0,0,0-2.527Z" transform="translate(-2.766 -11.38)"/>
            <path id="Path_15-5" data-name="Path 15" d="M14.558,34h-12a1.264,1.264,0,1,0,0,2.527h12a1.264,1.264,0,1,0,0-2.527Z" transform="translate(-1.293 -14.33)"/>
            <path id="Path_16-5" data-name="Path 16" d="M16.768,41H8.556a1.264,1.264,0,1,0,0,2.527h8.212a1.264,1.264,0,0,0,0-2.527Z" transform="translate(-3.503 -17.281)"/>
            <path id="Path_17-5" data-name="Path 17" d="M18.978,48H14.556a1.264,1.264,0,1,0,0,2.527h4.422a1.264,1.264,0,1,0,0-2.527Z" transform="translate(-5.704 -20.656)"/>
          </g>
        </g>
      </g>
      <g id="Group_51" data-name="Group 51" transform="translate(964 -7)">
        <g id="Component_5_3" data-name="Component 5 – 3" transform="translate(-3640.851 6673.204)">
          <g id="House_Icon-5" data-name="House Icon">
            <path id="Path-9" data-name="Path" d="M0,0V10.3H8.48V2.81A2.008,2.008,0,0,1,10.6.937h2.12A2.008,2.008,0,0,1,14.84,2.81V10.3h8.48V0" transform="translate(3.746 26.554)" fill="none" stroke="#000" stroke-linecap="round" stroke-linejoin="round" stroke-miterlimit="10" stroke-width="1.5"/>
            <path id="Path-10" data-name="Path" d="M0,13.273,13.953.549a2.2,2.2,0,0,1,2.906,0L30.812,13.273" fill="none" stroke="#000" stroke-linecap="round" stroke-linejoin="round" stroke-miterlimit="10" stroke-width="1.5"/>
          </g>
        </g>
      </g>
    </g>
  </g>
</svg>
