<svg width="345" height="182" viewBox="0 0 345 182" fill="none" xmlns="http://www.w3.org/2000/svg">
<path d="M214.967 167.365C214.911 167.111 214.665 166.953 214.435 167.014C214.298 167.075 214.194 167.163 214.135 167.264C214.076 167.366 214.066 167.478 214.106 167.584L214.149 167.772L214.58 167.662L214.153 167.776C214.168 167.852 214.206 167.927 214.265 167.994C214.306 168.046 214.359 168.104 214.417 168.172C214.64 168.406 214.839 168.65 215.011 168.903C215.142 169.125 215.414 169.192 215.617 169.053C215.725 168.961 215.794 168.853 215.818 168.739C215.842 168.624 215.821 168.508 215.758 168.401C215.556 168.092 215.319 167.795 215.048 167.511C215.007 167.466 215.001 167.488 214.992 167.481L214.967 167.365Z" fill="#FFFFFE"/>
<path d="M213.542 168.758C213.486 169.012 213.239 169.17 213.009 169.109C212.455 168.968 212.684 168.284 212.986 167.953C213.21 167.719 213.409 167.475 213.581 167.222C213.711 167 213.984 166.933 214.187 167.072C214.294 167.164 214.364 167.272 214.388 167.386C214.412 167.501 214.391 167.617 214.327 167.724C214.146 168.034 213.571 168.574 213.536 168.758H213.542Z" fill="#FFFFFE"/>
<path d="M174.901 161.808H151.846C150.11 161.808 148.703 162.761 148.703 163.937V176.711C148.703 177.886 150.11 178.84 151.846 178.84H174.901C176.637 178.84 178.045 177.886 178.045 176.711V163.937C178.045 162.761 176.637 161.808 174.901 161.808Z" fill="#29B71C"/>
<path d="M172.805 176.001H153.942C153.664 176.001 153.398 175.926 153.201 175.793C153.004 175.66 152.894 175.479 152.894 175.291C152.894 175.103 153.004 174.923 153.201 174.789C153.398 174.656 153.664 174.582 153.942 174.582H172.805C173.083 174.582 173.349 174.656 173.546 174.789C173.742 174.923 173.853 175.103 173.853 175.291C173.853 175.479 173.742 175.66 173.546 175.793C173.349 175.926 173.083 176.001 172.805 176.001Z" fill="#EEEEEE"/>
<path d="M166.518 176.711C166.24 176.711 165.974 176.636 165.777 176.503C165.581 176.37 165.47 176.189 165.47 176.001V174.582C165.47 174.393 165.581 174.213 165.777 174.08C165.974 173.947 166.24 173.872 166.518 173.872C166.796 173.872 167.063 173.947 167.259 174.08C167.456 174.213 167.566 174.393 167.566 174.582V176.001C167.566 176.189 167.456 176.37 167.259 176.503C167.063 176.636 166.796 176.711 166.518 176.711Z" fill="#00AEEF"/>
<path d="M168.038 167.96L160.702 165.477C160.543 165.422 160.365 165.396 160.187 165.401C160.008 165.406 159.835 165.442 159.682 165.505C159.53 165.569 159.404 165.657 159.317 165.763C159.229 165.868 159.183 165.987 159.183 166.108V171.7C159.184 171.827 159.235 171.951 159.331 172.059C159.427 172.168 159.564 172.257 159.728 172.318C159.879 172.379 160.053 172.411 160.231 172.41C160.427 172.41 160.619 172.374 160.786 172.304L168.122 169.195C168.28 169.128 168.41 169.034 168.496 168.921C168.583 168.809 168.624 168.683 168.614 168.557C168.604 168.432 168.546 168.311 168.444 168.206C168.343 168.101 168.203 168.017 168.038 167.96Z" fill="#EEEEEE"/>
<path d="M151.846 161.808C151.013 161.808 150.213 162.032 149.623 162.431C149.034 162.831 148.703 163.372 148.703 163.937V176.711C148.703 177.275 149.034 177.817 149.623 178.216C150.213 178.615 151.013 178.84 151.846 178.84H163.374V161.808H151.846Z" fill="#E53935"/>
<path d="M153.942 174.582C153.664 174.582 153.398 174.656 153.201 174.789C153.004 174.923 152.894 175.103 152.894 175.291C152.894 175.479 153.004 175.66 153.201 175.793C153.398 175.926 153.664 176.001 153.942 176.001H163.373V174.582H153.942Z" fill="#FAFAFA"/>
<path d="M160.702 165.477C160.543 165.422 160.365 165.396 160.187 165.401C160.008 165.406 159.835 165.442 159.682 165.505C159.53 165.569 159.404 165.657 159.317 165.763C159.229 165.868 159.183 165.987 159.183 166.108V171.7C159.184 171.827 159.235 171.951 159.331 172.059C159.427 172.168 159.564 172.257 159.728 172.318C159.879 172.379 160.053 172.411 160.231 172.41C160.427 172.41 160.619 172.374 160.786 172.304L163.374 171.204V166.378L160.702 165.477Z" fill="#00AEEF"/>
<path d="M208.855 164.231H212.278L207.388 161V163.262C207.388 163.797 208.045 164.231 208.855 164.231Z" fill="#00AEEF"/>
<path d="M206.854 162.615H186.603V168.269H206.854C207.149 168.269 207.387 168.129 207.387 167.955V162.929C207.387 162.756 207.148 162.615 206.854 162.615Z" fill="#C6CACF"/>
<path d="M205.644 168.269H183.458C182.993 168.269 182.761 167.883 183.089 167.656L186.889 165.038L183.089 162.42C182.761 162.194 182.993 161.808 183.458 161.808H205.644C205.932 161.808 206.165 161.968 206.165 162.167V167.91C206.165 168.108 205.932 168.269 205.644 168.269Z" fill="#00AEEF"/>
<path d="M194.617 163.93H192.599C192.32 163.93 192.094 164.079 192.094 164.263V166.263C192.094 166.447 192.32 166.597 192.599 166.597C192.878 166.597 193.103 166.447 193.103 166.263V165.596H194.617C194.896 165.596 195.122 165.447 195.122 165.263V164.263C195.122 164.079 194.896 163.93 194.617 163.93ZM194.113 164.93H193.103V164.596H194.113V164.93Z" fill="white"/>
<path d="M197.14 163.93H196.131C195.852 163.93 195.626 164.079 195.626 164.263V166.263C195.626 166.447 195.852 166.597 196.131 166.597H198.149C198.428 166.597 198.654 166.447 198.654 166.263V164.93C198.654 164.378 197.975 163.93 197.14 163.93ZM197.645 165.93H196.636V164.596H197.14C197.418 164.596 197.645 164.746 197.645 164.93L197.645 165.93Z" fill="white"/>
<path d="M201.682 163.93H199.663C199.385 163.93 199.159 164.079 199.159 164.263V166.263C199.159 166.447 199.385 166.597 199.663 166.597C199.942 166.597 200.168 166.447 200.168 166.263V165.596H201.177C201.456 165.596 201.682 165.447 201.682 165.263C201.682 165.079 201.456 164.93 201.177 164.93H200.168V164.596H201.682C201.96 164.596 202.186 164.447 202.186 164.263C202.186 164.079 201.96 163.93 201.682 163.93Z" fill="white"/>
<path d="M206.891 179.577H191.99C191.716 179.577 191.494 179.42 191.494 179.227V169.427C191.494 169.234 191.716 169.077 191.99 169.077H206.891C207.165 169.077 207.387 169.234 207.387 169.427V179.227C207.387 179.42 207.165 179.577 206.891 179.577Z" fill="#C6CACF"/>
<path d="M192.487 178.877V169.077H191.99C191.716 169.077 191.494 169.234 191.494 169.427V179.227C191.494 179.42 191.716 179.577 191.99 179.577H206.891C207.165 179.577 207.387 179.42 207.387 179.227V178.877H192.487Z" fill="#00AEEF"/>
<path d="M205.695 177.962H200.522C200.262 177.962 200.052 177.807 200.052 177.615V173.461C200.052 173.27 200.262 173.115 200.522 173.115H205.695C205.954 173.115 206.165 173.27 206.165 173.461V177.615C206.165 177.807 205.954 177.962 205.695 177.962Z" fill="black"/>
<path d="M204.942 173.923H201.274V177.154H204.942V173.923Z" fill="#00AEEF"/>
<path d="M205.718 171.264H200.168C199.889 171.264 199.663 171.114 199.663 170.93C199.663 170.746 199.889 170.597 200.168 170.597H205.718C205.997 170.597 206.223 170.746 206.223 170.93C206.223 171.115 205.997 171.264 205.718 171.264Z" fill="#EF0000"/>
<path d="M205.718 172.597H200.168C199.889 172.597 199.663 172.448 199.663 172.264C199.663 172.08 199.889 171.931 200.168 171.931H205.718C205.997 171.931 206.223 172.08 206.223 172.264C206.223 172.448 205.997 172.597 205.718 172.597Z" fill="#EF0000"/>
<path d="M198.654 171.264H193.608C193.329 171.264 193.103 171.114 193.103 170.93C193.103 170.746 193.329 170.597 193.608 170.597H198.654C198.932 170.597 199.158 170.746 199.158 170.93C199.158 171.114 198.932 171.264 198.654 171.264Z" fill="#EF0000"/>
<path d="M198.654 172.597H193.608C193.329 172.597 193.103 172.448 193.103 172.264C193.103 172.08 193.329 171.931 193.608 171.931H198.654C198.932 171.931 199.158 172.08 199.158 172.264C199.158 172.448 198.932 172.597 198.654 172.597Z" fill="#EF0000"/>
<path d="M198.654 173.931H193.608C193.329 173.931 193.103 173.781 193.103 173.597C193.103 173.413 193.329 173.264 193.608 173.264H198.654C198.932 173.264 199.158 173.413 199.158 173.597C199.158 173.781 198.932 173.931 198.654 173.931Z" fill="#EF0000"/>
<path d="M198.654 175.264H193.608C193.329 175.264 193.103 175.115 193.103 174.931C193.103 174.747 193.329 174.597 193.608 174.597H198.654C198.932 174.597 199.158 174.747 199.158 174.931C199.158 175.115 198.932 175.264 198.654 175.264Z" fill="#EF0000"/>
<path d="M198.654 176.597H193.608C193.329 176.597 193.103 176.448 193.103 176.264C193.103 176.08 193.329 175.931 193.608 175.931H198.654C198.932 175.931 199.158 176.08 199.158 176.264C199.158 176.448 198.932 176.597 198.654 176.597Z" fill="#EF0000"/>
<path d="M198.654 177.931H193.608C193.329 177.931 193.103 177.782 193.103 177.598C193.103 177.413 193.329 177.264 193.608 177.264H198.654C198.932 177.264 199.158 177.413 199.158 177.598C199.158 177.782 198.932 177.931 198.654 177.931Z" fill="#EF0000"/>
<path d="M116.915 179.173V181.192H145.035V179.173L131.039 177.962L116.915 179.173Z" fill="#EEEEEE"/>
<path d="M116.915 177.558V179.577H145.035V177.558L131.039 176.346L116.915 177.558Z" fill="#DCDCDC"/>
<path d="M145.035 162.615V177.154H143.201L138.922 169.885L143.201 162.615H145.035Z" fill="#EEEEEE"/>
<path d="M143.812 162.615V163.844L139.382 169.885L143.812 175.925V177.154H116.915V162.615H143.812Z" fill="white"/>
<path d="M118.139 163.423V172.637L130.976 173.923L143.813 172.637V163.423H118.139Z" fill="#29B71C"/>
<path d="M131.586 165.038V168.269C132.262 168.269 132.809 167.546 132.809 166.654C132.809 165.762 132.262 165.038 131.586 165.038Z" fill="#FE5F1A"/>
<path d="M131.098 165.038C131.368 165.038 131.587 165.762 131.587 166.654C131.587 167.546 131.368 168.269 131.098 168.269C130.017 168.269 129.142 167.546 129.142 166.654C129.142 165.762 130.017 165.038 131.098 165.038Z" fill="#00AEEF"/>
<path d="M143.812 174.731L136.477 170.692L141.93 171.337L143.813 172.639L143.812 174.731Z" fill="#027372"/>
<path d="M140.846 171.568L137.358 169.885L132.865 171.568L130.364 173.23L136.132 176.346H143.812V174.108L140.846 171.568Z" fill="#E53935"/>
<path d="M142.59 171.442L141.565 171.5L137.7 170.305V168.269L142.59 171.442Z" fill="#EEEEEE"/>
<path d="M132.809 171.5L136.939 168.269L140.145 171.5L132.809 171.5Z" fill="white"/>
<path d="M135.254 176.346H133.019L124.251 170.692L129.107 171.364L135.254 176.346Z" fill="#027372"/>
<path d="M127.536 171.568L132.81 176.346H118.139V172.871L119.992 171.568L124.239 169.885L127.536 171.568Z" fill="#00AEEF"/>
<path d="M129.141 171.442L128.116 171.5L124.251 170.305V168.269L129.141 171.442Z" fill="#EEEEEE"/>
<path d="M119.361 171.5L124.179 168.269L127.919 171.5L119.361 171.5Z" fill="white"/>
<path d="M145.77 180.385C145.501 180.385 145.282 180.54 145.282 180.731V181.308H116.668V180.731C116.668 180.54 116.45 180.385 116.181 180.385C115.911 180.385 115.693 180.54 115.693 180.731V181.654C115.693 181.845 115.911 182 116.181 182H145.77C146.039 182 146.258 181.845 146.258 181.654V180.731C146.258 180.54 146.039 180.385 145.77 180.385Z" fill="#00AEEF"/>
<path d="M145.77 177.962C145.501 177.962 145.282 178.116 145.282 178.308V178.885H116.668V178.308C116.668 178.116 116.45 177.962 116.181 177.962C115.911 177.962 115.693 178.116 115.693 178.308V179.231C115.693 179.422 115.911 179.577 116.181 179.577H145.77C146.039 179.577 146.258 179.422 146.258 179.231V178.308C146.258 178.116 146.039 177.962 145.77 177.962Z" fill="#00AEEF"/>
<path d="M145.77 161.808H116.181C115.911 161.808 115.693 161.954 115.693 162.135V177.634C115.693 177.815 115.911 177.962 116.181 177.962H145.77C146.039 177.962 146.258 177.815 146.258 177.634V162.135C146.258 161.954 146.039 161.808 145.77 161.808ZM145.282 177.307H116.668V162.463H145.282V177.307Z" fill="#00AEEF"/>
<path d="M134.032 166.654C134.032 165.763 132.661 165.038 130.975 165.038C129.29 165.038 127.919 165.763 127.919 166.654C127.919 167.545 129.29 168.269 130.975 168.269C132.661 168.269 134.032 167.545 134.032 166.654ZM128.884 166.654C128.884 166.044 129.822 165.549 130.975 165.549C132.129 165.549 133.067 166.044 133.067 166.654C133.067 167.263 132.129 167.759 130.975 167.759C129.822 167.759 128.884 167.263 128.884 166.654Z" fill="black"/>
<path d="M116.915 176.014C116.915 176.197 117.145 176.346 117.429 176.346H144.52C144.804 176.346 145.035 176.197 145.035 176.014V162.948C145.035 162.764 144.804 162.615 144.52 162.615H117.429C117.145 162.615 116.915 162.764 116.915 162.948V165.605C116.915 165.789 117.145 165.937 117.429 165.937C117.714 165.937 117.944 165.789 117.944 165.605V163.28H144.006V171.668L138.111 167.862C137.91 167.732 137.585 167.732 137.384 167.862L130.975 172.001L124.566 167.862C124.365 167.732 124.039 167.732 123.838 167.862L117.944 171.668V166.934C117.944 166.75 117.714 166.602 117.429 166.602C117.145 166.602 116.915 166.75 116.915 166.934V176.014ZM137.748 168.566L141.221 170.81H134.274L137.748 168.566ZM124.202 168.566L127.676 170.81H120.729L124.202 168.566ZM119.7 171.474H128.704L130.611 172.705C130.612 172.706 134.04 174.92 134.04 174.92C134.141 174.985 134.273 175.017 134.404 175.017C134.536 175.017 134.667 174.985 134.768 174.92C134.969 174.79 134.969 174.58 134.768 174.45L131.702 172.471L133.246 171.474H142.25L144.006 172.608V175.682H117.944V172.608L119.7 171.474Z" fill="black"/>
<path fill-rule="evenodd" clip-rule="evenodd" d="M102.326 165.065C102.489 165.065 102.622 165.207 102.622 165.381V171.317H102.032V165.381C102.032 165.205 102.164 165.065 102.326 165.065Z" fill="#FFFFFE"/>
<g filter="url(#filter0_d_55_1114)">
<mask id="path-49-inside-1_55_1114" fill="white">
<path d="M308 1H52V1H308V1Z"/>
</mask>
<path d="M308 1H52V1H308V1Z" fill="#231F20"/>
<path d="M308 0.7H52V1.3H308V0.7ZM52 1.3H308V0.7H52V1.3Z" fill="black" mask="url(#path-49-inside-1_55_1114)"/>
</g>
<path d="M309.67 57.02C310.236 57.0204 310.79 56.9099 311.261 56.7025C311.731 56.495 312.099 56.2 312.316 55.8547C312.533 55.5094 312.59 55.1293 312.48 54.7625C312.37 54.3958 312.097 54.0588 311.697 53.7943C311.297 53.5297 310.788 53.3495 310.233 53.2764C309.678 53.2033 309.102 53.2407 308.579 53.3837C308.056 53.5267 307.609 53.7689 307.295 54.0798C306.98 54.3906 306.813 54.7561 306.812 55.1299C306.813 55.6308 307.114 56.1111 307.65 56.4654C308.186 56.8197 308.912 57.0192 309.67 57.02Z" fill="#231F20"/>
<path d="M309.67 81.02C310.236 81.0204 310.79 80.9099 311.261 80.7025C311.731 80.495 312.099 80.2 312.316 79.8547C312.533 79.5094 312.59 79.1293 312.48 78.7625C312.37 78.3958 312.097 78.0588 311.697 77.7943C311.297 77.5297 310.788 77.3495 310.233 77.2764C309.678 77.2033 309.102 77.2407 308.579 77.3837C308.056 77.5267 307.609 77.7689 307.295 78.0798C306.98 78.3906 306.813 78.7561 306.812 79.1299C306.813 79.6308 307.114 80.1111 307.65 80.4654C308.186 80.8197 308.912 81.0192 309.67 81.02Z" fill="#231F20"/>
<path d="M309.67 104.02C310.236 104.02 310.79 103.91 311.261 103.702C311.731 103.495 312.099 103.2 312.316 102.855C312.533 102.509 312.59 102.129 312.48 101.763C312.37 101.396 312.097 101.059 311.697 100.794C311.297 100.53 310.788 100.35 310.233 100.276C309.678 100.203 309.102 100.241 308.579 100.384C308.056 100.527 307.609 100.769 307.295 101.08C306.98 101.391 306.813 101.756 306.812 102.13C306.813 102.631 307.114 103.111 307.65 103.465C308.186 103.82 308.912 104.019 309.67 104.02Z" fill="#231F20"/>
<path d="M309.67 126.02C310.236 126.02 310.79 125.91 311.261 125.702C311.731 125.495 312.099 125.2 312.316 124.855C312.533 124.509 312.59 124.129 312.48 123.763C312.37 123.396 312.097 123.059 311.697 122.794C311.297 122.53 310.788 122.35 310.233 122.276C309.678 122.203 309.102 122.241 308.579 122.384C308.056 122.527 307.609 122.769 307.295 123.08C306.98 123.391 306.813 123.756 306.812 124.13C306.813 124.631 307.114 125.111 307.65 125.465C308.186 125.82 308.912 126.019 309.67 126.02Z" fill="#231F20"/>
<path d="M309.67 151.02C310.236 151.02 310.79 150.91 311.261 150.702C311.731 150.495 312.099 150.2 312.316 149.855C312.533 149.509 312.59 149.129 312.48 148.763C312.37 148.396 312.097 148.059 311.697 147.794C311.297 147.53 310.788 147.35 310.233 147.276C309.678 147.203 309.102 147.241 308.579 147.384C308.056 147.527 307.609 147.769 307.295 148.08C306.98 148.391 306.813 148.756 306.812 149.13C306.813 149.631 307.114 150.111 307.65 150.465C308.186 150.82 308.912 151.019 309.67 151.02Z" fill="#231F20"/>
<path d="M54.4541 77.2301V79.13H58.0869V80.3H54.4541V83.4301H52.291V76.01H58.2988V77.2301H54.4541Z" fill="#00BBFF"/>
<g filter="url(#filter1_d_55_1114)">
<mask id="path-57-inside-2_55_1114" fill="white">
<path d="M307.893 161H52.0801V161H307.893V161Z"/>
</mask>
<path d="M307.893 161H52.0801V161H307.893V161Z" fill="#231F20"/>
<path d="M307.893 160.7H52.0801V161.3H307.893V160.7ZM52.0801 161.3H307.893V160.7H52.0801V161.3Z" fill="black" mask="url(#path-57-inside-2_55_1114)"/>
</g>
<path d="M59.8754 105.18C58.9384 105.407 57.9476 105.522 56.9495 105.52C56.1894 105.558 55.4264 105.479 54.7199 105.29C54.0134 105.101 53.3825 104.806 52.8762 104.43C52.0784 103.714 51.682 102.838 51.7545 101.95C51.6665 100.908 52.1677 99.8816 53.1608 99.07C53.6902 98.6843 54.3444 98.3825 55.0748 98.1869C55.8051 97.9912 56.5929 97.9068 57.3794 97.94C58.1912 97.9346 58.9997 98.0087 59.7786 98.16L59.4758 99.4801C58.7762 99.3013 58.0311 99.213 57.281 99.2201C56.8306 99.2029 56.3805 99.2575 55.9688 99.3794C55.557 99.5012 55.1956 99.6866 54.9151 99.92C54.3574 100.442 54.0822 101.072 54.134 101.71C54.134 103.39 55.2269 104.22 57.4112 104.22C58.148 104.228 58.8774 104.122 59.5409 103.91L59.8754 105.18ZM68.3309 100.91L68.0796 102.48H69.4132V103.47H67.9162L67.6134 105.43H65.9136L66.2299 103.47H64.0381L63.7217 105.43H62.0219L62.3397 103.47H61.0228V102.48H62.485L62.7545 100.91H61.4209V99.93H62.8998L63.2026 98.01H64.9024L64.5845 99.93H66.7885L67.1048 98.01H68.7956L68.4929 99.93H69.8022V100.91H68.3309ZM64.4528 100.91L64.1849 102.48H66.3798L66.6326 100.91H64.4528Z" fill="#FF0040"/>
<path d="M56.2262 73.66C56.4593 73.6983 56.7024 73.7017 56.9377 73.67C57.1711 73.6396 57.3946 73.582 57.5976 73.4999C58.3274 73.0306 58.9528 72.4953 59.4549 71.91C59.9226 71.46 58.0199 71.41 57.6022 71.81C57.4508 71.95 57.3146 72.0999 57.1708 72.2499C56.9426 71.4699 56.9624 70.6671 57.229 69.8924C57.4955 69.1177 58.0031 68.3881 58.7193 67.7499C61.1896 65.2399 66.4527 63.46 72.0397 62.44L70.8787 63.32C70.4731 63.63 72.1275 63.96 72.5317 63.65L74.6508 62.04C74.9884 61.79 74.0453 61.6301 73.6699 61.6101L69.9735 61.35C69.6572 61.32 69.1652 61.41 69.2666 61.59C69.3681 61.77 69.8721 61.86 70.2929 61.89L72.1093 62.02C62.5413 64.02 54.2963 68.48 55.6616 72.77C55.1106 72.66 54.5758 72.54 54.0571 72.41C53.8334 72.3521 53.5929 72.3282 53.3533 72.34C53.1149 72.3497 52.8819 72.3905 52.6676 72.46C52.2952 72.59 52.1907 72.82 52.5601 72.91C53.7551 73.2143 54.98 73.4649 56.2262 73.66Z" fill="#00AEEF" stroke="#707070" stroke-width="0.3"/>
<path d="M100.23 9H295.463C297.248 8.99935 299.016 9.23045 300.667 9.68006C302.313 10.1371 303.81 10.7991 305.078 11.63C306.339 12.4672 307.34 13.4591 308.025 14.5501C308.708 15.6372 309.06 16.8027 309.06 17.98V34.15H100.23C95.1821 34.15 90.3406 32.8252 86.7709 30.4669C83.2012 28.1087 81.1958 24.91 81.1958 21.575C81.1958 18.2399 83.2012 15.0414 86.7709 12.6831C90.3406 10.3248 95.1821 9 100.23 9Z" fill="#00AEEF"/>
<path d="M181.823 22.51C181.374 22.5114 180.929 22.4606 180.507 22.36C180.112 22.2635 179.762 22.1017 179.488 21.89C179.22 21.6695 179.08 21.3927 179.095 21.11C179.139 20.8956 179.246 20.689 179.411 20.502C179.575 20.3149 179.794 20.1512 180.055 20.02C181.019 19.4626 182.076 18.9795 183.206 18.58L183.524 19.72C183.031 19.9 182.579 20.08 182.162 20.25C181.825 20.3909 181.501 20.5445 181.191 20.71C180.948 20.85 180.825 20.95 180.825 21.02C180.825 21.13 180.931 21.22 181.143 21.3C181.387 21.3805 181.658 21.4183 181.93 21.41C182.301 21.4016 182.663 21.3365 182.99 21.22C183.394 21.0625 183.712 20.8245 183.898 20.54L184.387 21.76C184.092 22.0103 183.7 22.2037 183.253 22.3199C182.798 22.4413 182.313 22.5058 181.823 22.51ZM186.762 23.0601C186.321 23.0598 185.883 23.0125 185.465 22.92C185.034 22.81 184.658 22.623 184.379 22.38C184.019 22.0502 183.775 21.6707 183.668 21.27C183.51 20.812 183.398 20.3477 183.332 19.88C183.261 19.39 183.18 18.9 183.082 18.42C183.255 18.2962 183.448 18.1854 183.659 18.09C183.937 17.9492 184.263 17.8564 184.609 17.8199C184.744 18.6499 184.862 19.34 184.965 19.88C185.041 20.3052 185.163 20.7263 185.33 21.14C185.417 21.3805 185.607 21.5992 185.878 21.77C186.132 21.8963 186.444 21.9599 186.762 21.95H186.954V23.0601H186.762ZM182.601 18.1C182.268 17.9433 181.95 17.7729 181.65 17.59C181.463 17.4885 181.298 17.3708 181.16 17.24L182.39 16.34L183.955 17.1899C183.715 17.4155 183.438 17.6235 183.13 17.8101C182.973 17.9211 182.795 18.0185 182.601 18.1ZM180.439 18.21C180.112 18.0545 179.798 17.8876 179.498 17.71C179.304 17.6041 179.135 17.4793 178.998 17.34L180.229 16.45L181.794 17.3101C181.523 17.5454 181.225 17.7661 180.901 17.97C180.766 18.0644 180.609 18.1453 180.439 18.21ZM186.579 23.0601V21.95H186.771C187.324 21.9519 187.873 21.8911 188.395 21.77C188.914 21.65 189.468 21.51 190.06 21.34C190.742 21.1502 191.442 20.9899 192.155 20.86C191.78 20.6837 191.373 20.5393 190.944 20.4301C190.663 20.366 190.368 20.3322 190.071 20.33C189.722 20.3332 189.378 20.3843 189.061 20.48C188.687 20.5904 188.327 20.7209 187.985 20.87C187.857 20.8349 187.735 20.7913 187.62 20.74C187.497 20.686 187.39 20.6183 187.302 20.54C187.717 20.1059 188.272 19.7372 188.926 19.46C189.391 19.2458 189.936 19.1212 190.502 19.1C190.957 19.0939 191.405 19.1699 191.799 19.3199C192.208 19.4715 192.597 19.6455 192.962 19.84C193.37 20.0503 193.8 20.2408 194.25 20.41C194.777 20.5988 195.349 20.7273 195.941 20.79C195.887 20.961 195.81 21.1283 195.711 21.29C195.63 21.4502 195.506 21.5993 195.344 21.73C194.966 21.6724 194.58 21.6423 194.192 21.64C193.567 21.6426 192.947 21.7135 192.356 21.85C191.722 21.9951 191.101 22.162 190.493 22.35C189.871 22.54 189.253 22.7 188.639 22.85C188.062 22.9862 187.455 23.0573 186.842 23.0601H186.582H186.579ZM196.197 23.0601C195.205 23.108 194.212 22.9802 193.321 22.6899C192.75 22.4619 192.337 22.0961 192.169 21.67L193.725 21.5699C193.776 21.6799 193.949 21.7599 194.244 21.8199C194.575 21.8749 194.912 21.9118 195.252 21.9301C195.624 21.9401 195.938 21.95 196.194 21.95H196.463V23.0601H196.197ZM190.47 24.97C190.125 24.8024 189.795 24.6222 189.48 24.4301C189.284 24.326 189.11 24.2048 188.963 24.0699L190.24 23.0601L191.883 23.95C191.46 24.3 191.136 24.55 190.912 24.71C190.785 24.8106 190.636 24.8982 190.47 24.97ZM201.107 23.26C200.647 23.2682 200.19 23.2066 199.772 23.08C199.438 22.9801 199.132 22.8451 198.864 22.6801C198.658 22.5431 198.468 22.396 198.296 22.24L198.97 21.11C199.036 21.3256 199.188 21.5257 199.41 21.6899C199.63 21.8374 199.886 21.9593 200.167 22.05C200.414 22.1249 200.682 22.1657 200.954 22.17C201.306 22.1801 201.654 22.1209 201.955 22C202.089 21.9289 202.195 21.8369 202.262 21.7322C202.329 21.6274 202.355 21.5133 202.339 21.4C202.359 21.2406 202.329 21.0801 202.251 20.9287C202.173 20.7773 202.048 20.6381 201.885 20.52C201.742 20.425 201.571 20.3503 201.382 20.3004C201.194 20.2506 200.992 20.2265 200.789 20.23C200.608 20.2202 200.425 20.2355 200.253 20.2751C200.081 20.3148 199.923 20.3777 199.79 20.46C199.544 20.6315 199.38 20.8472 199.319 21.08C199.239 21.3668 199.2 21.6582 199.204 21.95C199.165 22.1365 199.057 22.3139 198.892 22.4672C198.726 22.6204 198.506 22.7448 198.252 22.83C197.642 23.0073 196.977 23.0863 196.312 23.0601H196.101V21.95H196.293C196.665 21.9711 197.039 21.937 197.388 21.85C197.568 21.78 197.657 21.7 197.657 21.61V21.51C197.657 21.48 197.657 21.44 197.666 21.38C197.698 21.21 197.74 21.03 197.792 20.84C197.857 20.6392 197.958 20.4445 198.095 20.26C198.331 19.8942 198.752 19.5939 199.286 19.41C199.761 19.2466 200.287 19.1577 200.822 19.15C201.238 19.1442 201.651 19.1933 202.037 19.2947C202.424 19.396 202.775 19.5474 203.072 19.74C203.387 19.9648 203.631 20.2297 203.787 20.5184C203.943 20.8072 204.009 21.114 203.98 21.42C204.001 21.7816 203.849 22.1382 203.547 22.4399C203.273 22.7055 202.894 22.9166 202.451 23.05C202.034 23.1875 201.574 23.2594 201.107 23.26ZM203.412 27.42C203.146 27.3069 202.925 27.1523 202.769 26.97C202.594 26.7653 202.498 26.5352 202.49 26.3C203.176 26.1418 203.816 25.9085 204.384 25.61C204.945 25.3049 205.384 24.9134 205.662 24.47C206.003 23.9114 206.163 23.3119 206.132 22.71C206.137 22.3487 206.101 21.9878 206.026 21.63C205.955 21.3 205.886 20.96 205.815 20.61C206.087 20.5248 206.37 20.4546 206.661 20.4C206.965 20.328 207.281 20.281 207.602 20.26C207.807 20.6987 208.105 21.1161 208.486 21.5C208.661 21.6526 208.892 21.7738 209.156 21.8524C209.421 21.931 209.711 21.9645 210 21.95H210.192V23.0601H210C209.539 23.0698 209.081 23.0152 208.654 22.9C208.314 22.8035 208.006 22.6642 207.746 22.49C207.758 22.59 207.769 22.67 207.775 22.75C207.781 22.83 207.784 22.93 207.784 23.05C207.817 23.9781 207.425 24.8912 206.661 25.67C205.847 26.4428 204.722 27.0491 203.412 27.42ZM209.812 23.0601V21.95H210.004C210.412 21.973 210.821 21.9138 211.176 21.78C211.389 21.6939 211.559 21.5689 211.666 21.42C211.719 21.3467 211.757 21.2694 211.781 21.1899C211.775 21.1195 211.762 21.0494 211.744 20.98C211.718 20.87 211.69 20.76 211.657 20.65C211.639 20.5839 211.626 20.517 211.618 20.45C211.887 20.3797 212.163 20.3229 212.444 20.28C212.768 20.2248 213.1 20.1945 213.434 20.1899C213.562 20.5719 213.762 20.9416 214.031 21.29C214.187 21.5047 214.434 21.6853 214.741 21.8101C214.996 21.9054 215.285 21.9536 215.578 21.95H215.77V23.0601H215.578C215.049 23.0622 214.525 22.9906 214.04 22.85C213.526 22.6893 213.099 22.4273 212.82 22.1C212.597 22.4323 212.192 22.6967 211.686 22.84C211.155 22.9907 210.582 23.0658 210.004 23.0601H209.812ZM212.8 25.42C212.455 25.2558 212.125 25.0788 211.81 24.89C211.608 24.7861 211.434 24.6611 211.293 24.52L212.57 23.52L214.212 24.41C213.791 24.76 213.467 25.01 213.242 25.16C213.024 25.32 212.877 25.41 212.8 25.42ZM215.386 23.0601V21.95H215.578C216.023 21.9637 216.468 21.9265 216.893 21.84C217.013 21.8124 217.121 21.7676 217.211 21.7087C217.301 21.6499 217.37 21.5786 217.412 21.5C217.494 21.3389 217.533 21.1698 217.527 21C217.527 20.86 217.518 20.6299 217.499 20.3199C217.479 20.0099 217.464 19.67 217.432 19.29C217.4 18.91 217.381 18.52 217.355 18.16C217.329 17.78 217.303 17.4601 217.278 17.1801C217.252 16.9001 217.243 16.71 217.229 16.62C217.407 16.4299 217.672 16.2825 217.986 16.2C218.356 16.0655 218.765 15.9837 219.186 15.96C219.214 16.079 219.228 16.1994 219.226 16.3199C219.226 16.5099 219.235 16.7199 219.235 16.9399V17.55C219.235 18.07 219.235 18.63 219.255 19.24C219.274 19.85 219.283 20.52 219.283 21.29C219.286 21.5999 219.16 21.9044 218.919 22.17C218.633 22.4605 218.221 22.687 217.736 22.8199C217.048 22.997 216.313 23.0788 215.575 23.0601H215.386ZM221.15 23.4C221.15 23.26 221.16 23.11 221.16 22.95C221.16 22.79 221.169 22.6 221.169 22.42C221.169 21.98 221.16 21.52 221.141 21.01C221.121 20.5 221.095 20 221.063 19.5C221.032 19 221.009 18.54 220.977 18.12C220.945 17.7 220.92 17.35 220.9 17.08C220.88 16.81 220.871 16.66 220.871 16.62C220.912 16.5358 220.979 16.4579 221.066 16.3909C221.154 16.3239 221.261 16.2692 221.381 16.23C221.844 16.0673 222.343 15.9558 222.86 15.9C222.879 15.9929 222.888 16.0864 222.889 16.1801C222.889 16.3101 222.9 16.44 222.9 16.58C222.9 16.7 222.909 16.78 222.909 16.8C222.909 17.02 222.909 17.32 222.9 17.72C222.89 18.12 222.892 18.56 222.88 19.05C222.868 19.54 222.863 20.0501 222.851 20.5601C222.839 21.0701 222.822 21.53 222.803 21.96C222.783 22.39 222.765 22.74 222.745 23.01C222.554 23.1459 222.301 23.2371 222.025 23.27C221.739 23.3295 221.446 23.373 221.15 23.4Z" fill="white"/>
<path d="M61.6168 55.5901C61.6648 56.1256 61.5354 56.6616 61.2377 57.1608C60.9399 57.6599 60.4809 58.1102 59.8927 58.4801C58.6472 59.1739 57.0482 59.5279 55.4213 59.4701C54.9173 59.4701 53.8743 59.46 52.291 59.42V52.02C53.7593 51.98 54.9702 51.9601 55.9239 51.9601C59.7192 51.9601 61.6168 53.1701 61.6168 55.5901ZM59.2827 55.7001C59.2827 54.0101 58.1126 53.16 55.771 53.16C55.2452 53.16 54.8062 53.1701 54.4541 53.1901V58.2001C54.8467 58.2393 55.2438 58.2559 55.6408 58.25C56.1154 58.2683 56.5907 58.2238 57.0388 58.119C57.4869 58.0143 57.8989 57.8514 58.2504 57.64C58.6131 57.38 58.8917 57.0739 59.0692 56.7404C59.2467 56.4068 59.3194 56.0528 59.2827 55.7001ZM69.7377 59.4301L68.9809 57.91H64.7199L63.9312 59.4301H61.7531L65.6311 52.01H68.1832L72.143 59.4301H69.7377ZM67.275 54.5701C67.0797 54.1801 66.9314 53.84 66.8284 53.54H66.8118C66.6332 53.98 66.4864 54.3301 66.3728 54.5701L65.2255 56.78H68.4208L67.275 54.5701ZM78.6973 59.4301L75.6699 56.3601H75.4822V59.4301H73.3206V52.01C74.1062 51.97 75.1825 51.9601 76.5478 51.9601C79.2725 51.9601 80.6348 52.66 80.6348 54.05C80.6519 54.561 80.3662 55.0562 79.8386 55.4301C79.322 55.8025 78.6272 56.0461 77.8708 56.12C78.2926 56.49 78.5953 56.7601 78.779 56.9301L81.3886 59.4301H78.6973ZM78.3642 54.1901C78.3642 53.4801 77.6876 53.12 76.3314 53.12C76.0457 53.1201 75.7604 53.1335 75.4776 53.16V55.3101C75.679 55.3201 75.9318 55.3301 76.2587 55.3301C76.8098 55.3477 77.353 55.238 77.7951 55.02C77.9821 54.921 78.1312 54.7942 78.2301 54.65C78.329 54.5058 78.3749 54.3482 78.3642 54.1901ZM86.5033 53.2301V59.4301H84.3327V53.2301H81.4219V52.01H89.4126V53.2301H86.5033Z" fill="#FF0040"/>
<path d="M60.0303 83.4301V76.01H62.1933V82.1801H65.8443V83.4301H60.0303ZM75.7227 80.55C75.7227 82.55 74.1696 83.55 71.0635 83.55C68.1633 83.55 66.7132 82.6501 66.7132 80.8601V76.01H68.8823V80.77C68.8376 81.1777 69.0041 81.5832 69.3546 81.92C69.5963 82.0798 69.8887 82.2021 70.2107 82.2782C70.5326 82.3543 70.8761 82.3823 71.2164 82.3601C71.5416 82.3811 71.8699 82.3573 72.1805 82.2902C72.4911 82.223 72.7772 82.114 73.0207 81.9701C73.451 81.5881 73.6511 81.114 73.5823 80.64V76.01H75.7287L75.7227 80.55ZM82.2754 77.2301V83.4301H80.1048V77.2301H77.194V76.01H85.1862V77.2301H82.2754ZM91.0881 77.2301V83.4301H88.9175V77.2301H86.0066V76.01H93.9989V77.2301H91.0881ZM95.4127 83.4301V76.01H101.526V77.2001H97.5757V79.03H101.324V80.2001H97.5757V82.2001H101.526V83.4301H95.4127ZM109.007 83.4301L105.98 80.3601H105.794V83.4301H103.63V76.01C104.416 75.97 105.492 75.9601 106.858 75.9601C109.582 75.9601 110.945 76.66 110.945 78.05C110.961 78.5612 110.675 79.0563 110.147 79.4301C109.631 79.8029 108.936 80.0465 108.179 80.12C108.602 80.49 108.905 80.7601 109.087 80.9301L111.697 83.4301H109.007ZM108.674 78.1901C108.674 77.4801 107.996 77.12 106.641 77.12C106.356 77.12 106.07 77.1334 105.787 77.16V79.3101C105.987 79.3201 106.242 79.3301 106.567 79.3301C107.119 79.3477 107.662 79.238 108.105 79.02C108.292 78.9209 108.441 78.7941 108.539 78.6499C108.638 78.5057 108.684 78.3482 108.674 78.1901Z" fill="#FF0040"/>
<path d="M57.5837 128.43H55.0876L51.1763 121.01H53.5422L55.7219 125.35C56.014 125.92 56.2305 126.39 56.3713 126.78H56.4045C56.5726 126.34 56.7996 125.83 57.0872 125.26L59.2987 121.01H61.5344L57.5837 128.43ZM64.5466 121.3C64.5491 121.413 64.5156 121.524 64.4483 121.628C64.381 121.731 64.2814 121.824 64.1561 121.9C64.0324 121.981 63.8851 122.045 63.7231 122.088C63.5611 122.131 63.3876 122.152 63.2131 122.15C63.0397 122.153 62.8673 122.133 62.7065 122.09C62.5458 122.047 62.4003 121.982 62.2792 121.9C62.1545 121.824 62.0559 121.731 61.9899 121.627C61.9238 121.524 61.8919 121.412 61.8962 121.3C61.8934 121.188 61.9261 121.077 61.992 120.973C62.0579 120.87 62.1557 120.777 62.2792 120.7C62.3995 120.617 62.5445 120.551 62.7052 120.506C62.8658 120.461 63.0387 120.439 63.2131 120.44C63.5648 120.439 63.9034 120.528 64.1561 120.69C64.2809 120.769 64.3796 120.863 64.4461 120.968C64.5125 121.073 64.5452 121.186 64.5421 121.3H64.5466ZM62.149 128.43V122.96H64.2787V128.43H62.149ZM71.6776 126.73C71.6862 126.986 71.5993 127.239 71.4249 127.468C71.2504 127.696 70.9936 127.893 70.6771 128.04C69.9032 128.393 68.9753 128.569 68.0357 128.54C67.4111 128.546 66.7879 128.499 66.1814 128.4L66.3328 127.22C66.8907 127.375 67.4915 127.449 68.0962 127.44C68.9863 127.44 69.4298 127.24 69.4298 126.85C69.4254 126.742 69.3731 126.637 69.2792 126.548C69.1853 126.459 69.054 126.39 68.9015 126.35C68.8698 126.34 68.4838 126.24 67.7481 126.05C67.2615 125.965 66.8317 125.776 66.5268 125.511C66.2219 125.247 66.0594 124.923 66.0649 124.59C66.0546 124.354 66.1262 124.12 66.2742 123.905C66.4222 123.69 66.6426 123.5 66.9186 123.35C67.6878 122.981 68.6278 122.801 69.5766 122.84C70.0795 122.843 70.5806 122.88 71.0722 122.95L70.9753 124.05C70.4888 123.959 69.9856 123.911 69.4798 123.91C68.6654 123.91 68.2597 124.1 68.2597 124.47C68.2693 124.577 68.3248 124.68 68.4197 124.767C68.5146 124.853 68.645 124.921 68.7956 124.96L69.9672 125.27C70.4542 125.356 70.8849 125.546 71.193 125.81C71.5012 126.074 71.6698 126.397 71.6731 126.73H71.6776ZM78.6406 128.43C78.6302 128.102 78.6626 127.774 78.7375 127.45H78.7208C78.4695 127.796 78.0676 128.085 77.5665 128.279C77.0655 128.473 76.4881 128.564 75.9084 128.54C74.2655 128.54 73.4446 127.96 73.4456 126.8V122.96H75.5648V126.46C75.5648 127.06 75.9089 127.36 76.5971 127.36C76.8722 127.356 77.1413 127.307 77.3795 127.216C77.6177 127.125 77.8172 126.996 77.9594 126.84C78.3392 126.476 78.5328 126.042 78.5119 125.6V122.96H80.6417V128.43H78.6406ZM87.4124 128.43C87.4058 128.122 87.4332 127.815 87.4941 127.51L87.4775 127.5C87.2616 127.836 86.8891 128.118 86.4142 128.305C85.9393 128.492 85.3865 128.575 84.8361 128.54C84.5132 128.55 84.1906 128.516 83.8894 128.438C83.5882 128.361 83.3151 128.242 83.0878 128.09C82.8793 127.941 82.7174 127.766 82.6114 127.576C82.5054 127.385 82.4574 127.183 82.4702 126.98C82.4591 126.683 82.5754 126.391 82.8055 126.136C83.0356 125.881 83.3701 125.675 83.7705 125.54C84.8517 125.191 86.0499 125.029 87.2519 125.07V124.87C87.2871 124.61 87.1677 124.352 86.9189 124.15C86.5966 123.977 86.1848 123.895 85.7716 123.92C84.9075 123.929 84.0553 124.055 83.2679 124.29L82.9183 123.21C83.9181 122.96 84.9795 122.834 86.0486 122.84C86.9909 122.779 87.9323 122.962 88.6748 123.35C88.9324 123.543 89.128 123.768 89.2495 124.012C89.3711 124.256 89.416 124.514 89.3817 124.77V127.02C89.3817 127.56 89.4034 128.03 89.4468 128.43H87.4124ZM87.2504 126C85.434 126 84.5182 126.27 84.5182 126.82C84.5132 126.905 84.5343 126.989 84.5804 127.068C84.6265 127.147 84.6965 127.219 84.7861 127.28C84.8837 127.341 84.9988 127.388 85.1247 127.419C85.2506 127.45 85.3846 127.464 85.5188 127.46C85.7618 127.463 86.0022 127.427 86.22 127.355C86.4377 127.284 86.6265 127.179 86.7706 127.05C87.0885 126.794 87.2585 126.471 87.2504 126.14V126ZM91.7915 128.43V120.4H93.9212V128.43H91.7915ZM107.296 126.14C107.308 126.439 107.221 126.735 107.043 127.01C106.864 127.284 106.598 127.53 106.262 127.73C105.272 128.252 104.022 128.509 102.758 128.45L101.369 128.44C100.637 128.43 100.006 128.43 99.4825 128.43V121.02C100.539 120.98 101.783 120.96 103.214 120.96C104.195 120.921 105.17 121.085 106.003 121.43C106.325 121.588 106.582 121.795 106.752 122.034C106.922 122.273 107 122.536 106.978 122.8C107.009 123.161 106.859 123.519 106.552 123.819C106.245 124.119 105.797 124.344 105.278 124.46V124.48C105.852 124.554 106.368 124.76 106.735 125.06C107.105 125.366 107.302 125.748 107.292 126.14H107.296ZM104.678 123.03C104.678 122.41 104.072 122.1 102.861 122.1C102.514 122.1 102.104 122.11 101.65 122.12V124.07C101.829 124.08 102.124 124.08 102.536 124.08C103.961 124.08 104.673 123.73 104.673 123.03H104.678ZM104.98 126.18C104.98 125.5 104.186 125.15 102.598 125.15C102.121 125.15 101.803 125.16 101.647 125.16V127.26C102.183 127.29 102.584 127.3 102.85 127.3C103.419 127.321 103.982 127.212 104.443 126.99C104.619 126.891 104.759 126.766 104.851 126.626C104.943 126.485 104.985 126.333 104.974 126.18H104.98ZM113.663 128.43C113.656 128.122 113.683 127.815 113.744 127.51L113.728 127.5C113.512 127.836 113.139 128.119 112.664 128.306C112.189 128.493 111.636 128.575 111.085 128.54C110.762 128.55 110.44 128.516 110.139 128.438C109.838 128.36 109.565 128.242 109.338 128.09C109.129 127.941 108.967 127.766 108.861 127.576C108.755 127.385 108.707 127.183 108.719 126.98C108.708 126.683 108.825 126.391 109.055 126.136C109.286 125.881 109.62 125.674 110.021 125.54C111.102 125.191 112.3 125.029 113.502 125.07V124.87C113.537 124.61 113.417 124.352 113.168 124.15C112.846 123.977 112.435 123.895 112.022 123.92C111.158 123.929 110.306 124.055 109.518 124.29L109.169 123.21C110.168 122.96 111.23 122.834 112.299 122.84C113.241 122.779 114.183 122.962 114.925 123.35C115.183 123.543 115.378 123.768 115.5 124.012C115.621 124.256 115.666 124.514 115.632 124.77V127.02C115.632 127.56 115.654 128.03 115.697 128.43H113.663ZM113.501 126C111.684 126 110.776 126.27 110.776 126.82C110.771 126.905 110.792 126.989 110.838 127.068C110.884 127.147 110.954 127.219 111.044 127.28C111.142 127.341 111.257 127.388 111.383 127.419C111.509 127.45 111.643 127.464 111.777 127.46C112.02 127.463 112.26 127.427 112.478 127.355C112.696 127.284 112.884 127.179 113.029 127.05C113.346 126.794 113.516 126.471 113.508 126.14L113.501 126ZM123.078 126.73C123.086 126.986 123 127.239 122.825 127.468C122.651 127.696 122.394 127.893 122.077 128.04C121.303 128.393 120.375 128.569 119.436 128.54C118.811 128.546 118.188 128.499 117.582 128.4L117.733 127.22C118.291 127.375 118.893 127.45 119.498 127.44C120.387 127.44 120.83 127.24 120.83 126.85C120.826 126.742 120.773 126.637 120.679 126.548C120.586 126.459 120.454 126.39 120.302 126.35C120.27 126.34 119.886 126.24 119.148 126.05C118.662 125.965 118.232 125.776 117.927 125.511C117.622 125.247 117.46 124.923 117.465 124.59C117.455 124.354 117.526 124.12 117.674 123.905C117.822 123.69 118.043 123.5 118.319 123.35C119.088 122.981 120.028 122.801 120.977 122.84C121.48 122.843 121.981 122.88 122.472 122.95L122.376 124.05C121.889 123.959 121.386 123.911 120.88 123.91C120.067 123.91 119.66 124.1 119.66 124.47C119.67 124.577 119.725 124.68 119.82 124.767C119.915 124.853 120.045 124.921 120.196 124.96L121.367 125.27C121.854 125.357 122.284 125.546 122.592 125.81C122.9 126.074 123.069 126.397 123.072 126.73H123.078ZM127.281 121.3C127.284 121.413 127.25 121.524 127.183 121.628C127.116 121.731 127.016 121.824 126.891 121.9C126.767 121.981 126.62 122.045 126.458 122.088C126.296 122.131 126.122 122.152 125.948 122.15C125.774 122.153 125.601 122.133 125.44 122.09C125.279 122.047 125.134 121.982 125.012 121.9C124.888 121.823 124.79 121.73 124.724 121.627C124.659 121.524 124.627 121.412 124.631 121.3C124.628 121.188 124.661 121.077 124.726 120.974C124.792 120.87 124.889 120.777 125.012 120.7C125.133 120.617 125.278 120.55 125.439 120.506C125.6 120.461 125.773 120.439 125.948 120.44C126.299 120.439 126.638 120.529 126.891 120.69C127.015 120.769 127.114 120.863 127.18 120.968C127.246 121.073 127.279 121.186 127.275 121.3H127.281ZM124.882 128.43V122.96H127.007V128.43H124.882ZM134.777 128.27C134.033 128.451 133.245 128.539 132.452 128.53C129.964 128.53 128.719 127.64 128.719 125.88C128.66 125.105 129.026 124.341 129.752 123.73C130.148 123.437 130.64 123.207 131.191 123.058C131.742 122.909 132.337 122.845 132.93 122.87C133.547 122.865 134.16 122.926 134.747 123.05L134.414 124.26C133.925 124.124 133.4 124.052 132.87 124.05C132.592 124.043 132.316 124.081 132.067 124.161C131.817 124.242 131.601 124.361 131.438 124.51C131.085 124.873 130.914 125.3 130.951 125.73C130.951 126.79 131.595 127.32 132.885 127.32C133.441 127.32 133.992 127.245 134.503 127.1L134.777 128.27Z" fill="#FF0040"/>
<path d="M59.6966 147.25C59.7167 147.599 59.6258 147.946 59.4297 148.27C59.2336 148.594 58.9368 148.887 58.5584 149.13C57.6445 149.665 56.4468 149.938 55.2283 149.89C54.9528 149.89 54.6924 149.88 54.4487 149.87V152.43H52.2856V145.01C53.315 144.97 54.3639 144.96 55.4326 144.96C56.5576 144.913 57.6731 145.121 58.5947 145.55C58.9637 145.758 59.255 146.02 59.4461 146.315C59.6372 146.61 59.7229 146.93 59.6966 147.25ZM57.4534 147.39C57.4534 146.56 56.7313 146.14 55.2903 146.14C55.0088 146.14 54.7287 146.14 54.4532 146.15V148.64C54.7553 148.682 55.0634 148.702 55.3721 148.7C56.7586 148.7 57.4534 148.27 57.4534 147.39ZM65.2988 152.74C64.9577 153.466 64.3516 154.125 63.5338 154.66C62.8545 155.016 62.0025 155.197 61.1362 155.17C60.7456 155.17 60.356 155.143 59.9736 155.09L60.2249 153.88C60.5628 153.955 60.9174 153.992 61.2739 153.99C62.1519 153.99 62.778 153.63 63.1524 152.91L63.4203 152.43L60.3551 146.96H62.7376L63.8517 149.05C64.0954 149.55 64.3058 150.05 64.5011 150.56H64.5177C64.7024 150.07 64.9683 149.49 65.3155 148.82L66.2978 146.96H68.5835L65.2988 152.74ZM74.3809 152.39C73.7933 152.488 73.19 152.538 72.5842 152.54C72.2472 152.564 71.9063 152.543 71.5821 152.478C71.2579 152.413 70.9571 152.304 70.6981 152.16C70.2956 151.767 70.1146 151.293 70.1865 150.82V148.05H68.7561V146.96H70.1865V145.28L72.3057 144.91V146.96H74.3219V148.05H72.3057V150.45C72.2684 150.696 72.3449 150.943 72.5251 151.16C72.6197 151.23 72.7387 151.284 72.8719 151.317C73.005 151.35 73.1484 151.362 73.2895 151.35C73.6102 151.355 73.9306 151.332 74.2417 151.28L74.3809 152.39ZM81.1925 152.43V148.93C81.1925 148.33 80.8484 148.03 80.1602 148.03C79.885 148.033 79.6156 148.083 79.3773 148.174C79.139 148.265 78.9396 148.394 78.7979 148.55C78.417 148.917 78.221 149.355 78.2378 149.8V152.43H76.1065V144.4H78.2378V146.75C78.2482 147.123 78.1975 147.495 78.0864 147.86H78.1182C78.3717 147.535 78.7641 147.266 79.2468 147.086C79.7295 146.907 80.2812 146.825 80.8338 146.85C82.4766 146.85 83.298 147.43 83.298 148.59V152.43H81.1925ZM93.0961 149.59C93.1407 150.373 92.7134 151.135 91.9079 151.71C91.518 151.982 91.0458 152.196 90.5221 152.339C89.9984 152.482 89.4349 152.551 88.8684 152.54C86.283 152.54 84.9903 151.62 84.9903 149.79C84.9444 149.012 85.3649 148.254 86.1604 147.68C86.5526 147.407 87.0278 147.192 87.5548 147.049C88.0818 146.906 88.6486 146.838 89.2181 146.85C89.7336 146.83 90.2499 146.879 90.736 146.995C91.2221 147.11 91.6681 147.288 92.0472 147.52C92.4223 147.801 92.7086 148.13 92.8895 148.485C93.0704 148.84 93.1422 149.216 93.1007 149.59H93.0961ZM90.8998 149.67C90.8998 148.58 90.2943 148.04 89.0712 148.04C88.8258 148.037 88.5824 148.07 88.3579 148.136C88.1334 148.201 87.9331 148.298 87.771 148.42C87.3511 148.768 87.1422 149.206 87.1852 149.65C87.1852 150.78 87.8028 151.34 89.0379 151.34C89.2936 151.345 89.5472 151.309 89.7777 151.236C90.0083 151.163 90.2093 151.055 90.3639 150.92C90.7522 150.556 90.9412 150.115 90.8998 149.67ZM99.7291 152.43V148.93C99.7291 148.33 99.385 148.03 98.6968 148.03C98.4216 148.033 98.1522 148.083 97.9139 148.174C97.6756 148.265 97.4762 148.394 97.3345 148.55C96.9537 148.914 96.7576 149.348 96.7744 149.79V152.43H94.6431V146.96H96.6594C96.6674 147.289 96.6269 147.617 96.5383 147.94H96.5625C96.8156 147.595 97.2179 147.307 97.7185 147.113C98.2191 146.919 98.7955 146.828 99.3749 146.85C101.017 146.85 101.838 147.43 101.839 148.59V152.43H99.7291Z" fill="#FF0040"/>
<path d="M305.554 52.4701H199.362V57.7201H305.55L305.554 52.4701Z" fill="#949598"/>
<path d="M305.554 76.4701H199.362V81.7201H305.55L305.554 76.4701Z" fill="#949598"/>
<path d="M305.554 99.4701H199.362V104.72H305.55L305.554 99.4701Z" fill="#949598"/>
<path d="M305.554 121.47H199.362V126.72H305.55L305.554 121.47Z" fill="#949598"/>
<path d="M305.554 146.47H199.362V151.72H305.55L305.554 146.47Z" fill="#949598"/>
<path d="M260.017 52.4701H199.362V57.7201H260.012L260.017 52.4701Z" fill="#00AEEF"/>
<path d="M270.613 76.4701H199.362V81.7201H270.608L270.613 76.4701Z" fill="#00AEEF"/>
<path d="M251.906 99.4701H199.362V104.72H251.902L251.906 99.4701Z" fill="#00AEEF"/>
<path d="M254.934 121.47H199.362V126.72H254.929L254.934 121.47Z" fill="#00AEEF"/>
<path d="M231.799 146.47H199.362V151.72H231.794L231.799 146.47Z" fill="#00AEEF"/>
<path d="M263.996 51C264.738 50.9995 265.473 51.0956 266.158 51.2828C266.844 51.4701 267.466 51.7449 267.991 52.0913C268.516 52.4378 268.932 52.8492 269.215 53.302C269.499 53.7548 269.645 54.2401 269.644 54.7301V55.4601C269.644 55.9507 269.499 56.4365 269.216 56.89C268.641 57.8042 267.542 58.5306 266.158 58.91C265.474 59.1007 264.739 59.1994 263.996 59.2001C263.402 59.1991 262.815 59.121 262.266 58.9701C261.717 58.8201 261.218 58.5991 260.799 58.3201C260.375 58.0449 260.042 57.7147 259.82 57.3501C259.594 56.9885 259.478 56.6012 259.478 56.2101V53.9801C259.477 53.5882 259.594 53.2001 259.821 52.838C260.048 52.476 260.381 52.1471 260.801 51.8702C261.22 51.5934 261.719 51.3739 262.267 51.2246C262.816 51.0753 263.403 50.999 263.996 51Z" fill="black"/>
<path d="M270.051 75C270.793 74.9995 271.527 75.0956 272.213 75.2828C272.898 75.4701 273.521 75.7449 274.046 76.0913C274.57 76.4378 274.986 76.8492 275.27 77.302C275.554 77.7548 275.699 78.2401 275.699 78.7301V79.4601C275.699 79.9507 275.554 80.4365 275.27 80.89C274.696 81.8042 273.596 82.5306 272.213 82.91C271.528 83.1007 270.794 83.1994 270.051 83.2001C269.457 83.1991 268.869 83.121 268.321 82.9701C267.771 82.8201 267.273 82.5991 266.854 82.3201C266.43 82.0449 266.096 81.7147 265.875 81.3501C265.649 80.9885 265.533 80.6012 265.533 80.2101V77.9801C265.532 77.5882 265.649 77.2001 265.876 76.838C266.103 76.476 266.435 76.1471 266.855 75.8702C267.275 75.5934 267.773 75.3739 268.322 75.2246C268.87 75.0753 269.458 74.999 270.051 75Z" fill="black"/>
<path d="M247.076 98C247.818 97.9995 248.552 98.0956 249.238 98.2828C249.923 98.4701 250.546 98.7449 251.071 99.0913C251.595 99.4378 252.011 99.8492 252.295 100.302C252.578 100.755 252.724 101.24 252.724 101.73V102.46C252.724 102.951 252.579 103.437 252.295 103.89C251.721 104.804 250.621 105.531 249.238 105.91C248.553 106.101 247.818 106.199 247.076 106.2C246.482 106.199 245.894 106.121 245.346 105.97C244.796 105.82 244.298 105.599 243.879 105.32C243.455 105.045 243.121 104.715 242.9 104.35C242.674 103.989 242.558 103.601 242.558 103.21V100.98C242.557 100.588 242.674 100.2 242.9 99.838C243.127 99.476 243.46 99.1471 243.88 98.8702C244.3 98.5934 244.798 98.3739 245.347 98.2246C245.895 98.0753 246.483 97.999 247.076 98Z" fill="black"/>
<path d="M254.914 120C255.656 119.999 256.391 120.096 257.076 120.283C257.762 120.47 258.384 120.745 258.909 121.091C259.434 121.438 259.85 121.849 260.133 122.302C260.417 122.755 260.562 123.24 260.562 123.73V124.46C260.562 124.951 260.417 125.437 260.134 125.89C259.559 126.804 258.46 127.531 257.076 127.91C256.392 128.101 255.657 128.199 254.914 128.2C254.32 128.199 253.732 128.121 253.184 127.97C252.635 127.82 252.136 127.599 251.717 127.32C251.293 127.045 250.96 126.715 250.738 126.35C250.512 125.989 250.396 125.601 250.396 125.21V122.98C250.395 122.588 250.512 122.2 250.739 121.838C250.966 121.476 251.299 121.147 251.718 120.87C252.138 120.593 252.637 120.374 253.185 120.225C253.734 120.075 254.321 119.999 254.914 120Z" fill="black"/>
<path d="M227.668 145C228.41 144.999 229.145 145.096 229.83 145.283C230.516 145.47 231.138 145.745 231.663 146.091C232.187 146.438 232.603 146.849 232.887 147.302C233.171 147.755 233.316 148.24 233.316 148.73V149.46C233.316 149.951 233.171 150.437 232.887 150.89C232.313 151.804 231.214 152.531 229.83 152.91C229.146 153.101 228.411 153.199 227.668 153.2C227.074 153.199 226.486 153.121 225.938 152.97C225.389 152.82 224.89 152.599 224.471 152.32C224.047 152.045 223.713 151.715 223.492 151.35C223.266 150.989 223.15 150.601 223.15 150.21V147.98C223.149 147.588 223.266 147.2 223.493 146.838C223.72 146.476 224.053 146.147 224.472 145.87C224.892 145.593 225.391 145.374 225.939 145.225C226.487 145.075 227.075 144.999 227.668 145Z" fill="black"/>
<path d="M309.672 56.8401C310.238 56.8405 310.791 56.7299 311.262 56.5224C311.733 56.315 312.1 56.02 312.317 55.6747C312.534 55.3293 312.591 54.9492 312.481 54.5825C312.371 54.2157 312.099 53.8789 311.699 53.6144C311.299 53.3498 310.789 53.1696 310.234 53.0965C309.679 53.0234 309.104 53.0607 308.581 53.2037C308.058 53.3467 307.611 53.5889 307.296 53.8998C306.982 54.2106 306.814 54.5762 306.814 54.95C306.814 55.4509 307.116 55.9312 307.651 56.2855C308.187 56.6398 308.914 56.8393 309.672 56.8401Z" fill="#231F20"/>
<path d="M309.672 80.8401C310.238 80.8405 310.791 80.7299 311.262 80.5224C311.733 80.315 312.1 80.02 312.317 79.6747C312.534 79.3293 312.591 78.9492 312.481 78.5825C312.371 78.2157 312.099 77.8789 311.699 77.6144C311.299 77.3498 310.789 77.1696 310.234 77.0965C309.679 77.0234 309.104 77.0607 308.581 77.2037C308.058 77.3467 307.611 77.5889 307.296 77.8998C306.982 78.2106 306.814 78.5762 306.814 78.95C306.814 79.4509 307.116 79.9312 307.651 80.2855C308.187 80.6398 308.914 80.8393 309.672 80.8401Z" fill="#231F20"/>
<path d="M309.672 103.84C310.238 103.84 310.791 103.73 311.262 103.522C311.733 103.315 312.1 103.02 312.317 102.675C312.534 102.329 312.591 101.949 312.481 101.582C312.371 101.216 312.099 100.879 311.699 100.614C311.299 100.35 310.789 100.17 310.234 100.097C309.679 100.023 309.104 100.061 308.581 100.204C308.058 100.347 307.611 100.589 307.296 100.9C306.982 101.211 306.814 101.576 306.814 101.95C306.814 102.451 307.116 102.931 307.651 103.285C308.187 103.64 308.914 103.839 309.672 103.84Z" fill="#231F20"/>
<path d="M309.672 125.84C310.238 125.84 310.791 125.73 311.262 125.522C311.733 125.315 312.1 125.02 312.317 124.675C312.534 124.329 312.591 123.949 312.481 123.582C312.371 123.216 312.099 122.879 311.699 122.614C311.299 122.35 310.789 122.17 310.234 122.097C309.679 122.023 309.104 122.061 308.581 122.204C308.058 122.347 307.611 122.589 307.296 122.9C306.982 123.211 306.814 123.576 306.814 123.95C306.814 124.451 307.116 124.931 307.651 125.285C308.187 125.64 308.914 125.839 309.672 125.84Z" fill="#231F20"/>
<path d="M309.672 150.84C310.238 150.84 310.791 150.73 311.262 150.522C311.733 150.315 312.1 150.02 312.317 149.675C312.534 149.329 312.591 148.949 312.481 148.582C312.371 148.216 312.099 147.879 311.699 147.614C311.299 147.35 310.789 147.17 310.234 147.097C309.679 147.023 309.104 147.061 308.581 147.204C308.058 147.347 307.611 147.589 307.296 147.9C306.982 148.211 306.814 148.576 306.814 148.95C306.814 149.451 307.116 149.931 307.651 150.285C308.187 150.64 308.914 150.839 309.672 150.84Z" fill="#231F20"/>
<path d="M344 44L344 105" stroke="white"/>
<path d="M1 44L0.999979 105" stroke="white"/>
<defs>
<filter id="filter0_d_55_1114" x="48" y="0.700012" width="264" height="8.59998" filterUnits="userSpaceOnUse" color-interpolation-filters="sRGB">
<feFlood flood-opacity="0" result="BackgroundImageFix"/>
<feColorMatrix in="SourceAlpha" type="matrix" values="0 0 0 0 0 0 0 0 0 0 0 0 0 0 0 0 0 0 127 0" result="hardAlpha"/>
<feOffset dy="4"/>
<feGaussianBlur stdDeviation="2"/>
<feComposite in2="hardAlpha" operator="out"/>
<feColorMatrix type="matrix" values="0 0 0 0 0 0 0 0 0 0 0 0 0 0 0 0 0 0 0.25 0"/>
<feBlend mode="normal" in2="BackgroundImageFix" result="effect1_dropShadow_55_1114"/>
<feBlend mode="normal" in="SourceGraphic" in2="effect1_dropShadow_55_1114" result="shape"/>
</filter>
<filter id="filter1_d_55_1114" x="48.0801" y="160.7" width="263.813" height="8.59998" filterUnits="userSpaceOnUse" color-interpolation-filters="sRGB">
<feFlood flood-opacity="0" result="BackgroundImageFix"/>
<feColorMatrix in="SourceAlpha" type="matrix" values="0 0 0 0 0 0 0 0 0 0 0 0 0 0 0 0 0 0 127 0" result="hardAlpha"/>
<feOffset dy="4"/>
<feGaussianBlur stdDeviation="2"/>
<feComposite in2="hardAlpha" operator="out"/>
<feColorMatrix type="matrix" values="0 0 0 0 0 0 0 0 0 0 0 0 0 0 0 0 0 0 0.25 0"/>
<feBlend mode="normal" in2="BackgroundImageFix" result="effect1_dropShadow_55_1114"/>
<feBlend mode="normal" in="SourceGraphic" in2="effect1_dropShadow_55_1114" result="shape"/>
</filter>
</defs>
</svg>
