<svg width="345" height="101" viewBox="0 0 345 101" fill="none" xmlns="http://www.w3.org/2000/svg">
<path d="M214.967 86.3644C214.911 86.1104 214.665 85.9525 214.435 86.0135C214.298 86.0749 214.194 86.1624 214.135 86.2643C214.076 86.3663 214.066 86.4776 214.106 86.5834L214.149 86.7715L214.58 86.6614L214.153 86.7755C214.168 86.8523 214.206 86.9264 214.265 86.9934C214.306 87.0454 214.359 87.1035 214.417 87.1715C214.64 87.4056 214.839 87.6499 215.011 87.9024C215.142 88.1244 215.414 88.1915 215.617 88.0525C215.725 87.9613 215.794 87.853 215.818 87.7384C215.842 87.6242 215.821 87.5078 215.758 87.4005C215.556 87.0921 215.319 86.7946 215.048 86.5104C215.007 86.4654 215.001 86.4874 214.992 86.4804L214.967 86.3644Z" fill="#FFFFFE"/>
<path d="M213.542 87.7584C213.486 88.0124 213.239 88.1704 213.009 88.1094C212.455 87.9684 212.684 87.2844 212.986 86.9534C213.21 86.7193 213.409 86.475 213.581 86.2224C213.711 86.0004 213.984 85.9334 214.187 86.0724C214.294 86.1636 214.364 86.2719 214.388 86.3864C214.412 86.5007 214.391 86.6171 214.327 86.7244C214.146 87.0344 213.571 87.5744 213.536 87.7584H213.542Z" fill="#FFFFFE"/>
<path d="M174.901 80.8077H151.846C150.11 80.8077 148.703 81.7609 148.703 82.9367V95.7107C148.703 96.8865 150.11 97.8397 151.846 97.8397H174.901C176.637 97.8397 178.045 96.8865 178.045 95.7107V82.9367C178.045 81.7609 176.637 80.8077 174.901 80.8077Z" fill="#29B71C"/>
<path d="M172.805 95.001H153.942C153.664 95.001 153.398 94.9262 153.201 94.7931C153.004 94.6601 152.894 94.4795 152.894 94.2913C152.894 94.1031 153.004 93.9226 153.201 93.7895C153.398 93.6565 153.664 93.5817 153.942 93.5817H172.805C173.083 93.5817 173.349 93.6565 173.546 93.7895C173.742 93.9226 173.853 94.1031 173.853 94.2913C173.853 94.4795 173.742 94.6601 173.546 94.7931C173.349 94.9262 173.083 95.001 172.805 95.001Z" fill="#EEEEEE"/>
<path d="M166.518 95.7106C166.24 95.7106 165.974 95.6358 165.777 95.5027C165.581 95.3697 165.47 95.1891 165.47 95.0009V93.5816C165.47 93.3934 165.581 93.2129 165.777 93.0798C165.974 92.9467 166.24 92.8719 166.518 92.8719C166.796 92.8719 167.063 92.9467 167.259 93.0798C167.456 93.2129 167.566 93.3934 167.566 93.5816V95.0009C167.566 95.1891 167.456 95.3697 167.259 95.5027C167.063 95.6358 166.796 95.7106 166.518 95.7106Z" fill="#00AEEF"/>
<path d="M168.038 86.9605L160.702 84.4767C160.543 84.4222 160.365 84.3963 160.187 84.4014C160.008 84.4064 159.835 84.4423 159.682 84.5056C159.53 84.5689 159.404 84.6575 159.317 84.763C159.229 84.8684 159.183 84.9873 159.183 85.1083V90.7005C159.184 90.8269 159.235 90.9508 159.331 91.0593C159.427 91.1679 159.564 91.2571 159.728 91.3179C159.879 91.3796 160.053 91.4115 160.231 91.4101C160.427 91.4105 160.619 91.3736 160.786 91.3037L168.122 88.1953C168.28 88.1283 168.41 88.0338 168.496 87.9214C168.583 87.8091 168.624 87.6832 168.614 87.5566C168.604 87.4317 168.546 87.3107 168.444 87.206C168.343 87.1013 168.203 87.0167 168.038 86.9605Z" fill="#EEEEEE"/>
<path d="M151.846 80.8077C151.013 80.8077 150.213 81.032 149.623 81.4313C149.034 81.8306 148.703 82.3721 148.703 82.9367V95.7107C148.703 96.2753 149.034 96.8168 149.623 97.2161C150.213 97.6153 151.013 97.8397 151.846 97.8397H163.374V80.8077H151.846Z" fill="#E53935"/>
<path d="M153.942 93.5817C153.664 93.5817 153.398 93.6565 153.201 93.7895C153.004 93.9226 152.894 94.1031 152.894 94.2913C152.894 94.4795 153.004 94.6601 153.201 94.7931C153.398 94.9262 153.664 95.001 153.942 95.001H163.373V93.5817H153.942Z" fill="#FAFAFA"/>
<path d="M160.702 84.4767C160.543 84.4222 160.365 84.3963 160.187 84.4014C160.008 84.4064 159.835 84.4423 159.682 84.5056C159.53 84.5689 159.404 84.6575 159.317 84.763C159.229 84.8684 159.183 84.9873 159.183 85.1083V90.7005C159.184 90.8269 159.235 90.9508 159.331 91.0593C159.427 91.1679 159.564 91.2571 159.728 91.3179C159.879 91.3796 160.053 91.4115 160.231 91.4101C160.427 91.4105 160.619 91.3736 160.786 91.3037L163.374 90.2037V85.378L160.702 84.4767Z" fill="#00AEEF"/>
<path d="M208.855 83.2308H212.278L207.388 80V82.2615C207.388 82.7968 208.045 83.2308 208.855 83.2308Z" fill="#00AEEF"/>
<path d="M206.854 81.6154H186.603V87.2692H206.854C207.149 87.2692 207.387 87.1286 207.387 86.9551V81.9294C207.387 81.756 207.148 81.6154 206.854 81.6154Z" fill="#C6CACF"/>
<path d="M205.644 87.2693H183.458C182.993 87.2693 182.761 86.8826 183.089 86.6565L186.889 84.0385L183.089 81.4205C182.761 81.1944 182.993 80.8077 183.458 80.8077H205.644C205.932 80.8077 206.165 80.9685 206.165 81.1667V86.9103C206.165 87.1085 205.932 87.2693 205.644 87.2693Z" fill="#00AEEF"/>
<path d="M194.617 82.9297H192.599C192.32 82.9297 192.094 83.079 192.094 83.263V85.2632C192.094 85.4473 192.32 85.5965 192.599 85.5965C192.878 85.5965 193.103 85.4473 193.103 85.2632V84.5965H194.617C194.896 84.5965 195.122 84.4472 195.122 84.2631V83.263C195.122 83.079 194.896 82.9297 194.617 82.9297ZM194.113 83.9298H193.103V83.5964H194.113V83.9298Z" fill="white"/>
<path d="M197.14 82.9297H196.131C195.852 82.9297 195.626 83.079 195.626 83.263V85.2632C195.626 85.4473 195.852 85.5965 196.131 85.5965H198.149C198.428 85.5965 198.654 85.4473 198.654 85.2632V83.9298C198.654 83.3783 197.975 82.9297 197.14 82.9297ZM197.645 84.9298H196.636V83.5964H197.14C197.418 83.5964 197.645 83.746 197.645 83.9298L197.645 84.9298Z" fill="white"/>
<path d="M201.682 82.9297H199.663C199.385 82.9297 199.159 83.079 199.159 83.263V85.2632C199.159 85.4473 199.385 85.5965 199.663 85.5965C199.942 85.5965 200.168 85.4473 200.168 85.2632V84.5965H201.177C201.456 84.5965 201.682 84.4472 201.682 84.2631C201.682 84.079 201.456 83.9298 201.177 83.9298H200.168V83.5964H201.682C201.96 83.5964 202.186 83.4471 202.186 83.2631C202.186 83.079 201.96 82.9297 201.682 82.9297Z" fill="white"/>
<path d="M206.891 98.5769H191.99C191.716 98.5769 191.494 98.4202 191.494 98.2269V88.4269C191.494 88.2336 191.716 88.0769 191.99 88.0769H206.891C207.165 88.0769 207.387 88.2336 207.387 88.4269V98.2269C207.387 98.4202 207.165 98.5769 206.891 98.5769Z" fill="#C6CACF"/>
<path d="M192.487 97.8769V88.0769H191.99C191.716 88.0769 191.494 88.2336 191.494 88.4269V98.2269C191.494 98.4202 191.716 98.5769 191.99 98.5769H206.891C207.165 98.5769 207.387 98.4202 207.387 98.2269V97.8769H192.487Z" fill="#00AEEF"/>
<path d="M205.695 96.9615H200.522C200.262 96.9615 200.052 96.8065 200.052 96.6154V92.4615C200.052 92.2703 200.262 92.1154 200.522 92.1154H205.695C205.954 92.1154 206.165 92.2704 206.165 92.4615V96.6154C206.165 96.8065 205.954 96.9615 205.695 96.9615Z" fill="black"/>
<path d="M204.942 92.9231H201.274V96.1539H204.942V92.9231Z" fill="#00AEEF"/>
<path d="M205.718 90.2636H200.168C199.889 90.2636 199.663 90.1143 199.663 89.9303C199.663 89.7462 199.889 89.5969 200.168 89.5969H205.718C205.997 89.5969 206.223 89.7462 206.223 89.9303C206.223 90.1144 205.997 90.2636 205.718 90.2636Z" fill="#EF0000"/>
<path d="M205.718 91.5971H200.168C199.889 91.5971 199.663 91.4478 199.663 91.2638C199.663 91.0796 199.889 90.9304 200.168 90.9304H205.718C205.997 90.9304 206.223 91.0797 206.223 91.2638C206.223 91.4478 205.997 91.5971 205.718 91.5971Z" fill="#EF0000"/>
<path d="M198.654 90.2636H193.608C193.329 90.2636 193.103 90.1143 193.103 89.9303C193.103 89.7462 193.329 89.5969 193.608 89.5969H198.654C198.932 89.5969 199.158 89.7462 199.158 89.9303C199.158 90.1144 198.932 90.2636 198.654 90.2636Z" fill="#EF0000"/>
<path d="M198.654 91.5971H193.608C193.329 91.5971 193.103 91.4478 193.103 91.2638C193.103 91.0796 193.329 90.9304 193.608 90.9304H198.654C198.932 90.9304 199.158 91.0797 199.158 91.2638C199.158 91.4478 198.932 91.5971 198.654 91.5971Z" fill="#EF0000"/>
<path d="M198.654 92.9306H193.608C193.329 92.9306 193.103 92.7813 193.103 92.5973C193.103 92.4131 193.329 92.2639 193.608 92.2639H198.654C198.932 92.2639 199.158 92.4132 199.158 92.5973C199.158 92.7813 198.932 92.9306 198.654 92.9306Z" fill="#EF0000"/>
<path d="M198.654 94.264H193.608C193.329 94.264 193.103 94.1147 193.103 93.9306C193.103 93.7466 193.329 93.5973 193.608 93.5973H198.654C198.932 93.5973 199.158 93.7466 199.158 93.9306C199.158 94.1147 198.932 94.264 198.654 94.264Z" fill="#EF0000"/>
<path d="M198.654 95.5974H193.608C193.329 95.5974 193.103 95.4481 193.103 95.264C193.103 95.0799 193.329 94.9307 193.608 94.9307H198.654C198.932 94.9307 199.158 95.0799 199.158 95.264C199.158 95.4481 198.932 95.5974 198.654 95.5974Z" fill="#EF0000"/>
<path d="M198.654 96.9309H193.608C193.329 96.9309 193.103 96.7816 193.103 96.5975C193.103 96.4134 193.329 96.2642 193.608 96.2642H198.654C198.932 96.2642 199.158 96.4134 199.158 96.5975C199.158 96.7816 198.932 96.9309 198.654 96.9309Z" fill="#EF0000"/>
<path d="M116.915 98.1731V100.192H145.035V98.1731L131.039 96.9615L116.915 98.1731Z" fill="#EEEEEE"/>
<path d="M116.915 96.5577V98.577H145.035V96.5577L131.039 95.3462L116.915 96.5577Z" fill="#DCDCDC"/>
<path d="M145.035 81.6154V96.1538H143.201L138.922 88.8846L143.201 81.6154H145.035Z" fill="#EEEEEE"/>
<path d="M143.812 81.6154V82.844L139.382 88.8846L143.812 94.9252V96.1538H116.915V81.6154H143.812Z" fill="white"/>
<path d="M118.139 82.4231V91.6374L130.976 92.9231L143.813 91.6374V82.4231H118.139Z" fill="#29B71C"/>
<path d="M131.586 84.0385V87.2692C132.262 87.2692 132.809 86.546 132.809 85.6539C132.809 84.7618 132.262 84.0385 131.586 84.0385Z" fill="#FE5F1A"/>
<path d="M131.098 84.0385C131.368 84.0385 131.587 84.7617 131.587 85.6538C131.587 86.5459 131.368 87.2692 131.098 87.2692C130.017 87.2692 129.142 86.5459 129.142 85.6538C129.142 84.7617 130.017 84.0385 131.098 84.0385Z" fill="#00AEEF"/>
<path d="M143.812 93.7307L136.477 89.6923L141.93 90.3366L143.813 91.6392L143.812 93.7307Z" fill="#027372"/>
<path d="M140.846 90.5678L137.358 88.8846L132.865 90.5679L130.364 92.2299L136.132 95.3462H143.812V93.1077L140.846 90.5678Z" fill="#E53935"/>
<path d="M142.59 90.4424L141.565 90.5001L137.7 89.3047V87.2693L142.59 90.4424Z" fill="#EEEEEE"/>
<path d="M132.809 90.5001L136.939 87.2693L140.145 90.5L132.809 90.5001Z" fill="white"/>
<path d="M135.254 95.3461H133.019L124.251 89.6923L129.107 90.3643L135.254 95.3461Z" fill="#027372"/>
<path d="M127.536 90.5678L132.81 95.3462H118.139V91.8711L119.992 90.5679L124.239 88.8846L127.536 90.5678Z" fill="#00AEEF"/>
<path d="M129.141 90.4424L128.116 90.5001L124.251 89.3047V87.2693L129.141 90.4424Z" fill="#EEEEEE"/>
<path d="M119.361 90.5001L124.179 87.2693L127.919 90.5L119.361 90.5001Z" fill="white"/>
<path d="M145.77 99.3846C145.501 99.3846 145.282 99.5396 145.282 99.7308V100.308H116.668V99.7308C116.668 99.5396 116.45 99.3846 116.181 99.3846C115.911 99.3846 115.693 99.5396 115.693 99.7308V100.654C115.693 100.845 115.911 101 116.181 101H145.77C146.039 101 146.258 100.845 146.258 100.654V99.7308C146.258 99.5396 146.039 99.3846 145.77 99.3846Z" fill="#00AEEF"/>
<path d="M145.77 96.9615C145.501 96.9615 145.282 97.1165 145.282 97.3077V97.8846H116.668V97.3077C116.668 97.1165 116.45 96.9615 116.181 96.9615C115.911 96.9615 115.693 97.1165 115.693 97.3077V98.2308C115.693 98.422 115.911 98.5769 116.181 98.5769H145.77C146.039 98.5769 146.258 98.422 146.258 98.2308V97.3077C146.258 97.1165 146.039 96.9615 145.77 96.9615Z" fill="#00AEEF"/>
<path d="M145.77 80.8077H116.181C115.911 80.8077 115.693 80.9543 115.693 81.1352V96.6342C115.693 96.815 115.911 96.9616 116.181 96.9616H145.77C146.039 96.9616 146.258 96.815 146.258 96.6342V81.1352C146.258 80.9543 146.039 80.8077 145.77 80.8077ZM145.282 96.3067H116.668V81.4626H145.282V96.3067Z" fill="#00AEEF"/>
<path d="M134.032 85.6538C134.032 84.7632 132.661 84.0385 130.975 84.0385C129.29 84.0385 127.919 84.7632 127.919 85.6538C127.919 86.5445 129.29 87.2692 130.975 87.2692C132.661 87.2692 134.032 86.5445 134.032 85.6538ZM128.884 85.6538C128.884 85.0444 129.822 84.5486 130.975 84.5486C132.129 84.5486 133.067 85.0444 133.067 85.6538C133.067 86.2633 132.129 86.7591 130.975 86.7591C129.822 86.7591 128.884 86.2633 128.884 85.6538Z" fill="black"/>
<path d="M116.915 95.0139C116.915 95.1974 117.145 95.3461 117.429 95.3461H144.52C144.804 95.3461 145.035 95.1974 145.035 95.0139V81.9475C145.035 81.764 144.804 81.6154 144.52 81.6154H117.429C117.145 81.6154 116.915 81.764 116.915 81.9475V84.6051C116.915 84.7886 117.145 84.9373 117.429 84.9373C117.714 84.9373 117.944 84.7886 117.944 84.6051V82.2797H144.006V90.6685L138.111 86.8617C137.91 86.732 137.585 86.732 137.384 86.8617L130.975 91.0006L124.566 86.8616C124.365 86.7319 124.039 86.732 123.838 86.8616L117.944 90.6685V85.9339C117.944 85.7504 117.714 85.6017 117.429 85.6017C117.145 85.6017 116.915 85.7504 116.915 85.9339V95.0139ZM137.748 87.5664L141.221 89.8095H134.274L137.748 87.5664ZM124.202 87.5664L127.676 89.8095H120.729L124.202 87.5664ZM119.7 90.4739H128.704L130.611 91.705C130.612 91.7058 134.04 93.9201 134.04 93.9201C134.141 93.9849 134.273 94.0173 134.404 94.0173C134.536 94.0173 134.667 93.9849 134.768 93.9201C134.969 93.7903 134.969 93.58 134.768 93.4503L131.702 91.4705L133.246 90.4739H142.25L144.006 91.6081V94.6817H117.944V91.6081L119.7 90.4739Z" fill="black"/>
<path fill-rule="evenodd" clip-rule="evenodd" d="M102.326 84.0648C102.489 84.0648 102.622 84.207 102.622 84.3806V90.3172H102.032V84.3806C102.032 84.2046 102.164 84.0648 102.326 84.0648Z" fill="#FFFFFE"/>
<g filter="url(#filter0_d_55_1129)">
<mask id="path-49-inside-1_55_1129" fill="white">
<path d="M308 1H52V1H308V1Z"/>
</mask>
<path d="M308 1H52V1H308V1Z" fill="#231F20"/>
<path d="M308 0.7H52V1.3H308V0.7ZM52 1.3H308V0.7H52V1.3Z" fill="black" mask="url(#path-49-inside-1_55_1129)"/>
</g>
<g filter="url(#filter1_d_55_1129)">
<mask id="path-51-inside-2_55_1129" fill="white">
<path d="M308 80H52V80H308V80Z"/>
</mask>
<path d="M308 80H52V80H308V80Z" fill="#231F20"/>
<path d="M308 79.7H52V80.3H308V79.7ZM52 80.3H308V79.7H52V80.3Z" fill="black" mask="url(#path-51-inside-2_55_1129)"/>
</g>
<path d="M59.1368 46L58.3724 44.48H54.1113L53.3227 46H51.1445L55.0226 38.58H57.5747L61.5345 46H59.1368ZM56.6725 41.14C56.4772 40.75 56.3289 40.41 56.226 40.11H56.2093C56.0307 40.55 55.8839 40.9 55.7704 41.14L54.6245 43.35H57.8184L56.6725 41.14ZM67.3682 46C67.3675 45.6955 67.4004 45.3913 67.4666 45.09H67.4333C67.2119 45.4183 66.8423 45.6934 66.3753 45.8778C65.9082 46.0622 65.3663 46.1468 64.8237 46.12C64.3888 46.1359 63.9546 46.0813 63.5589 45.9611C63.1632 45.8408 62.8179 45.6586 62.5532 45.4301C62.0093 44.8751 61.7474 44.2201 61.8054 43.5601C61.742 42.7393 62.1581 41.9339 62.9679 41.3101C63.376 41.0187 63.8757 40.7897 64.4319 40.6394C64.9881 40.4891 65.5873 40.421 66.1875 40.4399C66.5382 40.4374 66.8887 40.4508 67.2365 40.48V37.97H69.3557V46H67.3682ZM67.238 41.63C66.8685 41.5813 66.4931 41.5545 66.1164 41.55C64.7278 41.55 64.0341 42.17 64.0351 43.41C64.0351 44.44 64.5089 44.95 65.4579 44.95C65.7298 44.9468 65.9952 44.8949 66.2258 44.7998C66.4564 44.7047 66.6436 44.57 66.7673 44.41C67.0959 44.0301 67.2588 43.5974 67.238 43.16V41.63ZM79.1659 43.16C79.2105 43.9428 78.7831 44.7052 77.9776 45.28C77.5878 45.5518 77.1156 45.766 76.5919 45.9091C76.0681 46.0521 75.5046 46.1206 74.9382 46.11C72.3528 46.11 71.0601 45.19 71.0601 43.36C71.0141 42.5823 71.4346 41.824 72.2302 41.25C72.6223 40.9769 73.0975 40.7618 73.6245 40.6188C74.1515 40.4757 74.7184 40.408 75.2878 40.42C75.8033 40.4003 76.3196 40.4493 76.8057 40.5645C77.2918 40.6796 77.7378 40.8583 78.1169 41.09C78.4904 41.3719 78.7751 41.7001 78.9544 42.0555C79.1338 42.411 79.2041 42.7865 79.1613 43.16H79.1659ZM76.9695 43.24C76.9695 42.15 76.364 41.61 75.141 41.61C74.8953 41.6075 74.6518 41.6402 74.4271 41.7058C74.2023 41.7714 74.0018 41.8683 73.8392 41.99C73.4205 42.338 73.2123 42.7763 73.2549 43.22C73.2549 44.35 73.8725 44.91 75.1077 44.91C75.3633 44.9146 75.6169 44.8788 75.8475 44.8058C76.0781 44.7328 76.279 44.6245 76.4337 44.49C76.8204 44.1252 77.0077 43.6844 76.965 43.24H76.9695ZM88.36 42.99C88.4231 43.8115 88.004 44.6175 87.1899 45.24C86.7655 45.5336 86.2502 45.7633 85.6791 45.9135C85.1081 46.0636 84.4948 46.1306 83.881 46.11C82.8397 46.1158 81.8022 46.0248 80.7992 45.84V37.97H82.9289V40.3199C82.9361 40.6785 82.8926 41.0368 82.7987 41.39H82.8154C83.0291 41.078 83.3837 40.8172 83.8306 40.6436C84.2775 40.4699 84.7947 40.3919 85.3114 40.42C85.7446 40.4054 86.1768 40.4595 86.5718 40.5778C86.9668 40.6961 87.3132 40.8751 87.582 41.1C88.1505 41.6557 88.4227 42.3207 88.3555 42.99H88.36ZM86.1243 43.13C86.1243 42.1 85.6535 41.59 84.7105 41.59C84.4387 41.593 84.1732 41.645 83.9425 41.7401C83.7118 41.8352 83.5247 41.97 83.4012 42.13C83.0714 42.4988 82.9076 42.9219 82.9289 43.35V44.89C83.2892 44.9642 83.6658 44.9979 84.043 44.99C85.4275 44.99 86.1198 44.37 86.1198 43.13H86.1243ZM97.0031 42.75C97.0097 43.0111 96.9824 43.2721 96.9214 43.53H91.8082C91.7669 43.7334 91.798 43.9403 91.8989 44.1343C91.9998 44.3283 92.1678 44.5041 92.3895 44.6477C92.6112 44.7914 92.8805 44.8989 93.1761 44.9618C93.4717 45.0247 93.7854 45.0412 94.0923 45.01C94.9152 45.0057 95.7291 44.897 96.49 44.6899L96.7186 45.76C95.7598 45.9916 94.7469 46.11 93.726 46.11C91.0014 46.11 89.6391 45.1801 89.6391 43.3101C89.5905 42.5653 89.9609 41.835 90.679 41.26C91.032 40.9844 91.4755 40.7655 91.9756 40.62C92.4757 40.4745 93.0195 40.4061 93.5656 40.42C94.052 40.3992 94.5395 40.4493 94.9934 40.5668C95.4472 40.6843 95.8564 40.8663 96.1918 41.1C96.7626 41.5643 97.0503 42.1528 96.9986 42.75H97.0031ZM94.884 42.6C94.9173 41.84 94.4405 41.46 93.4536 41.46C92.4898 41.46 91.9449 41.84 91.8188 42.6H94.884ZM108.438 46L106.016 43.27L103.594 46H101.048L104.625 42.2L101.267 38.58H103.778L106.049 41.15L108.319 38.58H110.782L107.473 42.1899L111.165 46H108.438ZM121.828 42.16C121.876 42.6956 121.746 43.2316 121.448 43.7307C121.151 44.2298 120.692 44.6801 120.104 45.05C118.858 45.744 117.259 46.0981 115.632 46.04C115.128 46.04 114.085 46.03 112.502 45.99V38.59C113.972 38.55 115.183 38.53 116.135 38.53C119.93 38.53 121.828 39.74 121.828 42.16ZM119.495 42.27C119.495 40.58 118.323 39.73 115.982 39.73C115.456 39.73 115.017 39.74 114.665 39.76V44.77C115.058 44.8092 115.455 44.8259 115.852 44.8199C116.326 44.8384 116.801 44.794 117.25 44.6892C117.698 44.5845 118.11 44.4215 118.461 44.21C118.824 43.95 119.103 43.644 119.281 43.3104C119.459 42.9769 119.531 42.6228 119.495 42.27Z" fill="#FF0040"/>
<path d="M54.4541 63.8001V65.7H58.0869V66.8701H54.4541V70.0001H52.291V62.58H58.2988V63.8001H54.4541ZM62.2178 62.8701C62.2202 62.9826 62.1867 63.0942 62.1194 63.1976C62.0521 63.301 61.9525 63.3938 61.8272 63.47C61.7035 63.5514 61.5562 63.6154 61.3942 63.6584C61.2322 63.7013 61.0587 63.7223 60.8842 63.72C60.7108 63.7232 60.5384 63.7026 60.3776 63.6596C60.2169 63.6166 60.0714 63.552 59.9503 63.47C59.8256 63.3937 59.727 63.3008 59.661 63.1973C59.5949 63.0939 59.563 62.9823 59.5673 62.8701C59.5645 62.758 59.5972 62.6467 59.6631 62.5434C59.729 62.4401 59.8268 62.347 59.9503 62.2701C60.0706 62.1867 60.2156 62.1206 60.3763 62.0759C60.5369 62.0311 60.7098 62.0087 60.8842 62.0101C61.2359 62.0089 61.5743 62.0986 61.8272 62.2601C61.9536 62.338 62.054 62.4325 62.1221 62.5375C62.1901 62.6426 62.2242 62.7558 62.2223 62.8701H62.2178ZM59.8201 70.0001V64.5301H61.9498V70.0001H59.8201ZM71.7464 70.59C71.7427 70.8913 71.6274 71.1874 71.4105 71.4523C71.1936 71.7173 70.8817 71.9431 70.5022 72.11C69.5425 72.5634 68.3811 72.7922 67.2023 72.7601C66.2956 72.7928 65.394 72.6503 64.6079 72.35C64.3033 72.2183 64.0556 72.0368 63.889 71.8229C63.7224 71.6091 63.6426 71.3704 63.6573 71.1301C63.6498 70.8483 63.7674 70.5713 63.9955 70.3332C64.2236 70.0951 64.5522 69.9063 64.9409 69.7901C64.6897 69.723 64.4761 69.6062 64.3292 69.4559C64.1824 69.3055 64.1095 69.1288 64.1205 68.95C64.1048 68.7399 64.192 68.5321 64.3693 68.3574C64.5465 68.1826 64.8043 68.0503 65.1044 67.98C64.7038 67.834 64.3751 67.615 64.1575 67.3491C63.9398 67.0831 63.8424 66.7815 63.8768 66.48C63.8655 66.2091 63.9416 65.9397 64.1 65.6898C64.2584 65.4398 64.4955 65.2149 64.7956 65.0301C65.5466 64.5966 66.5243 64.3741 67.5202 64.4101C67.9761 64.4125 68.4297 64.4528 68.8704 64.5301H71.6828V65.6301H70.5476C70.6859 65.7216 70.7941 65.831 70.8652 65.9515C70.9363 66.072 70.9689 66.2008 70.9608 66.33C70.98 66.5951 70.9107 66.8599 70.7576 67.1053C70.6046 67.3507 70.3716 67.5708 70.0753 67.7501C69.3212 68.1423 68.3754 68.3381 67.4173 68.3001C67.1982 68.2992 66.9799 68.2824 66.7664 68.2501C66.6538 68.2745 66.5554 68.3211 66.4842 68.3837C66.413 68.4463 66.3725 68.5218 66.3683 68.6C66.364 68.6574 66.3888 68.7141 66.4387 68.7612C66.4885 68.8082 66.5607 68.843 66.6438 68.86C66.9733 68.9151 67.3121 68.9419 67.6519 68.94L68.9294 68.98C70.8094 69.02 71.7464 69.56 71.7464 70.59ZM69.6272 70.7701C69.6272 70.3201 69.1928 70.0901 68.3255 70.0601L66.5091 70.0301C66.2897 70.1194 66.1063 70.2423 65.9745 70.3886C65.8427 70.5349 65.7664 70.7001 65.7522 70.8701C65.7485 70.9886 65.7904 71.1059 65.874 71.2109C65.9577 71.3158 66.0804 71.405 66.2306 71.47C66.6185 71.6217 67.0654 71.6948 67.5157 71.6801C68.0689 71.6991 68.6181 71.6086 69.0929 71.4201C69.2602 71.3515 69.3983 71.2557 69.4939 71.1419C69.5895 71.0281 69.6396 70.9002 69.6394 70.7701H69.6272ZM68.9279 66.4001C68.9537 66.267 68.9325 66.1317 68.8659 66.0049C68.7994 65.8782 68.6893 65.7633 68.5442 65.6694C68.3992 65.5754 68.2232 65.5048 68.0301 65.4633C67.8369 65.4218 67.6318 65.4105 67.4309 65.4301C67.224 65.4251 67.0177 65.4472 66.8238 65.4953C66.63 65.5434 66.4525 65.6163 66.3017 65.71C66.1656 65.7982 66.059 65.9044 65.9888 66.0215C65.9187 66.1387 65.8866 66.2642 65.8945 66.3901C65.8945 67.0201 66.4077 67.34 67.4309 67.34C68.4284 67.34 68.934 67.0201 68.934 66.4001H68.9279ZM83.367 70.0001V66.5501C83.367 65.9201 83.0385 65.6 82.3831 65.6C82.1221 65.6056 81.8672 65.6531 81.6403 65.7385C81.4135 65.8238 81.2216 65.9445 81.0813 66.09C80.668 66.4636 80.455 66.9175 80.4758 67.3801V70.0001H78.3885V66.5401C78.3885 65.9101 78.063 65.6 77.4136 65.6C77.1474 65.6065 76.8879 65.6565 76.658 65.7455C76.4282 65.8345 76.2354 65.9598 76.0967 66.11C75.6961 66.4795 75.4903 66.9258 75.511 67.3801V70.0001H73.3812V64.5301H75.3914C75.393 64.8579 75.3602 65.1853 75.293 65.5101L75.3096 65.5201C75.5414 65.1759 75.9261 64.8863 76.4127 64.6899C76.8993 64.4934 77.4648 64.3993 78.0343 64.4201C78.5522 64.3814 79.0735 64.4716 79.4961 64.6732C79.9188 64.8747 80.2125 65.1731 80.3199 65.5101C80.548 65.1683 80.9287 64.8807 81.411 64.6858C81.8934 64.491 82.4544 64.3984 83.0188 64.4201C84.6718 64.4201 85.4982 65.03 85.4982 66.24V70.0001H83.367ZM92.1872 70.0001C92.1807 69.6925 92.208 69.385 92.269 69.08L92.2523 69.07C92.0364 69.4063 91.664 69.6884 91.189 69.8754C90.7141 70.0624 90.1614 70.1446 89.6109 70.11C89.288 70.1203 88.9655 70.0856 88.6642 70.0081C88.363 69.9306 88.0899 69.812 87.8626 69.6601C87.6541 69.5111 87.4922 69.3363 87.3862 69.1458C87.2803 68.9553 87.2323 68.7529 87.245 68.5501C87.234 68.2535 87.3502 67.9608 87.5803 67.706C87.8104 67.4512 88.1449 67.2445 88.5453 67.11C89.6266 66.7607 90.8247 66.599 92.0268 66.6401V66.44C92.062 66.1805 91.9425 65.9222 91.6938 65.72C91.3714 65.5473 90.9596 65.4648 90.5464 65.49C89.6823 65.4989 88.8302 65.6249 88.0427 65.86L87.6931 64.7801C88.6929 64.53 89.7543 64.4045 90.8234 64.4101C91.7657 64.3491 92.7072 64.5319 93.4496 64.9201C93.7073 65.1127 93.9028 65.3378 94.0244 65.582C94.1459 65.8261 94.1909 66.084 94.1565 66.34V68.59C94.1565 69.13 94.1782 69.6001 94.2216 70.0001H92.1872ZM92.0253 67.57C90.2089 67.57 89.2931 67.8401 89.2931 68.3901C89.2879 68.4748 89.3092 68.5594 89.3556 68.6385C89.4019 68.7176 89.4723 68.7896 89.5625 68.85C89.6596 68.9111 89.7745 68.9585 89.9002 68.9894C90.0258 69.0204 90.1597 69.0343 90.2936 69.0301C90.5366 69.0326 90.777 68.9967 90.9948 68.9253C91.2126 68.854 91.4014 68.7494 91.5454 68.6201C91.8633 68.3638 92.0334 68.0413 92.0253 67.71V67.57Z" fill="#FF0040"/>
<path d="M100.23 6H295.463C297.248 5.99935 299.016 6.23045 300.667 6.68006C302.313 7.13711 303.81 7.79909 305.078 8.63001C306.339 9.46716 307.34 10.4591 308.025 11.5501C308.708 12.6372 309.06 13.8027 309.06 14.98V31.15H100.23C95.1821 31.15 90.3406 29.8252 86.7709 27.4669C83.2012 25.1087 81.1958 21.91 81.1958 18.575C81.1958 15.2399 83.2012 12.0414 86.7709 9.68311C90.3406 7.32484 95.1821 6 100.23 6Z" fill="#00AEEF"/>
<path d="M133.621 21.11C133.063 21.1376 132.502 21.0908 131.972 20.9723C131.442 20.8537 130.954 20.6659 130.536 20.42C130.187 20.1684 129.916 19.8736 129.74 19.5527C129.563 19.2318 129.485 18.8911 129.508 18.55V16.12C129.508 15.66 129.508 15.24 129.489 14.88C129.492 14.6023 129.463 14.3249 129.402 14.05H131.564V18.33C131.532 18.7609 131.678 19.1894 131.986 19.5699C132.175 19.7337 132.425 19.8623 132.711 19.943C132.998 20.0236 133.311 20.0537 133.621 20.03C133.924 20.053 134.232 20.0226 134.512 19.9418C134.792 19.861 135.034 19.7327 135.215 19.5699C135.523 19.1895 135.67 18.761 135.639 18.33V14.05H137.8C137.746 14.3186 137.717 14.5891 137.714 14.86C137.7 15.21 137.693 15.63 137.694 16.12V18.55C137.718 18.8911 137.639 19.2318 137.463 19.5527C137.286 19.8736 137.016 20.1684 136.667 20.42C136.256 20.6657 135.775 20.8535 135.251 20.9722C134.728 21.0908 134.173 21.1377 133.621 21.11ZM140 21V20.03H141.73V15.03H140V14.05H145.516V15.03H143.785V20.03H145.516V21H140ZM151.54 18.48V17.53H156.838V18.48H151.54ZM167.076 21.11C166.519 21.1376 165.958 21.0907 165.429 20.9722C164.899 20.8536 164.411 20.6659 163.993 20.42C163.644 20.1685 163.373 19.8738 163.196 19.5529C163.019 19.2319 162.94 18.8912 162.964 18.55V16.12C162.964 15.66 162.964 15.24 162.946 14.88C162.948 14.6023 162.919 14.3249 162.858 14.05H165.021V18.33C164.989 18.7609 165.135 19.1894 165.443 19.5699C165.631 19.7338 165.881 19.8624 166.167 19.9431C166.454 20.0238 166.767 20.0538 167.076 20.03C167.38 20.053 167.688 20.0226 167.968 19.9418C168.248 19.861 168.491 19.7327 168.672 19.5699C168.98 19.1894 169.126 18.7609 169.094 18.33V14.05H171.256C171.203 14.3187 171.174 14.5891 171.169 14.86C171.157 15.21 171.151 15.63 171.151 16.12V18.55C171.175 18.8912 171.096 19.2319 170.919 19.5529C170.742 19.8738 170.472 20.1685 170.122 20.42C169.712 20.6658 169.231 20.8538 168.707 20.9724C168.183 21.0911 167.628 21.1378 167.076 21.11ZM179.654 21L174.792 15.72C174.489 15.39 174.238 15.1301 174.035 14.9301C173.832 14.7301 173.663 14.5699 173.516 14.4399C173.369 14.3099 173.213 14.18 173.062 14.05H175.406L180.326 19.4C180.629 19.73 180.875 19.9901 181.064 20.1801C181.254 20.3701 181.411 20.52 181.535 20.63C181.67 20.75 181.811 20.87 181.959 21H179.654ZM172.736 21C172.887 20.86 173.039 20.74 173.169 20.62C173.299 20.5 173.46 20.35 173.64 20.16C173.82 19.97 174.065 19.72 174.36 19.38L176.878 16.49L177.569 18.11L175.041 21H172.736ZM177.925 18.11L177.242 16.49L179.362 14.05H181.706C181.475 14.23 181.235 14.44 180.986 14.67C180.736 14.9 180.418 15.25 180.014 15.72L177.925 18.11ZM187.13 24.92C186.897 24.8105 186.719 24.6571 186.62 24.48C186.478 24.2878 186.384 24.0819 186.341 23.87C187.042 23.7367 187.693 23.5085 188.253 23.2C188.694 22.9242 189.005 22.57 189.148 22.1801C189.322 21.6785 189.402 21.1646 189.387 20.65C189.375 20.1016 189.426 19.5534 189.538 19.01C189.616 18.6414 189.819 18.2892 190.133 17.98C190.407 17.7292 190.779 17.5323 191.209 17.41C191.657 17.2711 192.146 17.1993 192.641 17.2C193.179 17.2013 193.71 17.287 194.188 17.45C194.676 17.6168 195.08 17.8739 195.351 18.1899C195.673 18.5638 195.831 18.9901 195.805 19.42C195.824 19.7734 195.68 20.1221 195.391 20.42C195.124 20.6871 194.752 20.9013 194.315 21.04C193.878 21.1793 193.399 21.2511 192.914 21.25C192.372 21.2501 191.837 21.1644 191.356 21C190.848 20.8265 190.422 20.5635 190.127 20.24L190.799 19.11C190.889 19.4295 191.165 19.713 191.568 19.9C191.925 20.0685 192.35 20.1626 192.788 20.17C193.144 20.1836 193.496 20.1165 193.787 19.98C193.919 19.9119 194.023 19.8233 194.09 19.722C194.157 19.6208 194.185 19.5102 194.171 19.4C194.195 19.0877 194.04 18.781 193.739 18.54C193.598 18.4366 193.424 18.355 193.23 18.3014C193.036 18.2478 192.826 18.2234 192.615 18.23C192.434 18.2202 192.251 18.2355 192.079 18.2751C191.907 18.3148 191.749 18.3777 191.616 18.46C191.37 18.6313 191.206 18.847 191.146 19.08C191.064 19.3668 191.025 19.6581 191.029 19.95C191.029 20.13 191.029 20.32 191.04 20.52C191.05 20.72 191.059 20.9 191.059 21.08C191.083 21.7234 190.889 22.3622 190.492 22.95C190.155 23.4414 189.659 23.8783 189.04 24.23C188.483 24.5458 187.833 24.781 187.13 24.92ZM197.305 21.0601C196.882 21.0675 196.46 21.044 196.045 20.99C195.771 20.9427 195.509 20.8686 195.267 20.77C195.065 20.6679 194.873 20.5576 194.691 20.4399L195.537 19.5C195.682 19.658 195.896 19.7834 196.151 19.86C196.526 19.9309 196.915 19.9613 197.305 19.95H197.497V21.0601H197.305ZM197.122 21.0601V19.95H197.314C197.722 19.9729 198.131 19.9137 198.487 19.78C198.699 19.6936 198.869 19.5686 198.976 19.42C199.028 19.3467 199.067 19.2694 199.091 19.1899C199.084 19.1195 199.072 19.0494 199.053 18.98C199.028 18.87 198.999 18.76 198.967 18.65C198.948 18.5839 198.936 18.517 198.929 18.45C199.197 18.3795 199.473 18.3228 199.754 18.28C200.078 18.2248 200.41 18.1945 200.744 18.1899C200.871 18.5719 201.071 18.9416 201.34 19.29C201.497 19.505 201.744 19.6856 202.052 19.8101C202.306 19.9055 202.595 19.9537 202.887 19.95H203.08V21.0601H202.887C202.358 21.0621 201.834 20.9905 201.349 20.85C200.835 20.6893 200.409 20.4273 200.129 20.1C199.906 20.4323 199.501 20.6967 198.996 20.84C198.465 20.9907 197.892 21.0658 197.314 21.0601H197.122ZM201.148 23.34C200.815 23.1833 200.497 23.013 200.196 22.83C200.007 22.7264 199.843 22.6051 199.707 22.47L200.936 21.58L202.503 22.4301C202.261 22.6524 201.984 22.8569 201.676 23.04C201.518 23.1526 201.34 23.2532 201.148 23.34ZM198.986 23.4399C198.659 23.285 198.344 23.1181 198.045 22.9399C197.856 22.8347 197.688 22.7137 197.545 22.58L198.775 21.6899L200.341 22.54C200.07 22.7785 199.771 23.0025 199.447 23.21C199.313 23.3028 199.158 23.3805 198.986 23.4399ZM207.71 21.26C207.25 21.2681 206.793 21.2065 206.375 21.08C206.042 20.9796 205.735 20.8446 205.467 20.6801C205.261 20.5429 205.071 20.3957 204.899 20.24L205.573 19.11C205.64 19.3257 205.792 19.5258 206.015 19.6899C206.234 19.8378 206.49 19.9597 206.771 20.05C207.019 20.125 207.288 20.1658 207.56 20.17C207.911 20.1799 208.259 20.1207 208.559 20C208.694 19.9289 208.799 19.8369 208.866 19.7322C208.933 19.6274 208.96 19.5133 208.944 19.4C208.964 19.2406 208.934 19.0801 208.855 18.9287C208.777 18.7773 208.653 18.6381 208.489 18.52C208.346 18.4251 208.176 18.3504 207.987 18.3005C207.799 18.2507 207.598 18.2266 207.395 18.23C207.213 18.2203 207.03 18.2358 206.858 18.2754C206.686 18.315 206.528 18.3778 206.394 18.46C206.149 18.6315 205.985 18.8472 205.924 19.08C205.844 19.3669 205.805 19.6582 205.809 19.95C205.769 20.1364 205.662 20.3138 205.497 20.467C205.331 20.6203 205.112 20.7447 204.858 20.83C204.248 21.0072 203.583 21.0862 202.918 21.0601H202.706V19.95H202.898C203.269 19.9712 203.643 19.9371 203.992 19.85C204.172 19.78 204.262 19.7 204.262 19.61V19.51C204.262 19.48 204.262 19.44 204.272 19.38C204.304 19.21 204.345 19.03 204.396 18.84C204.462 18.6393 204.563 18.4446 204.699 18.26C204.925 17.8993 205.351 17.6094 205.89 17.45C206.367 17.2894 206.893 17.2038 207.428 17.2C207.99 17.1944 208.544 17.2876 209.033 17.47C209.512 17.6475 209.905 17.911 210.167 18.23C210.46 18.5959 210.606 19.0059 210.589 19.42C210.61 19.7816 210.459 20.1384 210.156 20.4399C209.882 20.7055 209.504 20.9165 209.062 21.05C208.642 21.1883 208.179 21.2601 207.71 21.26ZM212.274 21.0601C211.849 21.0677 211.424 21.0442 211.007 20.99C210.728 20.9438 210.462 20.8696 210.218 20.77C210.016 20.6679 209.823 20.5576 209.641 20.4399L210.487 19.5C210.635 19.6593 210.852 19.7849 211.111 19.86C211.489 19.9311 211.881 19.9614 212.274 19.95H212.466V21.0601H212.274ZM218.837 21.16C218.093 21.1669 217.351 21.1131 216.627 21C215.941 20.8922 215.276 20.7311 214.647 20.52C214.204 20.7293 213.711 20.8881 213.188 20.99C212.907 21.0313 212.62 21.0549 212.333 21.0601H212.092V19.95H212.293C212.55 19.9611 212.807 19.9336 213.045 19.8695C213.283 19.8054 213.496 19.7064 213.668 19.58C213.622 19.28 213.578 19.06 213.533 18.92C213.488 18.78 213.441 18.6 213.37 18.38C213.593 18.2545 213.839 18.1471 214.101 18.0601C214.383 17.9642 214.683 17.8935 214.994 17.85C215.028 17.9557 215.053 18.0626 215.071 18.17C215.097 18.28 215.121 18.4 215.147 18.54C215.587 18.3044 216.049 18.0873 216.53 17.89C217.038 17.6782 217.58 17.5038 218.145 17.37C218.677 17.2342 219.241 17.1631 219.81 17.16C220.429 17.1424 221.041 17.2468 221.569 17.46C222.011 17.6372 222.368 17.8939 222.597 18.2C222.813 18.4787 222.928 18.7868 222.933 19.1C222.935 19.3455 222.853 19.5882 222.694 19.8101C223.096 19.9241 223.535 19.972 223.971 19.95H224.164V21.0601H223.971C223.511 21.0665 223.051 21.0259 222.609 20.9399C222.264 20.8693 221.941 20.7575 221.657 20.61C221.269 20.7907 220.837 20.9261 220.379 21.01C219.88 21.1118 219.36 21.1624 218.837 21.16ZM218.636 20.04C219.279 20.0623 219.92 19.9763 220.499 19.79C220.701 19.7325 220.873 19.6378 220.996 19.5172C221.119 19.3966 221.186 19.2552 221.191 19.11C221.19 18.9957 221.152 18.8829 221.08 18.7793C221.007 18.6757 220.9 18.5838 220.768 18.51C220.411 18.3257 219.961 18.2365 219.509 18.26C219.109 18.2614 218.714 18.3159 218.347 18.42C217.948 18.5222 217.565 18.6495 217.204 18.8C216.839 18.96 216.512 19.11 216.223 19.26C215.992 19.379 215.771 19.5058 215.56 19.64C216.005 19.7495 216.46 19.8397 216.922 19.91C217.483 20.0017 218.058 20.0454 218.636 20.04ZM223.794 21.0601V19.95H223.987C224.395 19.9731 224.804 19.9139 225.16 19.78C225.372 19.6936 225.541 19.5686 225.649 19.42C225.701 19.3466 225.74 19.2693 225.765 19.1899C225.758 19.1195 225.745 19.0495 225.726 18.98C225.701 18.87 225.672 18.76 225.639 18.65C225.621 18.5839 225.608 18.517 225.602 18.45C225.87 18.3794 226.146 18.3226 226.428 18.28C226.751 18.2248 227.083 18.1945 227.417 18.1899C227.544 18.5719 227.744 18.9416 228.013 19.29C228.169 19.505 228.416 19.6856 228.724 19.8101C228.979 19.9055 229.267 19.9537 229.56 19.95H229.752V21.0601H229.56C229.031 21.0621 228.507 20.9905 228.022 20.85C227.508 20.6893 227.081 20.4273 226.802 20.1C226.58 20.4326 226.174 20.697 225.668 20.84C225.137 20.9908 224.564 21.0659 223.987 21.0601H223.794ZM227.264 17.52C226.925 17.35 226.607 17.19 226.312 17.01C226.123 16.9064 225.958 16.7851 225.823 16.65L227.052 15.76L228.618 16.61C228.369 16.8312 228.093 17.0386 227.792 17.23C227.63 17.3376 227.453 17.4348 227.264 17.52ZM225.102 17.62C224.771 17.4682 224.456 17.3011 224.161 17.12C223.971 17.0143 223.803 16.8934 223.66 16.76L224.89 15.86L226.457 16.72C226.182 16.9563 225.883 17.1802 225.562 17.39C225.427 17.4833 225.269 17.561 225.095 17.62H225.102ZM229.368 21.0601V19.95H229.56C230.005 19.9636 230.451 19.9264 230.877 19.84C230.996 19.8125 231.105 19.7678 231.194 19.709C231.284 19.6501 231.352 19.5787 231.395 19.5C231.476 19.3389 231.515 19.1698 231.51 19C231.51 18.86 231.5 18.6299 231.481 18.3199C231.461 18.0099 231.446 17.67 231.414 17.29C231.382 16.91 231.363 16.52 231.337 16.16C231.311 15.78 231.285 15.4601 231.26 15.1801C231.234 14.9001 231.225 14.71 231.213 14.62C231.39 14.4299 231.656 14.2826 231.97 14.2C232.341 14.0653 232.75 13.9836 233.172 13.96C233.199 14.0791 233.211 14.1995 233.209 14.3199C233.209 14.5099 233.218 14.7199 233.218 14.9399V15.55C233.218 16.07 233.226 16.63 233.238 17.24C233.25 17.85 233.267 18.52 233.267 19.29C233.271 19.6 233.144 19.9046 232.902 20.17C232.616 20.4605 232.204 20.687 231.72 20.8199C231.032 20.997 230.296 21.0788 229.558 21.0601H229.368ZM235.133 21.4C235.139 21.26 235.142 21.11 235.142 20.95C235.142 20.78 235.151 20.6 235.151 20.42C235.151 19.98 235.142 19.52 235.123 19.01C235.103 18.5 235.079 18 235.046 17.5C235.012 17 234.991 16.54 234.959 16.12C234.927 15.7 234.902 15.35 234.884 15.08C234.865 14.81 234.853 14.66 234.853 14.62C234.895 14.5358 234.961 14.4579 235.049 14.3909C235.136 14.3239 235.243 14.2692 235.363 14.23C235.826 14.0673 236.325 13.9558 236.842 13.9C236.861 13.9929 236.87 14.0864 236.871 14.1801C236.879 14.3101 236.882 14.44 236.882 14.58C236.882 14.7 236.891 14.78 236.891 14.8C236.891 15.02 236.891 15.32 236.882 15.72C236.873 16.12 236.882 16.56 236.862 17.05C236.842 17.54 236.847 18.0501 236.833 18.5601C236.82 19.0701 236.804 19.53 236.785 19.96C236.765 20.39 236.747 20.74 236.727 21.01C236.536 21.146 236.283 21.2373 236.007 21.27C235.722 21.3295 235.429 21.373 235.133 21.4ZM245.932 21.22C245.355 21.2318 244.784 21.1494 244.267 20.98C243.839 20.831 243.483 20.6058 243.239 20.33C243.003 20.0705 242.879 19.7728 242.883 19.47C242.894 19.0691 243.085 18.6793 243.431 18.35C243.859 17.9404 244.451 17.6183 245.142 17.42L246.227 18.04C245.734 18.1932 245.292 18.411 244.93 18.6801C244.68 18.8655 244.534 19.102 244.517 19.35C244.506 19.4676 244.537 19.5852 244.609 19.6931C244.681 19.801 244.791 19.8959 244.93 19.97C245.193 20.0986 245.511 20.1687 245.838 20.17C246.161 20.1693 246.475 20.099 246.733 19.97C246.868 19.9009 246.975 19.811 247.045 19.7081C247.116 19.6053 247.146 19.4926 247.135 19.38C247.124 19.1972 247.034 19.0203 246.876 18.87C246.64 18.6362 246.336 18.4357 245.982 18.28C245.418 18.0295 244.815 17.8184 244.185 17.65C244.471 17.3084 244.946 17.0537 245.511 16.9399C246.231 17.1473 246.902 17.4236 247.5 17.76C247.915 17.9908 248.244 18.2816 248.461 18.61C248.638 18.8817 248.73 19.1742 248.731 19.47C248.746 19.8073 248.602 20.1395 248.318 20.42C248.054 20.6771 247.693 20.884 247.27 21.02C246.851 21.1498 246.395 21.2179 245.932 21.22ZM246.615 16.38C246.282 16.2236 245.964 16.0532 245.664 15.87C245.48 15.7664 245.316 15.649 245.174 15.52L246.403 14.62L247.969 15.47C247.729 15.6958 247.452 15.9037 247.143 16.09C246.986 16.2012 246.809 16.2987 246.615 16.38ZM244.453 16.49C244.125 16.335 243.811 16.1681 243.512 15.99C243.317 15.8847 243.148 15.7599 243.012 15.62L244.241 14.73L245.808 15.59C245.537 15.8257 245.238 16.0464 244.913 16.25C244.778 16.3444 244.623 16.4253 244.453 16.49ZM248.104 25.48C247.797 25.3591 247.55 25.1819 247.393 24.97C247.258 24.7991 247.156 24.6177 247.09 24.4301C247.987 24.2456 248.811 23.9313 249.501 23.51C250.046 23.1751 250.455 22.7558 250.692 22.29C250.919 21.8316 251.033 21.3522 251.03 20.87C251.028 20.4919 250.986 20.1143 250.904 19.74C250.822 19.35 250.726 18.98 250.617 18.63C250.846 18.5083 251.111 18.4197 251.395 18.37C251.707 18.3057 252.03 18.2687 252.356 18.26C252.51 18.6839 252.611 19.1153 252.659 19.55C252.722 20.01 252.754 20.44 252.754 20.83C252.752 21.4416 252.602 22.0492 252.312 22.63C252.013 23.2423 251.519 23.805 250.862 24.28C250.093 24.8144 249.149 25.2249 248.103 25.48H248.104ZM258.135 21.0601C257.412 21.086 256.689 21.0074 256.016 20.83C255.583 20.7045 255.218 20.4954 254.969 20.23C254.772 19.9853 254.655 19.7162 254.624 19.4399C254.598 19.2099 254.576 18.91 254.557 18.54C254.537 18.18 254.518 17.79 254.498 17.38C254.478 16.97 254.472 16.5601 254.46 16.1801C254.448 15.8001 254.434 15.4601 254.422 15.1801C254.41 14.9001 254.406 14.71 254.393 14.62C254.489 14.4616 254.666 14.3306 254.893 14.25C255.151 14.1511 255.425 14.0707 255.709 14.01C255.919 13.9613 256.134 13.9245 256.354 13.9C256.366 13.95 256.375 14.04 256.382 14.16C256.39 14.28 256.392 14.41 256.392 14.54C256.392 14.67 256.401 14.75 256.401 14.8C256.401 15.15 256.401 15.55 256.382 15.99C256.364 16.43 256.366 16.88 256.354 17.34C256.342 17.8 256.334 18.22 256.334 18.61C256.288 18.9717 256.408 19.3343 256.679 19.65C256.873 19.7672 257.104 19.8549 257.354 19.9067C257.605 19.9586 257.87 19.9733 258.131 19.95H258.323V21.0601H258.135ZM263.121 24.1899C262.346 24.1996 261.593 24.0217 261.002 23.6899C260.395 23.3309 259.933 22.8771 259.658 22.37C259.337 21.8008 259.177 21.1974 259.187 20.59C259.188 20.1441 259.279 19.7003 259.455 19.27C259.63 18.8441 259.896 18.4367 260.244 18.0601C260.567 17.7153 260.996 17.4188 261.503 17.1899C261.999 16.9674 262.584 16.8489 263.183 16.85C263.463 16.8413 263.742 16.8715 264.003 16.9387C264.264 17.0059 264.5 17.1085 264.697 17.24C264.88 17.3565 265.024 17.4965 265.121 17.6512C265.219 17.806 265.267 17.9724 265.263 18.14C265.256 18.4973 265.115 18.8478 264.852 19.16C264.6 19.4856 264.246 19.772 263.813 20C264.402 19.98 264.873 19.96 265.225 19.96C265.578 19.96 265.982 19.95 266.436 19.95H266.629V21.0601H266.302C265.604 21.0601 265.091 21.06 264.746 21.05C264.4 21.04 264.069 21.03 263.736 21.01C264.248 21.1988 264.663 21.4843 264.927 21.83C265.184 22.1331 265.325 22.4728 265.34 22.8199C265.34 23.0525 265.243 23.2807 265.062 23.48C264.874 23.6915 264.606 23.8673 264.284 23.99C263.932 24.1267 263.529 24.1959 263.121 24.1899ZM257.942 21.0601V19.95H258.786C258.96 19.94 259.136 19.9401 259.316 19.9301C259.496 19.9201 259.722 19.9 259.997 19.88L259.882 20.98C259.555 21.01 259.28 21.03 259.056 21.04C258.749 21.0589 258.443 21.0656 258.135 21.0601H257.942ZM263.034 23.17C263.132 23.1739 263.231 23.1643 263.323 23.142C263.416 23.1196 263.501 23.0849 263.572 23.04C263.643 22.999 263.698 22.948 263.735 22.8909C263.771 22.8337 263.788 22.7719 263.783 22.71C263.749 22.5549 263.671 22.4056 263.553 22.27C263.334 22.0102 263.044 21.7795 262.698 21.59C262.149 21.2948 261.524 21.0679 260.852 20.92L260.766 19.87C261.244 19.8577 261.712 19.7707 262.129 19.616C262.547 19.4613 262.903 19.2433 263.168 18.98C263.388 18.7671 263.511 18.5174 263.524 18.26C263.524 18.01 263.312 17.89 262.89 17.89C262.592 17.8978 262.31 17.98 262.101 18.12C261.827 18.2994 261.602 18.5092 261.438 18.74C261.236 19.0068 261.083 19.2889 260.984 19.58C260.876 19.8747 260.821 20.1768 260.821 20.48C260.818 20.9244 260.921 21.3663 261.123 21.79C261.289 22.1525 261.563 22.4893 261.93 22.78C262.059 22.8952 262.225 22.9899 262.416 23.0574C262.607 23.1248 262.817 23.1633 263.034 23.17ZM271.259 21.26C270.798 21.268 270.341 21.2063 269.922 21.08C269.589 20.9796 269.283 20.8446 269.014 20.6801C268.809 20.5429 268.62 20.3958 268.448 20.24L269.12 19.11C269.187 19.3257 269.34 19.5258 269.562 19.6899C269.781 19.8379 270.037 19.9598 270.319 20.05C270.566 20.125 270.834 20.1658 271.106 20.17C271.457 20.1799 271.805 20.1207 272.105 20C272.24 19.9291 272.346 19.8371 272.413 19.7323C272.48 19.6275 272.506 19.5133 272.49 19.4C272.51 19.2406 272.48 19.0801 272.402 18.9287C272.323 18.7773 272.199 18.6381 272.035 18.52C271.892 18.4251 271.721 18.3505 271.533 18.3007C271.344 18.2508 271.142 18.2267 270.94 18.23C270.758 18.2202 270.575 18.2355 270.403 18.2751C270.231 18.3148 270.074 18.3777 269.941 18.46C269.694 18.6313 269.53 18.847 269.47 19.08C269.389 19.3668 269.351 19.6582 269.355 19.95C269.315 20.1364 269.207 20.3137 269.042 20.4669C268.876 20.6201 268.657 20.7447 268.403 20.83C267.793 21.0073 267.127 21.0863 266.462 21.0601H266.25V19.95H266.442C266.814 19.9711 267.189 19.9369 267.538 19.85C267.717 19.78 267.808 19.7 267.808 19.61V19.51C267.808 19.48 267.808 19.44 267.817 19.38C267.849 19.21 267.891 19.03 267.941 18.84C268.007 18.6395 268.109 18.4448 268.244 18.26C268.481 17.8945 268.901 17.5942 269.435 17.41C269.911 17.2466 270.437 17.1577 270.973 17.15C271.388 17.1442 271.801 17.1935 272.187 17.2948C272.573 17.3961 272.925 17.5475 273.221 17.74C273.536 17.9648 273.78 18.2297 273.936 18.5184C274.092 18.8072 274.158 19.114 274.129 19.42C274.15 19.7815 273.999 20.1381 273.697 20.4399C273.423 20.7053 273.044 20.9163 272.602 21.05C272.185 21.1871 271.727 21.2589 271.262 21.26H271.259Z" fill="white"/>
<path d="M305.554 42.04H199.362V47.29H305.55L305.554 42.04Z" fill="#949598"/>
<path d="M305.554 66.04H199.362V71.29H305.55L305.554 66.04Z" fill="#949598"/>
<path d="M285.749 42.04H199.362V47.29H285.745L285.749 42.04Z" fill="#00AEEF"/>
<path d="M285.749 66.04H199.362V71.29H285.745L285.749 66.04Z" fill="#00AEEF"/>
<path d="M285.188 40.57C285.93 40.5694 286.665 40.6655 287.35 40.8528C288.036 41.04 288.658 41.3148 289.183 41.6613C289.707 42.0077 290.123 42.4192 290.407 42.872C290.691 43.3247 290.836 43.81 290.836 44.3001V45.03C290.836 45.5207 290.691 46.0065 290.407 46.46C289.833 47.3741 288.734 48.1006 287.35 48.48C286.666 48.6707 285.931 48.7693 285.188 48.77C284.594 48.7691 284.006 48.6909 283.458 48.5401C282.909 48.39 282.41 48.169 281.991 47.89C281.567 47.6149 281.233 47.2846 281.012 46.9201C280.785 46.5586 280.669 46.1712 280.67 45.78V43.5501C280.669 43.1582 280.786 42.77 281.013 42.408C281.24 42.0459 281.573 41.7171 281.992 41.4402C282.412 41.1633 282.911 40.9439 283.459 40.7946C284.007 40.6452 284.595 40.5689 285.188 40.57Z" fill="black"/>
<path d="M285.188 64.57C285.93 64.5694 286.665 64.6655 287.35 64.8528C288.036 65.04 288.658 65.3148 289.183 65.6613C289.707 66.0077 290.123 66.4192 290.407 66.872C290.691 67.3247 290.836 67.81 290.836 68.3001V69.03C290.836 69.5207 290.691 70.0065 290.407 70.46C289.833 71.3741 288.734 72.1006 287.35 72.48C286.666 72.6707 285.931 72.7693 285.188 72.77C284.594 72.7691 284.006 72.6909 283.458 72.5401C282.909 72.39 282.41 72.169 281.991 71.89C281.567 71.6149 281.233 71.2846 281.012 70.9201C280.785 70.5586 280.669 70.1712 280.67 69.78V67.5501C280.669 67.1582 280.786 66.77 281.013 66.408C281.24 66.0459 281.573 65.7171 281.992 65.4402C282.412 65.1633 282.911 64.9439 283.459 64.7946C284.007 64.6452 284.595 64.5689 285.188 64.57Z" fill="black"/>
<path d="M309.672 46.41C310.238 46.4104 310.791 46.2998 311.262 46.0924C311.733 45.8849 312.1 45.5899 312.317 45.2446C312.534 44.8993 312.591 44.5192 312.481 44.1524C312.371 43.7857 312.099 43.4488 311.699 43.1843C311.299 42.9198 310.789 42.7396 310.234 42.6665C309.679 42.5934 309.104 42.6307 308.581 42.7737C308.058 42.9166 307.611 43.1588 307.296 43.4697C306.982 43.7806 306.814 44.1461 306.814 44.52C306.814 45.0208 307.116 45.5011 307.651 45.8554C308.187 46.2098 308.914 46.4092 309.672 46.41Z" fill="#231F20"/>
<path d="M309.672 70.41C310.238 70.4104 310.791 70.2998 311.262 70.0924C311.733 69.8849 312.1 69.5899 312.317 69.2446C312.534 68.8993 312.591 68.5192 312.481 68.1524C312.371 67.7857 312.099 67.4488 311.699 67.1843C311.299 66.9198 310.789 66.7396 310.234 66.6665C309.679 66.5934 309.104 66.6307 308.581 66.7737C308.058 66.9166 307.611 67.1588 307.296 67.4697C306.982 67.7806 306.814 68.1461 306.814 68.52C306.814 69.0208 307.116 69.5011 307.651 69.8554C308.187 70.2098 308.914 70.4092 309.672 70.41Z" fill="#231F20"/>
<path d="M344 9L344 70" stroke="white"/>
<path d="M1 9L0.999979 70" stroke="white"/>
<defs>
<filter id="filter0_d_55_1129" x="48" y="0.699951" width="264" height="8.6001" filterUnits="userSpaceOnUse" color-interpolation-filters="sRGB">
<feFlood flood-opacity="0" result="BackgroundImageFix"/>
<feColorMatrix in="SourceAlpha" type="matrix" values="0 0 0 0 0 0 0 0 0 0 0 0 0 0 0 0 0 0 127 0" result="hardAlpha"/>
<feOffset dy="4"/>
<feGaussianBlur stdDeviation="2"/>
<feComposite in2="hardAlpha" operator="out"/>
<feColorMatrix type="matrix" values="0 0 0 0 0 0 0 0 0 0 0 0 0 0 0 0 0 0 0.25 0"/>
<feBlend mode="normal" in2="BackgroundImageFix" result="effect1_dropShadow_55_1129"/>
<feBlend mode="normal" in="SourceGraphic" in2="effect1_dropShadow_55_1129" result="shape"/>
</filter>
<filter id="filter1_d_55_1129" x="48" y="79.7" width="264" height="8.6001" filterUnits="userSpaceOnUse" color-interpolation-filters="sRGB">
<feFlood flood-opacity="0" result="BackgroundImageFix"/>
<feColorMatrix in="SourceAlpha" type="matrix" values="0 0 0 0 0 0 0 0 0 0 0 0 0 0 0 0 0 0 127 0" result="hardAlpha"/>
<feOffset dy="4"/>
<feGaussianBlur stdDeviation="2"/>
<feComposite in2="hardAlpha" operator="out"/>
<feColorMatrix type="matrix" values="0 0 0 0 0 0 0 0 0 0 0 0 0 0 0 0 0 0 0.25 0"/>
<feBlend mode="normal" in2="BackgroundImageFix" result="effect1_dropShadow_55_1129"/>
<feBlend mode="normal" in="SourceGraphic" in2="effect1_dropShadow_55_1129" result="shape"/>
</filter>
</defs>
</svg>
