<svg xmlns="http://www.w3.org/2000/svg" width="393.523" height="125.84" viewBox="0 0 393.523 125.84">
  <g id="Group_4" data-name="Group 4" transform="translate(0 -0.753)">
    <path id="Path_1" data-name="Path 1" d="M344.091,85.5H8.661s-3.769-.984-3.742-3.6-.338-.368,3.849-6.857c4.966-7.7,10.767-19.308,10.767-31.186,0-13.642-7.651-27.639-13.289-36.152C3.35,3.334,3.373,5.275,3.349,3.473S6.148.5,6.148.5h19.59A70.957,70.957,0,0,1,34.42,6.9a37.669,37.669,0,0,1,5.474,5.851,33.449,33.449,0,0,1,3.394,5.706c.924,1.94,1.7,3.942,2.528,6.062A90.5,90.5,0,0,0,51.125,36.27a29.656,29.656,0,0,0,3.617,5.164,29.142,29.142,0,0,0,4.153,3.894,32.15,32.15,0,0,0,8.641,4.7A36.4,36.4,0,0,0,74.548,51.8a24.421,24.421,0,0,0,2.917.279H77.9v-.019a27.3,27.3,0,0,0,2.762-.277,34.163,34.163,0,0,0,6.9-1.772,30.877,30.877,0,0,0,8.349-4.641,28.751,28.751,0,0,0,4.011-3.836,29.941,29.941,0,0,0,3.515-5.077,91,91,0,0,0,5.3-11.8h0l.007-.019c.826-2.131,1.605-4.144,2.53-6.094a33.626,33.626,0,0,1,3.4-5.736,37.773,37.773,0,0,1,5.477-5.881A71,71,0,0,1,128.834.5H344.091s-33.268,22.281-33.268,43.531c0,3.867,7.733,10.764,8.794,14.647C323.987,74.7,344.091,85.5,344.091,85.5Z" transform="translate(-0.553 38.401)" fill="#fff"/>
    <path id="Path_1_-_Outline" data-name="Path 1 - Outline" d="M344.091,86H8.661l-.126-.016c-.169-.044-4.146-1.117-4.116-4.087,0-.208,0-.384,0-.539a2.379,2.379,0,0,1,.763-2.113,49.527,49.527,0,0,0,3.164-4.471c4.875-7.556,10.687-19.054,10.687-30.915,0-13.17-7.182-26.779-13.206-35.876a11.522,11.522,0,0,0-2.458-3c-.506-.4-.509-.614-.521-1.506C2.82,1.364,5.829.092,5.957.038L6.148,0h19.59l.269.079A71.429,71.429,0,0,1,34.75,6.52,38.161,38.161,0,0,1,40.3,12.448a33.937,33.937,0,0,1,3.444,5.789c.932,1.957,1.714,3.967,2.542,6.1a90.086,90.086,0,0,0,5.28,11.694A29.159,29.159,0,0,0,55.118,41.1,28.643,28.643,0,0,0,59.2,44.932a31.651,31.651,0,0,0,8.507,4.622A35.889,35.889,0,0,0,74.621,51.3a24.146,24.146,0,0,0,2.847.274h.394l.017-.019a26.678,26.678,0,0,0,2.711-.272,33.665,33.665,0,0,0,6.8-1.746A30.377,30.377,0,0,0,95.6,44.976a28.247,28.247,0,0,0,3.942-3.769A29.438,29.438,0,0,0,103,36.215a90.523,90.523,0,0,0,5.275-11.736h0l0-.008.007-.016c.829-2.141,1.611-4.159,2.542-6.123a34.115,34.115,0,0,1,3.446-5.819,38.268,38.268,0,0,1,5.548-5.959A71.468,71.468,0,0,1,128.564.08l.27-.079H344.091l.278.915A128.325,128.325,0,0,0,327.8,14.664c-7.515,7.436-16.474,18.567-16.474,29.367,0,1.971,2.32,4.975,4.564,7.88,1.909,2.472,3.713,4.807,4.212,6.636,2.223,8.152,8.686,14.923,13.716,19.168a69.226,69.226,0,0,0,10.513,7.344ZM8.73,85H342.238a73.8,73.8,0,0,1-9.068-6.52,55.392,55.392,0,0,1-8.283-8.547,32.607,32.607,0,0,1-5.753-11.122c-.447-1.637-2.273-4-4.039-6.288-2.346-3.038-4.772-6.179-4.772-8.491C310.323,39.09,312.1,33.7,315.6,28a76.891,76.891,0,0,1,11.51-14.061A131.96,131.96,0,0,1,342.5,1H128.981a70.161,70.161,0,0,0-8.5,6.3,37.283,37.283,0,0,0-5.405,5.8,33.139,33.139,0,0,0-3.346,5.653c-.916,1.933-1.692,3.936-2.513,6.056l-.009.024A91.357,91.357,0,0,1,103.873,36.7a30.438,30.438,0,0,1-3.574,5.162,29.252,29.252,0,0,1-4.081,3.9,31.375,31.375,0,0,1-8.484,4.717,34.665,34.665,0,0,1-7,1.8,27.7,27.7,0,0,1-2.814.282v0l-.021.022h-.436a24.984,24.984,0,0,1-2.99-.285,36.909,36.909,0,0,1-7.111-1.8,32.649,32.649,0,0,1-8.775-4.769,29.644,29.644,0,0,1-4.224-3.961,30.159,30.159,0,0,1-3.679-5.251A90.913,90.913,0,0,1,45.351,24.7c-.822-2.112-1.6-4.106-2.514-6.03a32.962,32.962,0,0,0-3.344-5.623,37.176,37.176,0,0,0-5.4-5.773A70.12,70.12,0,0,0,25.592,1H6.252c-.751.334-2.418,1.319-2.4,2.467a5.561,5.561,0,0,0,.026.64c.025.023.075.063.117.1A12.372,12.372,0,0,1,6.661,7.43c6.1,9.212,13.372,23.009,13.372,36.428A48.338,48.338,0,0,1,16.479,61.2,78.5,78.5,0,0,1,9.187,75.316a50.456,50.456,0,0,1-3.222,4.552,3.365,3.365,0,0,0-.5.7,2.663,2.663,0,0,0-.05.786c0,.158,0,.337,0,.552C5.4,83.945,8.283,84.869,8.73,85Z" transform="translate(-0.553 38.401)" fill="#707070"/>
    <path id="Path_21" data-name="Path 21" d="M109.5,6.059A101.42,101.42,0,0,1,89.76,4.044C82.008,2.529,74.468.894,66.452-.18A108.654,108.654,0,0,0,49.543-1.195C35.185-.867,20.132.431,5.713,5.385,3.36,6.2,2.113,7.332-.2,8.3c.091.972,2.406,2.685,2.571,3.31,1.495,1.711,2.03,3.644,3.721,5.109.23-.671-.04-2.844-.063-5.115A4.705,4.705,0,0,1,8.084,7.927L11.2,6.194,14.46,4.478,12.245,9.565a11.963,11.963,0,0,0-.468,7.144,17.414,17.414,0,0,0,3.756,6.139c.45-1.033,1.093-2.338,2.01-3.979A38.132,38.132,0,0,1,24.957,9.61l4.026-3.488L26.728,7.959c-.013.039,6.436-6.943,9.023-1.4.062.133-.418,4.975.313,7.306.9,2.177.7,2.128,2.025,3.277a13.43,13.43,0,0,0,2.576,1.988c.2.125-.371-4.65.7-7.542S50.1,6.457,50.1,6.457l-1.891,4.6c-.01.021-.919,2.315.164,6.722a12.822,12.822,0,0,0,2.656,5.164,51.168,51.168,0,0,1,2.381-6.733,15.532,15.532,0,0,1,7.75-7.536,34.072,34.072,0,0,0-.675,8.871c.14,3.728,2.077,6.362,3.1,8.082.806-1.426,1.933-3.357,3.3-5.534a22.244,22.244,0,0,1,6.82-7.08l1.178-.688.756.87c.363.418.924,1.6.6,4.833-.174,1.7-.488,4.038-.741,5.839,1.161-.709,2.823-1.792,5.131-3.427a71.977,71.977,0,0,0,9.086-7.7,27.12,27.12,0,0,1-2.239,7.98c-.637,1.364-1.263,2.668-1.807,3.788a81.4,81.4,0,0,0,8.11-3.914,54.73,54.73,0,0,0,10.343-8.016l3.71-4.766-1.667,5.642c-.029.1-.317,1.048-1.611,4.5a25.684,25.684,0,0,1-2.049,4.052A124.6,124.6,0,0,0,113.8,15.652c4.3-2.924,9.049-7.961,12.533-11.933C121.443,5.647,114.85,6.051,109.5,6.059Z" transform="translate(287.64 94.591) rotate(-47)" fill="#fff"/>
    <path id="Path_21_-_Outline" data-name="Path 21 - Outline" d="M51.684-1.719A110.759,110.759,0,0,1,66.519-.675c6.444.863,12.7,2.112,18.753,3.32,1.5.3,3.05.609,4.585.909A100.623,100.623,0,0,0,109.351,5.56h.149c7.3-.012,12.744-.766,16.645-2.306l.559.795c-5.022,5.724-9.152,9.655-12.628,12.017a78.663,78.663,0,0,1-8.612,4.946c-1.051.54-1.959,1.006-2.71,1.434l-1.665.949.989-1.642a24.862,24.862,0,0,0,2.009-3.969c1.319-3.523,1.589-4.433,1.6-4.47l.919-3.11-2.115,2.714a55.147,55.147,0,0,1-10.449,8.1,48.825,48.825,0,0,1-6.091,3.01c-.806.349-1.5.651-2.059.926l-1.307.643.636-1.31c.673-1.387,1.263-2.624,1.8-3.782A26.625,26.625,0,0,0,89,14.145a73.652,73.652,0,0,1-8.083,6.7c-2.008,1.423-3.744,2.582-5.16,3.446l-.9.551.147-1.048c.24-1.706.563-4.1.739-5.82.326-3.247-.285-4.23-.48-4.455l-.484-.558-.821.479a21.842,21.842,0,0,0-6.649,6.914c-1.428,2.275-2.577,4.254-3.288,5.514l-.425.751-.441-.742c-.124-.209-.264-.435-.412-.674a15.313,15.313,0,0,1-2.756-7.644,38.133,38.133,0,0,1,.48-8,14.57,14.57,0,0,0-6.6,6.844,50.093,50.093,0,0,0-2.358,6.666l-.255.912-.609-.725A13.416,13.416,0,0,1,47.89,17.9c-1.077-4.381-.252-6.744-.14-7.031h0l1.483-3.607c-2.468.838-6.7,2.619-7.4,4.5a19.226,19.226,0,0,0-.631,6.348c.02.995.024,1.174-.166,1.368a.511.511,0,0,1-.516.132c-.336-.089-.875-.458-2.761-2.09a4.637,4.637,0,0,1-1.787-2.535c-.1-.264-.222-.562-.373-.93l-.015-.041c-.6-1.9-.427-5.318-.355-6.778.011-.217.022-.44.024-.554a2.629,2.629,0,0,0-2.41-1.761,6.739,6.739,0,0,0-3.594,1.514l.057.068L25.284,9.988a37.942,37.942,0,0,0-7.305,9.124c-.824,1.476-1.493,2.8-1.988,3.936l-.315.722-.519-.591a17.887,17.887,0,0,1-3.862-6.337,12.366,12.366,0,0,1,.492-7.475h0l1.647-3.781-1.992,1.05L8.356,8.348l-.011.008A4.157,4.157,0,0,0,6.529,11.6c.008.839.052,1.675.09,2.413a9.729,9.729,0,0,1-.054,2.869l-.24.7-.56-.485a11.287,11.287,0,0,1-2.253-2.944,14.751,14.751,0,0,0-1.518-2.213l-.077-.088-.028-.108A6.6,6.6,0,0,0,1,10.738C.2,9.928-.629,9.091-.7,8.348l-.034-.366.339-.142A23.217,23.217,0,0,0,2.212,6.51a18.818,18.818,0,0,1,3.339-1.6A113.42,113.42,0,0,1,27.584-.136,197.38,197.38,0,0,1,49.531-1.694C50.242-1.711,50.966-1.719,51.684-1.719ZM109.351,6.56A101.608,101.608,0,0,1,89.664,4.534c-1.536-.3-3.088-.61-4.588-.909C79.04,2.421,72.8,1.175,66.386.316a109.772,109.772,0,0,0-14.7-1.034c-.711,0-1.427.008-2.13.024C37.283-.415,21.228.582,5.876,5.858a17.753,17.753,0,0,0-3.17,1.521c-.7.4-1.415.8-2.277,1.194a10.443,10.443,0,0,0,1.279,1.463,5.4,5.4,0,0,1,1.1,1.318A15.929,15.929,0,0,1,4.37,13.641a14.549,14.549,0,0,0,1.312,1.95c-.007-.45-.035-.993-.062-1.526-.039-.748-.082-1.595-.091-2.455A5.144,5.144,0,0,1,7.754,7.549l.024-.018.03-.024.033-.018,3.128-1.738,4.518-2.381L12.7,9.775a11.4,11.4,0,0,0-.44,6.8A15.712,15.712,0,0,0,15.4,21.925c.462-.991,1.033-2.1,1.7-3.3A38.291,38.291,0,0,1,24.63,9.232l1.612-1.4.055-.171.1-.082.026-.027c1.082-1.094,3.874-3.638,6.422-3.638A3.621,3.621,0,0,1,36.2,6.343c.066.142.063.2.027.939-.069,1.4-.231,4.674.3,6.409.15.366.272.674.37.923a3.748,3.748,0,0,0,1.511,2.145c.35.3,1.2,1.034,1.791,1.493l0-.126a20,20,0,0,1,.693-6.716c.493-1.329,2.187-2.652,5.034-3.931a34.682,34.682,0,0,1,4.031-1.5l1-.291-2.287,5.561c-.03.08-.829,2.271.188,6.411a12.228,12.228,0,0,0,1.963,4.2,50.014,50.014,0,0,1,2.132-5.853,14.711,14.711,0,0,1,4.562-5.723A16.9,16.9,0,0,1,60.88,8.253l.05-.022,1.01-.573L61.648,8.8a34.014,34.014,0,0,0-.66,8.728,14.185,14.185,0,0,0,2.583,7.117c.714-1.245,1.708-2.93,2.892-4.816a22.5,22.5,0,0,1,6.994-7.247l1.534-.9,1.027,1.183c.508.584,1.046,1.963.72,5.211-.143,1.4-.382,3.24-.6,4.8,1.212-.772,2.62-1.725,4.2-2.844a71.365,71.365,0,0,0,9.01-7.634.519.519,0,0,1,.075-.065l.889-.63-.1,1.084a27.361,27.361,0,0,1-2.284,8.145c-.374.8-.772,1.641-1.2,2.542q.392-.172.827-.36a48.019,48.019,0,0,0,5.967-2.946,54.374,54.374,0,0,0,10.225-7.916L107.44,7.5l.874.449L106.646,13.6c-.028.1-.313,1.042-1.622,4.538a21.105,21.105,0,0,1-1.213,2.6q.564-.294,1.2-.617a77.823,77.823,0,0,0,8.507-4.883A67.461,67.461,0,0,0,124.684,4.817c-3.828,1.16-8.822,1.732-15.182,1.742Z" transform="translate(287.64 94.591) rotate(-47)" fill="#707070"/>
    <path id="Path_22" data-name="Path 22" d="M45,23.6q-.684-.061-1.434-.153a84.171,84.171,0,0,1-9.635-1.851s5.433-3.845,8-9.3c2.015,3.594,3.31,10.049,3.31,10.049a22.781,22.781,0,0,0,8.588-8.771c1.751,6.014,1.5,7.727,1.5,7.727s-4.407,2.04-4.424,2.074C49.958,23.836,49.521,24,45,23.6ZM31.322,20.919a145.726,145.726,0,0,1-22.8-8.265S13.707,3.267,17.043.406c.018,6.364,4.5,14.28,4.5,14.28s6.549-2.587,7.29-7.155C32.107,13.683,31.322,20.919,31.322,20.919Zm-24.237-8.9C5.607,11.314-1.147,2.007.224,1.372c-.182.655,3.092,5.582,3.092,5.582Z" transform="translate(313.918 72.551) rotate(39)" fill="#fff"/>
    <path id="Path_22_-_Outline" data-name="Path 22 - Outline" d="M48.706,24.326c-.805,0-1.962-.072-3.75-.232-.459-.041-.947-.093-1.45-.155a85.2,85.2,0,0,1-9.694-1.862l-1.063-.261.893-.632c.053-.038,5.358-3.838,7.833-9.108l.413-.88.475.848a40.643,40.643,0,0,1,3.219,9.52,20.5,20.5,0,0,0,2.38-1.714,23.173,23.173,0,0,0,5.425-6.525l.582-1.051.336,1.154c1.761,6.049,1.524,7.865,1.513,7.94l-.063.427h-.322c-.592.273-3.5,1.621-4.157,1.942l0,0-.152.076A4.447,4.447,0,0,1,48.706,24.326ZM35.065,21.351a81.1,81.1,0,0,0,8.562,1.6c.492.06.969.111,1.418.151,1.757.158,2.887.228,3.661.228a3.486,3.486,0,0,0,1.972-.405h0c.125-.07.334-.169.706-.344s.882-.415,1.522-.712l1.518-.705.411-.191a26.6,26.6,0,0,0-1.172-6.139,24.318,24.318,0,0,1-5.087,5.811,18.616,18.616,0,0,1-3.112,2.143l-.587.3-.129-.645a47.622,47.622,0,0,0-2.815-9.048,25.892,25.892,0,0,1-4.615,5.956C36.426,20.217,35.628,20.9,35.065,21.351Zm-3.309.2-.564-.152A145.562,145.562,0,0,1,8.31,13.108l-.487-.226.26-.47c.214-.387,5.269-9.5,8.635-12.386l.823-.705,0,1.084c.015,5.367,3.333,11.974,4.218,13.64,1.4-.641,5.992-3,6.576-6.594l.238-1.464.7,1.309a24.215,24.215,0,0,1,2.532,9.2,25.769,25.769,0,0,1,.016,4.483ZM9.222,12.427a144.768,144.768,0,0,0,21.646,7.851A27.489,27.489,0,0,0,30.8,16.55a24.154,24.154,0,0,0-1.854-7.628,10.255,10.255,0,0,1-3.756,4.309,18.489,18.489,0,0,1-3.471,1.921l-.4.16-.214-.379a44.786,44.786,0,0,1-2.27-4.812,29.355,29.355,0,0,1-2.247-8.583C13.83,4.451,10.218,10.671,9.222,12.427Zm-2.352.045c-.955-.457-3.1-3.257-4.223-4.84C1.71,6.309-.467,3.084-.458,1.741A.839.839,0,0,1,.014.919L1,.464l-.275.99A12.4,12.4,0,0,0,2.222,4.3c.712,1.167,1.424,2.245,1.5,2.364l3.761,5.056Z" transform="translate(313.918 72.551) rotate(39)" fill="#707070"/>
    <path id="Path_2" data-name="Path 2" d="M343.121,85V1H128.386a70.392,70.392,0,0,0-8.543,6.331,37.355,37.355,0,0,0-5.411,5.81,33.18,33.18,0,0,0-3.346,5.652c-.915,1.933-1.691,3.936-2.513,6.058l-.014.036a91.472,91.472,0,0,1-5.327,11.845,30.491,30.491,0,0,1-3.573,5.16,29.225,29.225,0,0,1-4.072,3.895,31.267,31.267,0,0,1-8.455,4.7,34.532,34.532,0,0,1-6.969,1.791c-1,.148-1.811.222-2.378.258v.042h-.872a24.174,24.174,0,0,1-2.968-.283A36.753,36.753,0,0,1,66.861,50.5a32.54,32.54,0,0,1-8.745-4.753A29.59,29.59,0,0,1,53.9,41.8a30.14,30.14,0,0,1-3.677-5.25,90.933,90.933,0,0,1-5.339-11.82c-.821-2.11-1.6-4.1-2.512-6.026a32.951,32.951,0,0,0-3.344-5.621A37.219,37.219,0,0,0,33.621,7.3,70.307,70.307,0,0,0,25.081,1H.835V85H343.121m.835,1H0V0H25.29a71.617,71.617,0,0,1,8.824,6.492,38.115,38.115,0,0,1,5.539,5.922A33.945,33.945,0,0,1,43.1,18.2c.932,1.957,1.715,3.969,2.544,6.1a90.049,90.049,0,0,0,5.278,11.69,29.16,29.16,0,0,0,3.557,5.079,28.709,28.709,0,0,0,4.09,3.835A31.761,31.761,0,0,0,67.1,49.545,36.022,36.022,0,0,0,74.046,51.3a24.062,24.062,0,0,0,2.866.276v-.007a23.916,23.916,0,0,0,3.147-.285,33.8,33.8,0,0,0,6.824-1.753,30.475,30.475,0,0,0,8.244-4.582,28.276,28.276,0,0,0,3.949-3.777,29.391,29.391,0,0,0,3.458-4.993,90.727,90.727,0,0,0,5.28-11.749h0c.829-2.141,1.612-4.163,2.545-6.13a34.155,34.155,0,0,1,3.446-5.821,38.278,38.278,0,0,1,5.542-5.953A71.666,71.666,0,0,1,128.177,0H343.956ZM76.555.087V0h51.6Z" transform="translate(0 38.401)" fill="none"/>
    <path id="Path_3" data-name="Path 3" d="M22.623,56.5a18.081,18.081,0,0,1-8.6-2.2,22.573,22.573,0,0,1-7.032-6,29.215,29.215,0,0,1-4.746-8.9,35.031,35.031,0,0,1,0-21.815,29.215,29.215,0,0,1,4.746-8.9,22.572,22.572,0,0,1,7.032-6,17.951,17.951,0,0,1,17.207,0,22.572,22.572,0,0,1,7.032,6,29.214,29.214,0,0,1,4.746,8.9,35.031,35.031,0,0,1,0,21.815,29.214,29.214,0,0,1-4.746,8.9,22.573,22.573,0,0,1-7.032,6A18.081,18.081,0,0,1,22.623,56.5Z" transform="translate(53.347 22.401)" fill="#0094ff"/>
    <path id="Path_4" data-name="Path 4" d="M22.541,1a17.723,17.723,0,0,0-8.434,2.153,22.147,22.147,0,0,0-6.9,5.882,28.7,28.7,0,0,0-4.662,8.743,34.438,34.438,0,0,0,0,21.443,28.7,28.7,0,0,0,4.662,8.743,22.148,22.148,0,0,0,6.9,5.882,17.6,17.6,0,0,0,16.867,0,22.147,22.147,0,0,0,6.9-5.882,28.7,28.7,0,0,0,4.662-8.743,34.439,34.439,0,0,0,0-21.443,28.7,28.7,0,0,0-4.662-8.743,22.146,22.146,0,0,0-6.9-5.882A17.723,17.723,0,0,0,22.541,1m0-1C34.99,0,45.082,12.76,45.082,28.5S34.99,57,22.541,57,0,44.24,0,28.5,10.092,0,22.541,0Z" transform="translate(53.43 22.401)"/>
    <text id="Overview" transform="translate(52.062 104.462)" fill="#0094ff" font-size="9" font-family="SegoeUI-Semibold, Segoe UI" font-weight="600"><tspan x="0" y="0">Overview</tspan></text>
    <g id="House_Icon" data-name="House Icon" transform="translate(61.903 32.7)">
      <path id="Path" d="M23.644,11.05h-8.6a.75.75,0,0,1-.75-.75V2.81a1.285,1.285,0,0,0-1.4-1.123H10.748a1.285,1.285,0,0,0-1.4,1.123V10.3a.75.75,0,0,1-.75.75H0a.75.75,0,0,1-.75-.75V0A.75.75,0,0,1,0-.75.75.75,0,0,1,.75,0V9.55h7.1V2.81a2.774,2.774,0,0,1,2.9-2.623H12.9A2.774,2.774,0,0,1,15.8,2.81V9.55h7.1V0a.75.75,0,0,1,.75-.75.75.75,0,0,1,.75.75V10.3A.75.75,0,0,1,23.644,11.05Z" transform="translate(3.127 21.554)" fill="#fff"/>
      <path id="Path-2" data-name="Path" d="M29.9,14.023a.747.747,0,0,1-.513-.2L15.856,1.106a1.336,1.336,0,0,0-1.815,0L.514,13.82a.75.75,0,0,1-1.06-.033.75.75,0,0,1,.033-1.06L13.025,0l.021-.019a2.839,2.839,0,0,1,3.8,0L16.872,0,30.411,12.726a.75.75,0,0,1-.514,1.3Z" transform="translate(0 0)" fill="#fff"/>
    </g>
    <text id="Overview-2" data-name="Overview" transform="translate(261.07 104.462)" fill="#0094ff" font-size="9" font-family="SegoeUI-Semibold, Segoe UI" font-weight="600"><tspan x="0" y="0">timer</tspan></text>
    <g id="_6" data-name="6" transform="translate(266.558 56.267)">
      <path id="Path_18" data-name="Path 18" d="M122.845,33.644h-.509V28.8a6.138,6.138,0,0,0-1-3.386l-5.26-7.987,5.26-8.051a6.215,6.215,0,0,0,1-3.409V1.085h.509a.524.524,0,0,0,.509-.543A.524.524,0,0,0,122.845,0H104.509A.524.524,0,0,0,104,.542a.524.524,0,0,0,.509.543h.509V5.969a6.215,6.215,0,0,0,1,3.409l5.26,8.051-5.26,7.987a6.138,6.138,0,0,0-1,3.386v4.842h-.509a.435.435,0,0,0-.437.252.639.639,0,0,0,0,.581.435.435,0,0,0,.437.252h18.336a.435.435,0,0,0,.437-.252.639.639,0,0,0,0-.581A.435.435,0,0,0,122.845,33.644ZM106.037,28.8a5.008,5.008,0,0,1,.82-2.763l5.46-8.3a.572.572,0,0,0,0-.621l-5.46-8.362a5.084,5.084,0,0,1-.821-2.789V1.085h15.278V5.969a5.084,5.084,0,0,1-.821,2.789l-5.46,8.362a.572.572,0,0,0,0,.621l5.46,8.3a5.008,5.008,0,0,1,.82,2.763v4.842H106.035Z" transform="translate(-104 0.002)" fill="#929da5"/>
      <path id="Path_19" data-name="Path 19" d="M281.528,464h-1.019a.385.385,0,0,0-.452.194.582.582,0,0,0,0,.576.385.385,0,0,0,.452.194h1.019a.385.385,0,0,0,.452-.194.582.582,0,0,0,0-.576A.385.385,0,0,0,281.528,464Z" transform="translate(-268.795 -432.16)" fill="#929da5"/>
      <path id="Path_20" data-name="Path 20" d="M195.714,157.862a.515.515,0,0,0,.431-.225c.113-.161,2.2-3,3.577-4.881a.462.462,0,0,0,.033-.5A.512.512,0,0,0,199.3,152h-7.18a.512.512,0,0,0-.452.259.462.462,0,0,0,.033.5c1.381,1.881,3.465,4.72,3.577,4.881a.515.515,0,0,0,.431.225Zm2.616-4.9c-1.458,1.985-2.218,3.023-2.616,3.567-.4-.544-1.158-1.582-2.616-3.567Z" transform="translate(-186.037 -141.417)" fill="#929da5"/>
      <path id="Path_21-2" data-name="Path 21" d="M162.212,336.2a.517.517,0,0,0-.417-.2H155.45a.517.517,0,0,0-.417.2l-2.4,3.232a3.171,3.171,0,0,0-.635,1.9v2.854a.492.492,0,0,0,.509.482h6.112a.385.385,0,0,0,.452-.194.582.582,0,0,0,0-.576.385.385,0,0,0-.452-.194h-5.6v-2.372a2.249,2.249,0,0,1,.451-1.348l2.243-3.027h5.818l2.243,3.027a2.249,2.249,0,0,1,.451,1.348v2.372h-.509a.385.385,0,0,0-.452.194.582.582,0,0,0,0,.576.385.385,0,0,0,.452.194h1.019a.492.492,0,0,0,.509-.482v-2.854a3.172,3.172,0,0,0-.635-1.9Z" transform="translate(-148.945 -311.871)" fill="#929da5"/>
      <path id="Path_22-2" data-name="Path 22" d="M326.863,75.769a.527.527,0,0,0,.291.086.518.518,0,0,0,.417-.207l.558-.758a3.234,3.234,0,0,0,.639-1.926v-.482a.51.51,0,0,0-1.019,0v.482a2.308,2.308,0,0,1-.456,1.376l-.558.758a.484.484,0,0,0-.081.375.411.411,0,0,0,.208.3Z" transform="translate(-312.47 -67.661)" fill="#929da5"/>
      <path id="Path_23" data-name="Path 23" d="M344.509,33.446a.492.492,0,0,0,.509-.482v-.482a.51.51,0,0,0-1.018,0v.482a.492.492,0,0,0,.509.482Z" transform="translate(-328.721 -30.07)" fill="#929da5"/>
    </g>
    <text id="Overview-3" data-name="Overview" transform="translate(126.537 104.462)" fill="#0094ff" font-size="9" font-family="SegoeUI-Semibold, Segoe UI" font-weight="600"><tspan x="0" y="0">AllTasks</tspan></text>
    <g id="testing-checklist-file-or-to-do-list-black-outline-17464" transform="translate(139.254 56.075)">
      <path id="Path_1-2" data-name="Path 1" d="M51.182,6.076,46.46.419A1.1,1.1,0,0,0,45.616,0H33.009a1.332,1.332,0,0,0-1.2,1.432v28.7a1.332,1.332,0,0,0,1.2,1.432H50.336a1.332,1.332,0,0,0,1.2-1.432V7.088A1.575,1.575,0,0,0,51.182,6.076Zm-.65.214H46.811a.59.59,0,0,1-.53-.634V1.2Zm.417,23.838a.68.68,0,0,1-.609.73H33.01a.68.68,0,0,1-.609-.73V1.432A.68.68,0,0,1,33.01.7H45.616A.515.515,0,0,1,45.7.711V5.655a1.242,1.242,0,0,0,1.115,1.336h4.127a.835.835,0,0,1,.008.1Z" transform="translate(-31.814 0)" fill="#929da5"/>
      <path id="Path_2-2" data-name="Path 2" d="M61.291,70.309c-1.844,0-3.339,1.791-3.339,4s1.5,4,3.339,4,3.339-1.791,3.339-4S63.136,70.309,61.291,70.309Zm0,7.291a3.348,3.348,0,1,1,2.75-3.294,3.059,3.059,0,0,1-2.75,3.294Z" transform="translate(-55.231 -61.535)" fill="#929da5"/>
      <path id="Path_3-2" data-name="Path 3" d="M77.451,89.621,75.79,91.8l-.463-.757a.262.262,0,0,0-.409-.076.4.4,0,0,0-.063.49l.675,1.1a.283.283,0,0,0,.22.143h.016a.274.274,0,0,0,.216-.114l1.9-2.5a.4.4,0,0,0,.076-.351.32.32,0,0,0-.224-.244.269.269,0,0,0-.285.123Z" transform="translate(-70.319 -78.337)" fill="#929da5"/>
      <path id="Path_4-2" data-name="Path 4" d="M145.09,86.714h-5.176a.282.282,0,0,0-.272.167.411.411,0,0,0,0,.366.282.282,0,0,0,.272.167h5.176a.282.282,0,0,0,.272-.167.411.411,0,0,0,0-.366A.282.282,0,0,0,145.09,86.714Z" transform="translate(-128.387 -75.893)" fill="#929da5"/>
      <path id="Path_5" data-name="Path 5" d="M145.09,112.327h-5.176a.282.282,0,0,0-.272.167.411.411,0,0,0,0,.366.282.282,0,0,0,.272.167h5.176a.282.282,0,0,0,.272-.167.411.411,0,0,0,0-.366A.282.282,0,0,0,145.09,112.327Z" transform="translate(-128.387 -98.31)" fill="#929da5"/>
      <path id="Path_6" data-name="Path 6" d="M61.291,152.268c-1.844,0-3.339,1.791-3.339,4s1.5,4,3.339,4,3.339-1.791,3.339-4S63.136,152.268,61.291,152.268Zm0,7.291a3.349,3.349,0,1,1,2.75-3.295,3.06,3.06,0,0,1-2.75,3.295Z" transform="translate(-55.231 -133.267)" fill="#929da5"/>
      <path id="Path_7" data-name="Path 7" d="M145.09,168.673h-5.176a.282.282,0,0,0-.272.167.411.411,0,0,0,0,.366.282.282,0,0,0,.272.167h5.176a.282.282,0,0,0,.272-.167.411.411,0,0,0,0-.366A.282.282,0,0,0,145.09,168.673Z" transform="translate(-128.387 -147.624)" fill="#929da5"/>
      <path id="Path_8" data-name="Path 8" d="M145.1,194.286h-5.176a.362.362,0,0,0,0,.7H145.1a.282.282,0,0,0,.272-.167.411.411,0,0,0,0-.366.282.282,0,0,0-.272-.167Z" transform="translate(-128.396 -170.041)" fill="#929da5"/>
      <path id="Path_9" data-name="Path 9" d="M80.062,169.7a.262.262,0,0,0-.412.053l-.77,1.141-.77-1.141a.261.261,0,0,0-.411-.053.4.4,0,0,0-.044.493l.849,1.259-.849,1.259a.4.4,0,0,0,.044.493.261.261,0,0,0,.411-.053l.77-1.141.77,1.141a.261.261,0,0,0,.411.052.4.4,0,0,0,.044-.492l-.849-1.259L80.1,170.2a.4.4,0,0,0,.068-.26A.373.373,0,0,0,80.062,169.7Z" transform="translate(-72.821 -148.457)" fill="#929da5"/>
    </g>
    <g id="_3" data-name="3" transform="translate(194.94 56.268)">
      <path id="Path_10" data-name="Path 10" d="M31.693,31.178,36.631,23a.728.728,0,0,0-.055-.816.465.465,0,0,0-.681-.066l-6.827,5.918a2.489,2.489,0,0,0-.732,2.289,2.1,2.1,0,0,0,1.448,1.732,1.739,1.739,0,0,0,1.91-.879Z" transform="translate(-14.038 -9.591)" fill="#a7aeb4"/>
      <path id="Path_11" data-name="Path 11" d="M40.24,11.387c-.005-.012-.005-.025-.011-.037s-.017-.018-.023-.029a15.824,15.824,0,0,0-1.88-2.8l1.132-1.25.746.823,2.237-2.469L40.2,3.155l-2.237,2.47.746.823L37.58,7.7a14.509,14.509,0,0,0-2.536-2.076c-.01-.008-.016-.019-.027-.026s-.023-.006-.033-.013A13.249,13.249,0,0,0,29.568,3.6V2.91h.791a1.389,1.389,0,0,0,1.318-1.455A1.389,1.389,0,0,0,30.357,0H25.611a1.389,1.389,0,0,0-1.318,1.455A1.389,1.389,0,0,0,25.611,2.91H26.4v.673a13.259,13.259,0,0,0-1.7.311.487.487,0,0,0-.324.248.678.678,0,0,0-.072.452.527.527,0,0,0,.632.437,12.255,12.255,0,0,1,1.509-.282L26.97,4.7c.177-.015.334-.025.488-.033h0V5.821a.529.529,0,1,0,1.054,0V4.674a12.144,12.144,0,0,1,5.51,1.656l-.52.994a.654.654,0,0,0-.053.452.543.543,0,0,0,.246.348.486.486,0,0,0,.263.078.52.52,0,0,0,.457-.291l.518-.992a14.053,14.053,0,0,1,4.1,4.524l-.9.572a.544.544,0,0,0-.245.349.654.654,0,0,0,.054.451.519.519,0,0,0,.457.291.486.486,0,0,0,.263-.078l.9-.574a15.628,15.628,0,0,1,1.5,6.181H40.027a.469.469,0,0,0-.456.276.684.684,0,0,0,0,.612.469.469,0,0,0,.456.276h1.042a15.628,15.628,0,0,1-1.5,6.181l-.9-.58a.5.5,0,0,0-.72.213.654.654,0,0,0-.053.452.543.543,0,0,0,.246.348l.9.572a14.045,14.045,0,0,1-4.1,4.515l-.518-.991a.5.5,0,0,0-.72-.213.542.542,0,0,0-.246.348.653.653,0,0,0,.054.452l.52.994a12.144,12.144,0,0,1-5.51,1.656V32.6a.529.529,0,1,0-1.054,0v1.15a12.127,12.127,0,0,1-2.519-.359.526.526,0,0,0-.632.437.678.678,0,0,0,.072.452.487.487,0,0,0,.324.248,12.972,12.972,0,0,0,3.195.4H28a13.139,13.139,0,0,0,6.971-2.08.427.427,0,0,0,.049-.023c.011-.007.017-.018.027-.026A15.164,15.164,0,0,0,40.2,27.117a.543.543,0,0,0,.032-.045.309.309,0,0,0,.011-.037,17.076,17.076,0,0,0,0-15.641Z" transform="translate(-12.137 0.001)" fill="#a7aeb4"/>
      <path id="Path_12" data-name="Path 12" d="M18.985,13H16.347a1.173,1.173,0,0,0-1.055,1.264,1.173,1.173,0,0,0,1.055,1.264h2.636a1.173,1.173,0,0,0,1.055-1.264A1.173,1.173,0,0,0,18.984,13Z" transform="translate(-7.903 -5.478)" fill="#a7aeb4"/>
      <path id="Path_13" data-name="Path 13" d="M16.621,20H11.347a1.284,1.284,0,0,0,0,2.527h5.274a1.284,1.284,0,0,0,0-2.527Z" transform="translate(-5.542 -8.429)" fill="#a7aeb4"/>
      <path id="Path_14" data-name="Path 14" d="M14.257,27H6.347a1.284,1.284,0,0,0,0,2.527h7.91a1.284,1.284,0,0,0,0-2.527Z" transform="translate(-3.185 -11.379)" fill="#a7aeb4"/>
      <path id="Path_15" data-name="Path 15" d="M12.367,34H2.349a1.284,1.284,0,0,0,0,2.527H12.367a1.284,1.284,0,0,0,0-2.527Z" transform="translate(-1.294 -14.329)" fill="#a7aeb4"/>
      <path id="Path_16" data-name="Path 16" d="M15.2,41H8.347a1.284,1.284,0,0,0,0,2.527H15.2A1.284,1.284,0,0,0,15.2,41Z" transform="translate(-4.13 -17.28)" fill="#a7aeb4"/>
      <path id="Path_17" data-name="Path 17" d="M18.039,48H14.347a1.284,1.284,0,0,0,0,2.527h3.692a1.284,1.284,0,0,0,0-2.527Z" transform="translate(-6.959 -20.655)" fill="#a7aeb4"/>
    </g>
    <path id="Path_6-2" data-name="Path 6" d="M343.121,85V1H128.386a70.392,70.392,0,0,0-8.543,6.331,37.355,37.355,0,0,0-5.411,5.81,33.18,33.18,0,0,0-3.346,5.652c-.915,1.933-1.691,3.936-2.513,6.058l-.014.036a91.472,91.472,0,0,1-5.327,11.845,30.491,30.491,0,0,1-3.573,5.16,29.225,29.225,0,0,1-4.072,3.895,31.267,31.267,0,0,1-8.455,4.7,34.532,34.532,0,0,1-6.969,1.791c-1,.148-1.811.222-2.378.258v.042h-.872a24.174,24.174,0,0,1-2.968-.283A36.753,36.753,0,0,1,66.861,50.5a32.54,32.54,0,0,1-8.745-4.753A29.59,29.59,0,0,1,53.9,41.8a30.14,30.14,0,0,1-3.677-5.25,90.933,90.933,0,0,1-5.339-11.82c-.821-2.11-1.6-4.1-2.512-6.026a32.951,32.951,0,0,0-3.344-5.621A37.219,37.219,0,0,0,33.621,7.3,70.307,70.307,0,0,0,25.081,1H.835V85H343.121m.835,1H0V0H25.29a71.617,71.617,0,0,1,8.824,6.492,38.115,38.115,0,0,1,5.539,5.922A33.945,33.945,0,0,1,43.1,18.2c.932,1.957,1.715,3.969,2.544,6.1a90.049,90.049,0,0,0,5.278,11.69,29.16,29.16,0,0,0,3.557,5.079,28.709,28.709,0,0,0,4.09,3.835A31.761,31.761,0,0,0,67.1,49.545,36.022,36.022,0,0,0,74.046,51.3a24.062,24.062,0,0,0,2.866.276v-.007a23.916,23.916,0,0,0,3.147-.285,33.8,33.8,0,0,0,6.824-1.753,30.475,30.475,0,0,0,8.244-4.582,28.276,28.276,0,0,0,3.949-3.777,29.391,29.391,0,0,0,3.458-4.993,90.727,90.727,0,0,0,5.28-11.749h0c.829-2.141,1.612-4.163,2.545-6.13a34.155,34.155,0,0,1,3.446-5.821,38.278,38.278,0,0,1,5.542-5.953A71.666,71.666,0,0,1,128.177,0H343.956ZM76.555.087V0h51.6Z" transform="translate(0 38.401)" fill="none"/>
    <path id="Path_7-2" data-name="Path 7" d="M22.623,56.5a18.081,18.081,0,0,1-8.6-2.2,22.573,22.573,0,0,1-7.032-6,29.215,29.215,0,0,1-4.746-8.9,35.031,35.031,0,0,1,0-21.815,29.215,29.215,0,0,1,4.746-8.9,22.572,22.572,0,0,1,7.032-6,17.951,17.951,0,0,1,17.207,0,22.572,22.572,0,0,1,7.032,6,29.214,29.214,0,0,1,4.746,8.9,35.031,35.031,0,0,1,0,21.815,29.214,29.214,0,0,1-4.746,8.9,22.573,22.573,0,0,1-7.032,6A18.081,18.081,0,0,1,22.623,56.5Z" transform="translate(53.347 22.401)" fill="#00d0e4"/>
    <path id="Path_8-2" data-name="Path 8" d="M22.541,1a17.723,17.723,0,0,0-8.434,2.153,22.147,22.147,0,0,0-6.9,5.882,28.7,28.7,0,0,0-4.662,8.743,34.438,34.438,0,0,0,0,21.443,28.7,28.7,0,0,0,4.662,8.743,22.148,22.148,0,0,0,6.9,5.882,17.6,17.6,0,0,0,16.867,0,22.147,22.147,0,0,0,6.9-5.882,28.7,28.7,0,0,0,4.662-8.743,34.439,34.439,0,0,0,0-21.443,28.7,28.7,0,0,0-4.662-8.743,22.146,22.146,0,0,0-6.9-5.882A17.723,17.723,0,0,0,22.541,1m0-1C34.99,0,45.082,12.76,45.082,28.5S34.99,57,22.541,57,0,44.24,0,28.5,10.092,0,22.541,0Z" transform="translate(53.43 22.401)" fill="#707070"/>
    <text id="Overview-4" data-name="Overview" transform="translate(52.062 104.462)" fill="#0094ff" font-size="9" font-family="SegoeUI-Semibold, Segoe UI" font-weight="600"><tspan x="0" y="0">Overview</tspan></text>
    <g id="House_Icon-2" data-name="House Icon" transform="translate(61.903 32.7)">
      <path id="Path-3" data-name="Path" d="M23.644,11.05h-8.6a.75.75,0,0,1-.75-.75V2.81a1.285,1.285,0,0,0-1.4-1.123H10.748a1.285,1.285,0,0,0-1.4,1.123V10.3a.75.75,0,0,1-.75.75H0a.75.75,0,0,1-.75-.75V0A.75.75,0,0,1,0-.75.75.75,0,0,1,.75,0V9.55h7.1V2.81a2.774,2.774,0,0,1,2.9-2.623H12.9A2.774,2.774,0,0,1,15.8,2.81V9.55h7.1V0a.75.75,0,0,1,.75-.75.75.75,0,0,1,.75.75V10.3A.75.75,0,0,1,23.644,11.05Z" transform="translate(3.127 21.554)" fill="#fff"/>
      <path id="Path-4" data-name="Path" d="M29.9,14.023a.747.747,0,0,1-.513-.2L15.856,1.106a1.336,1.336,0,0,0-1.815,0L.514,13.82a.75.75,0,0,1-1.06-.033.75.75,0,0,1,.033-1.06L13.025,0l.021-.019a2.839,2.839,0,0,1,3.8,0L16.872,0,30.411,12.726a.75.75,0,0,1-.514,1.3Z" transform="translate(0 0)" fill="#fff"/>
    </g>
    <text id="Overview-5" data-name="Overview" transform="translate(261.07 104.462)" fill="#f10" font-size="9" font-family="SegoeUI-Semibold, Segoe UI" font-weight="600"><tspan x="0" y="0">timer</tspan></text>
    <path id="Overview_-_Outline" data-name="Overview - Outline" d="M16.071.605a2.5,2.5,0,0,1-1.926-.774A2.656,2.656,0,0,1,13.495-1.6V.5h-2.02V-2.452a1.506,1.506,0,0,0-.123-.757c-.014-.023-.053-.084-.252-.084-.045,0-.139,0-.269.186a1.135,1.135,0,0,0-.189.672V.5H8.619V-2.536c0-.757-.243-.757-.388-.757-.074,0-.163.013-.27.166a1.194,1.194,0,0,0-.175.692V.5H5.767V-5h2.02v.1a2.153,2.153,0,0,1,.937-.2,1.834,1.834,0,0,1,1.112.354,1.86,1.86,0,0,1,.227.2,2.056,2.056,0,0,1,1.448-.551c.736,0,1.967.3,1.985,2.287a2.747,2.747,0,0,1,.711-1.468,2.525,2.525,0,0,1,1.909-.819,2.259,2.259,0,0,1,1.809.769,2.7,2.7,0,0,1,.6,1.467V-5h2.02v.075a1.5,1.5,0,0,1,.669-.154,1.322,1.322,0,0,1,.671.15l.251.144V-2.5l-.809-.636a.408.408,0,0,0-.223-.038.411.411,0,0,0-.354.207,1.362,1.362,0,0,0-.2.814V.5H18.52V-1.473H18.2V0l-.234.147A3.519,3.519,0,0,1,16.071.605ZM19.52-.5h.02V-2.153a2.741,2.741,0,0,1,.143-.919h-.143V-4h-.02Zm-7.044,0h.02V-2.773c0-.85-.249-1.168-.582-1.279a1.138,1.138,0,0,1,.285.308,2.418,2.418,0,0,1,.277,1.291ZM9.619-.5h.024V-2.435A2.4,2.4,0,0,1,9.7-2.983l-.166-.545a.786.786,0,0,0-.295-.418.791.791,0,0,0-.236-.12,1.712,1.712,0,0,1,.612,1.53ZM6.767-.5h.02V-2.435a2.445,2.445,0,0,1,.141-.854H6.786V-4h-.02Zm8.855-.973a.583.583,0,0,0,.083.095.949.949,0,0,0,.67.206,1.71,1.71,0,0,0,.979-.3Zm-1.173-.721a2.682,2.682,0,0,0,.105.755,2.255,2.255,0,0,1-.073-.521l-.007-.235Zm1.276-1h.723a.422.422,0,0,0-.026-.034.367.367,0,0,0-.319-.126A.491.491,0,0,0,15.724-3.194ZM2.25.6A1.624,1.624,0,0,1,.44-1.156V-3.2H-.311V-5H.44v-.919l2.02-.575V-5H4.072a1.107,1.107,0,0,1-.408-.238,1.032,1.032,0,0,1-.341-.782A1.047,1.047,0,0,1,3.659-6.8a1.106,1.106,0,0,1,.771-.3,1.126,1.126,0,0,1,.779.3,1.043,1.043,0,0,1,.34.784,1.036,1.036,0,0,1-.338.771A1.108,1.108,0,0,1,4.79-5h.645V.5H3.416V.321L3.26.4A2.228,2.228,0,0,1,2.25.6ZM1.44-4.2v3.044c0,.354.072.6.383.7a.913.913,0,0,1-.1-.1A1.336,1.336,0,0,1,1.46-1.45V-5.169l-.02.006ZM4.416-.5h.02V-4h-.02ZM2.485-1.216a.5.5,0,0,0,.1.009.2.2,0,0,0,.138-.042l.689-.545V-3.2H2.46v1.75A.837.837,0,0,0,2.485-1.216Z" transform="translate(261.07 104.462)" fill="rgba(0,0,0,0)"/>
    <g id="_6-2" data-name="6" transform="translate(266.558 56.267)">
      <path id="Path_18-2" data-name="Path 18" d="M122.845,33.644h-.509V28.8a6.138,6.138,0,0,0-1-3.386l-5.26-7.987,5.26-8.051a6.215,6.215,0,0,0,1-3.409V1.085h.509a.524.524,0,0,0,.509-.543A.524.524,0,0,0,122.845,0H104.509A.524.524,0,0,0,104,.542a.524.524,0,0,0,.509.543h.509V5.969a6.215,6.215,0,0,0,1,3.409l5.26,8.051-5.26,7.987a6.138,6.138,0,0,0-1,3.386v4.842h-.509a.435.435,0,0,0-.437.252.639.639,0,0,0,0,.581.435.435,0,0,0,.437.252h18.336a.435.435,0,0,0,.437-.252.639.639,0,0,0,0-.581A.435.435,0,0,0,122.845,33.644ZM106.037,28.8a5.008,5.008,0,0,1,.82-2.763l5.46-8.3a.572.572,0,0,0,0-.621l-5.46-8.362a5.084,5.084,0,0,1-.821-2.789V1.085h15.278V5.969a5.084,5.084,0,0,1-.821,2.789l-5.46,8.362a.572.572,0,0,0,0,.621l5.46,8.3a5.008,5.008,0,0,1,.82,2.763v4.842H106.035Z" transform="translate(-104 0.002)"/>
      <path id="Path_19-2" data-name="Path 19" d="M281.528,464h-1.019a.385.385,0,0,0-.452.194.582.582,0,0,0,0,.576.385.385,0,0,0,.452.194h1.019a.385.385,0,0,0,.452-.194.582.582,0,0,0,0-.576A.385.385,0,0,0,281.528,464Z" transform="translate(-268.795 -432.16)"/>
      <path id="Path_20-2" data-name="Path 20" d="M195.714,157.862a.515.515,0,0,0,.431-.225c.113-.161,2.2-3,3.577-4.881a.462.462,0,0,0,.033-.5A.512.512,0,0,0,199.3,152h-7.18a.512.512,0,0,0-.452.259.462.462,0,0,0,.033.5c1.381,1.881,3.465,4.72,3.577,4.881a.515.515,0,0,0,.431.225Zm2.616-4.9c-1.458,1.985-2.218,3.023-2.616,3.567-.4-.544-1.158-1.582-2.616-3.567Z" transform="translate(-186.037 -141.417)"/>
      <path id="Path_21-3" data-name="Path 21" d="M162.212,336.2a.517.517,0,0,0-.417-.2H155.45a.517.517,0,0,0-.417.2l-2.4,3.232a3.171,3.171,0,0,0-.635,1.9v2.854a.492.492,0,0,0,.509.482h6.112a.385.385,0,0,0,.452-.194.582.582,0,0,0,0-.576.385.385,0,0,0-.452-.194h-5.6v-2.372a2.249,2.249,0,0,1,.451-1.348l2.243-3.027h5.818l2.243,3.027a2.249,2.249,0,0,1,.451,1.348v2.372h-.509a.385.385,0,0,0-.452.194.582.582,0,0,0,0,.576.385.385,0,0,0,.452.194h1.019a.492.492,0,0,0,.509-.482v-2.854a3.172,3.172,0,0,0-.635-1.9Z" transform="translate(-148.945 -311.871)"/>
      <path id="Path_22-3" data-name="Path 22" d="M326.863,75.769a.527.527,0,0,0,.291.086.518.518,0,0,0,.417-.207l.558-.758a3.234,3.234,0,0,0,.639-1.926v-.482a.51.51,0,0,0-1.019,0v.482a2.308,2.308,0,0,1-.456,1.376l-.558.758a.484.484,0,0,0-.081.375.411.411,0,0,0,.208.3Z" transform="translate(-312.47 -67.661)"/>
      <path id="Path_23-2" data-name="Path 23" d="M344.509,33.446a.492.492,0,0,0,.509-.482v-.482a.51.51,0,0,0-1.018,0v.482a.492.492,0,0,0,.509.482Z" transform="translate(-328.721 -30.07)"/>
    </g>
    <text id="Overview-6" data-name="Overview" transform="translate(126.537 104.462)" fill="#f10" font-size="9" font-family="SegoeUI-Semibold, Segoe UI" font-weight="600"><tspan x="0" y="0">AllTasks</tspan></text>
    <path id="Overview_-_Outline-2" data-name="Overview - Outline" d="M29.8.605A4.01,4.01,0,0,1,28.861.5H26.634L25.606-.771V.5H23.582V-.894a1.526,1.526,0,0,1-.2.512A1.821,1.821,0,0,1,22.8.2a2.482,2.482,0,0,1-.761.313A3.677,3.677,0,0,1,21.2.605,3.571,3.571,0,0,1,19.713.314L19.458.2V.5H17.469V.419a2.072,2.072,0,0,1-.884.187A1.926,1.926,0,0,1,15.2.106a1.747,1.747,0,0,1-.53-1.314,1.939,1.939,0,0,1,.439-1.282V-4.468l.245-.145a3.386,3.386,0,0,1,.66-.3H14.255V.5H12.209V-4.914H10.581V.5H8.557V-7.162h2.024v.36h5.484v1.871a3.932,3.932,0,0,1,1.188-.175,1.935,1.935,0,0,1,2.175,1.725,1.539,1.539,0,0,1,.226-.73,1.839,1.839,0,0,1,.565-.573A2.488,2.488,0,0,1,20.955-5a3.209,3.209,0,0,1,.807-.1,3.607,3.607,0,0,1,1.3.222l.321.123v2.184L22.6-3.112a1.381,1.381,0,0,0-.807-.238.935.935,0,0,0-.226.024.533.533,0,0,0-.086.029,1.178,1.178,0,0,0,.174.08c.107.04.233.085.374.133l.028.011a6.209,6.209,0,0,1,.567.263,2.267,2.267,0,0,1,.5.359,1.6,1.6,0,0,1,.364.524,1.519,1.519,0,0,1,.1.316V-7.162h2.024V-3.84L26.536-5h2.552l-.278.325.013-.008A2.489,2.489,0,0,1,29.559-5a3.209,3.209,0,0,1,.807-.1,3.607,3.607,0,0,1,1.3.222l.321.123v2.184L31.2-3.112a1.381,1.381,0,0,0-.807-.238.935.935,0,0,0-.226.024.533.533,0,0,0-.086.029,1.178,1.178,0,0,0,.174.08c.107.04.233.085.374.133l.028.011a6.209,6.209,0,0,1,.567.263,2.267,2.267,0,0,1,.5.359,1.6,1.6,0,0,1,.364.524,1.723,1.723,0,0,1,.129.683,1.607,1.607,0,0,1-.233.861A1.821,1.821,0,0,1,31.407.2a2.482,2.482,0,0,1-.761.313A3.677,3.677,0,0,1,29.8.605ZM24.582-.5h.024V-6.162h-.024ZM13.209-.5h.046V-5.8h-.046ZM9.557-.5h.024V-6.162H9.557ZM26.8-2.331,28.025-.924V-2.095l.8.611a1.533,1.533,0,0,0,.958.333,1.19,1.19,0,0,0,.4-.05l-.034-.024a1.188,1.188,0,0,0-.222-.1l-.411-.151-.01,0a4.823,4.823,0,0,1-.557-.26,2.011,2.011,0,0,1-.49-.373,1.556,1.556,0,0,1-.326-.52,1.8,1.8,0,0,1-.107-.638,1.611,1.611,0,0,1,.123-.633Zm4.277.651a.947.947,0,0,1,.128.485,1.085,1.085,0,0,1-.007.124.773.773,0,0,0,.018-.173.742.742,0,0,0-.047-.288A.587.587,0,0,0,31.081-1.681Zm-8.6,0A.947.947,0,0,1,22.6-1.2a1.086,1.086,0,0,1-.007.124.773.773,0,0,0,.018-.173.742.742,0,0,0-.047-.288A.587.587,0,0,0,22.476-1.681Zm-3.018-.386.765.583a1.533,1.533,0,0,0,.958.333,1.19,1.19,0,0,0,.4-.05l-.034-.024a1.188,1.188,0,0,0-.222-.1l-.411-.151-.01,0a4.823,4.823,0,0,1-.557-.26,2.011,2.011,0,0,1-.49-.373,1.555,1.555,0,0,1-.326-.52,1.579,1.579,0,0,1-.074-.266Zm-2.794.6a.4.4,0,0,0-.019.144.1.1,0,0,0,.037.095.324.324,0,0,0,.214.055.512.512,0,0,0,.406-.168.606.606,0,0,0,.153-.3l-.358.05A1.1,1.1,0,0,0,16.664-1.463ZM29.059-3.477a.652.652,0,0,0-.029.2.819.819,0,0,0,.042.285.548.548,0,0,0,.1.163.964.964,0,0,1-.123-.487A.932.932,0,0,1,29.059-3.477Zm-8.6,0a.652.652,0,0,0-.029.2.819.819,0,0,0,.042.285.548.548,0,0,0,.1.163.963.963,0,0,1-.123-.487A.932.932,0,0,1,20.454-3.477Zm-3.395.132a1.616,1.616,0,0,0-.827.22q.156-.038.334-.064l.769-.109A.55.55,0,0,0,17.06-3.345ZM8.23.5H4.454L3.887-1.1H2.12L1.575.5H-.646L2.088-6.8H3.96L6.206-.759v-6.4H8.23ZM7.206-.5H7.23V-6.162H7.206ZM5.161-.5h.074L4.276-3.081l.391,1.124H4.646ZM.8-.5H.859l.495-1.457H1.341Zm1.94-2.457h.525L3-3.715Z" transform="translate(126.537 104.462)" fill="rgba(0,0,0,0)"/>
    <g id="testing-checklist-file-or-to-do-list-black-outline-17464-2" data-name="testing-checklist-file-or-to-do-list-black-outline-17464" transform="translate(139.254 56.075)">
      <path id="Path_1-3" data-name="Path 1" d="M51.182,6.076,46.46.419A1.1,1.1,0,0,0,45.616,0H33.009a1.332,1.332,0,0,0-1.2,1.432v28.7a1.332,1.332,0,0,0,1.2,1.432H50.336a1.332,1.332,0,0,0,1.2-1.432V7.088A1.575,1.575,0,0,0,51.182,6.076Zm-.65.214H46.811a.59.59,0,0,1-.53-.634V1.2Zm.417,23.838a.68.68,0,0,1-.609.73H33.01a.68.68,0,0,1-.609-.73V1.432A.68.68,0,0,1,33.01.7H45.616A.515.515,0,0,1,45.7.711V5.655a1.242,1.242,0,0,0,1.115,1.336h4.127a.835.835,0,0,1,.008.1Z" transform="translate(-31.814 0)"/>
      <path id="Path_2-3" data-name="Path 2" d="M61.291,70.309c-1.844,0-3.339,1.791-3.339,4s1.5,4,3.339,4,3.339-1.791,3.339-4S63.136,70.309,61.291,70.309Zm0,7.291a3.348,3.348,0,1,1,2.75-3.294,3.059,3.059,0,0,1-2.75,3.294Z" transform="translate(-55.231 -61.535)"/>
      <path id="Path_3-3" data-name="Path 3" d="M77.451,89.621,75.79,91.8l-.463-.757a.262.262,0,0,0-.409-.076.4.4,0,0,0-.063.49l.675,1.1a.283.283,0,0,0,.22.143h.016a.274.274,0,0,0,.216-.114l1.9-2.5a.4.4,0,0,0,.076-.351.32.32,0,0,0-.224-.244.269.269,0,0,0-.285.123Z" transform="translate(-70.319 -78.337)"/>
      <path id="Path_4-3" data-name="Path 4" d="M145.09,86.714h-5.176a.282.282,0,0,0-.272.167.411.411,0,0,0,0,.366.282.282,0,0,0,.272.167h5.176a.282.282,0,0,0,.272-.167.411.411,0,0,0,0-.366A.282.282,0,0,0,145.09,86.714Z" transform="translate(-128.387 -75.893)"/>
      <path id="Path_5-2" data-name="Path 5" d="M145.09,112.327h-5.176a.282.282,0,0,0-.272.167.411.411,0,0,0,0,.366.282.282,0,0,0,.272.167h5.176a.282.282,0,0,0,.272-.167.411.411,0,0,0,0-.366A.282.282,0,0,0,145.09,112.327Z" transform="translate(-128.387 -98.31)"/>
      <path id="Path_6-3" data-name="Path 6" d="M61.291,152.268c-1.844,0-3.339,1.791-3.339,4s1.5,4,3.339,4,3.339-1.791,3.339-4S63.136,152.268,61.291,152.268Zm0,7.291a3.349,3.349,0,1,1,2.75-3.295,3.06,3.06,0,0,1-2.75,3.295Z" transform="translate(-55.231 -133.267)"/>
      <path id="Path_7-3" data-name="Path 7" d="M145.09,168.673h-5.176a.282.282,0,0,0-.272.167.411.411,0,0,0,0,.366.282.282,0,0,0,.272.167h5.176a.282.282,0,0,0,.272-.167.411.411,0,0,0,0-.366A.282.282,0,0,0,145.09,168.673Z" transform="translate(-128.387 -147.624)"/>
      <path id="Path_8-3" data-name="Path 8" d="M145.1,194.286h-5.176a.362.362,0,0,0,0,.7H145.1a.282.282,0,0,0,.272-.167.411.411,0,0,0,0-.366.282.282,0,0,0-.272-.167Z" transform="translate(-128.396 -170.041)"/>
      <path id="Path_9-2" data-name="Path 9" d="M80.062,169.7a.262.262,0,0,0-.412.053l-.77,1.141-.77-1.141a.261.261,0,0,0-.411-.053.4.4,0,0,0-.044.493l.849,1.259-.849,1.259a.4.4,0,0,0,.044.493.261.261,0,0,0,.411-.053l.77-1.141.77,1.141a.261.261,0,0,0,.411.052.4.4,0,0,0,.044-.492l-.849-1.259L80.1,170.2a.4.4,0,0,0,.068-.26A.373.373,0,0,0,80.062,169.7Z" transform="translate(-72.821 -148.457)"/>
    </g>
    <text id="Overview-7" data-name="Overview" transform="translate(184.5 104.401)" fill="#f10" font-size="8" font-family="SegoeUI-Semibold, Segoe UI" font-weight="600"><tspan x="0" y="0">Stop Watch</tspan></text>
    <path id="Overview_-_Outline-3" data-name="Overview - Outline" d="M13.742,2.34H11.836V-1.3a2.406,2.406,0,0,1-.629,1.163A2.517,2.517,0,0,1,9.332.594,2.473,2.473,0,0,1,7.5-.116a2.372,2.372,0,0,1-.173-.2V.266L7.048.4A2.034,2.034,0,0,1,6.125.59,1.485,1.485,0,0,1,4.462-.939a1.683,1.683,0,0,1-.184.462,1.887,1.887,0,0,1-.627.646A2.568,2.568,0,0,1,2.821.5a4.294,4.294,0,0,1-.907.093,3.861,3.861,0,0,1-.4-.024C1.366.554,1.211.531,1.055.5A4.381,4.381,0,0,1,.6.388,1.758,1.758,0,0,1,.166.2L-.066.053V-2.31l.836.76a.988.988,0,0,0,.2.139,1.88,1.88,0,0,0,.3.125A2.483,2.483,0,0,0,1.6-1.2a1.637,1.637,0,0,0,.28.028,1.092,1.092,0,0,0,.592-.109c.041-.028.068-.054.068-.153a.138.138,0,0,0-.014-.072.517.517,0,0,0-.137-.132,2.328,2.328,0,0,0-.332-.19c-.151-.073-.316-.149-.489-.228l-.028-.014c-.2-.107-.39-.217-.564-.327a2.8,2.8,0,0,1-.521-.422A1.951,1.951,0,0,1,.075-3.4,1.893,1.893,0,0,1-.07-4.156,1.787,1.787,0,0,1,.181-5.1,2,2,0,0,1,.8-5.741a2.657,2.657,0,0,1,.815-.348A3.659,3.659,0,0,1,2.5-6.2,3.473,3.473,0,0,1,4-5.944l.278.138V-4.5h.184v-.8l1.906-.542V-4.5h.957v.843a2.29,2.29,0,0,1,.2-.227,2.609,2.609,0,0,1,1.9-.71,2.406,2.406,0,0,1,1.823.706,2.342,2.342,0,0,1,.583,1.123V-4.5h1.906v.089a2.074,2.074,0,0,1,.875-.182A1.94,1.94,0,0,1,16.2-3.87a2.737,2.737,0,0,1,.535,1.749,2.986,2.986,0,0,1-.59,1.914,2.1,2.1,0,0,1-1.7.79,1.912,1.912,0,0,1-.7-.124Zm.566-5.211a.483.483,0,0,0-.4.169.784.784,0,0,0-.174.534v.5a.563.563,0,0,0,.148.4.421.421,0,0,0,.34.143.428.428,0,0,0,.387-.188,1.367,1.367,0,0,0,.191-.8.976.976,0,0,0-.158-.611A.381.381,0,0,0,14.309-2.871Zm-4.934,0a.532.532,0,0,0-.455.191,1.088,1.088,0,0,0-.193.7,1,1,0,0,0,.191.663.554.554,0,0,0,.458.188.494.494,0,0,0,.433-.17,1.115,1.115,0,0,0,.176-.7A1.138,1.138,0,0,0,9.807-2.7.49.49,0,0,0,9.375-2.871Zm-3,1.74.047,0a.125.125,0,0,0,.088-.025l.331-.261A3.189,3.189,0,0,1,6.8-1.953a3.279,3.279,0,0,1,.1-.836H6.367v1.5A.881.881,0,0,0,6.379-1.131ZM3.974-2.789a2.133,2.133,0,0,1,.384.565,1.671,1.671,0,0,1,.1.291v-.855ZM2.551-4.422a1.707,1.707,0,0,0-.319.03.734.734,0,0,0-.218.075.3.3,0,0,0-.1.086.107.107,0,0,0-.007.047.162.162,0,0,0,.012.076.356.356,0,0,0,.1.1,1.852,1.852,0,0,0,.288.172c.137.068.3.143.481.223l.03.014c.208.108.408.224.594.344a3.23,3.23,0,0,1,.387.292V-3.95l-.308-.222A1.574,1.574,0,0,0,2.551-4.422ZM35.5.594A2.415,2.415,0,0,1,33.7-.112q-.076-.077-.143-.159V.266L33.282.4a2.034,2.034,0,0,1-.923.186A1.494,1.494,0,0,1,30.7-1.027V-2.789h-.357q.006.092.006.188V.5H28.465V.458a1.925,1.925,0,0,1-.73.136,1.766,1.766,0,0,1-1.27-.459,1.607,1.607,0,0,1-.488-1.209,1.786,1.786,0,0,1,.391-1.162V-3.567L25.253.5H23.438l-.781-2.871L21.874.5H20.039L18.193-6.1h2.07l.751,3.034L21.863-6.1h1.724l.755,2.936.71-2.936h2.01L26.51-4.088l.1-.061a3.316,3.316,0,0,1,1.716-.445,1.9,1.9,0,0,1,1.7.78V-4.5H30.7v-.8L32.6-5.846V-4.5h.957v.866a2.5,2.5,0,0,1,.184-.21,2.592,2.592,0,0,1,1.929-.75,2.8,2.8,0,0,1,1.173.237l.186.085v-2.15h1.91V-4.43a2,2,0,0,1,.813-.163A1.7,1.7,0,0,1,41.14-4a2.379,2.379,0,0,1,.446,1.538V.5H39.68V-2.187c0-.687-.2-.687-.293-.687a.33.33,0,0,0-.281.155.88.88,0,0,0-.165.568V.5h-1.91V.164l-.148.086A2.737,2.737,0,0,1,35.5.594ZM27.852-1.263a.425.425,0,0,0-.008.091c0,.03,0,.032.015.043a.267.267,0,0,0,.153.035.4.4,0,0,0,.32-.132.466.466,0,0,0,.1-.159l-.233.033A1.052,1.052,0,0,0,27.852-1.263Zm7.894-1.608a.742.742,0,0,0-.578.232.934.934,0,0,0-.231.674.873.873,0,0,0,.206.634.717.717,0,0,0,.567.206.958.958,0,0,0,.609-.238l.711-.57v-.206l-.694-.519A.967.967,0,0,0,35.746-2.871Zm-3.133,1.74.047,0a.125.125,0,0,0,.088-.025l.305-.241a3.028,3.028,0,0,1-.042-.511,3.165,3.165,0,0,1,.118-.883H32.6v1.5A.881.881,0,0,0,32.613-1.131Z" transform="translate(184.5 104.401)" fill="rgba(0,0,0,0)"/>
    <g id="_3-2" data-name="3" transform="translate(194.94 56.268)">
      <path id="Path_10-2" data-name="Path 10" d="M31.693,31.178,36.631,23a.728.728,0,0,0-.055-.816.465.465,0,0,0-.681-.066l-6.827,5.918a2.489,2.489,0,0,0-.732,2.289,2.1,2.1,0,0,0,1.448,1.732,1.739,1.739,0,0,0,1.91-.879Z" transform="translate(-14.038 -9.591)"/>
      <path id="Path_11-2" data-name="Path 11" d="M40.24,11.387c-.005-.012-.005-.025-.011-.037s-.017-.018-.023-.029a15.824,15.824,0,0,0-1.88-2.8l1.132-1.25.746.823,2.237-2.469L40.2,3.155l-2.237,2.47.746.823L37.58,7.7a14.509,14.509,0,0,0-2.536-2.076c-.01-.008-.016-.019-.027-.026s-.023-.006-.033-.013A13.249,13.249,0,0,0,29.568,3.6V2.91h.791a1.389,1.389,0,0,0,1.318-1.455A1.389,1.389,0,0,0,30.357,0H25.611a1.389,1.389,0,0,0-1.318,1.455A1.389,1.389,0,0,0,25.611,2.91H26.4v.673a13.259,13.259,0,0,0-1.7.311.487.487,0,0,0-.324.248.678.678,0,0,0-.072.452.527.527,0,0,0,.632.437,12.255,12.255,0,0,1,1.509-.282L26.97,4.7c.177-.015.334-.025.488-.033h0V5.821a.529.529,0,1,0,1.054,0V4.674a12.144,12.144,0,0,1,5.51,1.656l-.52.994a.654.654,0,0,0-.053.452.543.543,0,0,0,.246.348.486.486,0,0,0,.263.078.52.52,0,0,0,.457-.291l.518-.992a14.053,14.053,0,0,1,4.1,4.524l-.9.572a.544.544,0,0,0-.245.349.654.654,0,0,0,.054.451.519.519,0,0,0,.457.291.486.486,0,0,0,.263-.078l.9-.574a15.628,15.628,0,0,1,1.5,6.181H40.027a.469.469,0,0,0-.456.276.684.684,0,0,0,0,.612.469.469,0,0,0,.456.276h1.042a15.628,15.628,0,0,1-1.5,6.181l-.9-.58a.5.5,0,0,0-.72.213.654.654,0,0,0-.053.452.543.543,0,0,0,.246.348l.9.572a14.045,14.045,0,0,1-4.1,4.515l-.518-.991a.5.5,0,0,0-.72-.213.542.542,0,0,0-.246.348.653.653,0,0,0,.054.452l.52.994a12.144,12.144,0,0,1-5.51,1.656V32.6a.529.529,0,1,0-1.054,0v1.15a12.127,12.127,0,0,1-2.519-.359.526.526,0,0,0-.632.437.678.678,0,0,0,.072.452.487.487,0,0,0,.324.248,12.972,12.972,0,0,0,3.195.4H28a13.139,13.139,0,0,0,6.971-2.08.427.427,0,0,0,.049-.023c.011-.007.017-.018.027-.026A15.164,15.164,0,0,0,40.2,27.117a.543.543,0,0,0,.032-.045.309.309,0,0,0,.011-.037,17.076,17.076,0,0,0,0-15.641Z" transform="translate(-12.137 0.001)"/>
      <path id="Path_12-2" data-name="Path 12" d="M18.985,13H16.347a1.173,1.173,0,0,0-1.055,1.264,1.173,1.173,0,0,0,1.055,1.264h2.636a1.173,1.173,0,0,0,1.055-1.264A1.173,1.173,0,0,0,18.984,13Z" transform="translate(-7.903 -5.478)"/>
      <path id="Path_13-2" data-name="Path 13" d="M16.621,20H11.347a1.284,1.284,0,0,0,0,2.527h5.274a1.284,1.284,0,0,0,0-2.527Z" transform="translate(-5.542 -8.429)"/>
      <path id="Path_14-2" data-name="Path 14" d="M14.257,27H6.347a1.284,1.284,0,0,0,0,2.527h7.91a1.284,1.284,0,0,0,0-2.527Z" transform="translate(-3.185 -11.379)"/>
      <path id="Path_15-2" data-name="Path 15" d="M12.367,34H2.349a1.284,1.284,0,0,0,0,2.527H12.367a1.284,1.284,0,0,0,0-2.527Z" transform="translate(-1.294 -14.329)"/>
      <path id="Path_16-2" data-name="Path 16" d="M15.2,41H8.347a1.284,1.284,0,0,0,0,2.527H15.2A1.284,1.284,0,0,0,15.2,41Z" transform="translate(-4.13 -17.28)"/>
      <path id="Path_17-2" data-name="Path 17" d="M18.039,48H14.347a1.284,1.284,0,0,0,0,2.527h3.692a1.284,1.284,0,0,0,0-2.527Z" transform="translate(-6.959 -20.655)"/>
    </g>
    <path id="Path_31" data-name="Path 31" d="M295.931,249.338c-.5-.118-.616.311-.83.711a5.565,5.565,0,0,0-.011,1.811c.051.371.243,1.688.718,1.678.349-.007.642-.658.767-.969.26-.637.725-1.642.354-2.316A1.78,1.78,0,0,0,295.931,249.338Z" transform="translate(6.375 -193.599)" fill="#fff"/>
    <path id="Path_32" data-name="Path 32" d="M291.679,247.423a9.389,9.389,0,0,0-1.3.013c-2.5,2.634-.387,7.42,1.919,9.434a7.674,7.674,0,0,1-1.333-2.773C290.625,252.5,290.319,248.725,291.679,247.423Z" transform="translate(7.327 -193.599)" fill="#5e787c"/>
    <path id="Path_33" data-name="Path 33" d="M303.874,251.957c-1.977-.875-3.937-1.893-6.049-2.914a16.27,16.27,0,0,0-4.755-1.533,8.337,8.337,0,0,0-.478,6.819,6.531,6.531,0,0,0,2.737,3.379,8.089,8.089,0,0,0,1.181.508,8.8,8.8,0,0,0,6.2-2.12C304.506,254.459,305.118,253.05,303.874,251.957Zm-7.8,2.2c-.949.931-1.822-.278-2.08-1.348-.235-.966-.491-3.678,1.013-4.153a1.406,1.406,0,0,1,1.482.726A3.948,3.948,0,0,1,296.074,254.156Z" transform="translate(6.86 -193.599)" fill="#162435"/>
    <path id="Path_34" data-name="Path 34" d="M179.292,327.889a53.059,53.059,0,0,0,4.456-6.966c2.754-5.54,2.373-11.112.345-16.763a36.558,36.558,0,0,1-.385,11.991A42.28,42.28,0,0,1,179.292,327.889Z" transform="translate(72.623 -236.193)" fill="#6c858d"/>
    <path id="Path_35" data-name="Path 35" d="M170.351,322.536c2.06-2.392,4.376-4.526,5.964-7.636,2.623-5.135,1.787-9.459.466-13.878a24.852,24.852,0,0,1-.508,9.055A48.72,48.72,0,0,1,170.351,322.536Z" transform="translate(88.607 -227.702)" fill="#6c858d"/>
    <path id="Path_36" data-name="Path 36" d="M194.989,304.944c-.312,7.642-2.7,15.439-5.5,22.505a73.45,73.45,0,0,0,4.415-9.419A26.245,26.245,0,0,0,194.989,304.944Z" transform="translate(55.315 -236.537)" fill="#6c858d"/>
  </g>
</svg>
