<svg xmlns="http://www.w3.org/2000/svg" width="392.139" height="125.701" viewBox="0 0 392.139 125.701">
  <g id="Group_7" data-name="Group 7" transform="translate(-2188.059 -1391.712)">
    <g id="Group_5" data-name="Group 5">
      <g id="Group_2" data-name="Group 2" transform="translate(2188.325 1390.968)">
        <g id="Group_42" data-name="Group 42" transform="translate(0 22.531)">
          <g id="Subtraction_4" data-name="Subtraction 4" transform="translate(0 15.999)">
            <g id="Group_6" data-name="Group 6">
              <path id="Path_13" data-name="Path 13" d="M342.02,85.5H5.167s-4.477,1.119-4.7,0,1-1.548,2.581-4.477C6.7,74.24,13.529,59.438,13.529,44.075c0-10.731-3.332-21.737-6.734-30.261C3.664,5.97-.018,5.527.3,2.2S8.07.5,8.07.5H156.422c6.54,4.2,11.02,8.09,14.092,12.247,2.808,3.8,4.239,7.493,5.895,11.769a90.8,90.8,0,0,0,5.285,11.755,30.165,30.165,0,0,0,16.336,13.753,33.386,33.386,0,0,0,9.881,2.055l.42.005V52.06a32.532,32.532,0,0,0,9.613-2.041,29.491,29.491,0,0,0,15.822-13.563,91.445,91.445,0,0,0,5.287-11.815c1.657-4.3,3.088-8.01,5.9-11.831,3.073-4.179,7.555-8.092,14.1-12.31H342.02l-5.428,5.458-7.743,7.784-10.141,10.2L304.822,37.9l10.746,19.232,9.226,14.416,6.8,6.867Z" transform="translate(-0.048 0)" fill="#fff"/>
              <path id="Path_13_-_Outline" data-name="Path 13 - Outline" d="M1.784,86.5c-1.08,0-1.69-.3-1.811-.9-.172-.846.265-1.4.87-2.172A17.038,17.038,0,0,0,2.6,80.785c3.135-5.816,10.425-21.036,10.425-36.71,0-8.82-2.254-18.939-6.7-30.075A24.617,24.617,0,0,0,1.768,6.512C.526,5.042-.372,3.979-.2,2.151-.086.988.8-.4,4.365-.4A20.126,20.126,0,0,1,8.122,0h148.3l.27.079c6.593,4.231,11.113,8.162,14.224,12.371,2.851,3.859,4.291,7.578,5.959,11.885a90.348,90.348,0,0,0,5.256,11.694A29.672,29.672,0,0,0,198.2,49.553a33.136,33.136,0,0,0,9.716,2.025l.37,0,.021-.022a31.843,31.843,0,0,0,9.46-2.009,29,29,0,0,0,15.558-13.335,90.993,90.993,0,0,0,5.256-11.747l0-.008c1.67-4.331,3.112-8.072,5.962-11.947,3.111-4.23,7.632-8.181,14.23-12.434l.271-.08H342.02l.354.853L305.442,37.985,316,56.874l9.189,14.358,6.732,6.8L342.3,85.086,342.02,86H5.228A17.449,17.449,0,0,1,1.784,86.5ZM.947,85.369a1.69,1.69,0,0,0,.836.128,17.12,17.12,0,0,0,3.262-.483L5.167,85H340.395l-9.08-6.172-.074-.062-6.8-6.867-.066-.082-9.241-14.441L304.385,38.143l.082-.6L340.817,1H259.2c-6.424,4.155-10.825,8-13.842,12.106-2.771,3.767-4.191,7.45-5.835,11.715l0,.008A91.83,91.83,0,0,1,234.2,36.7a29.986,29.986,0,0,1-16.086,13.791,32.887,32.887,0,0,1-9.767,2.072v0l-.027.026-.42-.005a34.084,34.084,0,0,1-10.047-2.085,30.658,30.658,0,0,1-16.6-13.981A91.2,91.2,0,0,1,175.942,24.7c-1.642-4.24-3.059-7.9-5.83-11.652C167.094,8.962,162.7,5.132,156.275,1H8.07L7.963.988A19.425,19.425,0,0,0,4.365.6C2.81.6.929.887.8,2.247c-.135,1.409.529,2.194,1.733,3.62a25.506,25.506,0,0,1,4.727,7.762c4.492,11.255,6.77,21.5,6.77,30.446a69.365,69.365,0,0,1-3.9,21.851A99.388,99.388,0,0,1,3.484,81.26a17.924,17.924,0,0,1-1.855,2.785C1.071,84.756.887,85.011.947,85.369Z" transform="translate(-0.048 0)" fill="#707070"/>
            </g>
          </g>
          <g id="Path_37" data-name="Path 37" transform="translate(186.153)">
            <path id="Path_15" data-name="Path 15" d="M22.523,56.5a17.934,17.934,0,0,1-8.565-2.2,22.5,22.5,0,0,1-7-6,29.259,29.259,0,0,1-4.725-8.9,35.183,35.183,0,0,1,0-21.815,29.259,29.259,0,0,1,4.725-8.9,22.5,22.5,0,0,1,7-6,17.8,17.8,0,0,1,17.129,0,22.5,22.5,0,0,1,7,6,29.258,29.258,0,0,1,4.725,8.9,35.184,35.184,0,0,1,0,21.815,29.258,29.258,0,0,1-4.725,8.9,22.5,22.5,0,0,1-7,6A17.934,17.934,0,0,1,22.523,56.5Z" transform="translate(-0.084 0)" fill="#00d0e4"/>
            <path id="Path_16" data-name="Path 16" d="M22.438,1a17.579,17.579,0,0,0-8.4,2.153A22.072,22.072,0,0,0,7.175,9.035a28.74,28.74,0,0,0-4.641,8.743,34.588,34.588,0,0,0,0,21.443,28.74,28.74,0,0,0,4.641,8.743,22.073,22.073,0,0,0,6.868,5.882,17.445,17.445,0,0,0,16.79,0A22.073,22.073,0,0,0,37.7,47.965a28.741,28.741,0,0,0,4.641-8.743,34.589,34.589,0,0,0,0-21.443A28.741,28.741,0,0,0,37.7,9.035a22.072,22.072,0,0,0-6.868-5.882A17.579,17.579,0,0,0,22.438,1m0-1C34.83,0,44.876,12.76,44.876,28.5S34.83,57,22.438,57,0,44.24,0,28.5,10.046,0,22.438,0Z" fill="#707070"/>
          </g>
          <g id="Group_34" data-name="Group 34" transform="translate(259.88 33.866)">
            <text id="Overview" transform="translate(0 48.195)" fill="#f10" font-size="10" font-family="SegoeUI-Semibold, Segoe UI" font-weight="600"><tspan x="0" y="0">timer</tspan></text>
            <g id="_6" data-name="6" transform="translate(5.463)">
              <path id="Path_18" data-name="Path 18" d="M122.759,33.644h-.507V28.8a6.159,6.159,0,0,0-1-3.386l-5.236-7.987,5.236-8.051a6.235,6.235,0,0,0,1-3.409V1.085h.507a.523.523,0,0,0,.507-.543A.523.523,0,0,0,122.759,0H104.507A.523.523,0,0,0,104,.542a.523.523,0,0,0,.507.543h.507V5.969a6.236,6.236,0,0,0,1,3.409l5.236,8.051-5.236,7.987a6.159,6.159,0,0,0-1,3.386v4.842h-.507a.432.432,0,0,0-.435.252.641.641,0,0,0,0,.581.432.432,0,0,0,.435.252h18.252a.433.433,0,0,0,.435-.252.641.641,0,0,0,0-.581A.433.433,0,0,0,122.759,33.644ZM106.028,28.8a5.024,5.024,0,0,1,.816-2.763l5.435-8.3a.574.574,0,0,0,0-.621l-5.435-8.362a5.1,5.1,0,0,1-.817-2.789V1.085h15.208V5.969a5.1,5.1,0,0,1-.817,2.789l-5.435,8.362a.574.574,0,0,0,0,.621l5.435,8.3a5.024,5.024,0,0,1,.816,2.763v4.842H106.026Z" transform="translate(-104 0.002)"/>
              <path id="Path_19" data-name="Path 19" d="M281.521,464h-1.014a.382.382,0,0,0-.45.194.585.585,0,0,0,0,.576.382.382,0,0,0,.45.194h1.014a.382.382,0,0,0,.45-.194.585.585,0,0,0,0-.576A.382.382,0,0,0,281.521,464Z" transform="translate(-268.846 -432.16)"/>
              <path id="Path_20" data-name="Path 20" d="M195.7,157.862a.512.512,0,0,0,.429-.225c.112-.161,2.186-3,3.561-4.881a.464.464,0,0,0,.033-.5.509.509,0,0,0-.45-.259h-7.147a.509.509,0,0,0-.45.259.464.464,0,0,0,.033.5c1.375,1.881,3.449,4.72,3.561,4.881A.512.512,0,0,0,195.7,157.862Zm2.6-4.9c-1.451,1.985-2.208,3.023-2.6,3.567-.4-.544-1.153-1.582-2.6-3.567Z" transform="translate(-186.063 -141.417)"/>
              <path id="Path_21" data-name="Path 21" d="M162.166,336.2a.514.514,0,0,0-.416-.2h-6.316a.514.514,0,0,0-.416.2l-2.384,3.232a3.181,3.181,0,0,0-.632,1.9v2.854a.491.491,0,0,0,.507.482h6.084a.382.382,0,0,0,.45-.194.585.585,0,0,0,0-.576.382.382,0,0,0-.45-.194h-5.579v-2.372a2.255,2.255,0,0,1,.449-1.348l2.233-3.027h5.792l2.233,3.027a2.256,2.256,0,0,1,.449,1.348v2.372h-.507a.382.382,0,0,0-.45.194.585.585,0,0,0,0,.576.382.382,0,0,0,.45.194h1.014a.491.491,0,0,0,.507-.482v-2.854a3.182,3.182,0,0,0-.632-1.9Z" transform="translate(-148.959 -311.871)"/>
              <path id="Path_22" data-name="Path 22" d="M326.862,75.769a.523.523,0,0,0,.289.086.515.515,0,0,0,.416-.207l.555-.758a3.243,3.243,0,0,0,.636-1.926v-.482a.508.508,0,0,0-1.014,0v.482a2.315,2.315,0,0,1-.454,1.376l-.555.758a.485.485,0,0,0-.08.375.41.41,0,0,0,.208.3Z" transform="translate(-312.535 -67.661)"/>
              <path id="Path_23" data-name="Path 23" d="M344.507,33.446a.491.491,0,0,0,.507-.482v-.482a.508.508,0,0,0-1.014,0v.482a.491.491,0,0,0,.507.482Z" transform="translate(-328.79 -30.07)"/>
            </g>
          </g>
          <g id="Group_35" data-name="Group 35" transform="translate(125.961 33.674)">
            <text id="Overview-2" data-name="Overview" transform="translate(0 48.387)" fill="#f10" font-size="10" font-family="SegoeUI-Semibold, Segoe UI" font-weight="600"><tspan x="0" y="0">AllTasks</tspan></text>
            <g id="testing-checklist-file-or-to-do-list-black-outline-17464" transform="translate(12.658)">
              <path id="Path_1" data-name="Path 1" d="M51.094,6.076,46.394.419A1.092,1.092,0,0,0,45.553,0H33a1.33,1.33,0,0,0-1.19,1.432v28.7A1.33,1.33,0,0,0,33,31.564H50.251a1.33,1.33,0,0,0,1.19-1.432V7.088A1.58,1.58,0,0,0,51.094,6.076Zm-.647.214h-3.7a.589.589,0,0,1-.528-.634V1.2Zm.416,23.838a.679.679,0,0,1-.607.73H33a.679.679,0,0,1-.607-.73V1.432A.679.679,0,0,1,33,.7H45.554a.511.511,0,0,1,.083.009V5.655a1.24,1.24,0,0,0,1.11,1.336h4.109a.837.837,0,0,1,.008.1Z" transform="translate(-31.814 0)"/>
              <path id="Path_2" data-name="Path 2" d="M61.276,70.309c-1.836,0-3.324,1.791-3.324,4s1.488,4,3.324,4,3.324-1.791,3.324-4S63.112,70.309,61.276,70.309Zm0,7.291a3.351,3.351,0,0,1,0-6.588,3.351,3.351,0,0,1,0,6.588Z" transform="translate(-55.244 -61.535)"/>
              <path id="Path_3" data-name="Path 3" d="M77.439,89.621,75.785,91.8l-.461-.757a.261.261,0,0,0-.407-.076.4.4,0,0,0-.063.49l.672,1.1a.282.282,0,0,0,.219.143h.016a.272.272,0,0,0,.215-.114l1.894-2.5a.4.4,0,0,0,.076-.351.319.319,0,0,0-.223-.244.267.267,0,0,0-.284.123Z" transform="translate(-70.34 -78.337)"/>
              <path id="Path_4" data-name="Path 4" d="M145.065,86.714h-5.152a.281.281,0,0,0-.271.167.413.413,0,0,0,0,.366.281.281,0,0,0,.271.167h5.152a.281.281,0,0,0,.271-.167.413.413,0,0,0,0-.366A.281.281,0,0,0,145.065,86.714Z" transform="translate(-128.438 -75.893)"/>
              <path id="Path_5" data-name="Path 5" d="M145.065,112.327h-5.152a.281.281,0,0,0-.271.167.413.413,0,0,0,0,.366.281.281,0,0,0,.271.167h5.152a.281.281,0,0,0,.271-.167.413.413,0,0,0,0-.366A.281.281,0,0,0,145.065,112.327Z" transform="translate(-128.438 -98.31)"/>
              <path id="Path_6" data-name="Path 6" d="M61.276,152.268c-1.836,0-3.324,1.791-3.324,4s1.488,4,3.324,4,3.324-1.791,3.324-4S63.112,152.268,61.276,152.268Zm0,7.291a3.351,3.351,0,0,1,0-6.59,3.352,3.352,0,0,1,0,6.59Z" transform="translate(-55.244 -133.267)"/>
              <path id="Path_7" data-name="Path 7" d="M145.065,168.673h-5.152a.281.281,0,0,0-.271.167.413.413,0,0,0,0,.366.281.281,0,0,0,.271.167h5.152a.281.281,0,0,0,.271-.167.413.413,0,0,0,0-.366A.281.281,0,0,0,145.065,168.673Z" transform="translate(-128.438 -147.624)"/>
              <path id="Path_8" data-name="Path 8" d="M145.074,194.286h-5.152a.362.362,0,0,0,0,.7h5.152a.281.281,0,0,0,.271-.167.413.413,0,0,0,0-.366.281.281,0,0,0-.271-.167Z" transform="translate(-128.447 -170.041)"/>
              <path id="Path_9" data-name="Path 9" d="M80.051,169.7a.26.26,0,0,0-.41.053l-.766,1.141-.766-1.141a.259.259,0,0,0-.409-.053.4.4,0,0,0-.044.493l.845,1.259-.845,1.259a.4.4,0,0,0,.044.493.259.259,0,0,0,.409-.053l.766-1.141.766,1.141a.259.259,0,0,0,.409.052.4.4,0,0,0,.044-.492l-.845-1.259.843-1.252a.4.4,0,0,0,.068-.26A.374.374,0,0,0,80.051,169.7Z" transform="translate(-72.842 -148.457)"/>
            </g>
          </g>
          <g id="Group_36" data-name="Group 36" transform="translate(180.488 7.339)">
            <text id="Overview-3" data-name="Overview" transform="translate(0 74.722)" fill="#0094ff" font-size="10" font-family="SegoeUI-Semibold, Segoe UI" font-weight="600"><tspan x="0" y="0">Stop Watch</tspan></text>
            <g id="_3" data-name="3" transform="translate(8.285 0)">
              <path id="Path_10" data-name="Path 10" d="M32.425,33.205l6-9.982a.892.892,0,0,0-.068-.995.563.563,0,0,0-.827-.082l-8.3,7.223a3.046,3.046,0,0,0-.892,2.8A2.556,2.556,0,0,0,30.1,34.281,2.111,2.111,0,0,0,32.425,33.205Z" transform="translate(-10.967 -6.851)" fill="#fff"/>
              <path id="Path_11" data-name="Path 11" d="M43.673,13.9c-.007-.015-.007-.031-.013-.045s-.02-.022-.028-.036A19.325,19.325,0,0,0,41.347,10.4l1.376-1.522.906,1,2.718-3.014-2.718-3.01L40.91,6.869l.907,1L40.441,9.4a17.65,17.65,0,0,0-3.081-2.534c-.012-.009-.019-.023-.032-.031s-.027-.008-.041-.016A16.052,16.052,0,0,0,30.7,4.4V3.553h.962a1.692,1.692,0,0,0,1.6-1.776A1.693,1.693,0,0,0,31.663,0H25.9a1.692,1.692,0,0,0-1.6,1.776,1.692,1.692,0,0,0,1.6,1.776h.962v.821a16.046,16.046,0,0,0-2.066.38.592.592,0,0,0-.392.3.831.831,0,0,0-.089.549.641.641,0,0,0,.768.534,14.834,14.834,0,0,1,1.833-.345l.635-.053c.214-.018.407-.031.593-.041h0V7.1a.644.644,0,1,0,1.281,0V5.7a14.709,14.709,0,0,1,6.7,2.022l-.632,1.214a.8.8,0,0,0-.062.548.663.663,0,0,0,.3.423.591.591,0,0,0,.32.1.632.632,0,0,0,.556-.355l.63-1.211a17.128,17.128,0,0,1,4.98,5.523l-1.091.7a.664.664,0,0,0-.3.423.8.8,0,0,0,.063.548.631.631,0,0,0,.556.355.591.591,0,0,0,.32-.1l1.094-.7a19.148,19.148,0,0,1,1.828,7.546H43.413a.569.569,0,0,0-.554.337.838.838,0,0,0,0,.747.569.569,0,0,0,.554.337h1.266A19.148,19.148,0,0,1,42.85,31.7L41.76,31a.606.606,0,0,0-.875.26.8.8,0,0,0-.062.548.663.663,0,0,0,.3.423l1.091.7a17.127,17.127,0,0,1-4.98,5.523l-.63-1.21a.606.606,0,0,0-.875-.26.662.662,0,0,0-.3.423.8.8,0,0,0,.063.548l.632,1.213a14.709,14.709,0,0,1-6.7,2.022v-1.4a.644.644,0,1,0-1.281,0v1.4a14.675,14.675,0,0,1-3.061-.438.64.64,0,0,0-.768.534.831.831,0,0,0,.089.549.592.592,0,0,0,.392.3,15.7,15.7,0,0,0,3.883.492h.12a15.914,15.914,0,0,0,8.468-2.536.518.518,0,0,0,.06-.028c.012-.009.02-.022.032-.031A18.479,18.479,0,0,0,43.62,33.1a.663.663,0,0,0,.038-.055c.007-.015.007-.031.013-.045a20.926,20.926,0,0,0,0-19.1Z" transform="translate(-9.518 0.001)" fill="#fff"/>
              <path id="Path_12" data-name="Path 12" d="M19.779,13h-3.2a1.43,1.43,0,0,0-1.282,1.542,1.43,1.43,0,0,0,1.282,1.542h3.2a1.43,1.43,0,0,0,1.282-1.542A1.43,1.43,0,0,0,19.779,13Z" transform="translate(-6.311 -3.817)" fill="#fff"/>
              <path id="Path_13-2" data-name="Path 13" d="M17.983,20H11.574a1.43,1.43,0,0,0-1.282,1.542,1.43,1.43,0,0,0,1.282,1.542h6.409a1.43,1.43,0,0,0,1.282-1.543A1.43,1.43,0,0,0,17.983,20Z" transform="translate(-4.518 -5.874)" fill="#fff"/>
              <path id="Path_14" data-name="Path 14" d="M16.185,27H6.574a1.569,1.569,0,0,0,0,3.085h9.611a1.569,1.569,0,0,0,0-3.085Z" transform="translate(-2.729 -7.93)" fill="#fff"/>
              <path id="Path_15-2" data-name="Path 15" d="M14.751,34H2.574a1.569,1.569,0,0,0,0,3.085H14.751a1.569,1.569,0,0,0,0-3.085Z" transform="translate(-1.293 -9.986)" fill="#fff"/>
              <path id="Path_16-2" data-name="Path 16" d="M16.906,41H8.574a1.569,1.569,0,0,0,0,3.085h8.331a1.569,1.569,0,0,0,0-3.085Z" transform="translate(-3.447 -12.042)" fill="#fff"/>
              <path id="Path_17" data-name="Path 17" d="M19.06,48H14.572a1.569,1.569,0,0,0,0,3.085H19.06a1.569,1.569,0,0,0,0-3.085Z" transform="translate(-5.593 -14.617)" fill="#fff"/>
            </g>
          </g>
        </g>
        <g id="Group_50" data-name="Group 50" transform="translate(51.825 55.736)">
          <g id="Component_5_2" data-name="Component 5 – 2" transform="translate(0 0)">
            <text id="Overview-4" data-name="Overview" transform="translate(0 47.856)" fill="#f10" font-size="10" font-family="SegoeUI-Semibold, Segoe UI" font-weight="600"><tspan x="0" y="0">Overview</tspan></text>
            <path id="Overview_-_Outline" data-name="Overview - Outline" d="M32.427.617a2.725,2.725,0,0,1-2.1-.842,3.215,3.215,0,0,1-.76-2.255,3.159,3.159,0,0,1,.827-2.244,2.752,2.752,0,0,1,2.081-.892,2.457,2.457,0,0,1,1.968.835,2.518,2.518,0,0,1,.284.41L34.4-5.5h2.23l.625,2.478.7-2.478h1.834l.591,2.379L40.956-5.5H43.1l-1.77,6H39.382l-.629-2.349L38.071.5H36.159L35.1-3.1q.022.226.022.47v.935h-.391V-.036L34.5.111A3.856,3.856,0,0,1,32.427.617ZM30.971-3.857a2.246,2.246,0,0,0-.4,1.377,2.262,2.262,0,0,0,.5,1.578,1.5,1.5,0,0,0,.571.388,1.776,1.776,0,0,1-.33-.241,1.926,1.926,0,0,1-.588-1.423l-.009-.315h-.064l.077-.567A2.314,2.314,0,0,1,30.971-3.857Zm.858,2.165a.72.72,0,0,0,.153.2,1.106,1.106,0,0,0,.782.244,1.965,1.965,0,0,0,1.179-.385l.084-.06Zm3.9-2.808.8,2.723L35.846-4.5Zm-1.7,1.808h.091a2.591,2.591,0,0,0-.244-1.144A2.283,2.283,0,0,1,34.03-3Zm-2.111-.8h1.017a.58.58,0,0,0-.08-.129.462.462,0,0,0-.4-.16.6.6,0,0,0-.466.2A.919.919,0,0,0,31.922-3.493ZM15.327.617a2.725,2.725,0,0,1-2.1-.842,3.215,3.215,0,0,1-.76-2.255A3.159,3.159,0,0,1,13.3-4.725a2.752,2.752,0,0,1,2.081-.892,2.457,2.457,0,0,1,1.968.835,3.228,3.228,0,0,1,.681,2.155v.935h-.391V-.036L17.4.111A3.856,3.856,0,0,1,15.327.617ZM13.872-3.857a2.246,2.246,0,0,0-.4,1.377,2.262,2.262,0,0,0,.5,1.578,1.5,1.5,0,0,0,.571.388,1.776,1.776,0,0,1-.33-.241,1.926,1.926,0,0,1-.588-1.423l-.009-.315h-.064l.077-.567A2.314,2.314,0,0,1,13.872-3.857Zm.858,2.165a.72.72,0,0,0,.153.2,1.106,1.106,0,0,0,.782.244,1.965,1.965,0,0,0,1.179-.385l.084-.06Zm2.2-1h.091a2.591,2.591,0,0,0-.244-1.144A2.283,2.283,0,0,1,16.931-3Zm-2.111-.8h1.017a.58.58,0,0,0-.08-.129.462.462,0,0,0-.4-.16.6.6,0,0,0-.466.2A.918.918,0,0,0,14.822-3.493ZM3.75.617A3.643,3.643,0,0,1,.959-.524,4.1,4.1,0,0,1-.085-3.418,4.317,4.317,0,0,1,.975-6.452,3.753,3.753,0,0,1,3.862-7.619,3.573,3.573,0,0,1,6.605-6.482a3.7,3.7,0,0,1,.651.982H9.2l.906,2.858L11.05-5.5h2.282l-2.32,6H9.095L7.637-3.458A4.272,4.272,0,0,1,6.583-.539,3.694,3.694,0,0,1,3.75.617Zm.112-7.236a2.759,2.759,0,0,0-2.152.845,3.312,3.312,0,0,0-.8,2.356A3.1,3.1,0,0,0,1.692-1.2,2.648,2.648,0,0,0,3.75-.383a2.7,2.7,0,0,0,2.1-.836,3.325,3.325,0,0,0,.79-2.37A3.11,3.11,0,0,0,5.87-5.8,2.578,2.578,0,0,0,3.862-6.619ZM8.319-4.5,9.382-1.614,8.467-4.5Zm3.453,0L11.18-2.708,11.873-4.5ZM29.411.5H27.278V-4.3L25.421.5H23.5L22-3.574v.682l-.809-.636a.48.48,0,0,0-.282-.054.512.512,0,0,0-.438.252,1.565,1.565,0,0,0-.238.937V.5H18.1v-6h2.133v.12a1.608,1.608,0,0,1,.8-.208A1.61,1.61,0,0,1,21.6-5.5h2.008l.906,2.858L25.459-5.5h3.952Zm-1.133-1h.133v-4h-.133ZM19.1-.5h.133V-2.393A2.921,2.921,0,0,1,19.42-3.47h-.184V-4.5H19.1Zm3.625-4,1.063,2.886L22.876-4.5Zm3.453,0-.592,1.792L26.282-4.5ZM3.755-.4a2.377,2.377,0,0,1-1.919-.9,3.363,3.363,0,0,1-.7-2.2A3.335,3.335,0,0,1,1.856-5.7,2.436,2.436,0,0,1,3.8-6.6a2.393,2.393,0,0,1,1.941.865,3.459,3.459,0,0,1,.678,2.257,3.322,3.322,0,0,1-.7,2.225A2.467,2.467,0,0,1,3.755-.4ZM3.8-5.6a1.458,1.458,0,0,0-1.182.539,2.34,2.34,0,0,0-.486,1.568,2.367,2.367,0,0,0,.472,1.562,1.383,1.383,0,0,0,1.147.53,1.491,1.491,0,0,0,1.207-.5,2.37,2.37,0,0,0,.461-1.574,2.51,2.51,0,0,0-.45-1.62A1.419,1.419,0,0,0,3.8-5.6ZM28.35-5.55a1.185,1.185,0,0,1-.813-.312,1.093,1.093,0,0,1-.361-.828,1.109,1.109,0,0,1,.356-.829,1.174,1.174,0,0,1,.818-.321,1.2,1.2,0,0,1,.828.319,1.105,1.105,0,0,1,.36.831,1.1,1.1,0,0,1-.358.816A1.191,1.191,0,0,1,28.35-5.55Zm0-1.289a.172.172,0,0,0-.134.05.114.114,0,0,0-.04.1.1.1,0,0,0,.035.09.183.183,0,0,0,.139.05A.189.189,0,0,0,28.5-6.6a.1.1,0,0,0,.042-.087.11.11,0,0,0-.04-.1A.193.193,0,0,0,28.35-6.839Z" transform="translate(0 47.856)" fill="rgba(0,0,0,0)"/>
            <g id="House_Icon" data-name="House Icon" transform="translate(8.964)">
              <path id="Path" d="M19.38,11.05H12.333a.75.75,0,0,1-.75-.75V2.832a1.379,1.379,0,0,0-.425-.948.734.734,0,0,0-.535-.2l-.052,0H8.809l-.052,0a.734.734,0,0,0-.535.2,1.379,1.379,0,0,0-.425.948V10.3a.75.75,0,0,1-.75.75H0a.75.75,0,0,1-.75-.75V0A.75.75,0,0,1,0-.75.75.75,0,0,1,.75,0V9.55H6.3V2.81q0-.02,0-.041A2.889,2.889,0,0,1,7.229.76a2.225,2.225,0,0,1,1.6-.573h1.715a2.225,2.225,0,0,1,1.6.573,2.889,2.889,0,0,1,.931,2.009q0,.02,0,.041V9.55H18.63V0a.75.75,0,0,1,.75-.75.75.75,0,0,1,.75.75V10.3A.75.75,0,0,1,19.38,11.05Z" transform="translate(3.113 26.553)"/>
              <path id="Path-2" data-name="Path" d="M25.606,14.023a.748.748,0,0,1-.555-.245L13.461,1.06a.856.856,0,0,0-1.317,0L.554,13.778a.75.75,0,0,1-1.06.049.75.75,0,0,1-.049-1.06L11.041.044l.009-.01a2.353,2.353,0,0,1,3.505,0l.009.01,11.6,12.724a.75.75,0,0,1-.554,1.255Z" transform="translate(0 -0.001)"/>
            </g>
          </g>
        </g>
        <path id="Path_30" data-name="Path 30" d="M109.271,5.907A101.1,101.1,0,0,1,89.577,3.941C81.844,2.448,74.324.834,66.328-.219a108.366,108.366,0,0,0-16.871-.974C35.128-.834,20.1.5,5.705,5.47c-2.35.814-3.6,1.951-5.908,2.923.088.97,2.395,2.673,2.558,3.3,1.488,1.7,2.017,3.63,3.7,5.088.231-.67-.034-2.837-.051-5.1A4.72,4.72,0,0,1,8.065,8l3.116-1.735,3.255-1.72-2.222,5.08a11.947,11.947,0,0,0-.483,7.128,17.267,17.267,0,0,0,3.734,6.115c.452-1.032,1.1-2.334,2.014-3.974A38.3,38.3,0,0,1,24.9,9.641l4.025-3.489L26.669,7.99c-.013.039,6.438-6.941,9.007-1.422.061.132-.428,4.963.3,7.288.889,2.17.691,2.121,2.013,3.265A13.312,13.312,0,0,0,40.551,19.1c.2.124-.359-4.638.717-7.525S50,6.438,50,6.438L48.1,11.03c-.01.021-.922,2.311.149,6.706a12.719,12.719,0,0,0,2.639,5.146,51.249,51.249,0,0,1,2.392-6.722,15.6,15.6,0,0,1,7.751-7.536,34.023,34.023,0,0,0-.694,8.851c.131,3.718,2.058,6.342,3.073,8.055.807-1.424,1.937-3.353,3.306-5.528a22.343,22.343,0,0,1,6.822-7.078l1.178-.689.752.867c.362.416.918,1.6.588,4.82-.177,1.7-.5,4.029-.753,5.827,1.16-.709,2.821-1.794,5.128-3.43a72.308,72.308,0,0,0,9.084-7.7,27.138,27.138,0,0,1-2.253,7.965c-.639,1.363-1.266,2.665-1.811,3.783a81.667,81.667,0,0,0,8.1-3.923,54.98,54.98,0,0,0,10.34-8.02L107.6,7.659l-1.677,5.633c-.029.1-.319,1.047-1.618,4.5a25.758,25.758,0,0,1-2.054,4.047,125.061,125.061,0,0,0,11.279-6.369c4.3-2.927,9.048-7.963,12.534-11.932C121.189,5.468,114.609,5.886,109.271,5.907Z" transform="translate(286.237 94.393) rotate(-47)" fill="#fff"/>
        <path id="Path_30_-_Outline" data-name="Path 30 - Outline" d="M51.813-1.722A110.7,110.7,0,0,1,66.393-.715C72.822.132,79.064,1.364,85.1,2.555c1.5.3,3.041.6,4.571.9a100.472,100.472,0,0,0,19.25,1.958h.348c7.284-.029,12.718-.793,16.615-2.338l.56.795c-5.024,5.721-9.155,9.652-12.628,12.016a78.961,78.961,0,0,1-8.605,4.953c-1.05.541-1.957,1.008-2.707,1.437l-1.672.956,1-1.648a24.935,24.935,0,0,0,2.014-3.964c1.324-3.518,1.6-4.426,1.607-4.463l.921-3.093-2.111,2.7a55.588,55.588,0,0,1-10.444,8.106,48.99,48.99,0,0,1-6.085,3.017c-.8.35-1.5.653-2.056.928l-1.312.648L85,24.146c.675-1.385,1.266-2.62,1.808-3.776A26.681,26.681,0,0,0,88.8,14.026a73.989,73.989,0,0,1-8.076,6.7c-2.008,1.424-3.743,2.584-5.156,3.449l-.906.554.15-1.051c.243-1.7.571-4.09.75-5.808.332-3.238-.274-4.217-.468-4.44l-.48-.553-.819.48a21.933,21.933,0,0,0-6.651,6.913c-1.43,2.272-2.581,4.249-3.294,5.508l-.425.751-.44-.742c-.123-.208-.262-.433-.41-.672a15.209,15.209,0,0,1-2.733-7.621,38.077,38.077,0,0,1,.5-7.973,14.634,14.634,0,0,0-6.6,6.841,50.17,50.17,0,0,0-2.368,6.656l-.257.909L50.5,23.2a13.313,13.313,0,0,1-2.742-5.349c-1.064-4.366-.234-6.733-.124-7.014h0l1.486-3.6c-2.466.842-6.687,2.628-7.387,4.506a19.2,19.2,0,0,0-.644,6.334c.018.992.021,1.171-.169,1.365a.511.511,0,0,1-.514.132c-.336-.088-.873-.455-2.752-2.08a4.6,4.6,0,0,1-1.778-2.526c-.1-.263-.22-.56-.37-.927l-.015-.041c-.59-1.895-.414-5.305-.339-6.761.011-.216.023-.438.025-.552A2.606,2.606,0,0,0,32.79,4.944a6.748,6.748,0,0,0-3.6,1.519l.057.068-4.025,3.489a38.1,38.1,0,0,0-7.311,9.119c-.826,1.475-1.5,2.8-1.993,3.931l-.315.72-.518-.591a17.74,17.74,0,0,1-3.841-6.315,12.339,12.339,0,0,1,.508-7.459h0L13.4,5.656,11.419,6.7,8.337,8.421l-.011.008a4.171,4.171,0,0,0-1.82,3.241c.006.837.048,1.671.084,2.407a9.707,9.707,0,0,1-.06,2.863l-.241.7-.559-.483a11.19,11.19,0,0,1-2.242-2.933,14.618,14.618,0,0,0-1.509-2.2L1.9,11.93l-.028-.108a6.557,6.557,0,0,0-.887-1C.19,10.015-.634,9.181-.7,8.439l-.033-.364L-.4,7.933A23.3,23.3,0,0,0,2.207,6.6,18.882,18.882,0,0,1,5.542,5a113.55,113.55,0,0,1,22-5.086,197.224,197.224,0,0,1,21.9-1.6C50.225-1.712,51.022-1.722,51.813-1.722Zm57.108,8.13A101.456,101.456,0,0,1,89.482,4.432c-1.532-.3-3.079-.6-4.575-.9C78.886,2.348,72.66,1.119,66.263.277a109.714,109.714,0,0,0-14.449-1c-.782,0-1.571.01-2.344.029C37.223-.386,21.2.645,5.868,5.943A17.817,17.817,0,0,0,2.7,7.467c-.7.4-1.414.806-2.276,1.2A10.364,10.364,0,0,0,1.7,10.119a5.356,5.356,0,0,1,1.1,1.313A15.8,15.8,0,0,1,4.346,13.71a14.433,14.433,0,0,0,1.3,1.941c-.006-.449-.033-.991-.059-1.523-.037-.746-.079-1.591-.085-2.449A5.158,5.158,0,0,1,7.735,7.623l.024-.018.029-.022.034-.02,3.125-1.741,4.52-2.388-2.8,6.4a11.383,11.383,0,0,0-.454,6.787,15.573,15.573,0,0,0,3.12,5.324c.463-.99,1.036-2.095,1.709-3.3a38.443,38.443,0,0,1,7.529-9.387l1.612-1.4.056-.17.1-.082.026-.027c1.084-1.1,3.88-3.643,6.424-3.643h0A3.6,3.6,0,0,1,36.13,6.358c.066.142.063.2.025.938-.072,1.4-.241,4.663.289,6.392.149.364.27.672.367.92a3.713,3.713,0,0,0,1.5,2.135c.348.3,1.19,1.029,1.783,1.485l0-.127a19.968,19.968,0,0,1,.707-6.7c.495-1.327,2.188-2.649,5.031-3.931a34.768,34.768,0,0,1,4.025-1.509l1-.294-2.3,5.558c-.027.069-.835,2.258.173,6.4A12.128,12.128,0,0,0,50.682,21.8a50.09,50.09,0,0,1,2.141-5.844,14.77,14.77,0,0,1,4.564-5.719A16.966,16.966,0,0,1,60.746,8.2l.05-.023,1.014-.576-.3,1.143a33.963,33.963,0,0,0-.678,8.708,14.078,14.078,0,0,0,2.56,7.09c.716-1.244,1.711-2.927,2.9-4.811a22.593,22.593,0,0,1,7-7.245l1.533-.9,1.024,1.18c.506.582,1.04,1.957.707,5.2-.146,1.4-.388,3.229-.6,4.782,1.21-.772,2.616-1.726,4.193-2.845a71.7,71.7,0,0,0,9.009-7.637.517.517,0,0,1,.075-.065l.891-.632-.1,1.087a27.378,27.378,0,0,1-2.3,8.13c-.375.8-.773,1.635-1.2,2.532q.389-.171.82-.358a48.186,48.186,0,0,0,5.962-2.953,54.678,54.678,0,0,0,10.221-7.921l3.7-4.743.874.45-1.677,5.633c-.028.1-.315,1.04-1.629,4.531a21.142,21.142,0,0,1-1.212,2.594q.56-.292,1.188-.614a78.12,78.12,0,0,0,8.5-4.891A67.75,67.75,0,0,0,124.418,4.638c-3.821,1.164-8.8,1.745-15.145,1.77Z" transform="translate(286.237 94.393) rotate(-47)" fill="#707070"/>
        <path id="Path_29" data-name="Path 29" d="M44.924,23.615q-.682-.063-1.43-.156a84.068,84.068,0,0,1-9.613-1.869s5.41-3.826,7.954-9.269c2.017,3.592,3.323,10.039,3.323,10.039A22.58,22.58,0,0,0,53.7,13.624c1.759,6.007,1.511,7.716,1.511,7.716s-4.39,2.026-4.407,2.06C49.869,23.866,49.434,24.03,44.924,23.615Zm-13.647-2.7a145.86,145.86,0,0,1-22.758-8.3S13.671,3.253,16.992.4c.032,6.353,4.517,14.265,4.517,14.265s6.525-2.568,7.254-7.126C32.045,13.691,31.278,20.913,31.278,20.913ZM7.087,11.977C5.612,11.268-1.144,1.963.222,1.332c-.18.654,3.1,5.579,3.1,5.579Z" transform="matrix(0.777, 0.629, -0.629, 0.777, 312.467, 72.451)" fill="#fff"/>
        <path id="Path_29_-_Outline" data-name="Path 29 - Outline" d="M48.649,24.353c-.8,0-1.967-.074-3.771-.24-.458-.042-.945-.1-1.446-.158a85.093,85.093,0,0,1-9.672-1.88L32.7,21.812l.891-.63c.053-.037,5.333-3.818,7.79-9.072l.412-.882.477.849A40.764,40.764,0,0,1,45.5,21.587a20.315,20.315,0,0,0,2.368-1.7,22.971,22.971,0,0,0,5.394-6.5l.58-1.052.338,1.153c1.769,6.042,1.537,7.855,1.526,7.929l-.062.428h-.324c-.59.271-3.48,1.609-4.139,1.929l0,0-.153.076A4.391,4.391,0,0,1,48.649,24.353ZM44.8,23.1l.169.016c1.772.163,2.906.236,3.679.236a3.432,3.432,0,0,0,1.936-.4h0c.125-.07.333-.168.7-.342s.879-.412,1.516-.708l1.512-.7.408-.188a26.663,26.663,0,0,0-1.182-6.129,24.114,24.114,0,0,1-5.059,5.786,18.455,18.455,0,0,1-3.1,2.133Zm-9.788-1.75a81,81,0,0,0,8.543,1.612c.429.053.846.1,1.243.138l-.13-.641a47.749,47.749,0,0,0-2.827-9.038,25.684,25.684,0,0,1-4.587,5.932C36.367,20.222,35.573,20.9,35.013,21.351Zm-3.3.2-.566-.154a145.693,145.693,0,0,1-22.837-8.33l-.485-.226.258-.469C8.294,11.986,13.316,2.9,16.666.025l.82-.7L17.492.4c.027,5.359,3.352,11.962,4.237,13.626,1.4-.637,5.966-2.977,6.54-6.564L28.5,6l.7,1.311a24.268,24.268,0,0,1,2.545,9.184,25.744,25.744,0,0,1,.026,4.475ZM9.22,12.385a144.9,144.9,0,0,0,21.6,7.885,27.477,27.477,0,0,0-.072-3.718,24.2,24.2,0,0,0-1.865-7.617,10.178,10.178,0,0,1-3.736,4.29,18.335,18.335,0,0,1-3.458,1.91l-.4.159-.214-.378A44.956,44.956,0,0,1,18.8,10.107a29.413,29.413,0,0,1-2.26-8.573C13.8,4.437,10.21,10.635,9.22,12.385Zm-2.349.042c-.954-.458-3.1-3.26-4.224-4.844C1.709,6.259-.47,3.032-.459,1.7A.845.845,0,0,1,.012.878L.99.426l-.272.987a12.455,12.455,0,0,0,1.5,2.847c.713,1.167,1.426,2.245,1.5,2.364l3.762,5.055Z" transform="matrix(0.777, 0.629, -0.629, 0.777, 312.467, 72.451)" fill="#707070"/>
        <path id="Path_40" data-name="Path 40" d="M295.927,249.338c-.5-.118-.613.311-.826.711a5.59,5.59,0,0,0-.011,1.811c.051.371.242,1.688.715,1.678.347-.007.639-.658.764-.969.258-.637.722-1.642.352-2.316A1.775,1.775,0,0,0,295.927,249.338Z" transform="translate(5.001 -195.469)" fill="#fff"/>
        <path id="Path_39" data-name="Path 39" d="M291.668,247.423a9.3,9.3,0,0,0-1.294.013c-2.484,2.634-.386,7.42,1.911,9.434a7.689,7.689,0,0,1-1.327-2.773C290.618,252.5,290.314,248.725,291.668,247.423Z" transform="translate(5.976 -195.469)" fill="#5e787c"/>
        <path id="Path_38" data-name="Path 38" d="M303.82,251.957c-1.968-.875-3.919-1.893-6.022-2.914a16.143,16.143,0,0,0-4.734-1.533,8.372,8.372,0,0,0-.476,6.819,6.524,6.524,0,0,0,2.725,3.379,8.031,8.031,0,0,0,1.176.508,8.736,8.736,0,0,0,6.172-2.12C304.45,254.459,305.059,253.05,303.82,251.957Zm-7.764,2.2c-.945.931-1.813-.278-2.071-1.348-.234-.966-.489-3.678,1.008-4.153a1.4,1.4,0,0,1,1.475.726A3.962,3.962,0,0,1,296.055,254.156Z" transform="translate(5.498 -195.469)" fill="#162435"/>
        <path id="Path_34" data-name="Path 34" d="M179.292,327.889a53.089,53.089,0,0,0,4.436-6.966c2.742-5.54,2.363-11.112.343-16.763a36.724,36.724,0,0,1-.383,11.991A42.4,42.4,0,0,1,179.292,327.889Z" transform="translate(71.475 -237.063)" fill="#6c858d"/>
        <path id="Path_35" data-name="Path 35" d="M170.351,322.536c2.05-2.392,4.356-4.526,5.937-7.636,2.611-5.135,1.778-9.459.464-13.878a24.963,24.963,0,0,1-.506,9.055A48.818,48.818,0,0,1,170.351,322.536Z" transform="translate(87.427 -228.571)" fill="#6c858d"/>
        <path id="Path_36" data-name="Path 36" d="M194.964,304.944c-.311,7.642-2.689,15.439-5.476,22.505a73.6,73.6,0,0,0,4.4-9.419A26.359,26.359,0,0,0,194.964,304.944Z" transform="translate(54.199 -237.407)" fill="#6c858d"/>
      </g>
    </g>
  </g>
</svg>
